<?xml version="1.0" encoding="utf-8"?>
<svg version="1.1" xmlns="http://www.w3.org/2000/svg" xmlns:xlink="http://www.w3.org/1999/xlink" x="0px" y="0px" viewBox="0 0 118.7 118.7" style="enable-background:new 0 0 118.7 118.7;">
<g>
	<g>
		<g>
			<path d="M62.7,45.2L48.5,13.8L34.4,45.2L2.9,59.4l31.4,14.2L48.5,105l14.2-31.4l31.4-14.2L62.7,45.2z M57.5,61.9l-4.4,2l-2,4.4
				L48.5,74L46,68.3l-2-4.4l-4.4-2l-5.7-2.6l5.7-2.6l4.4-2l2-4.4l2.6-5.7l2.6,5.7l2,4.4l4.4,2l5.7,2.6L57.5,61.9z"/>
		</g>
		<g>
			<polygon points="94.1,43.5 100.9,28.5 115.8,21.7 100.9,15 94.1,0 87.4,15 72.4,21.7 87.4,28.5 			"/>
		</g>
		<g>
			<polygon points="94.1,75.3 87.4,90.3 72.4,97 87.4,103.8 94.1,118.7 100.9,103.8 115.8,97 100.9,90.3 			"/>
		</g>
	</g>
</g>
</svg>
