<?xml version="1.0" encoding="utf-8"?>
<svg version="1.1" xmlns="http://www.w3.org/2000/svg" xmlns:xlink="http://www.w3.org/1999/xlink" x="0px" y="0px" viewBox="0 0 118.7 118.7" style="enable-background:new 0 0 118.7 118.7;">
	<path d="M37.8,54.6h43.1c-0.5-13.4-3-25.8-7.2-35.4C69.6,9.9,64.3,4.6,59.4,4.6S49.2,9.9,45,19.2C40.8,28.7,38.3,41.1,37.8,54.6z"/>
	<path d="M80.9,64.2H37.8c0.5,13.4,3,25.8,7.2,35.4c4.1,9.3,9.3,14.6,14.3,14.6s10.2-5.3,14.3-14.6C77.9,90,80.4,77.6,80.9,64.2z"/>
	<path d="M90.5,54.6h28.2C116.7,28.7,98,7.4,73.4,1.5c3.4,3.4,6.4,8,9,13.8C87.2,26,90,39.8,90.5,54.6z"/>
	<path d="M36.3,15.3c2.6-5.8,5.6-10.5,9-13.8C20.7,7.4,2.1,28.7,0,54.6h28.2C28.7,39.8,31.5,26,36.3,15.3z"/>
	<path d="M28.2,64.2H0c2.1,25.9,20.7,47.1,45.3,53.1c-3.4-3.4-6.4-8-9-13.8C31.5,92.7,28.7,78.9,28.2,64.2z"/>
	<path d="M82.4,103.4c-2.6,5.8-5.6,10.5-9,13.8c24.6-6,43.2-27.2,45.3-53.1H90.5C90,78.9,87.2,92.7,82.4,103.4z"/>
</svg>
