<?xml version="1.0" encoding="utf-8"?>
<svg version="1.1" xmlns="http://www.w3.org/2000/svg" xmlns:xlink="http://www.w3.org/1999/xlink" x="0px" y="0px" viewBox="0 0 118.7 118.7" style="enable-background:new 0 0 118.7 118.7;">
	<path d="M99,24.9C94.6,20.4,88.7,18,82.4,18s-12.2,2.5-16.7,6.9c-0.5,0.5-1.3,0.8-2,0.8h-8.6c-0.8,0-1.5-0.3-2-0.8	C48.6,20.4,42.7,18,36.4,18s-12.2,2.5-16.7,6.9c-15,15-22,36.4-19,57.3l0.7,4.6c1,6.9,6.4,12.5,13.3,13.7c5.5,1,11.1-0.9,15-5	l12.7-13.8c0.2-0.2,0.5-0.4,0.8-0.4h32.6c0.3,0,0.6,0.1,0.8,0.4l12.7,13.8c3.1,3.4,7.5,5.3,12,5.3c1,0,2-0.1,3-0.3	c6.9-1.3,12.2-6.8,13.3-13.7l0.7-4.6C121.1,61.3,114,39.8,99,24.9z M106.1,80.5l-0.7,4.6c-0.3,1.8-1.7,3.3-3.5,3.6	c-1.5,0.3-3-0.2-4-1.3L85.3,73.6c-2.5-2.7-6-4.2-9.7-4.2H43.1c-3.7,0-7.2,1.5-9.7,4.2L20.7,87.3c-1,1.1-2.5,1.6-4,1.3	c-1.8-0.3-3.2-1.8-3.5-3.6l-0.7-4.6c-2.5-17.2,3.3-34.8,15.6-47.1c4.5-4.5,11.9-4.5,16.4,0c2.8,2.8,6.6,4.4,10.5,4.4h8.6	c4,0,7.7-1.5,10.5-4.4c4.5-4.5,11.9-4.5,16.4,0C102.8,45.7,108.6,63.3,106.1,80.5z"/>
	<path d="M42.5,47.6v-6.2c-1.2-0.5-2.5-0.7-3.8-0.7S36,41,34.8,41.4v6.2h-6.2c-0.5,1.2-0.7,2.5-0.7,3.8s0.3,2.7,0.7,3.8h6.2v6.2	c1.2,0.5,2.5,0.7,3.8,0.7s2.7-0.3,3.8-0.7v-6.2h6.2c0.5-1.2,0.7-2.5,0.7-3.8s-0.3-2.7-0.7-3.8H42.5z"/>
	<path d="M84.4,45.2c2-2,2-5.3,0-7.3c-2-2-5.3-2-7.3,0c-2,2-2,5.3,0,7.3C79.2,47.2,82.4,47.2,84.4,45.2z"/>
	<path d="M74.5,47.9c-2-2-5.3-2-7.3,0c-2,2-2,5.3,0,7.3c2,2,5.3,2,7.3,0C76.5,53.2,76.5,49.9,74.5,47.9z"/>
	<circle cx="90.6" cy="51.4" r="5.1"/>
	<path d="M77,57.7c-2,2-2,5.3,0,7.3c2,2,5.3,2,7.3,0c2-2,2-5.3,0-7.3C82.3,55.7,79,55.7,77,57.7z"/>
</svg>
