<?xml version="1.0" encoding="utf-8"?>
<svg version="1.1"xmlns="http://www.w3.org/2000/svg" xmlns:xlink="http://www.w3.org/1999/xlink" x="0px" y="0px" viewBox="0 0 118.7 118.7" style="enable-background:new 0 0 118.7 118.7;">
 <path d="M108.9,50.1c-6.3-6.3-16.6-6.3-22.9,0l-7.5,7.5c-1.4-0.4-2.8-0.7-4.2-0.7l-31.4-0.2h-0.3c-1.9,0-3.7,0.4-5.5,1.1	c-1.7,0.7-3.3,1.8-4.6,3.1l-28,28l8.3,8.3l28-28c0.2-0.2,0.5-0.4,0.8-0.6c0.3-0.1,0.6-0.2,0.9-0.2l31.7,0.2c0.3,0,0.6,0.1,0.8,0.1	l0.1,0.1c0.1,0,0.2,0.1,0.3,0.1l0.3,0.2c0.4,0.3,1,0.9,1,1.8c0.1,1.2-0.7,2.3-2,2.6l-17.3,3.7l2.5,11.5l17.3-3.7	c6.8-1.5,11.6-7.6,11.2-14.6c-0.1-1.7-0.5-3.4-1.2-4.9l7.1-7.1c1.7-1.7,4.6-1.7,6.3,0c0.9,0.9,1,2.3,0.2,3.3L75.6,94.5	c-0.4,0.6-1.1,0.9-1.8,1l-33.2,2.8c-1.5,0.1-3,0.8-4.1,1.9l-10.3,10.3l8.3,8.3l9-9l31.4-2.6c4-0.3,7.7-2.3,10.1-5.5l25.3-32.8	C114.5,63.2,113.9,55.2,108.9,50.1z"/>
 <path d="M62.7,51c14.1,0,25.5-11.4,25.5-25.5S76.7,0,62.7,0S37.2,11.4,37.2,25.5C37.2,39.6,48.6,51,62.7,51z M62.7,11.7	c7.6,0,13.7,6.2,13.7,13.7s-6.2,13.7-13.7,13.7S48.9,33,48.9,25.5S55.1,11.7,62.7,11.7z"/>
</svg>
