<?xml version="1.0" encoding="UTF-8"?><svg id="Layer_1" xmlns="http://www.w3.org/2000/svg" viewBox="0 0 512 512"><defs><style>.cls-1{opacity:.6;}.cls-2{fill:#000072;}.cls-2,.cls-3,.cls-4,.cls-5,.cls-6,.cls-7{stroke-width:0px;}.cls-8{opacity:.2;}.cls-3{fill:#ffc639;}.cls-4{fill:#fda8f3;}.cls-5{fill:#2fdd54;}.cls-9{opacity:.15;}.cls-10{opacity:.45;}.cls-6{fill:#ff395a;}.cls-7{fill:#fff;}.cls-11{opacity:.25;}</style></defs><circle class="cls-4" cx="253.84" cy="261.66" r="186.99"/><path class="cls-5" d="M400.65,205.56c-.07.08-.14.16-.23.23-6.64,6.02-18.45,11.17-38.48,5.37,0,0-17.84-18.61-38.44-32.08,0,0,12.07-3.5,29.25-2.86,13.14.48,29.31,3.38,45.29,12.13,6.35,3.5,7.79,12.2,2.61,17.2Z"/><g class="cls-8"><path class="cls-2" d="M401.24,203.38l-.58,2.18c-.07.08-.14.16-.23.23-6.64,6.02-18.45,11.17-38.48,5.37,0,0-11.59-12.1-26.89-23.83,5.18-.82,12.62-1.58,21.41-1.24.43.02.87.04,1.32.06,1.77,4.27,5.55,9.48,13.37,14.23,17.01,10.34,30.09,3.01,30.09,3.01Z"/></g><g class="cls-1"><path class="cls-7" d="M398.04,188.36c-15.98-8.75-32.15-11.65-45.29-12.13-17.18-.64-29.25,2.86-29.25,2.86,1.77,1.16,3.5,2.36,5.22,3.57,4.52-.48,9.98-.78,16.12-.55,13.14.48,29.31,3.38,45.29,12.13,5.9,3.25,7.55,10.99,3.6,16.08,2.65-1.31,4.87-2.88,6.69-4.53.09-.07.16-.15.23-.23,5.18-5,3.74-13.7-2.61-17.2Z"/></g><path class="cls-2" d="M378.21,218.97c-5.15,0-11.04-.8-17.74-2.74-.89-.26-1.7-.75-2.34-1.42-.18-.18-17.69-18.35-37.51-31.3-1.73-1.13-2.64-3.16-2.33-5.2.31-2.04,1.77-3.72,3.76-4.29,1.6-.46,39.73-11.13,77.84,9.34,4.91,2.64,8.17,7.54,8.72,13.11.54,5.49-1.65,10.84-5.87,14.32-5.02,4.14-12.9,8.19-24.51,8.19ZM364.73,206.45c13.33,3.6,23.84,2.31,31.28-3.82,1.52-1.25,2.28-3.12,2.08-5.13-.21-2.09-1.37-3.86-3.21-4.84-22.18-11.91-44.7-12.03-57.98-10.58,13.62,10.28,24.51,21.01,27.83,24.37Z"/><path class="cls-5" d="M232.57,154.71c-24.57,1.36-49.33,8.56-49.33,8.56-5.99-1.48-10.87-3.42-14.87-5.64-.06-.04-.12-.08-.17-.09-2.11-1.2-3.98-2.48-5.61-3.84-.2-.15-.34-.26-.36-.29h-.02c-5.34-4.48-8.17-9.51-9.61-14.03-2.25-7.02,3.4-14.06,10.78-13.91,6.55.15,12.72.95,18.48,2.23,31.34,6.87,50.71,27,50.71,27Z"/><g class="cls-8"><path class="cls-2" d="M219.73,155.89c-19.67,2.48-36.49,7.38-36.49,7.38-5.99-1.48-10.87-3.42-14.87-5.64-.06-.04-.12-.08-.17-.09-2.98-1.87-4.84-3.24-5.61-3.84-.2-.15-.34-.26-.36-.29,1.2.25,35.15,6.6,26.46-14.49,13.81,4.87,24.45,11.88,31.04,16.97Z"/></g><g class="cls-1"><path class="cls-7" d="M160.44,148.51c-2.25-7.02,3.4-14.06,10.78-13.91,6.55.15,12.72.95,18.48,2.23,17.49,3.83,31.24,11.79,39.99,18.08.96-.07,1.92-.15,2.88-.2,0,0-19.37-20.14-50.71-27-5.76-1.28-11.94-2.08-18.48-2.23-7.37-.15-13.03,6.89-10.78,13.91,1.44,4.52,4.27,9.55,9.61,14.02h.02s.16.15.36.3c.05.04.11.08.16.12-1.01-1.81-1.76-3.6-2.31-5.32Z"/></g><path class="cls-2" d="M183.24,168.55c-.42,0-.85-.05-1.26-.15-22.04-5.43-30.59-17.05-33.87-25.85-1.91-5.12-1.14-10.85,2.07-15.33,3.26-4.55,8.57-7.2,14.11-7,43.24,1.33,70.92,29.63,72.08,30.83,1.43,1.49,1.86,3.67,1.11,5.6-.76,1.92-2.56,3.23-4.63,3.34-23.63,1.3-47.89,8.28-48.13,8.35-.48.14-.98.21-1.47.21ZM163.76,130.78c-2,0-3.81.94-5,2.59-1.17,1.64-1.45,3.63-.76,5.48,3.38,9.03,11.84,15.4,25.18,18.95,4.56-1.25,19.33-5.1,36.25-7.19-10.82-7.89-30.42-19.06-55.47-19.83-.06,0-.13,0-.2,0Z"/><path class="cls-5" d="M320.26,179.59s-17.82-12.5-32.93-17.26c-1.19-.37-2.34-.7-3.49-.96,0,0,16.36-49.62,70.04-57.58,7-1.02,13.22,2.98,15.67,8.91,1.04,2.47,1.4,5.29.87,8.18-3.83,21.26-15.36,54.24-50.17,58.7Z"/><g class="cls-8"><path class="cls-2" d="M354.72,139.58c-7.33,15.37-20.02,29.47-41.92,32.27,0,0-11.6-8.14-24.01-13.8,4.27-11.76,9.96-22.49,9.96-22.49,0,0-.38,19.49,22.75,17.76,11.09-.82,23.4-4.16,33.22-13.75Z"/></g><g class="cls-1"><path class="cls-7" d="M287.66,162.45c8.29-15.14,27.56-40.78,64.87-46.31,7-1.02,13.22,2.98,15.67,8.91.36.84.6,1.74.79,2.66.57-2.37,1.04-4.66,1.43-6.82.53-2.9.17-5.71-.87-8.18-2.45-5.93-8.67-9.93-15.67-8.91-53.68,7.95-70.04,57.58-70.04,57.58,1.15.26,2.3.59,3.49.96.11.04.23.08.34.12Z"/></g><path class="cls-2" d="M320.26,184.88c-1.08,0-2.14-.33-3.03-.96-.2-.14-20.08-14.01-34.58-17.39-1.44-.34-2.68-1.26-3.41-2.56-.73-1.29-.87-2.83-.41-4.24.71-2.15,18.03-52.82,74.29-61.15,6.43-.95,12.7,1.17,17.21,5.83,4.52,4.66,6.45,11.01,5.3,17.41-3.85,21.41-16.07,58.07-54.69,63.02-.22.03-.45.04-.67.04ZM290.91,157.98c12.53,4.38,25.88,12.93,30.62,16.1,28.87-4.81,39.7-31.94,43.69-54.12.54-3.02-.36-6-2.48-8.19-2.11-2.18-5.06-3.19-8.07-2.73-40.35,5.97-58.15,36.62-63.75,48.94Z"/><path class="cls-5" d="M275.77,159.21c-15.45-4.67-40.64-2.43-40.64-2.43-10.46-7.96-16.07-17.75-18.64-27.94-4.3-17.05-.03-35.25,4.54-47.98,3.41-9.44,15.01-12.75,22.85-6.54,6.83,5.43,12.29,11.29,16.65,17.34,22.74,31.52,15.25,67.55,15.25,67.55Z"/><g class="cls-8"><path class="cls-2" d="M267.68,157.46c-14.83-2.25-32.56-.68-32.56-.68-10.46-7.96-16.07-17.75-18.64-27.94,0,0,39.86,21.06,44.3-18.37,8.47,19.72,7.8,38.57,6.9,46.99Z"/></g><g class="cls-1"><path class="cls-7" d="M224.62,142.86c-4.3-17.05-.03-35.25,4.54-47.98,3.41-9.44,15.01-12.75,22.85-6.54,6.83,5.43,12.29,11.29,16.65,17.34.02.03.04.06.06.09-2.16-4.71-4.84-9.46-8.19-14.11-4.36-6.05-9.81-11.91-16.65-17.34-7.84-6.21-19.45-2.9-22.85,6.54-4.58,12.73-8.85,30.93-4.54,47.98,1.73,6.85,4.88,13.5,9.9,19.56-.68-1.83-1.3-3.67-1.77-5.54Z"/></g><path class="cls-2" d="M275.76,164.5c-.51,0-1.03-.07-1.53-.23-14.26-4.32-38.4-2.25-38.65-2.23-1.32.11-2.62-.26-3.67-1.06-30.96-23.6-23.22-61.46-15.85-81.92,2.21-6.12,7.05-10.65,13.29-12.43,6.23-1.77,12.73-.48,17.81,3.56,44.55,35.34,34.22,87.89,33.76,90.11-.3,1.45-1.2,2.71-2.48,3.47-.82.49-1.76.74-2.7.74ZM249.06,150.96c6.79,0,14.97.38,22.28,1.77,1.31-13.47,1.22-48.91-30.74-74.26-2.39-1.9-5.43-2.5-8.35-1.67-2.93.83-5.21,2.97-6.25,5.85-7.64,21.2-11.82,50.12,10.77,68.72,2.5-.17,6.96-.4,12.29-.4Z"/><path class="cls-5" d="M304.32,68.77c.44.12.86.25,1.27.41,6.63,2.47,9.34,10.45,6.18,16.78h0c-2.4,4.81-4.37,9.83-5.91,14.98l-19.21,64.46-8.98,2.79-6.38-6.91,15.6-65.43c1.25-5.23,2.04-10.56,2.37-15.93h0c.44-7.06,6.77-12.61,13.75-11.44.43.07.86.17,1.3.28Z"/><g class="cls-8"><path class="cls-2" d="M283.2,111.4s.6,15.4,5.25,16.64c4.65,1.25,12.03-8.98,12.03-8.98l-12.08,45.07-12.64-4.91s.36-31.75,7.44-47.82Z"/></g><g class="cls-1"><path class="cls-7" d="M288.59,86.67c2.59-2.93,6.48-4.6,10.6-3.91.43.07.86.17,1.3.28.44.12.86.25,1.27.41,3.92,1.46,6.45,4.85,7.23,8.69.86-2.09,1.77-4.16,2.78-6.18,3.15-6.33.44-14.31-6.18-16.78-.41-.15-.83-.29-1.27-.41-.44-.12-.87-.21-1.3-.28-6.97-1.17-13.31,4.38-13.75,11.44-.14,2.26-.38,4.51-.68,6.74Z"/></g><path class="cls-2" d="M277.68,173.47c-1.45,0-2.86-.6-3.88-1.7l-6.38-6.91c-1.19-1.29-1.67-3.1-1.26-4.81l15.6-65.43c1.17-4.92,1.93-9.98,2.24-15.03.31-5.04,2.76-9.72,6.71-12.86,3.81-3.02,8.49-4.26,13.19-3.47.59.1,1.19.23,1.8.39.6.16,1.19.35,1.75.56,4.46,1.67,7.9,5.07,9.69,9.59,1.85,4.69,1.62,9.97-.62,14.49-2.25,4.52-4.13,9.28-5.57,14.13l-19.21,64.46c-.5,1.69-1.81,3.01-3.49,3.54l-8.98,2.79c-.52.16-1.04.24-1.57.24ZM286.66,165.4h.04-.04ZM277.1,159.77l2.21,2.39,3.1-.96,18.4-61.76c1.62-5.43,3.72-10.76,6.24-15.83.92-1.84,1.01-3.99.26-5.9-.67-1.7-1.93-2.97-3.56-3.58-.26-.09-.52-.18-.79-.25-.27-.07-.54-.13-.81-.18-1.72-.29-3.44.18-4.87,1.32-1.61,1.28-2.61,3.19-2.73,5.24-.35,5.65-1.19,11.31-2.51,16.82l-14.94,62.69Z"/><path class="cls-6" d="M204.57,441.07c-34.22-9.17-126.21-163.77-74.91-236.66,51.3-72.89,150.14-44.09,150.14-44.09,0,0,100,24.48,107.98,113.26,7.98,88.77-148.99,176.67-183.21,167.5Z"/><path class="cls-3" d="M264.46,261.01c-1.19,1.22-3.3.66-3.7-1-.36-1.49-.49-3.35.02-5.27,1.32-4.91,3.05-7.11,5.15-6.55,1.73.46,3.02,1.41,1.19,8.25-.51,1.9-1.58,3.46-2.66,4.57Z"/><path class="cls-3" d="M275.57,351.68c-1.19,1.22-3.3.66-3.7-1-.36-1.49-.49-3.35.02-5.26,1.32-4.91,3.05-7.11,5.15-6.55,1.73.46,3.02,1.41,1.19,8.25-.51,1.9-1.58,3.46-2.66,4.57Z"/><path class="cls-3" d="M181.84,368.92,184.38,366.6c-1.01,1.38-3.17,1.12-3.81-.47-.57-1.42-.96-3.25-.72-5.21.4-3.33,1.14-5.05,1.69-5.91.83-1.3,1.69-1.39,2.48-1.29.23.03.44.07.64.12,1.24.33,2.5,1.24,1.7,7.88-.24,1.95-1.07,3.64-1.99,4.9Z"/><path class="cls-3" d="M239.1,192.93c-1.19,1.22-3.3.66-3.7-1-.36-1.49-.49-3.35.02-5.26,1.31-4.91,3.05-7.11,5.15-6.55,1.73.46,3.02,1.41,1.19,8.24-.51,1.9-1.58,3.46-2.66,4.57Z"/><path class="cls-3" d="M187.87,261.11c-.53-.97-1.17-3.06-.57-5.32.63-2.33,1.7-5.03,3.25-4.61.84.22,1.88.5.51,5.62-.6,2.22-2.23,3.72-3.19,4.31Z"/><path class="cls-3" d="M208.86,315.26c-.53-.97-1.17-3.06-.57-5.31.63-2.33,1.7-5.03,3.25-4.61.84.22,1.88.5.51,5.62-.6,2.22-2.23,3.72-3.19,4.31Z"/><path class="cls-3" d="M140.49,284.5c-.71-.84-1.76-2.76-1.62-5.09.15-2.41.66-5.27,2.26-5.17.19.01.37.04.53.08.42.11,1.39.37,1.09,5.33-.14,2.3-1.44,4.09-2.26,4.86Z"/><path class="cls-3" d="M308.58,293.45c-.53-.97-1.17-3.06-.57-5.32.63-2.33,1.7-5.03,3.25-4.61.84.22,1.88.5.51,5.62-.6,2.22-2.23,3.72-3.19,4.31Z"/><path class="cls-3" d="M331.68,346.32,332.28,346.12c-.43-1.02-.85-3.16-.02-5.34.55-1.43,1.99-4.73,3.51-4.32,1.01.38,2.02.76.13,5.71-.82,2.15-2.6,3.47-3.62,3.95Z"/><path class="cls-3" d="M236.66,406.88,237.26,406.68c-.43-1.02-.85-3.17-.02-5.34.55-1.43,1.99-4.73,3.51-4.32,1.03.38,1.18.71,1.21,1.33.06,1.23-.59,3.09-1.08,4.38-.82,2.15-2.6,3.47-3.62,3.95Z"/><path class="cls-3" d="M347.89,255.96c-.53-.97-1.17-3.06-.57-5.31.63-2.33,1.7-5.03,3.25-4.61.84.22,1.88.5.51,5.62-.6,2.22-2.23,3.72-3.19,4.31Z"/><path class="cls-3" d="M173.06,206.65c-.53-.97-1.17-3.06-.57-5.31.63-2.33,1.7-5.03,3.25-4.61.84.22,1.88.5.51,5.62-.6,2.22-2.23,3.72-3.19,4.31Z"/><path class="cls-3" d="M302.93,209.92c-.53-.97-1.17-3.06-.57-5.31.63-2.33,1.7-5.03,3.25-4.61.84.22,1.88.5.51,5.62-.6,2.22-2.23,3.72-3.19,4.31Z"/><g class="cls-9"><path class="cls-2" d="M196.91,437.29c-12.41-8.38-28.84-28.63-43.78-54.49,4.99,4.52,9.52,7.48,13.28,8.49,30.93,8.29,172.75-71.13,165.53-151.33-3.1-34.52-21.57-58.28-41.65-74.14,30.23,13.91,76.04,44.51,81.33,103.41,7.45,82.79-128.58,164.83-174.7,168.05Z"/></g><g class="cls-10"><path class="cls-7" d="M135.48,218.82c51.3-72.89,150.14-44.09,150.14-44.09,0,0,69.23,16.96,97.08,73.79-22.17-68.42-102.9-88.21-102.9-88.21,0,0-98.85-28.8-150.14,44.09-25.91,36.81-15.26,94.47,6.03,143.7-17.18-45.72-23.62-96.02-.21-129.29Z"/></g><g class="cls-11"><path class="cls-7" d="M246.57,187.31c-46.32-7.58-79.36,17.95-94.72,42.01-4.92,7.58,4.71,17.77,11.1,12.49,26.01-21.54,60.17-33.7,85.46-37.86,8.03-1.36,6.91-15.1-1.85-16.63Z"/></g><path class="cls-2" d="M210.39,447c-2.68,0-5.09-.27-7.19-.83h0c-22.54-6.04-59.7-59.28-79.52-113.93-19.84-54.7-19.25-101.18,1.65-130.87,52.86-75.11,154.92-46.43,155.94-46.13.82.19,103.54,26.38,111.76,117.86,3.25,36.17-19.48,76.71-64.01,114.17-40.35,33.94-92.47,59.74-118.64,59.74ZM234.96,160.14c-31.71,0-73.7,8.54-100.98,47.31-25.44,36.15-11.14,91.45-.36,121.19,19.57,53.96,55.56,102.84,72.32,107.33h0c16.74,4.49,72.36-19.84,116.3-56.79,24.21-20.36,64.24-61.11,60.28-105.13-7.54-83.89-103.01-108.36-103.98-108.6-.51-.15-18.95-5.3-43.58-5.3Z"/></svg>