<?xml version="1.0" encoding="UTF-8"?><svg id="Layer_1" xmlns="http://www.w3.org/2000/svg" viewBox="0 0 512 512"><defs><style>.cls-1{opacity:.6;}.cls-2{fill:#000072;}.cls-2,.cls-3,.cls-4,.cls-5,.cls-6,.cls-7{stroke-width:0px;}.cls-8{opacity:.35;}.cls-9{opacity:.15;}.cls-3{fill:#52d2ff;}.cls-4{fill:#fffda4;}.cls-5{fill:#ff395a;}.cls-6{fill:#27aa46;}.cls-7{fill:#fff;}</style></defs><circle class="cls-3" cx="261.25" cy="270.42" r="186.99"/><path class="cls-6" d="M420.3,227.3c0,124.48-100.91,225.39-225.39,225.39-52.19,0-100.25-17.75-138.45-47.52v-.02l11.43-15,14.23-18.66L303.83,80.17l14.2-18.66,11.43-15.03c55.13,41.09,90.84,106.78,90.84,180.83Z"/><path class="cls-4" d="M401.52,227.3c0,113.94-92.69,206.6-206.6,206.6-47.87,0-91.96-16.34-127.02-43.76l14.23-18.66L303.83,80.17l14.2-18.66c50.64,37.68,83.49,97.97,83.49,165.8Z"/><path class="cls-5" d="M378.04,227.3c0,100.98-82.15,183.13-183.13,183.13-42.52,0-81.68-14.56-112.79-38.95L303.83,80.17c45.01,33.41,74.21,86.91,74.21,147.14Z"/><g class="cls-9"><path class="cls-2" d="M420.09,218.03c-5,120.04-103.91,215.81-225.18,215.81-48.11,0-92.69-15.07-129.27-40.73l2.25-2.96,14.23-18.66,9.37-12.33c30.4,16.95,65.41,26.65,102.69,26.65,116.61,0,211.14-94.52,211.14-211.14,0-12.18-1.06-24.14-3.03-35.76,10.42,24.46,16.69,51.13,17.8,79.12Z"/></g><path class="cls-2" d="M148.61,353.52c-.79-1.05-2.37-1.13-3.22-.14-1.63,1.89-3.89,5.18-4.15,9.14-.32,4.82,3.3,6.74,5.01,7.37.54.2,1.14.16,1.65-.11,2.34-1.26,8.54-5.85.72-16.25Z"/><path class="cls-2" d="M197.99,358.14c-.94-.91-2.52-.75-3.21.37-1.32,2.13-3.03,5.73-2.67,9.67.44,4.81,4.32,6.14,6.1,6.49.57.11,1.15-.02,1.61-.37,2.11-1.61,7.52-7.12-1.84-16.17Z"/><path class="cls-2" d="M243.28,351.45c-1.05-.79-2.59-.43-3.13.77-1.04,2.28-2.28,6.07-1.42,9.93,1.04,4.72,5.06,5.54,6.87,5.67.58.04,1.14-.16,1.55-.57,1.89-1.86,6.56-8.01-3.87-15.8Z"/><path class="cls-2" d="M178.15,301.55c-.59-.59-1.6-.5-2.05.2-.86,1.35-1.99,3.63-1.8,6.16.23,3.08,2.7,3.97,3.83,4.21.36.08.74,0,1.03-.22,1.37-1.01,4.88-4.47-1.01-10.35Z"/><path class="cls-2" d="M209.83,300.03c-.68-.49-1.66-.25-2,.52-.64,1.46-1.4,3.9-.82,6.36.71,3,3.29,3.5,4.45,3.56.37.02.73-.12.99-.38,1.19-1.21,4.12-5.18-2.62-10.07Z"/><path class="cls-2" d="M237.89,291.7c-.74-.4-1.68-.04-1.91.77-.45,1.53-.9,4.04,0,6.42,1.09,2.89,3.7,3.05,4.86,2.97.37-.03.71-.21.93-.5,1.03-1.35,3.43-5.66-3.87-9.65Z"/><path class="cls-2" d="M279.19,332.8c-1.25-.4-2.59.44-2.71,1.75-.24,2.49-.18,6.48,1.9,9.85,2.52,4.12,6.59,3.59,8.35,3.12.56-.15,1.02-.53,1.28-1.04,1.18-2.38,3.59-9.71-8.81-13.68Z"/><path class="cls-2" d="M305.87,305.52c-1.31-.03-2.36,1.16-2.1,2.45.48,2.45,1.67,6.26,4.62,8.91,3.59,3.23,7.34,1.57,8.89.62.49-.3.83-.8.93-1.37.45-2.62.68-10.33-12.33-10.61Z"/><path class="cls-2" d="M322.79,273.46c-1.31.06-2.27,1.32-1.93,2.59.65,2.42,2.1,6.13,5.22,8.57,3.81,2.97,7.43,1.05,8.91,0,.47-.34.77-.85.83-1.43.27-2.64-.04-10.35-13.04-9.73Z"/><path class="cls-2" d="M332.21,234.28c-1.24.44-1.79,1.92-1.1,3.03,1.32,2.13,3.78,5.26,7.47,6.7,4.5,1.75,7.42-1.13,8.53-2.57.35-.46.5-1.04.39-1.61-.5-2.61-3.02-9.9-15.29-5.56Z"/><path class="cls-2" d="M327.22,190.26c-.98.88-.92,2.46.14,3.22,2.03,1.46,5.51,3.42,9.47,3.33,4.83-.11,6.42-3.89,6.9-5.64.15-.56.06-1.15-.26-1.63-1.46-2.22-6.58-7.99-16.25.71Z"/><path class="cls-2" d="M307.09,146.44c-.76,1.07-.35,2.6.85,3.11,2.3.97,6.13,2.11,9.97,1.15,4.69-1.17,5.4-5.21,5.48-7.02.03-.58-.19-1.13-.61-1.53-1.92-1.84-8.19-6.34-15.69,4.3Z"/><path class="cls-2" d="M270.08,239.71c-.72.29-1.01,1.18-.57,1.82.83,1.22,2.36,3.01,4.58,3.76,2.7.92,4.35-.86,4.97-1.73.2-.28.27-.62.19-.96-.36-1.53-2.03-5.76-9.16-2.89Z"/><path class="cls-2" d="M272.56,212.7c-.69.35-.91,1.26-.42,1.86.93,1.15,2.61,2.8,4.88,3.36,2.77.69,4.26-1.22,4.8-2.14.17-.29.21-.65.11-.97-.49-1.49-2.51-5.57-9.37-2.11Z"/><path class="cls-2" d="M267.88,184.62c-.6.49-.6,1.43,0,1.91,1.16.91,3.16,2.15,5.5,2.2,2.85.06,3.88-2.13,4.21-3.15.1-.33.06-.68-.11-.97-.81-1.34-3.68-4.88-9.6.02Z"/><g class="cls-1"><path class="cls-7" d="M73.66,409.21l14.23-18.66L309.59,99.23l14.2-18.66,11.43-15.03c35.62,26.55,63.11,63.38,78.12,106.09-12.91-50.81-43.07-94.73-83.88-125.15l-11.43,15.03-14.2,18.66L82.13,371.48l-14.23,18.66-11.43,15v.02c4.24,3.3,8.61,6.43,13.08,9.43l4.11-5.39Z"/></g><g class="cls-8"><path class="cls-7" d="M273.4,208.59c-6.7,7.75-18.92-1.92-13.74-10.76,24.37-41.62,59.54-95.07,72.92-84.64,8.89,6.93-6.87,34.93-59.18,95.4Z"/></g><g class="cls-8"><path class="cls-7" d="M246.91,240.41c-5.01,1.74-10.13-2.22-9.81-7.51.31-5.08,2.21-11.93,9.45-15.73,12.49-6.54,14.29,5.99,10.64,14.24-1.9,4.31-6.13,7.56-10.29,9Z"/></g><path class="cls-2" d="M194.91,457.98c-51.87,0-100.87-16.82-141.69-48.63-1.49-1.16-2.25-3.03-1.98-4.91.14-.99.55-1.89,1.17-2.63L325.26,43.28c1.76-2.3,5.04-2.77,7.36-1.04,59.08,44.02,92.96,111.48,92.96,185.06,0,127.19-103.48,230.67-230.67,230.67ZM63.87,404.18c38.1,28.3,83.28,43.23,131.03,43.23,121.37,0,220.1-98.74,220.1-220.1,0-68.47-30.74-131.38-84.55-173.42L63.87,404.18Z"/></svg>