<?xml version="1.0" encoding="UTF-8"?><svg id="Layer_1" xmlns="http://www.w3.org/2000/svg" viewBox="0 0 512 512"><defs><style>.cls-1{fill:#ffa5d5;}.cls-1,.cls-2,.cls-3,.cls-4,.cls-5,.cls-6{stroke-width:0px;}.cls-7{opacity:.6;}.cls-2{fill:#000072;}.cls-3{fill:#2fdd54;}.cls-8{opacity:.15;}.cls-9{opacity:.45;}.cls-4{fill:#ff395a;}.cls-5{fill:#b76e51;}.cls-6{fill:#fff;}</style></defs><circle class="cls-1" cx="242.31" cy="257.35" r="190.97"/><path class="cls-4" d="M279.21,452.51c-15.22,3.61-31.15,2.08-45.57-4-5.97-2.53-12.8-5.72-19.7-9.53-2.86-1.59-6.16-2.17-9.39-1.65-7.78,1.22-15.3,1.88-21.77,2.23-15.63.79-31.12-3.22-44.2-11.81-29.69-19.49-49.29-50.83-59.15-85.26-5.18-18.12-7.68-37.09-7.51-55.62.25-34.69,9.79-67.89,28.22-91.15,51.49-65.05,104.17-47.7,123.3-35.07,14.64,9.67,23.8,14.38,28.27,16.42,2.14.98,4.46,1.39,6.81,1.2,1.33-.12,3.04-.27,5.18-.55,5.74-.75,14.55-2.24,27-5.23,15.7-3.75,47.89-4.02,74.67,23.71,11.23,11.61,21.5,28.13,29.23,51.37,23.9,71.81-28.58,184.44-115.39,204.94Z"/><g class="cls-8"><path class="cls-2" d="M271.54,437.56c-14.1,3.35-28.84,1.94-42.18-3.71-5.52-2.33-11.87-5.28-18.24-8.82-2.66-1.47-5.71-2.01-8.71-1.53-7.19,1.15-14.17,1.76-20.16,2.06-14.47.75-28.8-2.96-40.91-10.93-22.81-14.98-39.19-37.51-49.32-62.98,36.24,24.54,91.25,46.35,159.55,24.27,83.55-27.01,102.82-134.73,106.77-167.45,7.63,9.97,14.52,22.83,20,39.36,22.12,66.47-26.45,170.76-106.82,189.73Z"/></g><g class="cls-9"><path class="cls-6" d="M101.29,308.99c-7.74-48.11,15.75-107.37,61.38-128.92,17.36-8.12,33.78,12.46,22.38,27.53-6.49,8.61-14.34,15.9-21.16,24.17-20.83,23.39-36.97,50.55-52.17,78.45-2.18,4.82-9.48,3.98-10.43-1.23h0Z"/></g><g class="cls-9"><path class="cls-6" d="M263.27,179.3c-6.62,5.73-21.23,2.76-46.21-8.2-5.1-2.24-9.87-3.97-14.23-5.31-19.9-6.08-41.24-3.54-59.33,6.74-55.14,31.33-70.87,111.83-71.57,114.33.25-34.69,9.79-67.89,28.22-91.15,51.49-65.05,104.17-47.7,123.3-35.07,14.64,9.67,23.8,14.38,28.27,16.42,2.14.98,4.46,1.39,6.81,1.2,1.33-.12,3.04-.27,5.18-.55.16.66.04,1.19-.43,1.58Z"/></g><path class="cls-2" d="M262.61,459.89c-10.52,0-21.04-2.14-31.08-6.38-7.16-3.03-13.97-6.32-20.22-9.77h0c-1.79-.99-3.89-1.36-5.91-1.04-7.05,1.11-14.57,1.88-22.35,2.28-17.05.9-33.48-3.51-47.46-12.68-34.49-22.62-58.74-63.21-66.52-111.34-7.85-48.54,2.43-97.83,26.81-128.63,61.87-78.14,123.71-40.74,130.57-36.22,14.55,9.6,23.5,14.16,27.53,16.02,1.29.59,2.66.84,4.09.72,4.43-.37,14.38-1.59,31.35-5.64,7.98-1.92,78.89-15.92,110.34,78.64,12.4,37.28,5.22,87.11-18.74,130.05-23.76,42.58-60.41,72.44-100.55,81.92-5.9,1.39-11.88,2.09-17.86,2.09ZM206.82,431.71c3.39,0,6.77.86,9.76,2.51h0c5.92,3.27,12.37,6.4,19.19,9.27,13.61,5.75,28.2,7.04,42.21,3.73,37.18-8.78,71.28-36.71,93.56-76.63,22.52-40.36,29.38-86.84,17.92-121.32-28.39-85.37-90.5-73.17-97.49-71.5-17.67,4.23-28.25,5.51-32.98,5.91-3.27.27-6.56-.31-9.53-1.68-4.32-1.99-13.83-6.82-28.98-16.82-6-3.96-60.2-36.64-116.05,33.9-22.55,28.48-31.98,74.52-24.6,120.14,7.3,45.13,29.8,83.03,61.75,103.98,12.03,7.89,26.2,11.67,40.94,10.91,7.4-.38,14.53-1.11,21.2-2.16,1.03-.16,2.07-.25,3.12-.25Z"/><path class="cls-3" d="M260.29,148.31c40.33-7.37,46.82,19.66,82.59,10.39,24.81-6.42,30.76-34.83,32.08-51.61.59-7.41.27-12.56.27-12.56-17.28,15.78-27.37,10.89-66.8,11.29-32.13.31-43.87,28.35-47.11,38.71-.74,2.33-1.03,3.77-1.03,3.77Z"/><g class="cls-8"><path class="cls-2" d="M260.29,148.31c40.33-7.37,46.82,19.66,82.59,10.39,24.81-6.42,30.76-34.83,32.08-51.61-.64-1.39-1.03-2.21-1.03-2.21,0,0-10.06,44.98-54.7,33.64-42.84-10.88-46.59-2.26-57.9,6.02-.74,2.33-1.03,3.77-1.03,3.77Z"/></g><g class="cls-7"><path class="cls-6" d="M356.41,113.78c-7.73,1.2-15.86,1.7-23.75,1.32l-8.21-.43c-.99-.08-1.86.68-1.91,1.67-.04.78.43,1.47,1.12,1.74,8.15,3.22,17.22,4.25,25.88,2.71,2.34-.64,11.35-2.1,9.4-5.97-.52-.92-1.56-1.27-2.52-1.04h0Z"/></g><path class="cls-2" d="M257.29,144.57c23.85-17.26,55.09-22.46,83.41-15.65.58.12.49,1.04-.12,1.01-13.95.26-27.66,1.72-41.02,5.35-12.82,3.53-25.93,9.39-36.56,16.97-5.06,3.54-10.58-3.83-5.7-7.68h0Z"/><path class="cls-2" d="M328.58,165.44c-10.92,0-19.13-3.44-27.14-6.81-11.07-4.65-21.53-9.04-40.29-5.62-1.56.29-3.17-.23-4.28-1.36-1.11-1.14-1.59-2.76-1.26-4.32.09-.46,9.99-45.88,52.78-46.31,8.89-.08,16.17.09,22.59.24,21.71.53,29.02.69,41.02-10.27,1.36-1.25,3.31-1.6,5.02-.91,1.71.69,2.87,2.3,2.99,4.14.15,2.4,3.21,58.95-35.92,69.1-5.78,1.5-10.88,2.11-15.5,2.11ZM273.68,142.23c13.45,0,22.89,3.97,31.47,7.57,10.84,4.55,20.21,8.49,36.53,4.26,23.04-5.97,27.79-34.5,28.66-49.68-11.28,7.15-21.85,6.9-39.6,6.47-6.35-.15-13.54-.33-22.27-.24-26.19.26-37.36,20.9-41.46,31.94,2.32-.21,4.54-.31,6.65-.31Z"/><path class="cls-5" d="M255.17,171.6s-6.61-49.57-19.87-83.11c0,0,4.78-9.67,12.36-7.37,2.67.81,4.67,3.03,5.54,5.68,3.5,10.61,14.12,47.37,7.24,84.87l-5.27-.06Z"/><g class="cls-7"><path class="cls-6" d="M242.69,105.18s4.78-9.67,12.36-7.37c.54.16,1.05.4,1.53.67-1.31-5.14-2.54-9.16-3.38-11.68-.88-2.65-2.87-4.87-5.54-5.68-7.58-2.29-12.36,7.37-12.36,7.37,13.26,33.54,19.87,83.11,19.87,83.11l4.74.06c-3.07-17.43-8.8-45.18-17.22-66.48Z"/></g><path class="cls-2" d="M260.44,176.45s-.04,0-.06,0l-5.27-.06c-2.38-.03-4.38-1.8-4.69-4.15-.06-.49-6.69-49.39-19.58-81.98-.5-1.26-.44-2.67.16-3.88,2.44-4.94,8.98-12.58,18.04-9.84,4.04,1.22,7.3,4.5,8.71,8.76,3.53,10.69,14.5,48.59,7.4,87.23-.42,2.28-2.4,3.93-4.71,3.93ZM240.62,88.98c8.44,22.24,14.05,50.12,16.95,66.99,2.13-30.92-6.03-58.91-8.92-67.67-.42-1.29-1.34-2.28-2.38-2.6-2.29-.7-4.44,1.59-5.65,3.28Z"/></svg>