<?xml version="1.0" encoding="UTF-8"?><svg id="Layer_1" xmlns="http://www.w3.org/2000/svg" viewBox="0 0 512 512"><defs><style>.cls-1{fill:#4951d6;}.cls-1,.cls-2,.cls-3,.cls-4{stroke-width:0px;}.cls-2{fill:#000072;}.cls-3{fill:#67e9ff;}.cls-5{opacity:.15;}.cls-6{opacity:.45;}.cls-4{fill:#fff;}</style></defs><circle class="cls-3" cx="261.64" cy="262.83" r="193.08"/><path class="cls-1" d="M278.59,144.05s-3.3-28.7-17.82-27.61c-11.07.84-18.18,25.45-18.18,25.45,0,0-12.65-23.22-24.94-20.74-11.24,2.27-15.89,33.44-15.89,33.44l76.82-10.55Z"/><path class="cls-2" d="M201.77,160.24c-1.5,0-2.94-.6-4.01-1.67-1.25-1.26-1.83-3.04-1.57-4.79,1.23-8.23,6.32-35.31,20.35-38.14,9.99-2.01,18.91,6.4,24.67,13.88,3.78-8.26,10.12-18.01,19.14-18.69,19.36-1.4,23.44,29.09,23.85,32.58.35,3.05-1.8,5.81-4.83,6.23l-76.82,10.55c-.26.04-.51.05-.77.05ZM219.54,126.61c-.26,0-.52.02-.77.07-3.1.63-7.4,10.14-9.99,21.27l28.55-3.92c-4.37-7.74-12.52-17.42-17.79-17.42ZM261.51,122.06c-.11,0-.21,0-.32.01-4.07.31-9.93,10.83-12.9,20.46l23.75-3.26c-1.71-7.59-5.32-17.21-10.52-17.21Z"/><path class="cls-1" d="M278.59,144.05s12.92-25.84,26.19-19.85c10.11,4.57,8.37,30.14,8.37,30.14,0,0,19.83-17.5,30.53-10.96,9.79,5.98,3.49,36.86,3.49,36.86l-68.58-36.19Z"/><path class="cls-2" d="M347.17,185.88c-.9,0-1.81-.22-2.63-.65l-68.59-36.19c-2.71-1.43-3.78-4.76-2.41-7.51,1.57-3.14,15.86-30.45,33.55-22.46,8.24,3.73,10.86,15.05,11.59,24.11,7.97-5.06,19.23-9.91,27.93-4.61,12.21,7.46,7.74,34.64,6.08,42.79-.35,1.74-1.51,3.21-3.11,3.97-.76.36-1.59.54-2.41.54ZM317.37,158.15l25.49,13.45c1.36-11.35.58-21.75-2.11-23.4-4.54-2.77-16.28,3.89-23.37,9.95ZM286.39,141.8l21.2,11.18c.5-10.06-1.41-21.95-5.13-23.63-4.92-2.21-11.78,5.77-16.07,12.45Z"/><circle class="cls-1" cx="251.31" cy="298.78" r="157.09" transform="translate(-137.67 265.21) rotate(-45)"/><g class="cls-5"><path class="cls-2" d="M387.87,330.82c-31.14,80.96-122.04,121.37-203.01,90.24-37.34-14.36-66.02-41.42-83.09-74.36-6.22-19.37-8.73-40-7.01-60.76,16.34,27.17,41.5,49.33,73.42,61.61,76.14,29.28,161.59-8.73,190.85-84.83,8.76-22.78,11.47-46.35,8.98-69.05,9.13,10.14,16.83,21.41,23,33.45,10.42,32.75,10.14,69.14-3.15,103.71Z"/></g><g class="cls-6"><path class="cls-4" d="M203.16,223.48c-22.52,13.24-39.43,33.54-51.26,31.96-12.26-.51-10.01-40.62,29.63-66.04,39.88-25.05,77.13-10,72.37,1.31-3.61,11.38-29.18,18.03-50.74,32.77Z"/></g><g class="cls-6"><path class="cls-4" d="M107.82,256.23c31.14-80.98,122.03-121.38,203-90.24,48.51,18.66,82.44,58.76,95.16,105.33-9.34-52.35-45.04-98.68-98.3-119.16-80.98-31.14-171.86,9.26-203,90.24-12.48,32.46-13.45,66.51-4.93,97.68-4.86-27.25-2.59-56.13,8.06-83.84Z"/></g><path class="cls-2" d="M251.12,461.52c-19.38,0-39.07-3.49-58.22-10.85-83.75-32.21-125.68-126.54-93.47-210.29,32.21-83.75,126.54-125.68,210.29-93.47,40.57,15.6,72.63,46.07,90.29,85.78,17.65,39.72,18.79,83.93,3.19,124.5-24.84,64.6-86.66,104.32-152.06,104.32ZM251.48,147.33c-60.88,0-118.41,36.97-141.53,97.1-29.97,77.94,9.05,165.75,87,195.72,77.95,29.99,165.75-9.05,195.72-87,14.52-37.76,13.47-78.91-2.96-115.88-16.43-36.97-46.28-65.32-84.03-79.84-17.82-6.85-36.15-10.1-54.19-10.1Z"/></svg>