<?xml version="1.0" encoding="UTF-8"?><svg id="Layer_1" xmlns="http://www.w3.org/2000/svg" viewBox="0 0 512 512"><defs><style>.cls-1{opacity:.7;}.cls-2{fill:#7cff8f;}.cls-2,.cls-3,.cls-4,.cls-5,.cls-6,.cls-7{stroke-width:0px;}.cls-3{fill:#000072;}.cls-4{fill:#a7ed4c;}.cls-8{opacity:.15;}.cls-5{fill:#fff;}.cls-6{fill:#60cc21;}.cls-7{fill:#f1ffc0;}</style></defs><circle class="cls-2" cx="252.13" cy="243.44" r="184.16"/><path class="cls-6" d="M275.41,110.47l86.18,2.94c5.4.18,9.38,5.1,8.44,10.42l-.22,1.25c-.78,4.4-4.69,7.53-9.15,7.33l-75.14-3.42c-2.98-.14-5.6,1.96-6.12,4.9l-2.34,13.26c-.57,3.23-3.65,5.39-6.88,4.82l-2.85-.5-2.85-.5c-3.23-.57-5.39-3.65-4.82-6.88l2.34-13.26c.52-2.94-1.23-5.81-4.08-6.7l-71.78-22.48c-4.26-1.33-6.87-5.62-6.09-10.02l.22-1.25c.94-5.32,6.36-8.58,11.5-6.9l81.99,26.72c.53.17,1.08.27,1.64.29Z"/><g class="cls-1"><path class="cls-5" d="M191.36,93.18l81.99,26.72c.53.17,1.08.27,1.64.29l86.18,2.94c3.36.11,6.18,2.07,7.6,4.82.5-.87.87-1.83,1.05-2.87l.22-1.25c.94-5.32-3.05-10.23-8.44-10.42l-86.18-2.94c-.56-.02-1.11-.12-1.64-.29l-81.99-26.72c-5.13-1.67-10.56,1.58-11.5,6.9l-.22,1.25c-.35,1.98.02,3.93.89,5.61,2.03-3.52,6.29-5.37,10.41-4.03Z"/></g><g class="cls-1"><path class="cls-5" d="M261.58,140.54c.24-1.35-.02-2.67-.62-3.8l-1.29,7.34c-.24,1.35.02,2.67.62,3.8l1.29-7.33Z"/></g><path class="cls-3" d="M271.24,157.3c-.65,0-1.31-.06-1.97-.17l-5.7-1c-2.94-.52-5.5-2.15-7.22-4.6-1.71-2.45-2.37-5.42-1.85-8.36l2.34-13.26c.06-.34-.15-.68-.48-.79l-71.78-22.48c-6.75-2.12-10.92-8.96-9.69-15.93l.22-1.25c.71-4.03,3.13-7.55,6.64-9.66,3.51-2.11,7.76-2.59,11.65-1.32l81.99,26.72s.19.03.19.03l86.18,2.94c4.09.14,7.91,2.04,10.49,5.22,2.58,3.18,3.65,7.31,2.94,11.35l-.22,1.24c-1.23,6.97-7.49,11.94-14.55,11.66l-75.14-3.42c-.33-.04-.66.23-.72.58l-2.34,13.26c-.52,2.94-2.15,5.51-4.6,7.22-1.9,1.33-4.12,2.03-6.39,2.03ZM189.02,88.26c-.83,0-1.49.3-1.87.52-.53.32-1.46,1.07-1.71,2.49l-.22,1.25c-.32,1.79.76,3.56,2.5,4.1l71.78,22.48c5.34,1.67,8.64,7.1,7.67,12.61l-2.34,13.26c-.06.32.24.75.57.81l5.69,1c.32.04.75-.25.81-.57l2.34-13.26c.97-5.52,5.97-9.47,11.52-9.23l75.14,3.42c1.8.11,3.43-1.21,3.75-3l.22-1.24c.25-1.43-.36-2.45-.76-2.93-.39-.48-1.26-1.3-2.7-1.35l-86.17-2.94c-1.05-.03-2.09-.21-3.09-.54l-81.99-26.72c-.4-.13-.78-.18-1.13-.18Z"/><circle class="cls-4" cx="240.33" cy="299.54" r="156.97" transform="translate(-141.41 257.67) rotate(-45)"/><path class="cls-7" d="M246.03,146.4c-4.39,4.33-10.72,5.41-16.04,8.16-2.54,1.31-4.92,3.06-6.9,5.13-1.94,2.03-3.22,4.43-4.85,6.68-5.6,7.72-14.7,12.12-21.6,18.49-3.48,3.22-6.43,6.99-8.1,11.47-2.32,6.26-1.24,13-1.78,19.5-.51,6.2-3.89,11.15-6.37,16.68-1.15,2.56-2.07,5.18-2.33,8-.29,3.26.71,6.2,1.83,9.21,1.2,3.22,1.68,6.37,1.1,9.78-.57,3.38-1.79,6.61-3.05,9.78-2.68,6.71-5.32,13.42-7.65,20.26-2.29,6.72-4.51,13.52-6.18,20.42-1.49,6.17-1.76,12.32.25,18.4,3.46,10.47,11.51,18.67,15.05,29.09,2.25,6.63,1.78,13.59,1.34,20.46-.46,7.24-.96,14.49-1.39,21.73-.21,3.48-.1,6.89,1.39,10.11,1.25,2.7,3.3,4.98,5.23,7.21,2.41,2.78,5.01,5.4,7.48,8.12,6.44,7.11,11.75,15.07,14.59,24.31.89,2.89,1.54,5.84,2.02,8.83.45,2.84,4.77,1.63,4.32-1.19-1.69-10.55-5.96-20.33-12.46-28.79-2.54-3.3-5.33-6.39-8.18-9.43-2.91-3.1-6.19-6.22-8.38-9.88-1.79-2.99-1.73-6.22-1.52-9.59.22-3.62.46-7.24.7-10.87.46-7.14,1.3-14.39,1.02-21.55-.24-6.07-1.85-11.67-4.59-17.07-2.49-4.9-5.61-9.43-8.33-14.2-2.58-4.52-4.91-9.43-5.28-14.7-.48-6.9,2.06-13.83,4.04-20.33,2.09-6.84,4.4-13.61,6.93-20.3,2.4-6.34,5.68-12.64,6.91-19.34.62-3.39.69-6.85-.26-10.18-.84-2.94-2.48-5.71-2.51-8.84-.07-5.57,3.58-10.53,5.83-15.38,1.29-2.78,2.27-5.59,2.69-8.64.46-3.36.38-6.75.41-10.13.05-5.68.89-10.89,4.39-15.5,5.71-7.53,14.64-11.87,21.46-18.25,1.68-1.57,3.22-3.27,4.59-5.11,1.62-2.18,2.82-4.54,4.76-6.47,4.33-4.32,10.14-5.72,15.53-8.22,2.58-1.2,5.01-2.7,7.05-4.71,2.05-2.03-1.11-5.19-3.17-3.17h0Z"/><path class="cls-7" d="M228.3,155.96c-11.7,1.4-22.95,4.74-33.33,10.37-5.07,2.75-9.88,5.98-14.47,9.47-2.44,1.86-4.84,3.78-7.18,5.76-.85.72-2.23,2.45-3.34,2.67-.69.14-1.57-.31-2.25-.4-.86-.12-1.71-.1-2.55.14-2.8.77-4.59,3.4-6.04,5.73-1.68,2.7-3.31,5.42-4.96,8.14-3.29,5.44-6.61,10.87-10.28,16.06-3.57,5.06-7.52,9.86-12.04,14.1-2.39,2.24-5.02,4.17-7.47,6.34-2.49,2.2-4.51,4.83-6.16,7.71-7.72,13.44-11.43,29.45-11.56,44.86-.03,2.88,4.45,2.89,4.48,0,.12-13.45,3.15-26.87,9.05-38.98,1.39-2.86,2.92-5.76,5.05-8.15,2.16-2.42,4.84-4.29,7.3-6.39,4.59-3.91,8.59-8.42,12.25-13.2,3.74-4.89,7.09-10.06,10.32-15.29,1.57-2.55,3.12-5.12,4.67-7.68,1.5-2.47,2.86-5.28,4.74-7.47.81-.94,1.61-1.65,2.88-1.42,1.7.32,3.13.66,4.77-.17,1.29-.66,2.36-1.76,3.45-2.69,1.18-1.01,2.38-2.01,3.58-2.99,4.35-3.54,8.89-6.85,13.68-9.77,10.83-6.61,22.79-10.74,35.39-12.25,1.21-.15,2.23-.93,2.24-2.24.01-1.1-1.04-2.38-2.24-2.24h0Z"/><path class="cls-7" d="M106.78,285.84c-.75,10.27-1.7,20.55-2.23,30.84-.25,4.81.14,9.52,1.33,14.19,1.15,4.54,2.82,8.92,4.03,13.44,2.37,8.82,1.15,19.2,7.35,26.61,1.34,1.61,3.09,2.64,4.6,4.05,1.56,1.45,2.37,3.34,2.96,5.35,1.27,4.34,2.23,8.75,3.6,13.07.81,2.55,1.49,5.18,2.52,7.65.99,2.39,2.68,4.24,4.34,6.18,3.46,4.04,6.21,8.63,8.3,13.51.48,1.12,2.11,1.35,3.06.8,1.16-.66,1.28-1.96.8-3.06-1.78-4.16-4.05-8.08-6.79-11.68-1.3-1.71-2.8-3.26-4.11-4.96-1.53-1.99-2.13-4.34-2.87-6.69-1.41-4.45-2.8-8.88-3.87-13.43-.96-4.07-2.29-7.93-5.64-10.65-1.59-1.28-3.17-2.42-4.32-4.14-1.2-1.79-1.97-3.79-2.52-5.87-1.24-4.7-1.29-9.62-2.24-14.38-1.81-9.05-6.16-17.41-6.14-26.8.01-5.64.66-11.3,1.07-16.91.42-5.71.84-11.41,1.25-17.12.21-2.88-4.27-2.86-4.48,0h0Z"/><path class="cls-7" d="M116.15,261.31c-.31-.48-.63-.96-.94-1.44-1.29.75-2.58,1.51-3.87,2.26,7.01,10.1,14.02,20.21,21.03,30.31,1.68,2.42,3.48,4.81,4.98,7.35,1.48,2.51,2.17,5.06,2.24,7.97.13,5.9-.44,11.91-1.29,17.73-1.56,10.73-5.53,21.16-4.07,32.13,1.24,9.34,5.45,18.23,11.96,25.06,4.01,4.2,8.66,7.8,14.67,8.02,6.89.25,13.89-.29,20.79-.47,2.88-.07,2.89-4.55,0-4.48-5.99.15-11.97.32-17.96.46-2.68.06-5.32.11-7.72-1.25-2.04-1.16-3.86-2.73-5.54-4.36-6.46-6.27-10.72-14.84-11.83-23.78-.62-4.97-.12-9.85.94-14.73,1.22-5.67,2.53-11.27,3.3-17.03.76-5.61,1.3-11.34,1.23-17.01-.04-2.72-.43-5.37-1.51-7.88-1.08-2.51-2.66-4.73-4.22-6.97-7.71-11.11-15.42-22.23-23.14-33.34-1.62-2.34-5.46-.18-3.87,2.26.31.48.63.96.94,1.44,1.57,2.4,5.45.16,3.87-2.26h0Z"/><path class="cls-7" d="M155.23,386.85c-1.02,6.06-1.41,12.49.37,18.45,1.28,4.28,3.28,8.36,4.8,12.56,2.8,7.68,5.21,15.55,8.39,23.09.47,1.12,1.48,1.9,2.75,1.56,1.05-.28,2.03-1.64,1.56-2.75-3.07-7.29-5.42-14.89-8.11-22.32-1.37-3.79-3.01-7.47-4.39-11.25-2.14-5.87-2.09-12.05-1.07-18.15.47-2.82-3.84-4.03-4.32-1.19h0Z"/><path class="cls-7" d="M126.32,383.36c.61,2.69,2.88,4.21,5.1,5.55,2.76,1.67,5.51,3.34,8.27,5,5.51,3.34,11.03,6.67,16.54,10.01.58-1.36,1.15-2.73,1.73-4.09-.34-.11-.68-.21-1.02-.32-2.76-.86-3.94,3.46-1.19,4.32.34.11.68.21,1.02.32,2.46.76,3.87-2.8,1.73-4.09-5.03-3.04-10.05-6.08-15.08-9.12-2.43-1.47-4.86-2.94-7.3-4.41-1.22-.74-2.46-1.44-3.65-2.22-.84-.55-1.59-1.12-1.83-2.13-.64-2.81-4.96-1.62-4.32,1.19h0Z"/><path class="cls-7" d="M142.47,395.02c1.86,11.97,5.52,23.81,9.08,35.38.84,2.75,5.17,1.58,4.32-1.19-3.55-11.56-7.22-23.4-9.08-35.38-.19-1.2-1.68-1.85-2.75-1.56-1.28.34-1.75,1.57-1.56,2.75h0Z"/><path class="cls-7" d="M105.32,324.86c12.27,6.82,20.11,19.17,31.25,27.47.98.73,2.49.15,3.06-.8.68-1.13.16-2.34-.8-3.06-11.17-8.33-18.9-20.61-31.25-27.47-2.52-1.4-4.78,2.47-2.26,3.87h0Z"/><path class="cls-7" d="M115.74,355.33c.42-.52.81-.89,1.2-1.12-.25.15.11-.05.18-.08.25-.1.5-.2.76-.29.41-.15.81-.3,1.23-.43,1.65-.55,3.34-.95,5.05-1.26,3.16-.58,6.47-1.08,9.1-3.07.96-.73,1.47-1.93.8-3.06-.55-.95-2.09-1.54-3.06-.8-2.55,1.92-5.8,2.17-8.88,2.78-1.74.35-3.45.82-5.12,1.42-1.72.63-3.24,1.3-4.42,2.76-.76.94-.92,2.25,0,3.17.79.79,2.4.94,3.17,0h0Z"/><path class="cls-7" d="M106.5,320.98c-6.35-2.01-13.06-2.9-19.72-2.62-1.21.05-2.24.99-2.24,2.24,0,1.17,1.03,2.29,2.24,2.24,6.3-.26,12.52.56,18.53,2.46,2.75.87,3.93-3.45,1.19-4.32h0Z"/><path class="cls-7" d="M106.78,285.84c-.8,9.4,6.34,17.77,12.34,24.19,2.97,3.18,6.46,6.22,10.74,7.38,3.7,1,7.72.07,11.35,1.3.2-1.47.4-2.93.6-4.4-9.77.98-20.32,5.67-25.62,14.3-1.51,2.46,2.36,4.71,3.87,2.26,4.42-7.19,13.6-11.26,21.75-12.08,2.47-.25,3.09-3.56.6-4.4-3.25-1.1-6.75-.55-10.09-1.02-3.92-.55-7.04-3.36-9.66-6.12-5.34-5.62-12.1-13.09-11.39-21.41.24-2.87-4.24-2.86-4.48,0h0Z"/><path class="cls-7" d="M130.86,284.43c.07-.25.14-.5.21-.75-1.44-.4-2.88-.79-4.32-1.19-1.54,9.31-3.09,18.62-4.63,27.92-.2,1.19.31,2.41,1.56,2.75,1.07.29,2.56-.36,2.75-1.56,1.54-9.31,3.09-18.62,4.63-27.92.46-2.79-3.51-4.02-4.32-1.19-.07.25-.14.5-.21.75-.79,2.78,3.53,3.96,4.32,1.19h0Z"/><path class="cls-7" d="M127.69,280.63c-6.41,2.95-12.31,6.94-17.47,11.74-.89.82-.83,2.33,0,3.17.88.88,2.28.83,3.17,0,4.9-4.55,10.49-8.25,16.57-11.04,1.1-.5,1.37-2.09.8-3.06-.66-1.13-1.96-1.31-3.06-.8h0Z"/><path class="cls-7" d="M106.36,285.2c-3.86,2.86-7.53,5.98-11.26,9-3.43,2.78-7.22,5.41-10.05,8.83-.77.93-.91,2.26,0,3.17.79.79,2.39.94,3.17,0,2.75-3.32,6.41-5.87,9.74-8.57,3.54-2.87,7.01-5.85,10.67-8.56.97-.72,1.46-1.94.8-3.06-.56-.96-2.09-1.53-3.06-.8h0Z"/><path class="cls-7" d="M87.89,270.87c6.38,2.5,12.69,5.19,18.92,8.06,1.1.51,2.41.31,3.06-.8.56-.97.3-2.56-.8-3.06-6.58-3.03-13.24-5.87-19.99-8.51-1.13-.44-2.46.48-2.75,1.56-.35,1.27.43,2.31,1.56,2.75h0Z"/><path class="cls-7" d="M94.1,247.27c5.78,4.78,11.56,9.56,17.33,14.33.93.77,2.25.91,3.17,0,.79-.79.94-2.39,0-3.17-5.78-4.78-11.56-9.56-17.33-14.33-.93-.77-2.25-.91-3.17,0-.79.79-.94,2.39,0,3.17h0Z"/><path class="cls-7" d="M100.67,240.37c6.27.54,12.68,3.33,19.15,4.07,1.2.14,2.24-1.13,2.24-2.24,0-1.32-1.03-2.1-2.24-2.24-1.09-.12-2.84-.48-4.18-.8-1.71-.4-3.4-.85-5.1-1.29-3.25-.85-6.52-1.69-9.87-1.97-1.21-.1-2.24,1.1-2.24,2.24,0,1.3,1.03,2.14,2.24,2.24h0Z"/><path class="cls-7" d="M111.81,215.1c4.22,1.04,8.53,2.17,11.18,5.89,1.26,1.76,2.18,3.75,3.02,5.74.98,2.3,1.88,4.64,2.41,7.09.26,1.18,1.63,1.87,2.75,1.56,1.22-.34,1.82-1.57,1.56-2.75-.6-2.78-1.69-5.4-2.8-8.01-.95-2.24-2-4.45-3.47-6.4-1.56-2.08-3.5-3.77-5.84-4.91-2.43-1.18-5.03-1.88-7.64-2.52-2.8-.69-3.99,3.63-1.19,4.32h0Z"/><path class="cls-7" d="M122.27,200.01c-1.06,1.13-.99,2.71.1,3.81.81.81,1.94,1.27,2.81,2.06,1.95,1.79,3.84,3.51,6.21,4.75,4.78,2.51,10.25,3.67,15.54,4.5,1.19.19,2.41-.3,2.75-1.56.29-1.06-.36-2.57-1.56-2.75-4.33-.68-8.81-1.55-12.86-3.27-1.88-.8-3.69-1.85-5.21-3.22-.77-.7-1.49-1.45-2.29-2.13-.44-.37-.89-.74-1.37-1.06-.21-.15-.43-.28-.65-.41-.43-.27-.46-.24-.07.07.1.38.2.75.31,1.13,0-.06,0-.13-.01-.19-.22.53-.44,1.06-.66,1.58.04-.05.09-.09.13-.14,1.98-2.09-1.18-5.27-3.17-3.17h0Z"/><path class="cls-7" d="M129.76,207.72c-2.41,2.85-4.82,5.7-7.22,8.55-.39.46-.66.96-.66,1.58,0,.55.24,1.21.66,1.58.83.76,2.36.96,3.17,0,2.41-2.85,4.82-5.7,7.22-8.55.39-.46.66-.96.66-1.58,0-.55-.24-1.21-.66-1.58-.83-.76-2.36-.96-3.17,0h0Z"/><path class="cls-7" d="M140.69,182.09c-1.75-.13-2.73,1.69-2.34,3.21.29,1.13,1.37,1.84,2.2,2.55,1.81,1.55,3.67,3.03,5.57,4.48,3.4,2.6,7.16,5.52,11.67,5.37,1.21-.04,2.24-1,2.24-2.24s-1.02-2.28-2.24-2.24c-2.93.1-5.53-1.87-7.87-3.6-1.31-.97-2.59-1.96-3.86-2.99-.66-.54-1.32-1.08-1.98-1.64-.63-.53-1.42-1.06-1.93-1.71.19.33.38.66.58.99-.06-.1-.09-.22-.1-.34v1.19s.01-.09.02-.14c-.19.33-.38.66-.58.99.02-.03.05-.05.07-.08-.53.22-1.06.44-1.58.66.04,0,.08,0,.12,0,1.21.09,2.24-1.09,2.24-2.24,0-1.28-1.03-2.15-2.24-2.24h0Z"/><path class="cls-7" d="M143.89,189.22c-4.69,6.28-9.06,12.81-13.08,19.54-1.48,2.48,2.39,4.74,3.87,2.26,4.02-6.73,8.38-13.26,13.08-19.54.72-.97.16-2.5-.8-3.06-1.14-.67-2.34-.17-3.06.8h0Z"/><path class="cls-7" d="M154.48,171.52c1.67,5.53,3.52,10.96,7,15.64.72.97,1.94,1.46,3.06.8.96-.56,1.53-2.09.8-3.06-1.56-2.1-2.9-4.4-3.91-6.79-1.06-2.5-1.84-5.17-2.63-7.79-.35-1.16-1.57-1.89-2.75-1.56-1.15.32-1.91,1.59-1.56,2.75h0Z"/><path class="cls-7" d="M170.48,159.27c-2.11,8.64-2.98,17.65-5.91,26.08-.95,2.73,3.37,3.9,4.32,1.19,2.94-8.43,3.8-17.44,5.91-26.08.68-2.8-3.63-3.99-4.32-1.19h0Z"/><path class="cls-7" d="M177.3,161.11c.37.44.74.88,1.1,1.34.09.11.18.23.27.34-.22-.28.07.09.11.15.17.23.35.46.52.69.7.96,1.38,1.94,2.01,2.94,1.28,2.01,2.42,4.09,3.43,6.25.5,1.06,2.11,1.42,3.06.8,1.1-.71,1.34-1.93.8-3.06-2.13-4.56-4.89-8.77-8.13-12.61-.76-.9-2.4-.84-3.17,0-.88.96-.81,2.21,0,3.17h0Z"/><path class="cls-7" d="M193.63,155.11c1,3.45,2.28,6.81,3.79,10.07.49,1.07,2.11,1.42,3.06.8,1.1-.71,1.33-1.92.8-3.06-.18-.38-.35-.76-.52-1.14-.1-.22-.19-.44-.29-.66-.19-.44.15.36-.05-.12-.32-.77-.63-1.55-.92-2.33-.58-1.56-1.1-3.15-1.57-4.75-.33-1.12-1.59-1.94-2.75-1.56-1.14.37-1.91,1.55-1.56,2.75h0Z"/><path class="cls-7" d="M215.86,143.89c-2.97,5.68-5.95,11.37-8.92,17.05-.56,1.07-.27,2.43.8,3.06,1.01.59,2.5.27,3.06-.8,2.97-5.68,5.95-11.37,8.92-17.05.56-1.07.27-2.43-.8-3.06-1.01-.59-2.5-.27-3.06.8h0Z"/><path class="cls-7" d="M172.31,186.19c-.24-.3-.41-.71-.53-1.12-1.36.58-2.73,1.15-4.09,1.73,2.77,6.19,6.49,12.03,10.48,17.49.71.98,1.95,1.46,3.06.8.96-.56,1.52-2.08.8-3.06-3.99-5.47-7.71-11.31-10.48-17.49-.45-1-1.87-1.32-2.8-.92-1,.44-1.62,1.55-1.3,2.64.35,1.18.91,2.15,1.69,3.1.77.94,2.37.79,3.17,0,.93-.93.77-2.23,0-3.17h0Z"/><path class="cls-7" d="M186.81,199.84c-6.08,1.17-11.96,3.19-17.51,5.94-1.08.54-1.38,2.07-.8,3.06.65,1.1,1.98,1.34,3.06.8,5.21-2.57,10.74-4.39,16.44-5.49,1.19-.23,1.87-1.65,1.56-2.75-.34-1.24-1.56-1.79-2.75-1.56h0Z"/><path class="cls-7" d="M151.68,204.47s0,.08,0,.12c.55-.72,1.1-1.44,1.64-2.16-.05,0-.1.02-.15.02h1.19c-.05-.02-.1-.04-.16-.07l1.56,1.56-.03-.15c-.19.73-.38,1.45-.58,2.18.06-.06.11-.12.17-.17-.33.19-.66.38-.99.58-.39.07.38.19.41.2.43.13.88.21,1.32.32.79.2,1.57.43,2.36.65,1.48.42,2.96.84,4.47,1.15,1.5.31,3.02.37,4.53.61,1.42.23,2.2,1.09,3.1,2.14,3.88,4.54,7.7,9.21,10.15,14.7.5,1.11,2.1,1.35,3.06.8,1.14-.65,1.29-1.97.8-3.06-1.67-3.74-3.98-7.1-6.5-10.32-1.25-1.6-2.56-3.17-3.87-4.72-1.34-1.59-2.7-3.04-4.74-3.67-1.88-.58-3.96-.49-5.88-.92-2.12-.47-4.19-1.14-6.3-1.68-1.76-.45-4.14-1.34-5.44.45-1.49,2.05.59,4.03,2.69,3.71.97-.15,1.63-1.26,1.64-2.16,0-.04,0-.08,0-.12.05-2.88-4.43-2.88-4.48,0h0Z"/><path class="cls-7" d="M146.9,215.47c2.45,4.55,4.43,9.09,6.09,13.95.38,1.11,1.56,1.95,2.75,1.56,1.1-.36,1.97-1.57,1.56-2.75-1.77-5.17-3.95-10.21-6.54-15.02-.57-1.06-2.05-1.4-3.06-.8-1.08.63-1.38,1.99-.8,3.06h0Z"/><path class="cls-7" d="M174.5,214.54c-7.13,7.12-15.51,12.81-24.74,16.87-1.11.49-1.36,2.11-.8,3.06.67,1.14,1.95,1.29,3.06.8,9.55-4.2,18.26-10.2,25.65-17.57,2.04-2.04-1.12-5.21-3.17-3.17h0Z"/><path class="cls-7" d="M132.19,233.88c3.96,1.52,7.92,3.04,11.88,4.55,1.68.65,3.64,1.15,4.94,2.47,1.18,1.2,2.14,2.66,3.13,4.01,4.35,5.87,8.47,11.92,12.93,17.71.74.96,1.92,1.46,3.06.8.95-.54,1.54-2.11.8-3.06-4.8-6.23-9.19-12.76-13.92-19.04-1.06-1.41-2.08-2.97-3.41-4.12-1.47-1.27-3.3-1.92-5.09-2.6-4.38-1.68-8.75-3.36-13.13-5.03-2.69-1.03-3.86,3.3-1.19,4.32h0Z"/><path class="cls-7" d="M148.45,232.67c-.04,2.02-.08,4.04-.12,6.06-.02,1.17,1.05,2.29,2.24,2.24,1.23-.06,2.22-.98,2.24-2.24.04-2.02.08-4.04.12-6.06.02-1.17-1.05-2.29-2.24-2.24-1.23.06-2.22.98-2.24,2.24h0Z"/><path class="cls-7" d="M182.52,224.92c-5.18,2.78-10.22,5.82-15.08,9.13-.99.67-1.98,1.54-3.14,1.88-1.31.39-2.59.43-3.85,1.01-2.02.93-3.57,2.75-5.68,3.46-2.72.91-1.55,5.24,1.19,4.32,2.3-.77,3.97-2.37,6.04-3.55,1.1-.63,2.3-.6,3.49-.92,1.42-.38,2.58-1.22,3.77-2.04,5-3.42,10.18-6.56,15.52-9.43,2.54-1.36.28-5.23-2.26-3.87h0Z"/><path class="cls-7" d="M182.12,255.21c-8.71,4.03-18.41,6.93-28.04,7.37-1.15.05-2.29.07-3.44.03-.51-.01-1.03-.02-1.54-.07-.14-.01-.37-.15-.15.03.28.23-.1-.35-.13-.41-.96-2.54-2.01-4.99-2.73-7.62-.3-1.07-.38-2.52-.95-3.47-.65-1.07-2.2-1.45-3.37-1.5-2.37-.12-4.55,1.14-6.36,2.53-5.17,3.97-9.96,8.55-14.88,12.81-2.18,1.89,1,5.05,3.17,3.17,3.19-2.76,6.38-5.52,9.57-8.29,1.48-1.28,2.92-2.6,4.44-3.83,1.02-.83,2.95-2.43,4.38-1.83-.34-.45-.69-.89-1.03-1.34.53,2.36,1.19,4.68,2.01,6.96.69,1.92,1.37,4.57,2.85,6.05,1.47,1.46,3.86,1.29,5.78,1.3,2.26.01,4.52-.15,6.77-.42,8.99-1.11,17.72-3.8,25.93-7.6,2.61-1.21.34-5.07-2.26-3.87h0Z"/><path class="cls-7" d="M133.22,232.86s-.05-.04-.07-.07c.19.73.38,1.45.58,2.18.01-.04.03-.08.04-.12-.34.45-.69.89-1.03,1.34l.12-.05c-.9-.12-1.81-.23-2.71-.35.05.04.11.08.16.12-.19-.33-.38-.66-.58-.99.62,1.63.9,3.46,1.33,5.16.42,1.67.84,3.33,1.27,5,.73,2.83,1.71,5.76,3.95,7.77.9.81,2.28.89,3.17,0,.82-.82.91-2.36,0-3.17-1.9-1.7-2.41-4.26-3.07-6.83-.42-1.65-.84-3.3-1.25-4.95-.22-.88-.45-1.76-.67-2.64-.23-.91-.36-2.02-1.15-2.64-.87-.69-1.7-.8-2.71-.35-.63.28-.99.89-1.18,1.51-.23.72,0,1.67.58,2.18.02.02.05.04.07.07.9.81,2.28.89,3.17,0,.82-.82.91-2.36,0-3.17h0Z"/><path class="cls-7" d="M143.84,254.8c2.48-1.09,5.35-1.7,8.07-1.76,2.72-.07,6.07.69,7.73-2.14.61-1.04.24-2.45-.8-3.06-1.05-.61-2.45-.24-3.06.8-.34.57.43-.55.05-.05.26-.1.27-.11.02-.02-.12.03-.25.06-.37.08.52-.1-.29,0-.4,0-.27,0-.53-.01-.8-.03-1.33-.07-2.65-.08-3.99.04-3.04.28-5.91,1.05-8.71,2.28-1.11.49-1.36,2.11-.8,3.06.67,1.14,1.95,1.29,3.06.8h0Z"/><path class="cls-7" d="M147.23,263.44c-1.75,2.53-3.5,5.06-5.24,7.6-1.59,2.32-2.68,4.53-2.95,7.37-.58,6.2-.63,12.5-.93,18.72-.14,2.88,4.34,2.87,4.48,0,.28-5.85.53-11.7.85-17.55.15-2.75,1.23-4.57,2.76-6.79,1.63-2.37,3.26-4.73,4.89-7.09,1.64-2.38-2.24-4.62-3.87-2.26h0Z"/><path class="cls-7" d="M141.75,297.16c4.18-1.11,7.97-3.2,11.73-5.29,3.68-2.05,7.98-3.83,11.08-6.75,2.26-2.14,4.51-7.27,8.14-7.14,1.04.04,2,.55,3.07.52.72-.02,1.41-.27,2.06-.58,1.45-.69,2.68-1.8,2.75-3.49.11-2.88-4.36-2.88-4.48,0,.11-.29.22-.58.32-.86-.1.09-.2.16-.32.21-.26.04-.36.27-.66.28-.6.03-1.56-.46-2.2-.52-1.67-.16-3.3.31-4.75,1.13-3.16,1.79-4.68,5.1-7.3,7.46-1.28,1.15-2.89,1.93-4.39,2.77-1.86,1.03-3.72,2.07-5.58,3.1-3.43,1.91-6.84,3.83-10.66,4.84-2.78.74-1.6,5.06,1.19,4.32h0Z"/><path class="cls-7" d="M161.81,267.41c.06-.3.11-.6.17-.9.22-1.19-.33-2.41-1.56-2.75-1.1-.3-2.52.37-2.75,1.56-1.4,7.12-2.57,14.28-3.97,21.41-.23,1.19.34,2.42,1.56,2.75,1.1.3,2.52-.37,2.75-1.56,1.4-7.12,2.57-14.28,3.97-21.41-1.44-.4-2.88-.79-4.32-1.19-.06.3-.11.6-.17.9-.22,1.19.33,2.41,1.56,2.75,1.09.3,2.53-.37,2.75-1.56h0Z"/><path class="cls-7" d="M144.33,313.05c1.56-1.09,3.12-2.5,5-2.55.89-.03,1.78.11,2.67.22.7.09,1.19.16,2.14.31,1.91.3,3.81.66,5.67,1.2.46.13.92.27,1.37.43.16.05.31.11.46.17.71.27-.33-.17.33.14.32.15.63.32.94.5.07.04.55.41.16.08.13.11.25.22.37.35,2,2.08,5.16-1.09,3.17-3.17-1.36-1.42-3.37-2.15-5.21-2.71-2.06-.62-4.19-1.02-6.31-1.35-1.94-.3-4.07-.76-6.05-.63-2.73.19-4.79,1.63-6.96,3.15-.99.69-1.45,1.96-.8,3.06.57.98,2.07,1.5,3.06.8h0Z"/><path class="cls-7" d="M139.81,323.15c.73,2.29,2.09,4.25,3.54,6.13,1.29,1.68,2.58,3.35,3.86,5.04,2.61,3.45,5.34,6.81,7.89,10.3.71.98,1.94,1.46,3.06.8.96-.56,1.52-2.08.8-3.06-2.49-3.42-5.16-6.71-7.71-10.08-1.25-1.65-2.48-3.3-3.76-4.93-1.28-1.63-2.72-3.4-3.36-5.4-.87-2.73-5.2-1.57-4.32,1.19h0Z"/><path class="cls-7" d="M166.11,330.27c-3.08,3.36-6.17,6.73-9.25,10.09-1.48,1.62-2.98,3.24-4.19,5.08-1.15,1.76-1.97,3.69-2.79,5.62-.47,1.11-.33,2.4.8,3.06.94.55,2.59.32,3.06-.8.77-1.82,1.55-3.64,2.6-5.32,1.1-1.76,2.56-3.25,3.95-4.77,2.99-3.27,5.99-6.53,8.98-9.8,1.94-2.12-1.21-5.3-3.17-3.17h0Z"/><path class="cls-7" d="M137.26,350.9c6.48,4.87,13.2,9.42,20.15,13.61,3.43,2.07,6.91,4.05,10.44,5.94,1.81.97,3.63,1.91,5.47,2.84,1.65.83,3.29,2.02,5.2,1.65.78-.15,1.32-.86,1.56-1.56.26-.77.12-1.45-.26-2.14-.36-.66-1.17-1.15-1.93-1.11-.06,0-.12,0-.18,0-2.87.15-2.89,4.63,0,4.48.06,0,.12,0,.18,0-.64-.37-1.29-.74-1.93-1.11.04.07.07.13.11.2-.08-.58-.15-1.15-.23-1.73-.02.07-.05.14-.07.21l1.56-1.56c.84-.16.09-.29-.37-.52-.37-.18-.74-.36-1.1-.55-.83-.41-1.65-.83-2.47-1.25-1.73-.89-3.45-1.81-5.17-2.74-3.33-1.82-6.62-3.73-9.86-5.71-6.48-3.96-12.76-8.25-18.83-12.81-2.31-1.73-4.54,2.15-2.26,3.87h0Z"/><path class="cls-7" d="M151.53,347.33c-1.39,3.15-2.48,6.4-3.2,9.77-.24,1.14.34,2.47,1.56,2.75,1.12.26,2.49-.34,2.75-1.56.33-1.56.73-3.1,1.22-4.61.24-.74.49-1.48.77-2.21.14-.38.29-.76.44-1.13.07-.16.13-.32.2-.48-.25.54.07-.16.12-.26.25-.57.4-1.1.23-1.73-.14-.52-.54-1.08-1.03-1.34-.97-.51-2.56-.34-3.06.8h0Z"/><path class="cls-7" d="M178.14,350.98c-5.43,4.02-10.06,8.97-13.61,14.73-.62,1-.25,2.51.8,3.06,1.09.58,2.41.26,3.06-.8.82-1.33,1.71-2.63,2.65-3.88.04-.06.22-.29.08-.11.12-.16.24-.31.36-.46.24-.31.49-.61.74-.91.5-.6,1.02-1.19,1.55-1.77,1.03-1.12,2.12-2.2,3.25-3.23.58-.53,1.18-1.04,1.78-1.53.27-.22.55-.44.82-.66.12-.09.12-.1.01,0,.06-.05.12-.09.19-.14.19-.14.38-.28.56-.42.94-.69,1.51-1.97.8-3.06-.6-.93-2.06-1.55-3.06-.8h0Z"/><path class="cls-7" d="M167.73,369.95c4.68,2.01,9.26,4.37,13.61,7.02,1,.61,2.51.25,3.06-.8.58-1.09.27-2.41-.8-3.06-4.35-2.65-8.93-5.01-13.61-7.02-1.07-.46-2.45-.36-3.06.8-.51.96-.35,2.57.8,3.06h0Z"/><path class="cls-7" d="M136.8,366.76c-2.27,1.81-4.53,3.62-6.8,5.44-1.1.88-2.17,1.68-3.03,2.81-.15.2-.3.4-.44.61-.06.08-.11.16-.17.24-.23.33.24-.24.04-.05-.16.16-.31.34-.48.5-.18.17-.1.05.05-.03-.17.1-.34.21-.51.31-1.02.58-1.45,2.06-.8,3.06.66,1.03,1.97,1.42,3.06.8,1.19-.68,1.97-1.59,2.75-2.69.07-.1.15-.2.22-.3.16-.24-.27.3-.06.08.21-.22.4-.44.63-.65.55-.48,1.14-.92,1.71-1.38,2.33-1.86,4.66-3.72,6.98-5.58.92-.73.82-2.41,0-3.17-.98-.9-2.19-.78-3.17,0h0Z"/><path class="cls-7" d="M155.83,363.03c-1.61,6.78-2.34,13.76-2.11,20.72.09,2.87,4.57,2.89,4.48,0-.21-6.58.43-13.13,1.95-19.53.67-2.8-3.65-4-4.32-1.19h0Z"/><path class="cls-7" d="M180.35,398.18c-6.98,2.38-14.82,3.26-22.15,2.27-1.2-.16-2.4.29-2.75,1.56-.29,1.04.36,2.59,1.56,2.75,8.14,1.1,16.74.38,24.53-2.27,2.71-.92,1.55-5.25-1.19-4.32h0Z"/><path class="cls-7" d="M162.4,419.99c3.73.77,7.6,1.18,11.34.26,3.4-.83,6.22-2.98,9.49-4.13,1.14-.4,1.9-1.53,1.56-2.75-.3-1.11-1.61-1.96-2.75-1.56-3.04,1.06-5.71,3.02-8.8,3.94-3.15.94-6.49.58-9.65-.08-1.18-.24-2.42.34-2.75,1.56-.3,1.11.37,2.51,1.56,2.75h0Z"/><path class="cls-7" d="M185.94,417.61c.07-.55-.03.14-.04.2-.04.22-.08.43-.12.65-.08.44-.18.87-.27,1.31-.23,1-.49,1.99-.76,2.98-.66,2.33-1.42,4.64-2.25,6.91-.79,2.14-1.64,4.26-2.63,6.32-.44.92-.91,1.83-1.42,2.72-.24.42-.49.83-.76,1.23-.12.18-.25.36-.37.54-.28.39.17-.2-.14.18-.77.94-.91,2.25,0,3.17.79.79,2.4.94,3.17,0,2.98-3.64,4.73-8.29,6.35-12.65,1.62-4.37,3.11-8.91,3.72-13.55.16-1.2-1.14-2.24-2.24-2.24-1.34,0-2.08,1.03-2.24,2.24h0Z"/><path class="cls-7" d="M115.87,367.7c-.9.62-1.85,1.15-2.85,1.61-.53.25.27-.1-.05.03-.11.04-.23.09-.34.13-.25.1-.51.19-.77.28-.55.18-1.1.34-1.66.47-.27.06-.53.12-.8.17-.12.02-.24.04-.36.06-.07.01-.57.07-.24.04.3-.03-.1,0-.15.01-.12.01-.24.02-.36.04-.36.04-.72.08-1.07.16-1.41.29-2.55,1.18-2.99,2.57-.36,1.12.42,2.49,1.56,2.75,1.23.28,2.37-.37,2.75-1.56-.07.21-.19.4-.35.56.23-.23-.14.12-.18.11.02,0,.21-.11.22-.12-.16.24-.42.13-.1.07.09-.02.18-.04.27-.06.08-.02.41-.06.04-.02-.36.04-.04,0,.04,0,.11-.01.22-.02.34-.04,1.17-.13,2.32-.32,3.45-.64,2.07-.59,4.08-1.52,5.86-2.74.96-.66,1.49-1.99.8-3.06-.62-.96-2.03-1.51-3.06-.8h0Z"/><path class="cls-7" d="M111.42,349.43c-.2.19-.41.38-.62.56-.06.05-.7.57-.36.31-.44.34-.91.66-1.39.95-.48.3-.97.57-1.47.82-.25.12-.51.24-.76.36.4-.18-.36.14-.44.17-1.05.39-2.14.69-3.24.88-.14.02-.28.05-.42.07.25-.03.24-.03-.03,0-.28.03-.56.06-.84.07-.56.04-1.12.04-1.68.03-1.17-.03-2.29,1.05-2.24,2.24.06,1.24.98,2.21,2.24,2.24,5.32.14,10.55-1.9,14.42-5.54.86-.8.87-2.37,0-3.17-.92-.84-2.25-.86-3.17,0h0Z"/><path class="cls-7" d="M106.24,330.99c-1.49,3.13-3.96,5.72-6.12,8.39-1.15,1.42-2.3,2.83-3.45,4.25-1.1,1.35-2.16,2.73-3.48,3.88-.91.79-.81,2.35,0,3.17.91.91,2.25.79,3.17,0,1.32-1.14,2.38-2.53,3.48-3.88,1.22-1.5,2.44-3,3.66-4.51,2.33-2.86,5.02-5.68,6.61-9.04.52-1.09.3-2.42-.8-3.06-.98-.57-2.54-.29-3.06.8h0Z"/><path class="cls-7" d="M111.62,387.39c2.27,2.27,5.85,3.03,8.96,3.13,1.45.05,2.91-.01,4.37-.03.71,0,1.42-.01,2.12.01.34.01.67.03,1,.06.12.01.25.02.37.04-.58-.07-.01.01.08.03,1.18.24,2.42-.34,2.75-1.56.3-1.1-.37-2.52-1.56-2.75-2.72-.54-5.52-.24-8.27-.26-.63,0-1.26-.02-1.89-.07-.13-.01-.25-.03-.38-.04-.29-.02.4.1-.01,0-.33-.08-.66-.14-.99-.21-.62-.14-1.5-.37-1.94-.55-.5-.2-1.12-.61-1.46-.95-2.04-2.04-5.21,1.13-3.17,3.17h0Z"/><path class="cls-7" d="M180,180.65c1.87,2.3,3.74,4.59,5.61,6.89,1.76,2.16,3.41,4.49,5.73,6.1.97.67,2.53.21,3.06-.8.6-1.14.23-2.35-.8-3.06-.12-.08-.23-.16-.35-.25.25.19-.02-.03-.12-.12-.21-.19-.42-.38-.62-.59-.43-.43-.82-.89-1.21-1.36-.9-1.08-1.79-2.19-2.68-3.28-1.82-2.23-3.64-4.46-5.45-6.69-.74-.91-2.41-.83-3.17,0-.89.97-.79,2.19,0,3.17h0Z"/><path class="cls-7" d="M227.15,158.14c1.62,4.57,3.57,9.02,5.38,13.52.82,2.04,1.7,4.1,2.36,6.2.44,1.41.22,2.1-.52,3.37-.68,1.16-1.37,2.3-2,3.5-5.15,9.83-7.39,21.08-6.37,32.13.26,2.85,4.75,2.87,4.48,0-1.05-11.27,1.39-22.66,7.17-32.41,1.39-2.34,2.44-4.46,1.72-7.24-.59-2.29-1.64-4.54-2.53-6.73-1.81-4.5-3.76-8.95-5.38-13.52-.96-2.7-5.29-1.54-4.32,1.19h0Z"/><path class="cls-7" d="M215.61,172.78c.76,4.78,3.67,8.83,4.73,13.51.27,1.18.3,2.39.87,3.48.6,1.16,1.67,1.92,2.77,2.57,2.3,1.36,4.81,2.39,7.39,3.09,2.79.75,3.97-3.57,1.19-4.32-2.17-.58-4.22-1.41-6.16-2.54-.85-.5-1.24-.66-1.42-1.63-.2-1.08-.37-2.14-.69-3.19-1.26-4.14-3.69-7.85-4.37-12.17-.19-1.2-1.68-1.86-2.75-1.56-1.27.35-1.75,1.56-1.56,2.75h0Z"/><path class="cls-7" d="M221.45,186.51c-4.23,3.6-8.52,7.22-13.52,9.73-5.33,2.67-11.12,3.12-16.98,3.43-2.87.15-2.89,4.63,0,4.48,6.49-.34,12.82-.94,18.75-3.8,5.53-2.66,10.27-6.71,14.92-10.66,2.2-1.87-.98-5.03-3.17-3.17h0Z"/><path class="cls-7" d="M208.78,198.51c-.25,5.4-.8,10.77-1.7,16.1-.42,2.45-.78,5-1.54,7.38-.65,2.04-2.43,3.27-2.55,5.53-.12,2.25.43,4.6.49,6.86.07,2.45,0,4.91-.23,7.36-.43,4.69-1.47,9.33-2.99,13.78-1.74,5.1-4.21,9.91-7.25,14.35-1.63,2.38,2.25,4.63,3.87,2.26,5.56-8.12,9.15-17.52,10.49-27.26.66-4.79.81-9.63.35-14.44-.09-.93-.51-2.24-.13-3.11.4-.92,1.26-1.66,1.69-2.62,1.03-2.29,1.4-4.85,1.84-7.31,1.14-6.24,1.85-12.55,2.14-18.88.13-2.88-4.34-2.87-4.48,0h0Z"/><path class="cls-7" d="M179.94,278.83c2.28-1.01,4.58-1.97,6.9-2.87,2.28-.89,4.65-1.99,7.06-2.46,2.4-.47,4.81.74,6.99,1.6,1.18.46,2.35.95,3.52,1.45.54.23,1.07.47,1.6.71.28.13,1.56.7,1.54.65-.08-.58-.15-1.15-.23-1.73-.01.1-.03.2-.04.3-.17,1.21.3,2.39,1.56,2.75,1.05.3,2.59-.37,2.75-1.56.49-3.48-3.44-4.36-6-5.45-3.05-1.29-6.29-2.93-9.62-3.26-3.12-.31-6.14,1.08-8.98,2.16-3.14,1.2-6.24,2.49-9.31,3.84-1.11.49-1.35,2.1-.8,3.06.65,1.15,1.96,1.29,3.06.8h0Z"/><path class="cls-7" d="M192.17,272.16c.84,6.08,1.75,12.15,2.73,18.2.19,1.19,1.68,1.86,2.75,1.56,1.27-.35,1.76-1.56,1.56-2.75-.98-6.06-1.89-12.13-2.73-18.2-.17-1.2-1.7-1.85-2.75-1.56-1.29.35-1.73,1.55-1.56,2.75h0Z"/><path class="cls-7" d="M169.92,302.45c2.35-1.67,5.04-2.37,7.75-3.2,3.09-.94,6.1-2.07,9.07-3.35,1.44-.62,2.86-1.28,4.26-1.99,1.35-.68,2.68-1.5,4.19-1.77,3.07-.56,6.17,1.06,8.83,2.38,2.57,1.28,4.84-2.58,2.26-3.87-3.02-1.5-6.2-3-9.64-3.09-3.65-.09-6.69,1.95-9.87,3.44-3.23,1.51-6.57,2.78-9.98,3.83-3.15.97-6.39,1.8-9.12,3.74-2.33,1.66-.1,5.54,2.26,3.87h0Z"/><path class="cls-7" d="M178.92,296.52c2.38,6.47,5.56,12.61,9.55,18.24.7.99,1.96,1.45,3.06.8.97-.57,1.51-2.07.8-3.06-3.76-5.31-6.85-11.07-9.1-17.17-.42-1.13-1.52-1.9-2.75-1.56-1.09.3-1.98,1.61-1.56,2.75h0Z"/><path class="cls-7" d="M203.54,303.25c-4.14,2.99-8.33,5.92-12.41,8.98-1.84,1.38-3.66,2.82-5.29,4.45-.88.88-1.68,1.83-2.44,2.82-.24.31-.47.62-.75.89-.09.09-.37.26-.43.36-.19.31.05-.11.18-.07-2.74-.91-3.92,3.42-1.19,4.32,2.65.88,4.49-1.24,5.95-3.09,1.56-1.96,3.46-3.65,5.42-5.19,4.28-3.35,8.81-6.42,13.22-9.6.98-.71,1.46-1.95.8-3.06-.57-.97-2.08-1.51-3.06-.8h0Z"/><path class="cls-7" d="M164.9,313.23c12.57,11.03,27.72,18.89,44.02,22.7,2.8.66,4-3.66,1.19-4.32-15.54-3.63-30.04-11.02-42.04-21.55-2.16-1.89-5.34,1.26-3.17,3.17h0Z"/><path class="cls-7" d="M184.97,327c-.95,8.08-1.39,16.17-1.33,24.31.02,2.88,4.5,2.89,4.48,0-.06-8.14.39-16.23,1.33-24.31.14-1.2-1.13-2.24-2.24-2.24-1.33,0-2.1,1.03-2.24,2.24h0Z"/><path class="cls-7" d="M174.43,345.66c10.33,8.33,21.01,16.21,32.03,23.61,2.4,1.61,4.64-2.27,2.26-3.87-10.7-7.19-21.09-14.82-31.12-22.91-.95-.76-2.24-.91-3.17,0-.79.78-.94,2.41,0,3.17h0Z"/><path class="cls-7" d="M182.3,372.67c-.79,1.5-.28,3.11,1.19,3.97,1.26.74,2.91.67,4.33.71,2.89.08,5.79-.19,8.63-.74,2.84-.55,5.59-1.44,8.24-2.59,2.27-.99,5.79-2.45,5.46-5.52-.13-1.2-.93-2.24-2.24-2.24-1.11,0-2.37,1.03-2.24,2.24,0,.48.08.4.22-.22-.09.1-.18.2-.29.28-.31.13-.62.36-.92.52-.81.42-1.63.81-2.48,1.15-1.85.76-3.78,1.35-5.73,1.79-1.83.42-3.68.68-5.55.79-.97.05-1.93.07-2.9.05-.48-.01-.97-.03-1.45-.06-.28-.02-.55-.04-.83-.06-.29-.06-.18.05.32.35.1.38.2.75.31,1.13,0-.07-.01-.15-.02-.22-.1.38-.2.75-.31,1.13.04-.07.08-.14.11-.22,1.34-2.55-2.52-4.81-3.87-2.26h0Z"/><path class="cls-7" d="M196.72,374.93c1.31,1.78,1.36,3.57,1.51,5.71.19,2.56.35,5.11.36,7.67.01,5.38-.48,10.75-1.49,16.03-.53,2.82,3.78,4.02,4.32,1.19,1.11-5.87,1.7-11.84,1.64-17.82-.03-2.85-.25-5.68-.45-8.51-.17-2.38-.59-4.57-2.03-6.53-.72-.98-1.93-1.45-3.06-.8-.97.55-1.52,2.09-.8,3.06h0Z"/><path class="cls-7" d="M182.94,405.27s-.07-.03-.1-.04c.34.84.69,1.69,1.03,2.53-1.07.99-1.14,1.3-.22.93.29-.07.57-.13.86-.19.58-.11,1.15-.2,1.74-.26,1.27-.14,2.55-.19,3.83-.25,2.62-.12,5.25-.24,7.87-.36,5.35-.25,10.7-.5,16.05-.74,2.87-.13,2.89-4.61,0-4.48-6.19.29-12.38.57-18.57.86-2.96.14-5.94.18-8.89.47-2.23.22-6.22.24-6.99,2.84-.25.86.15,2.14,1.03,2.53.03.01.07.03.1.04,2.61,1.15,4.9-2.71,2.26-3.87h0Z"/><path class="cls-7" d="M193.03,407.04c3.65,2.94,7.4,6.43,8.25,11.23.42,2.39.39,4.87.5,7.29.12,2.82.25,5.63.37,8.45.13,2.87,4.61,2.89,4.48,0-.13-3-.26-6.01-.4-9.01-.12-2.81-.15-5.66-.73-8.42-1.11-5.3-5.23-9.42-9.31-12.71-.94-.76-2.25-.92-3.17,0-.78.78-.95,2.4,0,3.17h0Z"/><path class="cls-7" d="M189.26,418.57c3.61-1.51,7.21-3.02,10.82-4.53.56-.24,1.02-.48,1.34-1.03.28-.48.4-1.19.23-1.73-.33-1.03-1.6-2.05-2.75-1.56-3.61,1.51-7.21,3.02-10.82,4.53-.56.24-1.02.48-1.34,1.03-.28.48-.4,1.19-.23,1.73.33,1.03,1.6,2.05,2.75,1.56h0Z"/><path class="cls-7" d="M203.07,240.32c-1.04,1.64-2.63,2.82-4.17,3.95-1.85,1.36-3.62,2.79-5.3,4.37-1.56,1.46-3.08,3-4.78,4.3-1.85,1.41-3.98,2.19-5.99,3.32-2.51,1.41-.26,5.28,2.26,3.87,2.1-1.18,4.28-2.03,6.22-3.5,1.94-1.47,3.68-3.16,5.46-4.82,1.61-1.51,3.3-2.85,5.06-4.16,1.96-1.46,3.78-2.98,5.1-5.07,1.55-2.44-2.33-4.69-3.87-2.26h0Z"/><path class="cls-7" d="M205.73,220.78c-3.06,2.15-6.07,4.38-9.18,6.45-.57.38-1.2.82-1.89.93-.78.13-1.64-.03-2.42-.14-1.91-.26-3.82-.53-5.74-.8-1.2-.17-2.4.29-2.75,1.56-.29,1.05.36,2.59,1.56,2.75,2.17.3,4.34.61,6.52.9,2.14.29,4.08.27,6.04-.78,1.7-.91,3.26-2.21,4.84-3.32,1.76-1.24,3.52-2.47,5.28-3.71.99-.69,1.45-1.96.8-3.06-.57-.98-2.07-1.5-3.06-.8h0Z"/><path class="cls-7" d="M207.9,226.27c3.1-1.81,6.27-3.49,9.53-5.01,3.09-1.44,6.59-3.28,10.1-2.4,3.2.8,6.08,2.67,9.19,3.76,3.42,1.2,6.97,1.89,10.58,2.2,2.87.25,2.85-4.23,0-4.48-3.71-.33-7.38-1.2-10.84-2.59-3.31-1.32-6.35-3.28-9.99-3.59-3.68-.31-7.17,1.33-10.43,2.82-3.55,1.62-7.02,3.43-10.39,5.4-2.49,1.45-.24,5.32,2.26,3.87h0Z"/><path class="cls-7" d="M245.95,220.87c-4.72,9.69-9.69,19.25-14.91,28.68-1.4,2.52,2.47,4.79,3.87,2.26,5.21-9.43,10.19-18.99,14.91-28.68,1.26-2.58-2.6-4.85-3.87-2.26h0Z"/><path class="cls-7" d="M210.94,223.54c6.93,6.17,11.67,14.15,16.42,22.02,5.06,8.39,10.39,16.38,17.7,23,2.23,2.01,4.54,3.93,6.86,5.84,2.23,1.84,4.41,3.58,7.14,4.59,1.63.6,3.2-1.22,2.75-2.75-.29-.98-.82-1.77-1.78-2.2-2.61-1.17-4.89,2.68-2.26,3.87-.09-.16-.19-.32-.28-.48l2.75-2.75c-2.24-.83-4.07-2.53-5.89-4.03-2.08-1.71-4.14-3.44-6.14-5.25-3.56-3.22-6.81-6.73-9.62-10.62-5.27-7.3-9.37-15.37-14.5-22.77-2.92-4.22-6.17-8.21-10-11.63-2.15-1.91-5.32,1.24-3.17,3.17h0Z"/><path class="cls-7" d="M228.1,243.35c-4,2.73-6.11,7.16-8.4,11.28-2.55,4.58-5.04,9.19-7.19,13.97-2.15,4.76-4,9.65-5.23,14.73-1.29,5.33-1.97,10.79-2.68,16.21-.73,5.54-1.18,11.05-.17,16.59,1,5.49,2.89,10.78,4,16.26,1.08,5.34,2.08,10.78,2.66,16.2.29,2.71.42,5.51-.05,8.21-.45,2.58-1.39,5.04-2.23,7.51-3.54,10.4-2.52,21.75,3.85,30.88,1.64,2.35,5.52.11,3.87-2.26-5.33-7.64-6.7-17.14-3.88-26,1.55-4.85,3.24-9.38,3.16-14.56-.08-5.28-1.18-10.59-2.06-15.78-.87-5.1-2-10.12-3.39-15.1-1.5-5.37-2.35-10.46-1.93-16.06.78-10.22,2.42-20.73,6.15-30.31,2.01-5.17,4.56-10.13,7.21-15,1.34-2.47,2.71-4.94,4.11-7.38,1.19-2.07,2.46-4.17,4.47-5.54,2.37-1.61.13-5.5-2.26-3.87h0Z"/><path class="cls-7" d="M213.15,392.38c-2.75,4.66-1.48,9.85-.52,14.82.26,1.37.47,2.75.45,4.15-.02,1.47-.39,2.92-.33,4.38.1,2.33,1.14,4.4,2.2,6.43,3.07,5.87,6.2,11.53,7.84,18.01,1.35,5.35,1.72,10.83,1.45,16.33-.14,2.88,4.34,2.87,4.48,0,.43-8.73-.9-17.37-4.29-25.44-1.23-2.92-2.68-5.73-4.19-8.52-.61-1.13-1.23-2.25-1.81-3.4-.49-.97-1.04-2.01-1.19-3.11-.19-1.44.26-2.94.31-4.38.18-5.46-3.57-11.91-.54-17.04,1.47-2.49-2.4-4.74-3.87-2.26h0Z"/><path class="cls-7" d="M215.21,407.3c6.28-1.36,12.69-2.7,19.15-2.15,6.44.55,11.55,3.95,16.8,7.4,5.25,3.44,10.46,6.99,16.04,9.88,5.88,3.05,12.13,4.84,18.38,6.94,6.09,2.04,12.46,4.85,16.16,10.38,1.6,2.38,5.48.14,3.87-2.26-7.69-11.47-22.23-12.3-33.74-17.73-6.05-2.86-11.62-6.58-17.19-10.25-5.62-3.7-11.15-7.54-17.96-8.55-7.61-1.14-15.27.41-22.7,2.03-2.82.61-1.62,4.93,1.19,4.32h0Z"/><path class="cls-7" d="M245.4,369.54c.07,6.48-3.37,12.57-5.42,18.57-2.12,6.23-4.84,12.95-4.55,19.64.27,6.22,4.05,11.82,3.82,18.05-.11,2.99-1.21,5.88-2.59,8.5-.71,1.37-1.51,2.69-2.34,3.98-.68,1.06-1.43,2.8-2.45,3.56-.8.6-1.32,1.5-1.03,2.53,1.21,4.24,2.43,8.48,3.64,12.72.79,2.77,5.11,1.59,4.32-1.19-1.21-4.24-2.43-8.48-3.64-12.72-.34.84-.69,1.69-1.03,2.53,1.91-1.42,3.11-3.66,4.36-5.65,1.38-2.2,2.61-4.47,3.58-6.87,1.96-4.85,1.99-9.76.54-14.75-.7-2.41-1.6-4.76-2.19-7.2-.65-2.7-.68-5.44-.19-8.17.99-5.51,3.02-10.97,4.92-16.22,2.04-5.66,4.79-11.16,4.72-17.31-.03-2.88-4.51-2.89-4.48,0h0Z"/><path class="cls-7" d="M249.69,370.22c-.59-16.71-.2-33.45,1.21-50.1.58-6.82,2.17-13.3,3.71-19.94.65-2.77,1.28-5.61,2.45-8.22,1.55-3.45,3.04-6.93,4.54-10.4,3.24-7.48,6.71-14.83,11.12-21.71,1.56-2.43-2.31-4.68-3.87-2.26-4.05,6.31-7.32,13.01-10.32,19.87-2.7,6.17-5.93,12.32-7.59,18.86-1.67,6.57-3.41,13.25-4.16,19.99-.92,8.34-1.34,16.76-1.62,25.14-.32,9.59-.3,19.18.04,28.77.1,2.87,4.58,2.89,4.48,0h0Z"/><path class="cls-7" d="M268.82,260.07s.05.07.07.1v-2.26s-.06.09-.1.14c.64-.37,1.29-.74,1.93-1.11-.05,0-.11,0-.16,0,.64.37,1.29.74,1.93,1.11-.04-.08-.07-.16-.11-.24l.23,1.73c.3-1.83,1.05-3.67,1.58-5.45.64-2.15,1.28-4.3,1.92-6.44,1.21-4.08,2.43-8.16,3.64-12.24,1.21-4.06,2.46-8.1,3.61-12.17,1.1-3.88,1.96-7.92,1.36-11.96-.55-3.74-2.26-7.27-3.4-10.85-1.23-3.83-2.28-7.71-3.24-11.62-.94-3.81-1.79-7.63-2.64-11.46-.73-3.31-1.58-6.65-1.77-10.05-.28-5-.31-10.12-.03-15.12.16-2.88-4.32-2.87-4.48,0-.25,4.57-.18,9.21-.03,13.78.24,6.86,2.19,13.68,3.74,20.33.91,3.92,1.89,7.82,3.02,11.68,1.14,3.9,2.67,7.66,3.85,11.54,1.23,4.02.58,7.93-.51,11.9-1.12,4.07-2.39,8.1-3.6,12.15-1.34,4.51-2.68,9.02-4.03,13.53-.7,2.36-1.41,4.73-2.11,7.09-.58,1.95-1.75,4.16-.86,6.13.3.67,1.22,1.14,1.93,1.11,1-.05,1.63-.44,2.19-1.26.41-.59.44-1.67,0-2.26-.02-.03-.05-.07-.07-.1-1.7-2.29-5.59-.06-3.87,2.26h0Z"/><path class="cls-7" d="M238.36,179.33c5.76-1.43,12.23-2.91,18.2-2.35,5.49.51,10.02,4.28,15.41,5.28,2.82.52,4.03-3.79,1.19-4.32-5.82-1.08-10.6-4.94-16.6-5.44-3.12-.26-6.3.17-9.38.59-3.37.46-6.71,1.1-10.01,1.92-2.8.7-1.61,5.02,1.19,4.32h0Z"/><path class="cls-7" d="M240.8,155.14c3.75,3.11,7.38,6.34,10.9,9.71.15.15.43.54.63.6.2.25.23.19.1-.19-.02-.4-.05-.46-.1-.19-.26.28-.35,1.13-.48,1.5-.35,1.03-.75,2.04-1.2,3.03-.95,2.08-2.09,4.07-3.38,5.97-1.62,2.39,2.26,4.63,3.87,2.26,1.44-2.12,2.68-4.36,3.7-6.71.56-1.29,1.08-2.6,1.52-3.93.43-1.3.74-2.64,0-3.9-.69-1.14-1.94-2.06-2.9-2.96-1.01-.94-2.02-1.88-3.05-2.8-2.1-1.9-4.25-3.75-6.43-5.56-.93-.77-2.26-.91-3.17,0-.79.79-.94,2.39,0,3.17h0Z"/><path class="cls-7" d="M247.95,174.73c-2.03,4.81-1.08,9.69.82,14.4,1.99,4.95,4.24,9.86,7.02,14.42,1.35,2.22,2.82,4.36,4.35,6.45.79,1.07,1.62,2.12,2.42,3.19.37.5.63.67.5,1.12-.1.35-.86.83-1.16,1.09-3.49,3-8.05,4.43-12.61,4.28-2.42-.08-2.78,2.96-1.13,4.17,3.77,2.77,8.53,4.12,12.86,5.78,4.78,1.83,9.57,3.65,14.35,5.48,2.69,1.03,3.86-3.3,1.19-4.32-4.58-1.75-9.15-3.49-13.73-5.24-4.19-1.6-8.76-2.88-12.42-5.56-.38,1.39-.75,2.78-1.13,4.17,4.99.17,10.03-1.3,14.08-4.25,1.76-1.28,4.13-2.99,4.37-5.33.28-2.72-2.45-5.07-3.92-7.08-3.37-4.61-6.22-9.47-8.59-14.66-2.07-4.54-5.57-10.74-3.42-15.83.47-1.12.33-2.39-.8-3.06-.93-.56-2.59-.31-3.06.8h0Z"/><path class="cls-7" d="M278.14,204.58c-.1.14-.2.29-.3.43-.04.06-.33.43-.09.13-.2.24-.4.48-.61.71-.42.46-.86.9-1.32,1.31-.26.23-.52.45-.79.67-.28.22.25-.18-.04.03-.14.1-.28.21-.42.31-.54.38-1.1.74-1.67,1.08-1.13.67-2.3,1.25-3.5,1.78-.13.06-.26.11-.39.17-.63.27.21-.08-.15.06-.3.12-.59.24-.89.36-.66.26-1.32.5-1.98.74-1.1.4-1.96,1.54-1.56,2.75.35,1.08,1.58,1.99,2.75,1.56,5.67-2.06,11.35-4.69,14.85-9.83.66-.97.22-2.53-.8-3.06-1.14-.6-2.36-.23-3.06.8h0Z"/><path class="cls-7" d="M272.79,184.64c-1.02,1.2-2.28,1.98-3.66,2.71-1.61.84-3.24,1.64-4.88,2.42-3.24,1.55-6.56,2.91-10.07,3.72-2.81.65-1.62,4.97,1.19,4.32,3.88-.9,7.56-2.46,11.14-4.17,3.25-1.55,7.06-3.02,9.44-5.84.78-.92.91-2.26,0-3.17-.8-.8-2.38-.93-3.17,0h0Z"/><path class="cls-7" d="M231.38,194.12c6.87,4.8,15.16,7.36,23.54,7.35-.38-1.39-.75-2.78-1.13-4.17-8.32,5.5-16.38,11.36-24.2,17.55-.95.75-.79,2.38,0,3.17.94.94,2.22.75,3.17,0,7.51-5.95,15.29-11.57,23.29-16.85,1.8-1.19,1.18-4.18-1.13-4.17-7.64,0-15.02-2.36-21.27-6.74-.99-.69-2.49-.18-3.06.8-.65,1.12-.19,2.37.8,3.06h0Z"/><path class="cls-7" d="M260.3,227.97c-.44,3.64-1,7.25-1.68,10.85-.54,2.87-.69,7-3.11,9-2.33,1.93-5.46,3.67-8.28,4.76-1.36.52-2.76.9-4.11,1.46-.76.32-1.52.65-2.21,1.11-.29.19-.57.4-.84.62,0,0-.98.73-.57.6h1.19c-.11-.03-.21-.07-.32-.1.45.34.89.69,1.34,1.03-.06-.09-.13-.18-.19-.27l.23,1.73c.02-.09.04-.19.07-.28.65-2.8-3.67-4-4.32-1.19-.49,2.09,1.35,4.08,3.52,3.3.89-.32,1.41-1.05,2.16-1.57.76-.53,1.63-.87,2.5-1.17,3.99-1.4,7.59-3.13,11.13-5.46,1.69-1.11,3.2-2.42,4.08-4.28.9-1.89,1.24-4.01,1.66-6.05.94-4.66,1.67-9.36,2.24-14.08.15-1.21-1.13-2.23-2.24-2.24-1.33-.01-2.1,1.04-2.24,2.24h0Z"/><path class="cls-7" d="M257.7,250.83c4.45,1.6,8.59,3.5,12.84,5.88,1.02.57,2.49.28,3.06-.8.56-1.06.29-2.45-.8-3.06-4.45-2.49-9.11-4.6-13.91-6.33-1.1-.4-2.5.45-2.75,1.56-.29,1.26.38,2.33,1.56,2.75h0Z"/><path class="cls-7" d="M239.97,260.65c-3.3,6.78-5.9,13.89-7.69,21.21-.68,2.8,3.64,3.99,4.32,1.19,1.7-6.95,4.1-13.71,7.24-20.15.53-1.09.3-2.42-.8-3.06-.98-.58-2.53-.29-3.06.8h0Z"/><path class="cls-7" d="M210.3,292.2c7.74-3.09,15.68-5.67,23.77-7.69,4.03-1,8.11-1.88,12.23-2.38,4.16-.5,8.32-.52,12.51-.45,2.88.04,2.88-4.43,0-4.48-8.63-.13-16.92.79-25.31,2.84-8.3,2.03-16.45,4.68-24.39,7.84-2.64,1.05-1.49,5.39,1.19,4.32h0Z"/><path class="cls-7" d="M221.71,260.15c-.22-.33-.44-.65-.65-.98-1.29.75-2.58,1.51-3.87,2.26,5.14,6.95,9.94,14.15,14.37,21.58,1.48,2.47,5.35.22,3.87-2.26-4.44-7.42-9.23-14.62-14.37-21.58-.72-.97-1.94-1.46-3.06-.8-1,.58-1.48,2.05-.8,3.06l.65.98c.67,1,1.98,1.44,3.06.8,1-.58,1.48-2.05.8-3.06h0Z"/><path class="cls-7" d="M241.37,278.09c-7.72,7.43-13.49,16.69-16.83,26.86-.9,2.74,3.42,3.92,4.32,1.19,3.11-9.45,8.52-17.99,15.68-24.88,2.08-2-1.09-5.17-3.17-3.17h0Z"/><path class="cls-7" d="M207,305.76c1.75-.79,3.49-1.57,5.24-2.36,1.86-.83,3.21-1.13,5.14-.29,3.25,1.42,6.31,3.39,9.45,5.05,6.26,3.3,12.82,6.11,19.98,6.4,2.88.12,2.88-4.36,0-4.48-7.53-.31-14.31-3.91-20.79-7.44-3.08-1.68-6.4-4.06-9.94-4.52-2-.26-3.7.36-5.51,1.16-1.95.86-3.88,1.75-5.82,2.62-2.62,1.18-.35,5.04,2.26,3.87h0Z"/><path class="cls-7" d="M225.23,306.92s.05-.01.07-.02c.93-.3,1.66-1.15,1.64-2.16-.02-.93-.45-1.57-1.19-2.09-.6-.42-1.66-.42-2.26,0-1.07.76-1.25,1.7-1.52,2.89-.25,1.1-.51,2.2-.73,3.31-.45,2.27-.65,4.51-.26,6.79.71,4.17,3.47,7.11,6.37,9.96,2.06,2.02,5.23-1.14,3.17-3.17-2.19-2.16-4.38-4.22-5.09-7.33-.33-1.48-.24-3.03.03-4.51.15-.86.35-1.72.54-2.57.2-.9.33-1.88.65-2.75-.34.45-.69.89-1.03,1.34.04-.03.09-.06.13-.09h-2.26s.05.04.08.06c-.37-.64-.74-1.29-1.11-1.93,0,.03,0,.07,0,.1.55-.72,1.1-1.44,1.64-2.16-.02,0-.05.01-.07.02-2.73.88-1.57,5.2,1.19,4.32h0Z"/><path class="cls-7" d="M206.82,320.27c3.17,1.59,6.39,3.08,9.66,4.46,1.62.69,3.25,1.35,4.89,1.99,1.73.67,3.43,1.4,5.32,1.16,1.71-.21,3.33-1,4.97-1.51,1.72-.54,3.46-1,5.22-1.38,3.65-.78,7.35-1.14,11.08-1.16,2.88-.02,2.89-4.5,0-4.48-6.92.05-13.66,1.32-20.18,3.62-.76.27-1.47.55-2.28.45-.8-.11-1.6-.5-2.36-.79-1.57-.6-3.12-1.22-4.67-1.88-3.18-1.34-6.31-2.8-9.4-4.35-2.57-1.29-4.84,2.58-2.26,3.87h0Z"/><path class="cls-7" d="M230.79,322.52c-2.68,2.69-4.99,5.78-6.77,9.14-.89,1.68-1.65,3.43-2.3,5.21-.16.44-.3.88-.45,1.32-.05.16-.11.32-.17.47-.1.26-.04.13-.12.28-.07.15-.15.3-.23.44-.04.07-.3.45-.13.24-.09.12-.21.23-.32.33.25-.22-.33.07-.02-.03-2.73.88-1.56,5.2,1.19,4.32,2.07-.67,3.15-2.33,3.9-4.27.65-1.67,1.18-3.36,1.97-4.98,1.69-3.45,3.9-6.58,6.61-9.3,2.03-2.05-1.13-5.21-3.17-3.17h0Z"/><path class="cls-7" d="M211.65,340.45c3.13,1.1,6.06,2.8,8.53,5.03,1.23,1.11,2.33,2.37,3.61,3.42,1.42,1.17,2.99,1.84,4.6,2.69,1.46.77,2.47,2.12,3.93,2.89,1.43.76,3.1,1,4.7.87,3.51-.29,7.19-1.3,10.36-2.8,2.61-1.23.34-5.09-2.26-3.87-1.55.73-3.22,1.16-4.89,1.55-1.39.33-2.84.74-4.28.67-1.61-.08-2.46-1.17-3.64-2.1-1.3-1.02-2.8-1.54-4.22-2.34-2.62-1.47-4.52-4.12-6.92-5.93-2.53-1.92-5.35-3.35-8.34-4.41-2.72-.96-3.89,3.36-1.19,4.32h0Z"/><path class="cls-7" d="M232.58,353.47c-2.13,5.93-4.26,11.86-6.39,17.79-1.02,2.84-1.95,5.72-3.07,8.52-.98,2.44-2.58,4.41-5.1,5.36-2.67,1.01-1.51,5.34,1.19,4.32,2.7-1.02,4.95-2.68,6.58-5.09,1.87-2.77,2.72-6.35,3.84-9.47,2.43-6.75,4.85-13.49,7.28-20.24.98-2.72-3.35-3.89-4.32-1.19h0Z"/><path class="cls-7" d="M210.81,390.89c1.31.97,2.39.56,3.84.14,1.25-.36,2.5-.71,3.74-1.07,2.45-.7,4.9-1.51,7.43-1.92,4.97-.79,10.2.06,14.71,2.27,2.13,1.04,4.8-1.8,2.71-3.52-.25-.21-.5-.41-.75-.62-.94-.77-2.24-.9-3.17,0-.8.78-.93,2.4,0,3.17.25.21.5.41.75.62.9-1.17,1.81-2.34,2.71-3.52-4.72-2.31-9.98-3.47-15.24-3.08-5.35.4-10.56,2.33-15.69,3.8l1.73.23c-.17-.13-.34-.25-.51-.38-.98-.72-2.49-.15-3.06.8-.68,1.13-.16,2.35.8,3.06h0Z"/><path class="cls-7" d="M210.28,368.42c-.18.05-.36.11-.53.16-2.77.84-1.62,4.91,1.19,4.32,3.86-.81,7.44-2.32,11.01-3.97,3.61-1.67,7.21-3.35,10.81-5.03,1.1-.51,1.37-2.09.8-3.06-.66-1.12-1.96-1.32-3.06-.8-3.48,1.62-6.96,3.24-10.45,4.86-3.34,1.55-6.68,2.93-10.3,3.69.4,1.44.79,2.88,1.19,4.32.18-.05.36-.11.53-.16,2.75-.83,1.58-5.16-1.19-4.32h0Z"/><path class="cls-7" d="M221,420.9c-.22-.19-.45-.37-.67-.56-.53,1.27-1.06,2.55-1.58,3.82,2.33.09,4.57-.55,6.83-1.04,2.26-.49,4.54-.75,6.85-.8,1.6-.04,3.21.04,4.8.17.29.02.57.05.86.08.19.02.39.04.58.06.39.04-.28-.05.09,0,.27.04.54.09.81.15.1.02.23.09.33.09.12.04.1.03-.08-.04-.34-.12-.6-.36-.78-.71,1.37,2.54,5.24.28,3.87-2.26-.78-1.45-2.81-1.54-4.24-1.71-1.5-.17-3.02-.28-4.52-.31-2.63-.06-5.26.17-7.86.6-2.51.41-4.97,1.34-7.54,1.24-1.84-.07-3.09,2.57-1.58,3.82.22.19.45.37.67.56.93.77,2.26.91,3.17,0,.8-.8.93-2.39,0-3.17h0Z"/><path class="cls-7" d="M205.04,432.97c3.08,1.48,6.13,3.06,9.29,4.36,1.41.58,2.85,1.04,4.35,1.31,1.35.24,2.86.31,4.11.9,1.16.55,3.05.21,3.29-1.34.03-.17.05-.35.08-.52.19-1.19-.3-2.41-1.56-2.75-1.06-.29-2.57.36-2.75,1.56-.03.17-.05.35-.08.52,1.1-.45,2.19-.89,3.29-1.34-1.49-.7-2.97-.99-4.59-1.25-1.49-.24-2.92-.62-4.33-1.16-3.02-1.17-5.92-2.75-8.83-4.15-1.09-.52-2.42-.3-3.06.8-.57.98-.29,2.54.8,3.06h0Z"/><path class="cls-7" d="M272.46,454.5c-.6-6.95-.38-14.04.04-20.99.19-3.16.42-6.35.99-9.48.9-4.96,2.34-9.82,3.57-14.7,2.44-9.71,3.25-19.59,4.4-29.51.57-4.89,1.29-9.76,2.52-14.53,1.24-4.85,3.09-9.46,5.28-13.96,5.17-10.62,10.86-21.01,16.31-31.49,1.33-2.55-2.54-4.82-3.87-2.26-4.97,9.56-10.03,19.08-14.91,28.69-2.25,4.43-4.39,8.96-5.93,13.7-1.59,4.87-2.55,9.91-3.25,14.98-1.36,9.81-1.79,19.75-3.96,29.43-1.94,8.67-4.65,17.05-5.38,25.94-.66,7.99-.96,16.19-.27,24.18.25,2.85,4.73,2.88,4.48,0h0Z"/><path class="cls-7" d="M303.32,320.4c2.88,0,2.89-4.48,0-4.48s-2.89,4.48,0,4.48h0Z"/><path class="cls-7" d="M291.46,234.16c-1.97,5.44-3.66,10.98-5.02,16.6-.64,2.64-1.85,5.89-1.51,8.62.32,2.57,2.39,4.99,3.71,7.14,1.46,2.38,2.97,4.74,4.25,7.23,1.37,2.66,2.19,5.46,2.85,8.36,1.29,5.63,2.47,11.29,3.44,16.98,1.11,6.5,1.88,13.05,2.22,19.63.15,2.87,4.63,2.89,4.48,0-.58-11.38-2.5-22.6-4.92-33.72-.61-2.8-1.16-5.65-2.04-8.38-.89-2.76-2.21-5.36-3.67-7.85-1.41-2.4-2.9-4.77-4.36-7.14-.58-.94-1.52-2.02-1.54-3.17-.01-1.39.6-3.01.9-4.35,1.45-6.36,3.31-12.62,5.53-18.75.98-2.71-3.34-3.88-4.32-1.19h0Z"/><path class="cls-7" d="M293.14,236.17c3.34,1.55,6.68,3.09,10.01,4.64,1.06.49,2.46.33,3.06-.8.52-.99.33-2.54-.8-3.06-3.34-1.55-6.68-3.09-10.01-4.64-1.06-.49-2.46-.33-3.06.8-.52.99-.33,2.54.8,3.06h0Z"/><path class="cls-7" d="M300.89,201.89c5.25,11.33,3.33,24.27,1.51,36.15-.18,1.2.31,2.39,1.56,2.75,1.06.3,2.57-.37,2.75-1.56,2.03-13.24,3.87-27.03-1.96-39.61-1.21-2.61-5.07-.34-3.87,2.26h0Z"/><path class="cls-7" d="M308.32,158.99c-5.43,4.45-10.89,8.88-16.42,13.2-6.38,4.97-13.34,9.31-17.55,16.46-1.46,2.49,2.4,4.75,3.87,2.26,4.04-6.86,11.06-11.03,17.18-15.82,5.42-4.23,10.76-8.57,16.09-12.93,2.23-1.83-.95-4.98-3.17-3.17h0Z"/><path class="cls-7" d="M270.16,161.1c7.61,3.43,15.42,6.41,23,9.89,8.42,3.87,15.55,9.35,21.2,16.73,2.71,3.53,5.03,7.36,7,11.34,2.03,4.1,3.57,8.38,6.51,11.95,5.16,6.28,13.84,9.92,16.78,17.91,1.81,4.91,1.51,10.36.8,15.46-.82,5.87-2.11,11.7-3.65,17.42-.75,2.79,3.57,3.98,4.32,1.19,1.44-5.37,2.63-10.81,3.48-16.3.74-4.78,1.19-9.6.48-14.41-.69-4.64-2.68-8.79-5.82-12.26-2.88-3.18-6.43-5.65-9.61-8.49-1.5-1.34-2.97-2.76-4.15-4.39-1.5-2.08-2.55-4.44-3.6-6.77-1.93-4.29-4.12-8.43-6.79-12.31-5.17-7.52-11.83-14.13-19.88-18.55-8.86-4.87-18.6-8.13-27.81-12.27-2.61-1.17-4.89,2.68-2.26,3.87h0Z"/><path class="cls-7" d="M303.39,174.96c-8.56,9.11-16.4,18.89-23.43,29.22-1.63,2.39,2.25,4.63,3.87,2.26,6.82-10.02,14.42-19.48,22.73-28.31,1.97-2.1-1.19-5.27-3.17-3.17h0Z"/><path class="cls-7" d="M289.05,200.68c-1.61.65-1.86,1.02-.76,1.13.4.09.8.18,1.2.27.8.17,1.61.32,2.42.46,1.41.24,2.83.43,4.25.58,2.95.32,5.93.41,8.9.3,6.04-.23,12.03-1.32,17.77-3.22,2.72-.9,1.56-5.23-1.19-4.32-6.35,2.1-12.96,3.18-19.65,3.1-3.28-.04-6.56-.33-9.79-.92-2.18-.4-6.88-2.12-7.46,1.44-.46,2.82,3.85,4.03,4.32,1.19h0Z"/><path class="cls-7" d="M279.15,229.9c2.3,1.33,4.59,2.69,6.92,3.98,2.32,1.28,4.8,2.33,7.5,2.34,1.17,0,2.29-1.03,2.24-2.24-.05-1.22-.98-2.23-2.24-2.24-.31,0-.62-.01-.93-.04.38.04-.34-.07-.43-.09-.57-.12-1.12-.3-1.66-.51-.69-.26.34.17-.33-.13-.29-.13-.57-.27-.85-.41-.49-.25-.98-.51-1.46-.78-2.18-1.23-4.34-2.5-6.51-3.75-1.02-.59-2.5-.27-3.06.8-.56,1.07-.28,2.44.8,3.06h0Z"/><path class="cls-7" d="M303.84,211.96c-5.66,6.09-11.91,11.61-18.68,16.44-.98.7-1.45,1.95-.8,3.06.57.97,2.07,1.51,3.06.8,7.09-5.04,13.66-10.77,19.59-17.14,1.96-2.11-1.2-5.28-3.17-3.17h0Z"/><path class="cls-7" d="M329.61,210.78c-2.3,2.74-4.6,5.48-6.9,8.22-1.08,1.29-2.14,2.59-3.25,3.86-.47.54-.96,1.06-1.51,1.53-.31.27-.99.68-1.31.79-1.14.41-1.9,1.53-1.56,2.75.3,1.1,1.61,1.97,2.75,1.56,3.38-1.21,5.45-4.24,7.67-6.88,2.42-2.89,4.85-5.78,7.27-8.67.78-.93.91-2.26,0-3.17-.8-.8-2.39-.93-3.17,0h0Z"/><path class="cls-7" d="M305.19,216.66c1.55,3.43,3.51,6.76,6.24,9.39,2.88,2.78,6.46,4.3,10.16,5.68,3.51,1.31,6.9,2.68,9.58,5.4,2.47,2.51,4.05,5.65,4.74,9.09.57,2.82,4.89,1.63,4.32-1.19-1.56-7.68-6.99-13.39-14.09-16.32-3.53-1.46-7.41-2.43-10.45-4.85-3.06-2.44-5.04-5.94-6.63-9.45-.5-1.11-2.09-1.36-3.06-.8-1.14.65-1.3,1.97-.8,3.06h0Z"/><path class="cls-7" d="M303.69,241.04c7.92,3.06,16.22,4.87,24.49,6.68,6.47,1.42,14.94,4.52,20.47-.8,2.08-2-1.09-5.17-3.17-3.17-2.07,1.99-5.19,1.87-7.84,1.45-3.6-.58-7.17-1.55-10.73-2.34-7.45-1.64-14.9-3.39-22.03-6.14-2.69-1.04-3.86,3.29-1.19,4.32h0Z"/><path class="cls-7" d="M319.36,245.03c4.13,3.69,7.75,8.12,11.14,12.48,3.43,4.42,6.56,9.07,9.42,13.88,1.47,2.48,5.34.23,3.87-2.26-2.97-5.01-6.26-9.81-9.82-14.41-3.48-4.49-7.19-9.07-11.43-12.86-2.14-1.92-5.32,1.24-3.17,3.17h0Z"/><path class="cls-7" d="M319.83,242.05c-4.36,7.82-8.19,15.91-11.53,24.21-.45,1.12.49,2.46,1.56,2.75,1.28.35,2.3-.44,2.75-1.56,3.19-7.94,6.91-15.66,11.08-23.14,1.4-2.52-2.46-4.78-3.87-2.26h0Z"/><path class="cls-7" d="M287.61,258.99c3.86.69,7.71,1.39,11.57,2.08,3.52.63,7.14,1.23,10.42,2.71,1.1.5,2.41.32,3.06-.8.56-.96.3-2.56-.8-3.06-3.54-1.6-7.26-2.4-11.07-3.09-4-.72-7.99-1.44-11.99-2.16-1.19-.21-2.41.32-2.75,1.56-.3,1.08.37,2.54,1.56,2.75h0Z"/><path class="cls-7" d="M271.83,256.54c4.43.65,8.8,1.6,13.1,2.85,1.12.33,2.49-.4,2.75-1.56.27-1.2-.36-2.4-1.56-2.75-4.3-1.25-8.67-2.2-13.1-2.85-1.15-.17-2.46.29-2.75,1.56-.24,1.06.32,2.57,1.56,2.75h0Z"/><path class="cls-7" d="M265.67,270.59c-.06-.05-.12-.09-.18-.14.34.45.69.89,1.03,1.34-.01-.08-.03-.16-.04-.24v1.19c.03-.08.06-.15.09-.23-.34.45-.69.89-1.03,1.34.38-.25,1.15-.24,1.59-.32.65-.11,1.3-.23,1.94-.34,1.12-.2,2.24-.41,3.36-.59,2.39-.38,4.77.14,7.15-.21,1.02-.15,1.99-.55,3.01-.65,1.2-.12,2.43.06,3.64-.02,1.96-.13,5.49-.15,6.56-2.08.46-.84.39-2.04-.35-2.71-.67-.61-1.47-.87-2.36-.61-.87.25-1.73,1.19-1.64,2.16,0,.02,0,.05,0,.07.11,1.2.95,2.24,2.24,2.24,1.12,0,2.35-1.03,2.24-2.24,0-.02,0-.05,0-.07-.55.72-1.1,1.44-1.64,2.16.04-.01.07-.02.11-.03-.73-.19-1.45-.38-2.18-.58.03.02.05.05.08.07-.12-.9-.23-1.81-.35-2.71-.03.05-.06.11-.09.16.27-.27.54-.54.8-.8-1,.44-2.55.46-3.65.52-1.27.07-2.55-.09-3.81.04-1.32.13-2.58.7-3.91.74-1.36.04-2.72-.17-4.08-.11-2.68.13-5.37.78-8.01,1.25-1.31.23-2.95.32-3.71,1.62-.82,1.4-.25,2.76.93,3.67.96.73,2.51.15,3.06-.8.67-1.15.16-2.33-.8-3.06h0Z"/><path class="cls-7" d="M263.26,273.21c.47,1.81,1.39,3.47,2.22,5.14.82,1.67,1.65,3.33,2.47,5,1.71,3.45,3.41,6.9,5.12,10.35.54,1.08,2.07,1.38,3.06.8,1.1-.65,1.34-1.98.8-3.06-1.65-3.33-3.3-6.66-4.94-9.99-.82-1.67-1.65-3.33-2.47-5-.71-1.44-1.53-2.86-1.94-4.42-.73-2.79-5.05-1.6-4.32,1.19h0Z"/><path class="cls-7" d="M298.52,283c-3.55,1.29-7.11,2.6-10.48,4.31-1.63.83-3.16,1.82-4.79,2.64-1.72.86-3.47,1.19-5.38,1.31-3.86.24-7.54.79-11.28,1.78-3.13.83-7.56,2.88-10.76,1.43-2.61-1.18-4.89,2.68-2.26,3.87,3.72,1.68,7.42.87,11.2-.16,4.14-1.13,8.17-2.17,12.48-2.41,2-.11,4.04-.26,5.93-.94,1.77-.64,3.39-1.59,5.02-2.52,3.65-2.09,7.56-3.55,11.5-4.99,2.69-.98,1.53-5.31-1.19-4.32h0Z"/><path class="cls-7" d="M274.99,294.06c.54,2.85,2.32,5.28,3.18,7.91.96,2.92,1.23,5.95,2.48,8.78.45-1.1.89-2.19,1.34-3.29l-.45.09c-1.19.24-1.87,1.65-1.56,2.75.34,1.24,1.56,1.8,2.75,1.56l.45-.09c1.56-.31,1.87-2.07,1.34-3.29-1.09-2.49-1.22-5.39-2.12-7.98-.92-2.65-2.58-4.92-3.09-7.64-.23-1.19-1.66-1.87-2.75-1.56-1.25.34-1.79,1.56-1.56,2.75h0Z"/><path class="cls-7" d="M251.59,309.23c-.35.37-.69.75-1.04,1.12-1.64,1.77.56,5.08,2.71,3.52,3.39-2.47,7.8-3.29,11.75-4.48,1.81-.54,3.96-1.71,5.76-.84,1.85.9,3.63,1.89,5.53,2.69,7.6,3.2,15.86,4.65,24.09,4.23,2.87-.14,2.89-4.62,0-4.48-8.63.43-17.32-1.24-25.07-5.1-1.68-.84-3.38-2.09-5.31-2.21-2.28-.14-4.66.93-6.8,1.58-4.12,1.24-8.67,2.17-12.21,4.75.9,1.17,1.81,2.34,2.71,3.52.35-.37.69-.75,1.04-1.12,1.96-2.11-1.2-5.29-3.17-3.17h0Z"/><path class="cls-7" d="M280.19,312.61c3.62,7.06,8.55,13.45,14.45,18.76.9.81,2.28.89,3.17,0,.82-.82.9-2.35,0-3.17-5.64-5.08-10.28-11.1-13.75-17.85-.55-1.08-2.06-1.39-3.06-.8-1.09.64-1.36,1.98-.8,3.06h0Z"/><path class="cls-7" d="M286.33,322.52c-.36,1.07-1.25,2.14-2.14,3.14-1.1,1.23-2.22,2.44-3.37,3.62-1.11,1.15-2.25,2.29-3.4,3.4-.59.57-1.19,1.14-1.8,1.7-.3.28-.6.56-.91.84-.14.12-.27.25-.41.37-.1.09-.2.18-.31.28-.24.2-.12.14.35-.19h1.19c-.06-.01-.13-.02-.19-.03-1.15-.19-2.47.3-2.75,1.56-.25,1.08.33,2.55,1.56,2.75,1.49.25,2.35-.34,3.41-1.3.71-.65,1.42-1.3,2.12-1.96,1.36-1.29,2.7-2.61,4.01-3.96,1.3-1.34,2.58-2.71,3.82-4.11,1.32-1.49,2.49-3.03,3.13-4.93.37-1.11-.43-2.5-1.56-2.75-1.24-.28-2.35.37-2.75,1.56h0Z"/><path class="cls-7" d="M256.93,312.65c2.88,0,2.89-4.48,0-4.48s-2.89,4.48,0,4.48h0Z"/><path class="cls-7" d="M256.32,308.22c-.32.11-.64.22-.96.34-1.34.47-2.12,1.98-1.34,3.29,2.26,3.81,4.52,7.62,7.18,11.17,2.44,3.25,5.44,6.05,7.81,9.34,2.2,3.04,2.7,7.07,5.56,9.62,3.28,2.93,7.25,5.3,10.96,7.64,2.44,1.54,4.69-2.33,2.26-3.87-3.43-2.17-7.27-4.34-10.24-7.12-1.33-1.24-1.73-2.88-2.41-4.5-.74-1.78-1.74-3.38-2.91-4.9-2.31-3.02-5.07-5.65-7.34-8.71-2.58-3.48-4.79-7.21-7-10.92-.45,1.1-.89,2.19-1.34,3.29.32-.11.64-.22.96-.34,2.7-.94,1.54-5.27-1.19-4.32h0Z"/><path class="cls-7" d="M273.14,335.07c-3.05-.6-5.62,1.24-8.01,2.9-2.27,1.58-4.41,3.34-6.44,5.23-4.04,3.76-7.6,8-11.09,12.27-.76.94-.92,2.25,0,3.17.79.79,2.4.94,3.17,0,3.15-3.87,6.36-7.7,9.93-11.18,1.71-1.66,3.49-3.26,5.4-4.69.95-.71,1.93-1.39,2.93-2.03.73-.46,1.98-1.53,2.91-1.35,1.19.23,2.42-.34,2.75-1.56.3-1.1-.37-2.52-1.56-2.75h0Z"/><path class="cls-7" d="M247.84,360.43c11.15.32,22.59-.85,33.51,1.93,2.79.71,3.99-3.61,1.19-4.32-11.34-2.89-23.14-1.76-34.71-2.09-2.88-.08-2.88,4.4,0,4.48h0Z"/><path class="cls-7" d="M272.15,336.82c-.64,3.52-1.28,7.05-1.91,10.57-.31,1.7-.61,3.39-.92,5.09-.33,1.83-.8,3.71-.19,5.53.39,1.15,1.54,1.9,2.75,1.56,1.12-.31,1.95-1.6,1.56-2.75-.43-1.28.13-2.85.36-4.13.3-1.63.59-3.26.89-4.89.59-3.26,1.18-6.52,1.77-9.79.22-1.19-.32-2.41-1.56-2.75-1.09-.3-2.54.37-2.75,1.56h0Z"/><path class="cls-7" d="M246.49,380.36c3.11-1.25,6.27-2.38,9.48-3.36,1.4-.43,2.82-.83,4.24-1.2,1.39-.36,3.41-1.24,4.86-.99,1.16.21,2.04,1.29,2.91,2,.91.74,1.87,1.37,2.92,1.88,2.29,1.11,4.93,1.74,6.8,3.55l3.17-3.17-.6-.47c-.96-.75-2.23-.92-3.17,0-.78.77-.95,2.42,0,3.17.2.16.4.31.6.47,2.2,1.72,5.29-1.1,3.17-3.17-2.14-2.08-4.84-2.91-7.48-4.15-2.53-1.19-4.35-3.8-7.12-4.44-1.71-.39-3.45.05-5.11.45-1.73.42-3.45.87-5.16,1.37-3.62,1.06-7.18,2.31-10.69,3.72-1.13.45-1.9,1.49-1.56,2.75.28,1.07,1.63,2.02,2.75,1.56h0Z"/><path class="cls-7" d="M269.35,374.68c-4.97,4.33-10.41,8.46-14.48,13.7-1.92,2.48-3.44,5.2-4.97,7.93-1.52,2.73-2.85,5.9-4.9,8.27-1.88,2.17,1.28,5.35,3.17,3.17,2.05-2.37,3.41-5.26,4.93-7.98,1.56-2.8,3.05-5.68,4.97-8.25,3.93-5.27,9.53-9.38,14.45-13.67,2.18-1.9-1-5.05-3.17-3.17h0Z"/><path class="cls-7" d="M258.72,386.44c1.78,10.36,3.36,20.75,4.73,31.17.16,1.21.92,2.23,2.24,2.24,1.09.01,2.4-1.04,2.24-2.24-1.42-10.82-3.05-21.61-4.89-32.36-.49-2.83-4.8-1.63-4.32,1.19h0Z"/><path class="cls-7" d="M264.74,405.08c1.83-.11,3.64-.45,5.44-.79.4-.07.8-.15,1.21-.22.22-.04.43-.07.65-.11.08-.01.7-.13.15-.02.85-.16,1.76-.16,2.62-.15,1.17.03,2.29-1.05,2.24-2.24-.06-1.23-.98-2.21-2.24-2.24-1.83-.04-3.65.25-5.45.58-.81.15-1.61.31-2.42.44-.22.04-.43.07-.65.1-.09.01-.19.03-.28.04.28-.04.3-.04.03,0-.44.05-.87.09-1.31.12-1.17.07-2.3.98-2.24,2.24.05,1.16.99,2.31,2.24,2.24h0Z"/><path class="cls-7" d="M250.85,411.5c.3,2.73.51,5.47.61,8.21.05,1.37.08,2.74.08,4.12,0,.65,0,1.29-.02,1.94,0,.22-.11.7-.02.89-.03.23,0,.22.07-.03.14-.28.09-.27-.17.04-1.87,1.25-3.51,2.9-5.38,4.18-2,1.37-4.11,2.57-6.41,3.34-2.72.92-1.55,5.24,1.19,4.32,2.67-.9,5.16-2.2,7.48-3.79,1.16-.79,2.27-1.64,3.37-2.51,1.05-.83,2.24-1.63,3.15-2.61,1.04-1.1,1.16-2.39,1.18-3.83.03-1.53.02-3.07-.02-4.6-.08-3.23-.3-6.45-.66-9.66-.13-1.2-.93-2.24-2.24-2.24-1.11,0-2.37,1.03-2.24,2.24h0Z"/><path class="cls-7" d="M252.28,428.78c4.93,5.04,10.34,9.58,16.12,13.62.99.69,2.49.18,3.06-.8.65-1.12.19-2.37-.8-3.06-5.47-3.82-10.55-8.15-15.21-12.92-2.02-2.06-5.19,1.11-3.17,3.17h0Z"/><path class="cls-7" d="M202.86,164.29c-.29,1.27-.58,2.54-.87,3.82-.29,1.28-.85,2.78-.74,4.1.14,1.58,1.1,2.53,2.15,3.6.42.42.82.87,1.2,1.32.1.11.19.23.28.35.23.29-.16-.22.06.08.2.27.39.54.58.82.66.96,2,1.49,3.06.8.96-.62,1.51-2.03.8-3.06-.7-1.02-1.46-2-2.29-2.91-.35-.38-.71-.73-1.08-1.09-.09-.09-.18-.18-.27-.27-.17-.19-.17-.19-.02.01-.13-.22-.14-.21-.03.04,0,.25,0,.28,0,.11,0-.16,0-.14-.04.09.02-.14.05-.27.08-.4.07-.32.14-.64.22-.95.13-.56.25-1.11.38-1.67.27-1.19.54-2.39.81-3.58.26-1.14-.35-2.48-1.56-2.75-1.14-.26-2.48.34-2.75,1.56h0Z"/><path class="cls-7" d="M339.94,271.99c2.48,2.09,4.95,4.17,7.43,6.26,1.14.96,2.37,1.86,3.41,2.93.99,1.02,1,2.23,1.08,3.59.34,5.85.21,11.73-.38,17.56-1.19,11.74-4.33,23.39-9.26,34.12-2.54,5.54-5.58,10.83-8.38,16.24-2.73,5.27-5.02,10.7-7.15,16.24-2.05,5.35-4.05,10.74-6.72,15.81-2.67,5.07-6.09,9.5-10.09,13.59-2.28,2.33-4.66,4.55-7.02,6.79-1.05,1-2.25,1.98-3.02,3.22-.92,1.49-.89,3.19-.95,4.88-.25,6.93-.5,13.85-.76,20.78-.1,2.88,4.37,2.88,4.48,0,.23-6.28.46-12.55.68-18.83.04-1.21-.24-3.24.27-4.36.54-1.19,2.17-2.25,3.1-3.14,2.15-2.04,4.3-4.06,6.37-6.18,4.04-4.13,7.61-8.64,10.38-13.73,2.78-5.12,4.87-10.58,6.96-16.01,2.12-5.53,4.33-10.98,7.04-16.25,2.88-5.6,6.04-11.07,8.67-16.8,5.03-10.95,8.26-22.6,9.67-34.57.79-6.71,1.03-13.54.53-20.28-.12-1.57-.32-3.12-1.2-4.46-.85-1.3-2.09-2.24-3.26-3.23-2.9-2.45-5.81-4.89-8.71-7.34-2.19-1.85-5.37,1.31-3.17,3.17h0Z"/><path class="cls-7" d="M293.11,270c4.63.18,9.1.99,13.66,1.74,2.19.36,4.39.63,6.61.62,2.16-.01,4.37-.25,6.47.34,1.85.52,3.49,1.56,5.2,2.38,1.86.9,3.75,1.57,5.8,1.86,4.27.61,8.53-.19,12.72-1.02,2.82-.56,1.63-4.88-1.19-4.32-3.92.78-8.11,1.65-12.07.7-3.89-.94-7.02-3.7-11.05-4.28-2.07-.3-4.12-.14-6.2-.14-2.15,0-4.25-.3-6.36-.68-4.52-.81-9-1.5-13.59-1.68-2.88-.11-2.88,4.36,0,4.48h0Z"/><path class="cls-7" d="M322.97,273.24c-2.62,6.46-4.18,13.27-4.76,20.22-.1,1.21,1.1,2.24,2.24,2.24,1.3,0,2.14-1.03,2.24-2.24.55-6.54,2.14-12.95,4.6-19.02.45-1.12-.49-2.46-1.56-2.75-1.28-.35-2.3.44-2.75,1.56h0Z"/><path class="cls-7" d="M346.82,275.91c-5.06,6.99-10.11,13.99-15.17,20.98-.71.98-.17,2.5.8,3.06,1.13.66,2.35.18,3.06-.8,5.06-6.99,10.11-13.99,15.17-20.98.71-.98.17-2.5-.8-3.06-1.13-.66-2.35-.18-3.06.8h0Z"/><path class="cls-7" d="M298.68,285.73c6.89,6.72,15.99,10.75,25.59,11.35,2.58.16,4.67.34,6.64,2.18,1.99,1.87,3.76,4.01,5.61,6.03,3.87,4.23,7.74,8.46,11.61,12.68,1.95,2.13,5.11-1.04,3.17-3.17-3.79-4.15-7.59-8.29-11.38-12.44-3.47-3.79-6.79-8.69-12.23-9.48-2.37-.34-4.77-.3-7.13-.72-2.31-.41-4.58-1.05-6.78-1.89-4.46-1.71-8.51-4.39-11.93-7.71-2.07-2.01-5.24,1.15-3.17,3.17h0Z"/><path class="cls-7" d="M337.57,304.89c-1.98,3.56-4.67,6.46-7.63,9.22-1.69,1.58-3.42,3.1-5.24,4.52-.89.69-1.79,1.36-2.69,2.02-.5.37-1,.75-1.52,1.11-.19.14-.38.26-.58.39-.34.16-.42.21-.22.15.19-.04.11-.06-.25-.06-1.2-.14-2.24,1.13-2.24,2.24,0,1.33,1.03,2.1,2.24,2.24,1.52.18,2.76-.68,3.92-1.53,1.01-.74,2.02-1.48,3.02-2.24,2.17-1.65,4.25-3.37,6.25-5.22,3.4-3.15,6.55-6.5,8.82-10.59,1.4-2.52-2.47-4.78-3.87-2.26h0Z"/><path class="cls-7" d="M300.55,305.88c1.14,3.97,4.54,6.32,7.1,9.31,2.82,3.3,5.34,7.25,9.91,8.2,1.56.33,2.65-.67,2.83-2.16.12-1-.53-2.03-1.4-2.49-1.07-.56-2.44-.27-3.06.8-.59,1.01-.27,2.5.8,3.06-.06-.04-.13-.09-.19-.13-.19-.33-.38-.66-.58-.99-.02-.09-.03-.17-.05-.26.94-.72,1.89-1.44,2.83-2.16-1.62-.34-2.83-1.18-4.03-2.39-1.43-1.44-2.58-3.12-3.9-4.66-1.11-1.3-2.39-2.45-3.57-3.68-.57-.6-1.08-1.17-1.41-1.65-.53-.79-.77-1.28-.98-2-.33-1.16-1.58-1.89-2.75-1.56-1.16.32-1.9,1.59-1.56,2.75h0Z"/><path class="cls-7" d="M313.84,293.86c1.79,4.87,4.3,9.97,4.7,15.21.4,5.24-.83,10.37-2.04,15.43-.67,2.8,3.65,4,4.32,1.19,1.3-5.41,2.63-11.01,2.2-16.62-.44-5.72-2.9-11.07-4.86-16.4-.99-2.68-5.32-1.52-4.32,1.19h0Z"/><path class="cls-7" d="M295.44,342.57c.93-1.53,3.32-1.65,4.9-2.01,2.35-.54,4.49-1.58,6.62-2.67,3.79-1.94,7.65-2.94,11.9-3.2,8.63-.52,17.28,1.04,25.69,2.8,2.81.59,4.01-3.73,1.19-4.32-9.25-1.93-18.91-3.73-28.39-2.84-4.91.46-9.07,1.89-13.45,4.1-2.31,1.17-4.57,1.67-7.04,2.32-2.18.58-4.09,1.57-5.29,3.55-1.49,2.47,2.38,4.73,3.87,2.26h0Z"/><path class="cls-7" d="M316.89,324.28l-2.85,7.61c-.19.52-.04,1.27.23,1.73.27.46.8.91,1.34,1.03,1.27.29,2.31-.39,2.75-1.56.95-2.54,1.9-5.07,2.85-7.61.19-.52.04-1.27-.23-1.73-.27-.46-.8-.91-1.34-1.03-1.27-.29-2.31.39-2.75,1.56h0Z"/><path class="cls-7" d="M322.91,331.34c-3.35,4.73-6.69,9.46-10.04,14.18-1.67,2.36-3.35,4.73-5.02,7.09-.77,1.09-1.54,2.18-2.32,3.27-.78,1.1-1.78,2.23-2.16,3.56-.67,2.39.99,4.21,2.12,6.11,1.23,2.08,2.18,4.29,2.78,6.64,1.13,4.36.93,9.12-1.42,13.06-2.34,3.91-6.43,6.7-11.07,6.58-1.27-.03-2.15,1.06-2.24,2.24-.39,5.45-2.5,10.81-5.98,15.04-3.84,4.67-9.16,7.45-14.45,10.15-2.57,1.31-.3,5.17,2.26,3.87,5.98-3.05,11.83-6.3,16.03-11.68,3.91-5.02,6.17-11.03,6.63-17.37-.75.75-1.49,1.49-2.24,2.24,9.59.25,16.83-8.29,17.57-17.35.42-5.08-1.05-10.24-3.45-14.69-.57-1.05-1.24-2.02-1.87-3.03-.33-.53-.34-.48-.11-1.02.31-.72,1-1.43,1.46-2.08,1.8-2.55,3.6-5.09,5.41-7.64,3.99-5.64,7.98-11.27,11.97-16.91,1.67-2.36-2.21-4.6-3.87-2.26h0Z"/><path class="cls-7" d="M291.14,341.67c2.46,7.54,6.97,14.05,11.52,20.45.7.98,1.95,1.45,3.06.8.97-.57,1.51-2.07.8-3.06-4.31-6.06-8.74-12.24-11.07-19.38-.38-1.15-1.55-1.9-2.75-1.56-1.13.31-1.94,1.6-1.56,2.75h0Z"/><path class="cls-7" d="M306.15,362.94c4.21-2.45,9.27-3.61,13.99-4.66,2.58-.58,5.17-.68,7.78-1.02,2.59-.33,5.07-.98,7.48-1.97,1.11-.46,1.92-1.49,1.56-2.75-.3-1.05-1.63-2.03-2.75-1.56-2.55,1.05-5.2,1.75-7.95,1.99-2.65.23-5.26.52-7.86,1.13-4.93,1.15-10.1,2.42-14.51,4.99-2.49,1.45-.24,5.32,2.26,3.87h0Z"/><path class="cls-7" d="M280.86,364.5c3.09,4.86,6.51,9.52,10.22,13.93.89,1.06,1.84,2.07,2.73,3.14.95,1.14.96,1.97.81,3.43-.3,3.01-.61,6.02-.92,9.03-.12,1.21,1.12,2.23,2.24,2.24,1.31.01,2.12-1.04,2.24-2.24.32-3.11.67-6.21.95-9.32.31-3.4-1.29-5.29-3.41-7.72-4.04-4.63-7.7-9.56-10.99-14.75-1.54-2.42-5.42-.18-3.87,2.26h0Z"/><path class="cls-7" d="M304.05,359.69c-4.05,5.63-7.62,11.59-10.67,17.82-.53,1.09-.29,2.42.8,3.06.99.58,2.53.29,3.06-.8,3.05-6.23,6.62-12.19,10.67-17.82.71-.98.17-2.49-.8-3.06-1.13-.66-2.36-.18-3.06.8h0Z"/><path class="cls-7" d="M279.81,394.96c2.67-.42,5.32-.94,7.95-1.57,2.68-.64,5.32-1.36,7.84-2.5,1.1-.5,1.37-2.1.8-3.06-.66-1.13-1.96-1.3-3.06-.8-2.19.99-4.69,1.55-7.05,2.12-2.53.6-5.09,1.1-7.66,1.5-1.2.19-1.86,1.68-1.56,2.75.35,1.27,1.56,1.75,2.75,1.56h0Z"/><path class="cls-7" d="M296.1,403.18c-.37-1.28-1.7-2.01-2.97-1.63-1.54.45-2.12,2.23-1.38,3.58.29.53.82,1,1.22,1.45.36.39.71.78,1.07,1.18,1.38,1.52,2.75,3.04,4.13,4.55.79.87,2.38.86,3.17,0,.85-.93.84-2.24,0-3.17-1.01-1.11-2.01-2.22-3.02-3.33-1-1.1-2.04-2.17-3-3.31.12.15.23.3.35.45-.02-.03-.04-.06-.06-.09.08.18.15.36.23.53-.01-.03-.02-.07-.04-.1.03.2.05.4.08.6,0-.03,0-.07,0-.1-.1.38-.2.75-.31,1.13,0-.02.02-.03.03-.05-.12.15-.23.3-.35.45.02-.01.03-.03.05-.04-.33.19-.66.38-.99.58.02,0,.04-.01.06-.02-.2.03-.4.05-.6.08.02,0,.04,0,.06,0-.2-.03-.4-.05-.6-.08.02,0,.03,0,.05.01-.33-.19-.66-.38-.99-.58.01.01.03.02.04.03-.19-.33-.38-.66-.58-.99,0,.02,0,.03.01.05.32,1.13,1.6,1.94,2.75,1.56,1.15-.37,1.91-1.55,1.56-2.75h0Z"/><path class="cls-7" d="M314.12,375.21s-.03-.03-.04-.04c-1.02-1.13-2.76-.68-3.52.45-.59.88-.33,2.26.43,2.96.76.7,1.67.72,2.64.62,1.44-.15,2.84-.45,4.24-.82,1.23-.33,2.46-.69,3.71-.92.14-.03.28-.05.42-.07.42-.07-.11,0,.15-.02.28-.02.56-.05.85-.06.32-.01.64-.01.95,0,.05,0,.61.06.34.02-.26-.03.35.07.34.07,1.15.23,2.47-.32,2.75-1.56.25-1.11-.33-2.51-1.56-2.75-2.41-.47-4.76-.15-7.12.45-1.07.27-2.12.58-3.19.84-.5.12-1,.23-1.5.31-.14.02-.29.05-.43.07.24-.03.22-.03-.05,0-.14.01-.29.02-.43.03-.31,0-.29.02.07.07.33.19.66.38.99.58-.02-.02-.04-.05-.06-.07.19.33.38.66.58.99.01.15.03.3.04.45-.1.38-.2.75-.31,1.13,0,0,.01-.02.02-.03-1.17.15-2.34.3-3.52.45.01.01.03.03.04.04.78.88,2.38.86,3.17,0,.86-.93.84-2.23,0-3.17h0Z"/><path class="cls-7" d="M324.8,388.34l.21-2.19h-4.48c-.62,6.71-2.59,13.19-4.9,19.49-1.14,3.11-2.29,6.27-3.62,9.3-1.29,2.93-3.42,4.52-6.07,6.17-2.44,1.52-.2,5.39,2.26,3.87,2.85-1.77,5.6-3.69,7.19-6.74,1.68-3.23,2.85-6.82,4.12-10.23,2.65-7.08,4.8-14.31,5.5-21.87.26-2.87-4.2-2.84-4.48,0-.07.73-.14,1.46-.21,2.19-.28,2.87,4.2,2.85,4.48,0h0Z"/><path class="cls-7" d="M301.12,426.08c2.86.15,5.58-.66,8.34-1.3,2.88-.66,5.8-1.12,8.72-1.57,5.6-.86,11.66-2.42,17.28-1.05,2.8.68,3.99-3.63,1.19-4.32-5.9-1.44-11.92-.14-17.8.77-2.91.45-5.83.87-8.72,1.46-2.98.6-5.94,1.7-9,1.54-2.88-.16-2.87,4.32,0,4.48h0Z"/><path class="cls-7" d="M329.85,362.27c1.91,9.62,4.69,19.15,3.68,29.05-.97,9.48-4.11,19.13-9.06,27.28-1.5,2.47,2.37,4.72,3.87,2.26,5.29-8.72,8.49-18.92,9.62-29.03,1.16-10.46-1.76-20.59-3.79-30.75-.56-2.82-4.88-1.63-4.32,1.19h0Z"/><path class="cls-7" d="M337.07,389.66s-.07-.04-.1-.06l.8.8s-.03-.06-.04-.09c.1.38.2.75.31,1.13,0,.55-.2.95-.59,1.21l.4-.29.8-.58c.54-.38,1.07-.77,1.61-1.15,1.01-.72,2.01-1.44,3.02-2.16,2.08-1.49,4.16-2.98,6.23-4.47.95-.68,1.5-1.98.8-3.06-.61-.94-2.05-1.53-3.06-.8-2.55,1.83-5.09,3.65-7.64,5.48-1.24.89-2.48,1.78-3.72,2.67-.72.51-1.55.98-1.98,1.79-.64,1.22-.34,2.74.9,3.45,1.02.58,2.49.27,3.06-.8.56-1.06.28-2.44-.8-3.06h0Z"/><path class="cls-7" d="M336.9,348.21c.58,3.75,2.29,7.3,3.59,10.83.61,1.67,1.24,3.37,1.58,5.13.5,2.56.71,5.16,1.35,7.7,2.42,9.56,8.67,17.44,14.7,24.99,1.8,2.25,4.95-.94,3.17-3.17-5.82-7.29-11.85-14.95-13.84-24.27-.48-2.25-.64-4.55-1.14-6.79-.38-1.7-.98-3.36-1.59-4.99-1.28-3.46-2.94-6.94-3.51-10.61-.19-1.2-1.68-1.85-2.75-1.56-1.28.34-1.75,1.57-1.56,2.75h0Z"/><path class="cls-7" d="M347.58,375.35c-1.44,0-2.7-1.04-2.94-2.5-.27-1.63.84-3.16,2.46-3.43l17.58-2.88c.19-.03.38-.05.57-.04l13.33.4c1.65.05,2.94,1.43,2.89,3.07-.05,1.65-1.3,2.97-3.07,2.89l-13.04-.39-17.3,2.84c-.16.03-.33.04-.49.04Z"/><path class="cls-7" d="M375.03,372.76c-1.03,0-2.02-.53-2.58-1.48l-10.61-18.15c-.24-.41-.38-.87-.4-1.35l-1.57-29.12c-.03-.52.08-1.03.31-1.5l3.11-6.2c.74-1.47,2.54-2.06,4.01-1.33,1.47.74,2.07,2.53,1.33,4.01l-2.75,5.49,1.48,27.6,10.24,17.52c.83,1.42.35,3.25-1.07,4.08-.48.28-.99.41-1.5.41Z"/><path class="cls-7" d="M394.74,318.75c-.06,0-.11,0-.17,0l-30.46-1.67c-.18-.01-.36-.04-.53-.08l-10.95-2.62c-1.6-.38-2.59-1.99-2.21-3.6.39-1.6,1.99-2.6,3.6-2.21l10.69,2.56,30.19,1.66c1.65.09,2.91,1.5,2.82,3.14-.09,1.59-1.41,2.82-2.98,2.82Z"/><path class="cls-7" d="M354.5,296.52c6.71-.04,13.48.18,20.17-.33,3.25-.25,6.5-.72,9.64-1.61,2.98-.85,6.1-2.18,9.24-1.46,2.81.65,4-3.67,1.19-4.32-3.17-.73-6.24-.13-9.31.77-3.35.99-6.63,1.79-10.12,2.09-6.9.59-13.89.34-20.8.38-2.88.02-2.89,4.49,0,4.48h0Z"/><path class="cls-7" d="M377.82,295.36c2.83,6.29,3.97,12.92,3.6,19.79-.07,1.21,1.08,2.24,2.24,2.24,1.27,0,2.17-1.03,2.24-2.24.41-7.69-1.05-15.04-4.21-22.05-.5-1.1-2.1-1.37-3.06-.8-1.14.66-1.3,1.96-.8,3.06h0Z"/><path class="cls-7" d="M386.3,254.04c-2.57,2.72-5.15,5.43-7.72,8.15-2.52,2.66-4.93,5.54-7.68,7.96-2.68,2.36-6.09,2.47-9.48,2.75-3.86.32-7.72.64-11.58.97-2.85.24-2.88,4.72,0,4.48,4.08-.34,8.16-.68,12.24-1.02,3.76-.31,7.53-.61,10.65-2.93,3.03-2.26,5.51-5.35,8.1-8.08,2.88-3.03,5.75-6.07,8.63-9.1,1.98-2.09-1.18-5.26-3.17-3.17h0Z"/><path class="cls-7" d="M368.52,275.2c1.25,2.88,2.61,5.72,4.08,8.5,1.26,2.37,2.8,4.84,2.95,7.58.06,1.21.98,2.24,2.24,2.24,1.16,0,2.3-1.03,2.24-2.24-.18-3.39-1.69-6.35-3.26-9.29-1.58-2.96-3.04-5.98-4.38-9.05-.48-1.11-2.11-1.36-3.06-.8-1.15.67-1.29,1.95-.8,3.06h0Z"/><path class="cls-7" d="M342.26,261.55c-1.19,2.45-2.21,5-3,7.61-.34,1.12.41,2.49,1.56,2.75,1.21.28,2.39-.36,2.75-1.56.49-1.62,1.07-3.21,1.73-4.77-.08.18-.15.36-.23.53.33-.78.68-1.55,1.05-2.31.27-.55.39-1.12.23-1.73-.14-.52-.54-1.08-1.03-1.34-1.01-.53-2.52-.32-3.06.8h0Z"/><path class="cls-7" d="M345.23,251.9c4.82,11.01,13.79,20.15,24.7,25.18,1.1.51,2.41.31,3.06-.8.56-.97.3-2.56-.8-3.06-10.33-4.76-18.54-13.15-23.1-23.57-.48-1.11-2.11-1.36-3.06-.8-1.14.67-1.29,1.95-.8,3.06h0Z"/><path class="cls-7" d="M344.89,224.32c1.97-1.12,3.82-2.48,5.45-4.06,1.47-1.43,2.77-3.58,4.82-4.21,2.3-.71,5.07-.48,7.46-.61,2.7-.15,5.41-.3,8.11-.46,2.87-.16,2.88-4.64,0-4.48-2.79.16-5.58.31-8.38.47-2.72.15-5.76-.02-8.39.76-2.41.71-4.07,2.46-5.73,4.25-1.65,1.79-3.49,3.27-5.61,4.47-2.51,1.42-.25,5.29,2.26,3.87h0Z"/><path class="cls-7" d="M374.62,225.73c-2.3,4.64-6.64,7.64-10.34,11.09-.93.87-1.84,1.77-2.67,2.73-.29.33-.61.84-1.01,1.04-.61.3-1.66.24-2.32.32-3.37.4-6.73.8-10.1,1.2-1.2.14-2.24.93-2.24,2.24,0,1.1,1.03,2.38,2.24,2.24,3.64-.43,7.28-.86,10.92-1.3,1.75-.21,3.4-.33,4.76-1.57,1.06-.97,1.93-2.15,2.97-3.15,4.13-3.98,9.04-7.31,11.66-12.58,1.28-2.57-2.58-4.84-3.87-2.26h0Z"/><path class="cls-7" d="M354.13,214.75c1.59,4.71,2.76,9.58,3.33,14.53.55,4.72.14,9.78,1.93,14.27,1.65,4.13,4.76,7.57,7.94,10.6,3.38,3.22,7.16,6.02,11.21,8.34,2.5,1.44,4.76-2.43,2.26-3.87-3.73-2.14-7.19-4.66-10.31-7.64-3.01-2.87-6.21-6.18-7.36-10.29-1.2-4.33-.86-9.1-1.48-13.55-.64-4.62-1.73-9.16-3.22-13.58-.91-2.72-5.24-1.55-4.32,1.19h0Z"/><path class="cls-7" d="M336.05,194.51c5.71,6.11,10.17,13.35,13,21.22.41,1.14,1.52,1.9,2.75,1.56,1.1-.3,1.98-1.61,1.56-2.75-3.1-8.62-7.89-16.5-14.15-23.2-1.97-2.11-5.13,1.06-3.17,3.17h0Z"/><path class="cls-7" d="M329.51,205.06c1.99-3.55,4.5-6.73,7.19-9.78,1.34-1.52,2.7-3.02,4.09-4.5,1.32-1.4,2.71-2.43,4.58-2.94,2.11-.57,2.15-3.76,0-4.32l-.77-.2c-2.79-.72-3.98,3.6-1.19,4.32l.77.2v-4.32c-4.55,1.24-7.43,4.97-10.43,8.35-3.01,3.4-5.88,6.96-8.11,10.93-1.41,2.52,2.46,4.78,3.87,2.26h0Z"/><path class="cls-7" d="M318.88,189.07c2.16-1.87,4.41-3.98,6.58-5.63,2.27-1.73,4.75-2.76,7.36-3.72,1.13-.42,1.9-1.52,1.56-2.75-.3-1.09-1.61-1.98-2.75-1.56-2.96,1.09-5.9,2.26-8.43,4.17-2.61,1.96-5.02,4.19-7.49,6.33-.91.79-.81,2.36,0,3.17.91.91,2.25.79,3.17,0h0Z"/><path class="cls-7" d="M363.35,350.12c-5.87,4.72-12.25,8.78-18.97,12.17-1.08.55-1.39,2.07-.8,3.06.64,1.1,1.98,1.35,3.06.8,7.07-3.58,13.7-7.91,19.87-12.87.94-.76.79-2.38,0-3.17-.93-.93-2.22-.76-3.17,0h0Z"/><path class="cls-7" d="M364.02,348.22c4.69-.47,9.34-2.39,13.8-3.82,4.65-1.49,9.28-3.05,13.89-4.66,2.7-.94,1.54-5.27-1.19-4.32-4.44,1.55-8.9,3.05-13.38,4.5-2.2.71-4.4,1.4-6.6,2.08-2.11.65-4.3,1.52-6.51,1.74-1.2.12-2.24.94-2.24,2.24,0,1.12,1.03,2.36,2.24,2.24h0Z"/><path class="cls-7" d="M363.5,327.42c4.62.81,9.18,1.89,13.66,3.28,2.2.68,4.38,1.43,6.53,2.25,2.24.85,4.38,1.64,6.79,1.79,2.88.19,2.87-4.29,0-4.48-2.19-.14-4.26-1.14-6.29-1.9-2.08-.78-4.18-1.49-6.31-2.13-4.33-1.32-8.74-2.35-13.19-3.13-1.19-.21-2.41.32-2.75,1.56-.3,1.08.37,2.55,1.56,2.75h0Z"/><rect class="cls-7" x="247.47" y="430.75" width="5.97" height="36.38" transform="translate(-251.06 561.89) rotate(-73.54)"/><path class="cls-7" d="M286.65,449.17l-1.47-7.4c-.13-.65-.6-1.16-1.23-1.36l-14.53-4.45,1.75-5.71,14.53,4.45c2.73.84,4.78,3.1,5.33,5.9l1.47,7.4-5.86,1.16Z"/><path class="cls-7" d="M254.51,167.56c-.83,0-1.65-.34-2.24-1.01-1.09-1.24-.98-3.12.26-4.21l9.52-8.41c.15-.13.3-.24.47-.34l12.77-7.47c1.43-.83,3.26-.35,4.09,1.07.83,1.42.35,3.25-1.07,4.09l-12.52,7.33-9.3,8.22c-.57.5-1.27.75-1.98.75Z"/><g class="cls-8"><path class="cls-3" d="M376.79,331.54c-31.11,80.9-121.95,121.28-202.86,90.17-37.31-14.35-65.97-41.39-83.03-74.31-6.21-19.36-8.72-39.97-7-60.72,16.33,27.15,41.47,49.3,73.37,61.56,76.08,29.26,161.47-8.73,190.71-84.77,8.75-22.77,11.46-46.32,8.98-69,9.12,10.13,16.82,21.39,22.99,33.43,10.42,32.72,10.13,69.09-3.15,103.64Z"/></g><g class="cls-1"><path class="cls-5" d="M192.21,224.29c-22.5,13.23-39.4,33.52-51.22,31.94-12.25-.51-10.01-40.59,29.61-65.99,39.85-25.03,77.07-9.99,72.32,1.31-3.6,11.37-29.15,18.02-50.71,32.74Z"/></g><g class="cls-1"><path class="cls-5" d="M97.63,256.82c31.12-80.92,121.94-121.29,202.85-90.17,45.85,17.63,78.67,54.45,92.85,97.76-11.33-49.12-46.07-91.92-96.66-111.38-80.92-31.12-171.74,9.25-202.85,90.17-13.48,35.06-13.52,71.98-2.68,105.1-6.79-29.44-5.17-61.15,6.49-91.47Z"/></g><path class="cls-3" d="M240.14,461.76c-19.33,0-38.95-3.47-58.04-10.82-83.49-32.1-125.29-126.14-93.18-209.63,15.55-40.44,45.92-72.41,85.51-90,39.59-17.6,83.67-18.73,124.11-3.18,83.49,32.11,125.29,126.15,93.18,209.63-24.76,64.4-86.39,103.99-151.59,103.99ZM240.27,147.73c-20.95,0-41.86,4.4-61.58,13.16-37.03,16.46-65.44,46.36-79.99,84.19-14.55,37.83-13.49,79.06,2.97,116.09,16.46,37.03,46.36,65.44,84.19,79.99,78.08,30.02,166.05-9.07,196.08-87.16,30.03-78.09-9.07-166.05-87.16-196.08-17.68-6.8-36.12-10.19-54.51-10.19Z"/></svg>