<?xml version="1.0" encoding="UTF-8"?><svg id="Layer_1" xmlns="http://www.w3.org/2000/svg" viewBox="0 0 512 512"><defs><style>.cls-1{opacity:.6;}.cls-2{fill:#000072;}.cls-2,.cls-3,.cls-4,.cls-5,.cls-6,.cls-7,.cls-8{stroke-width:0px;}.cls-3{fill:#f78b3e;}.cls-4{fill:#ffb31a;}.cls-5{fill:#2fdd54;}.cls-9{opacity:.15;}.cls-10{opacity:.45;}.cls-6{fill:#ffec5e;}.cls-7{fill:#b76e51;}.cls-8{fill:#fff;}</style></defs><circle class="cls-6" cx="251.1" cy="250.09" r="180.4"/><path class="cls-7" d="M292.51,134.06s8.01-53.29,4.34-91.97c0,0,7.84-8.57,15-3.93,2.52,1.64,3.92,4.53,4.04,7.54.45,12.03.43,53.26-17.93,90l-5.44-1.64Z"/><g class="cls-1"><path class="cls-8" d="M299.5,61.57s7.84-8.57,15-3.93c.51.33.96.73,1.38,1.15.19-5.71.11-10.24,0-13.1-.11-3.01-1.51-5.9-4.04-7.54-7.16-4.64-15,3.93-15,3.93,3.68,38.68-4.34,91.97-4.34,91.97l4.89,1.48c2.05-18.96,4.43-49.4,2.09-73.96Z"/></g><path class="cls-2" d="M297.95,140.84c-.49,0-.99-.07-1.48-.22l-5.44-1.64c-2.44-.74-3.97-3.16-3.59-5.68.08-.53,7.87-53.13,4.3-90.72-.14-1.44.34-2.88,1.32-3.95,4-4.38,13.05-10.31,21.58-4.77,3.81,2.47,6.2,6.83,6.38,11.66.45,12.13.44,54.63-18.47,92.49-.89,1.78-2.69,2.84-4.59,2.84ZM302.19,44.19c2.08,25.63-.5,56.3-2.55,74.61,11.53-31.42,11.48-62.95,11.11-72.91-.05-1.47-.7-2.78-1.7-3.42-2.17-1.41-5.1.34-6.86,1.72Z"/><path class="cls-5" d="M437.75,96.15s-20.22,107.82-136.88,33.27c0,0,3.53-13.03,13.71-24.8,8.73-10.08,22.3-19.23,42.7-18.46,42.23,1.59,46.4,19.16,76.16,11.25,1.38-.37,2.81-.8,4.31-1.26Z"/><g class="cls-9"><path class="cls-2" d="M437.75,96.15s-20.22,107.82-136.88,33.27c0,0,3.53-13.03,13.71-24.8,4.35,6.69,22.23,29.76,62.5,31.07,32.83,1.05,49.37-23.35,56.37-38.28,1.38-.37,2.81-.8,4.31-1.26Z"/></g><g class="cls-1"><path class="cls-8" d="M340.06,98.28c9.08-3.38,24.7-5.98,45.53,2.54,1.65.67.97,3.16-.79,2.91-11.54-1.62-30.39-3.72-44.08-2.51-1.79.16-2.34-2.32-.66-2.95Z"/></g><path class="cls-2" d="M297.43,125.62c29.14-20.73,67.6-19.85,100.9-11.74,1.13.24.79,2.04-.38,1.79-24.33-3.88-50.42-3.67-73.47,5.68-7.14,2.89-14.92,7.06-20.38,12.09-5.23,4.68-12.15-3.34-6.67-7.82h0Z"/><path class="cls-2" d="M372.99,160.84c-21.58,0-46.64-9.05-74.87-27.09-1.89-1.21-2.78-3.51-2.19-5.67.13-.49,13.79-48.77,61.54-47.05,20.31.76,32.33,5.14,41.99,8.65,11.76,4.28,19.53,7.11,36.73,1.59,1.72-.55,3.61-.16,4.97,1.04,1.36,1.2,1.98,3.02,1.65,4.8-.33,1.76-8.5,43.39-43.37,58.48-8.12,3.51-16.95,5.27-26.44,5.27ZM307.04,127.22c36.04,22.29,65.71,28.67,88.26,18.96,21.22-9.15,31.14-30.85,35.13-42.78-14.97,3.03-24.13-.31-34.48-4.07-9.45-3.44-20.16-7.34-38.86-8.04-32.98-1.25-46.28,25.94-50.05,35.93Z"/><path class="cls-4" d="M370.86,241.36c0,16.03-3.18,31.33-8.98,45.3-.61,1.45-1.24,2.9-1.9,4.35-53.84,121.83-188.8,162.4-195.16,164.25-.16.05-.23.07-.23.07-5.03,1.54-10.37,2.36-15.91,2.36-29.97,0-54.24-24.29-54.24-54.24,0-3.67.37-7.28,1.05-10.74.02-.05.02-.07.02-.12.02-.02.02-.05.02-.07.87-2.88,1.73-5.76,2.55-8.63,22.18-75.95,34.42-143.36,37.34-160.37.02-.14.05-.28.07-.42.21-1.1.35-1.97.44-2.57.05-.23.07-.42.09-.58.07-.35.09-.54.09-.54,10.27-54.89,58.45-96.42,116.33-96.42,65.4,0,118.39,53,118.39,118.37Z"/><path class="cls-4" d="M370.86,241.36c0,16.03-3.18,31.33-8.98,45.3-.61,1.45-1.24,2.9-1.9,4.35-53.84,121.83-188.8,162.4-195.16,164.25-.16.05-.23.07-.23.07-5.03,1.54-10.37,2.36-15.91,2.36-29.97,0-54.24-24.29-54.24-54.24,0-3.67.37-7.28,1.05-10.74.02-.05.02-.07.02-.12.02-.02.02-.05.02-.07.73-2.41,1.45-4.84,2.15-7.25,9.22,8.54,21.55,13.78,35.12,13.78,5.29,0,10.37-.77,15.16-2.25,0,0,.07-.02.23-.07,6.06-1.75,134.65-40.41,185.94-156.48.63-1.4,1.22-2.78,1.8-4.16,5.52-13.29,8.56-27.89,8.56-43.15,0-10.81-1.54-21.27-4.4-31.17,1.19,1.31,2.36,2.64,3.49,4.02.42.51.84,1.03,1.26,1.54.84,1.03,1.66,2.11,2.48,3.18.91,1.24,1.82,2.5,2.69,3.77.51.73,1.01,1.47,1.5,2.22.49.75.96,1.5,1.43,2.25.49.75.94,1.52,1.4,2.29.44.77.89,1.54,1.33,2.32.44.77.89,1.57,1.29,2.36.42.77.84,1.57,1.24,2.36,3,5.92,5.5,12.12,7.46,18.55.23.75.47,1.52.68,2.29.33,1.12.61,2.25.89,3.37.21.75.4,1.52.56,2.29.23.94.42,1.87.61,2.81.02.05.02.09.05.14.19.96.37,1.9.54,2.83.16.89.3,1.78.44,2.67.02.16.05.33.07.51.14.89.26,1.8.37,2.71.4,3.09.68,6.2.82,9.36.09,1.9.14,3.79.14,5.71Z"/><path class="cls-3" d="M355.42,238.38c0,15.54-3.09,30.37-8.71,43.92-.59,1.41-1.2,2.81-1.84,4.22-52.2,118.12-183.04,157.45-189.21,159.25-.16.05-.23.07-.23.07-4.88,1.5-10.05,2.29-15.43,2.29-.94,0-1.88-.02-2.81-.07-21.52-1.13-38.73-19.17-38.86-40.72,0-.11,0-.22,0-.34,0-3.56.36-7.05,1.02-10.41.02-.05.02-.07.02-.11.02-.02.02-.05.02-.07.7-2.34,1.41-4.7,2.09-7.03,8.94,8.28,20.89,13.36,34.05,13.36,5.13,0,10.05-.75,14.7-2.18,0,0,.07-.02.23-.07,5.88-1.7,130.55-39.18,180.27-151.71.61-1.36,1.18-2.7,1.75-4.04,5.35-12.89,8.3-27.04,8.3-41.83,0-8.92-1.09-17.58-3.11-25.86,11.23,17.74,17.74,38.79,17.74,61.34Z"/><g class="cls-10"><path class="cls-8" d="M242,153.23c8.58-3.31,17.85-3.83,26.79-2.56,2.93.45,5.81,1.13,8.56,2.22,11.49,4.61,8.14,21.66-4.06,21.75-10.04-.29-19.48-2.07-29.47-3.54-9.23-1.64-10.41-14.49-1.82-17.87h0Z"/></g><g class="cls-10"><path class="cls-8" d="M160.95,243.05c2.72-22.86,11.25-44.59,26.04-62.46,5.29-6.01,11.6-11.55,19.18-15.49,12.27-5.97,22.39,10.36,11.83,18.8-14.18,12.36-25.1,28.4-34.68,44.81-3.48,5.93-6.94,12.2-10.33,18.15-3.39,6.01-12.75,2.98-12.04-3.81h0Z"/></g><g class="cls-10"><path class="cls-8" d="M98.33,418.88c0-3.67-.68-8.08,0-11.55.02-.05.08-3.11.08-3.15.02-.02-3.9-3.43-3.9-3.46.87-2.88,4.02-1.26,4.84-4.14,22.18-75.95,41.27-142.01,44.2-159.02.02-.14.05-.28.07-.42.21-1.1.35-1.97.44-2.57.05-.23.07-.42.09-.58.07-.35.09-.54.09-.54,10.27-54.89,58.45-96.42,116.33-96.42,40.87,0,76.9,20.7,98.17,52.19-19.28-39.22-59.62-66.22-106.29-66.22-57.89,0-106.06,41.53-116.33,96.42,0,0-.02.19-.09.54-.02.16-.05.35-.09.58-.09.61-.23,1.47-.44,2.57-.02.14-.05.28-.07.42-2.92,17.01-15.16,84.42-37.34,160.37-.82,2.88-1.68,5.76-2.55,8.63,0,.02,0,.05-.02.07,0,.05,0,.07-.02.12-.68,3.46-1.05,7.07-1.05,10.74,0,12.81,4.45,24.57,11.87,33.85-2.41-6.14-7.98-11.43-7.98-18.43Z"/></g><path class="cls-2" d="M148.68,462.83c-32.74,0-59.37-26.63-59.37-59.37,0-3.89.39-7.84,1.15-11.73,0-.05.02-.1.03-.15.04-.19.09-.38.15-.56.86-2.84,1.71-5.69,2.52-8.53,21.96-75.2,34.04-141.35,37.22-159.83l.07-.43c.21-1.1.34-1.9.43-2.46l5.15.31-5.08-.73c.01-.09.05-.3.06-.39.01-.11.06-.37.08-.48,10.91-58.3,61.96-100.61,121.38-100.61,68.11,0,123.53,55.4,123.53,123.5,0,16.39-3.16,32.29-9.38,47.27-.63,1.51-1.28,3-1.96,4.5-54.86,124.16-192.57,165.38-198.41,167.07-5.76,1.77-11.62,2.64-17.58,2.64ZM100.5,393.87c-.61,3.19-.92,6.41-.92,9.59,0,27.07,22.02,49.1,49.1,49.1,4.94,0,9.78-.72,14.4-2.14,5.96-1.73,139.24-41.62,192.2-161.49.65-1.45,1.27-2.85,1.86-4.26,5.69-13.71,8.58-28.29,8.58-43.31,0-62.44-50.81-113.23-113.26-113.23-54.45,0-101.22,38.74-111.26,92.13-.01.08-.05.33-.12.7,0,.06-.04.31-.1.6-.06.41-.21,1.34-.43,2.52l-.05.28c-3.21,18.66-15.38,85.3-37.48,160.98-.8,2.82-1.66,5.68-2.52,8.53Z"/></svg>