<?xml version="1.0" encoding="UTF-8"?><svg id="Layer_1" xmlns="http://www.w3.org/2000/svg" viewBox="0 0 512 512"><defs><style>.cls-1{opacity:.6;}.cls-2{fill:#000072;}.cls-2,.cls-3,.cls-4,.cls-5,.cls-6,.cls-7,.cls-8{stroke-width:0px;}.cls-3{fill:#2fdd54;}.cls-9{opacity:.15;}.cls-10{opacity:.45;}.cls-4{fill:#52d2ff;}.cls-5{fill:#73e22b;}.cls-6{fill:#30cc23;}.cls-7{fill:#b76e51;}.cls-8{fill:#fff;}</style></defs><circle class="cls-4" cx="254.56" cy="251.41" r="182.2"/><path class="cls-3" d="M404.15,116.99s-.15.17-.42.48c-4.67,5.13-47.89,48.57-119.63-18.14,0,0,7.87-8.98,23.16-15.26h.02c10.53-4.35,24.61-7.41,42.05-5.35,42.72,4.99,54.82,38.27,54.82,38.27Z"/><g class="cls-9"><path class="cls-2" d="M403.73,117.47c-4.67,5.13-47.89,48.57-119.63-18.14,0,0,7.87-8.98,23.16-15.26h.02s13.68,47.36,96.45,33.4Z"/></g><g class="cls-1"><path class="cls-8" d="M341.79,89.82s15.45,2.09,28.55,9.23c.87.47,1.77-.56,1.16-1.34-4-5.06-13.51-13.51-29.71-7.89Z"/></g><path class="cls-2" d="M282.01,94.11c29.4-8.85,62.25-4.25,88.79,10.66.44.24.15.99-.35.82-14.03-3.86-28.35-7.11-42.9-7.4-13.97-.22-28.62,1.44-41.57,6.45-7.09,2.79-11.18-7.92-3.97-10.53h0Z"/><path class="cls-2" d="M359.13,141.72c-25.02,0-51.52-12.86-78.85-38.28-2.23-2.07-2.4-5.54-.4-7.82,1-1.14,24.95-27.77,70.09-22.48,45.66,5.35,58.92,40.45,59.46,41.94.68,1.88.32,3.97-.96,5.51-.65.78-16.18,19.14-44.67,20.98-1.55.1-3.11.15-4.67.15ZM292.4,99.25c24.96,21.98,48.61,32.44,70.44,31.11,17.87-1.09,29.79-10.14,34.6-14.56-4.03-7.84-17.27-27.81-48.78-31.5-29.56-3.48-48.46,8.51-56.27,14.95Z"/><path class="cls-7" d="M266.69,132.6s9.29-35.97,4.27-73.05c-.7-5.19,3.59-9.77,8.78-9.07,4.09.55,8.82,2.14,12.99,6,1.74,1.61,2.7,3.87,2.6,6.24-.4,10.04-2.75,41.31-16.62,72,0,0-9.7,8.98-12.03-2.12Z"/><g class="cls-1"><path class="cls-8" d="M272.94,77.44c-.7-5.19,3.59-9.77,8.78-9.07,4.02.54,8.65,2.1,12.77,5.82.51-4.95.74-8.9.85-11.46.09-2.36-.87-4.63-2.6-6.24-4.17-3.86-8.9-5.45-12.99-6-5.19-.7-9.49,3.88-8.78,9.07,5.02,37.07-4.27,73.05-4.27,73.05.83,3.93,2.58,5.32,4.49,5.5,2.32-13.68,4.97-36.94,1.75-60.67Z"/></g><path class="cls-2" d="M271.62,143.78c-.99,0-1.99-.14-3-.46-2.65-.84-6.09-3.19-7.43-9.56-.18-.84-.16-1.72.06-2.56.09-.35,8.95-35.41,4.14-70.89-.58-4.31.83-8.53,3.89-11.59,2.97-2.98,7.07-4.36,11.21-3.81,6.22.83,11.62,3.34,16.06,7.45,2.96,2.74,4.56,6.6,4.4,10.59-.47,11.94-3.09,43.06-17.11,74.09-.31.68-.75,1.3-1.3,1.81-1.01.93-5.63,4.93-10.92,4.93ZM278.7,56.04c-.68,0-1.17.33-1.47.63-.26.26-.86,1-.7,2.14,4.53,33.41-2.1,65.43-3.95,73.38.49-.25,1.06-.6,1.55-.96,13.11-29.68,15.25-60.04,15.59-68.72.03-.7-.26-1.39-.8-1.89-2.71-2.51-6.05-4.04-9.92-4.56-.1-.01-.2-.02-.3-.02Z"/><path class="cls-7" d="M222.68,422.02l31.27,5.51s-.81,17.53-9.24,20.04c-8.42,2.51-13.17-6.16-13.17-6.16,0,0-3.42,10.93-13.89,9.09-10.48-1.85-9.95-13.29-9.95-13.29,0,0-7.42,6.52-14.48,1.28-7.06-5.24-1.82-21.99-1.82-21.99l31.27,5.51Z"/><path class="cls-2" d="M220.05,456.34c-1.07,0-2.19-.1-3.37-.3-7.27-1.28-11.16-5.84-13.05-10.51-4.12,1.11-9.07.96-13.75-2.52-9.77-7.25-4.91-24.75-3.84-28.18.84-2.7,3.54-4.36,6.34-3.86l62.55,11.03c2.78.49,4.77,2.97,4.64,5.8-.17,3.59-1.59,21.7-13.25,25.17-5.59,1.66-10.29.12-13.78-2.34-2.83,3.13-6.95,5.71-12.49,5.71ZM207.7,431.62c.84,0,1.69.19,2.47.57,2,.99,3.25,3.05,3.15,5.28-.04,1.49.23,6.6,5.31,7.49,5.08.9,7.08-3.81,7.57-5.28.71-2.12,2.62-3.64,4.84-3.84,2.2-.18,4.37.91,5.44,2.87.25.43,2.79,4.63,6.63,3.47,1.92-.57,3.72-5.14,4.63-10.03l-26.05-4.59h0l-26.05-4.59c-.82,4.91-.69,9.82.92,11.01,3.23,2.39,7.04-.67,7.47-1.03,1.04-.88,2.35-1.33,3.66-1.33Z"/><path class="cls-5" d="M373.1,339.9c-10.93,62-78.81,101.86-151.63,89.02-72.82-12.84-122.99-73.52-112.06-135.51.96-5.47,2.37-10.74,4.19-15.84,11.27-36.14,63.23-111.49,98.92-145.68,35.66-34.19,61.72-2.22,61.72-2.22,0,0,35.4-21.14,57.24,23.19,21.84,44.33,44.88,132.9,43.11,170.72-.04,5.42-.52,10.85-1.49,16.32Z"/><path class="cls-6" d="M357.29,338.67c-9.43,53.46-61.17,90.42-121.92,91.4-4.63.07-9.27-.34-13.83-1.14h-.07c-48.82-8.62-87.42-38.75-104.29-76.33,16.49,10.85,35.92,18.79,57.33,22.56,72.82,12.84,140.7-27.02,151.63-89.02.96-5.47,1.44-10.9,1.49-16.32,1.32-28.46-11.38-85.68-27.1-131.14.03,0,.07.02.1.02,6.24,1.44,11.4,5.79,14.32,11.49.24.47.48.94.72,1.43,21.84,44.33,44.88,132.9,43.11,170.72-.04,5.42-.52,10.85-1.49,16.32Z"/><g class="cls-1"><path class="cls-8" d="M176,225.82c10.24-20.9,30.8-56.99,57.18-73.29,8.69-5.37,19.12,3.93,14.79,13.18-9.64,20.6-28.81,51.14-62.83,68.87-5.74,2.99-11.99-2.95-9.14-8.76Z"/></g><g class="cls-10"><path class="cls-8" d="M115.2,307.87c.96-5.47,2.37-10.74,4.19-15.84,11.27-36.14,63.23-111.49,98.92-145.68,27.64-26.5,49.51-13.26,57.95-5.96,2.36,2.04,5.68,2.62,8.59,1.51,10.43-3.97,35.49-8.94,52.42,25.42,1.87,3.81,3.76,7.96,5.63,12.35-3.75-9.95-7.6-19.07-11.42-26.82-21.84-44.33-57.24-23.19-57.24-23.19,0,0-26.06-31.97-61.72,2.22-35.69,34.19-87.65,109.53-98.92,145.68-1.81,5.1-3.22,10.37-4.19,15.84-3.81,21.59-.19,43.01,9.2,62.31-4.9-15.3-6.29-31.52-3.41-47.85Z"/></g><path class="cls-2" d="M248.63,436.93c-9.23,0-18.64-.8-28.13-2.48-36.53-6.44-68.77-24.65-90.79-51.28-22.23-26.89-31.41-59.12-25.83-90.75,1-5.65,2.49-11.29,4.42-16.75,11.14-35.74,62.74-111.85,100.33-147.86,12.81-12.28,26.06-18.11,39.4-17.28,13.16.81,22.75,7.97,27.41,12.3,5.86-2.47,17.32-5.92,29.94-2.18,12.81,3.79,23.29,13.79,31.14,29.72,22.99,46.67,45.44,135.83,43.68,173.47-.04,5.57-.57,11.38-1.56,17.03l-5.54-.98,5.54.98c-10.02,56.82-65.56,96.05-130.01,96.05ZM245.6,121.71c-9.53,0-19.34,4.78-29.19,14.23-35.86,34.36-86.86,109.35-97.44,143.29-1.8,5.08-3.13,10.11-4.02,15.15-5,28.33,3.32,57.33,23.42,81.63,20.32,24.57,50.18,41.39,84.08,47.37,69.65,12.27,134.74-25.61,145.12-84.46.89-5.04,1.36-10.21,1.4-15.38,1.67-35.75-20.59-123.66-42.53-168.19-6.41-13-14.56-21.05-24.24-23.91-13.2-3.89-24.96,2.99-25.08,3.06-2.39,1.43-5.48.89-7.24-1.27-.07-.09-9.01-10.68-22.66-11.46-.54-.03-1.08-.05-1.62-.05Z"/></svg>