<?xml version="1.0" encoding="UTF-8"?><svg id="Layer_1" xmlns="http://www.w3.org/2000/svg" viewBox="0 0 512 512"><defs><style>.cls-1{opacity:.6;}.cls-2{fill:#000072;}.cls-2,.cls-3,.cls-4,.cls-5,.cls-6,.cls-7,.cls-8{stroke-width:0px;}.cls-3{fill:#2fdd54;}.cls-9{opacity:.15;}.cls-10{opacity:.45;}.cls-4{fill:#ffec5e;}.cls-5{fill:#4bdb4e;}.cls-6{fill:#25c15d;}.cls-7{fill:#b76e51;}.cls-8{fill:#fff;}</style></defs><circle class="cls-4" cx="257.48" cy="259.28" r="191.95"/><path class="cls-7" d="M270.82,147.37s3.17-54.48-4.1-93.16c0,0,7.12-9.37,14.77-5.35,2.7,1.42,4.38,4.21,4.77,7.23,1.56,12.09,5.34,53.68-9.79,92.43l-5.63-1.16Z"/><g class="cls-1"><path class="cls-8" d="M271.18,73.61s7.12-9.37,14.77-5.35c.55.29,1.04.64,1.5,1.03-.34-5.78-.83-10.34-1.2-13.21-.39-3.02-2.07-5.81-4.77-7.23-7.65-4.02-14.77,5.35-14.77,5.35,7.28,38.68,4.1,93.16,4.1,93.16l5.07,1.04c.32-19.31-.09-50.23-4.71-74.79Z"/></g><path class="cls-2" d="M276.46,153.73c-.35,0-.7-.04-1.05-.11l-5.64-1.16c-2.53-.52-4.3-2.82-4.15-5.4.03-.54,3.05-54.31-4.02-91.9-.27-1.45.08-2.94.97-4.11,3.63-4.78,12.21-11.6,21.33-6.8,4.07,2.14,6.88,6.32,7.5,11.17,1.57,12.19,5.48,55.06-10.11,94.99-.79,2.03-2.74,3.31-4.84,3.31ZM272.29,55.82c4.46,25.67,4.69,56.84,4.31,75.5,8.74-32.76,5.78-64.55,4.49-74.56-.19-1.47-.97-2.73-2.03-3.29-2.34-1.23-5.11.79-6.77,2.36Z"/><path class="cls-3" d="M289.31,114.31c-.53-.26-1.09-.53-1.61-.81,0-.02.82-4.67,3.35-11.06,1.19-3.04,2.78-6.46,4.84-10,0-.02.03-.02.03-.04,7.35-12.61,20.81-26.43,44.69-27.73,42.49-2.3,48.47,14.85,77.33,4.52h.02c1.52-.55,3.09-1.16,4.73-1.86,0,0-10.36,109.65-133.39,46.98Z"/><g class="cls-9"><path class="cls-2" d="M289.31,114.31c.17-4.35.78-8.4,1.73-11.87,1.18-4.36,2.86-7.87,4.84-10,0-.02.03-.02.03-.04,0,0,21.41,20.21,74.37,19.83,26.38-.18,40.33-21.59,47.65-43.04h.02c1.52-.55,3.09-1.16,4.73-1.86,0,0-10.36,109.65-133.39,46.98Z"/></g><path class="cls-2" d="M283.87,109.99c27.47-23.59,66.35-26.25,100.69-21.14,1.16.14.99,1.98-.22,1.84-24.9-1.67-51.19.94-73.58,12.5-7,3.65-14.12,8.25-19.39,14.01-4.81,5.31-12.65-2.15-7.5-7.22h0Z"/><g class="cls-1"><path class="cls-8" d="M330.71,78.09c8.89-4.15,24.45-8.04,46.17-1.14,1.72.55,1.24,3.11-.56,3.01-11.78-.7-30.98-1.29-44.7,1.05-1.79.31-2.55-2.15-.9-2.92Z"/></g><path class="cls-2" d="M355.8,138.88c-20.18,0-43.74-6.93-70.48-20.76-2.02-1.04-3.13-3.28-2.73-5.52.09-.5,9.43-50.54,57.73-53.13,20.56-1.1,33.08,2.2,43.15,4.86,12.26,3.23,20.35,5.37,37.19-1.78,1.69-.72,3.62-.49,5.1.59,1.48,1.08,2.28,2.86,2.11,4.69-.17,1.81-4.58,44.54-38.35,62.98-9.88,5.39-21.14,8.09-33.72,8.09ZM293.74,110.73c38.4,19.15,68.9,22.84,90.73,10.97,20.56-11.18,28.56-33.99,31.49-46.38-14.82,4.43-24.36,1.92-35.15-.93-9.85-2.6-21.01-5.55-39.94-4.53-33.04,1.77-44.19,30.52-47.14,40.87Z"/><path class="cls-5" d="M217.24,477.03l5.86-4.93c1.6-1.34,4-1.03,5.2.68l3.78,5.39c1.27,1.82,3.88,2.04,5.44.46l11.34-11.5c1.46-1.48,3.88-1.4,5.23.19l8.11,9.49c1.48,1.73,4.18,1.65,5.55-.18l11.37-15.18c1.14-1.53,3.28-1.88,4.86-.8l12.22,8.38c2.15,1.47,5.09.22,5.52-2.35l2.84-17.12c.37-2.23,2.69-3.55,4.79-2.73l19.38,7.52c2.35.91,4.87-.84,4.84-3.36l-.3-25.81c-.02-2.09,1.75-3.75,3.83-3.59l19.74,1.53c2.54.2,4.46-2.26,3.64-4.68l-8.29-24.57c-.8-2.39,1.06-4.83,3.57-4.68l17.13.98c2.8.16,4.68-2.84,3.3-5.29l-8.85-15.75c-1.06-1.89-.2-4.27,1.82-5.06l11.08-4.29c2.34-.91,3.03-3.89,1.32-5.73l-9.12-9.85c-1.54-1.66-1.15-4.32.79-5.47l14.65-8.7c1.96-1.17,2.33-3.86.76-5.51l-11.49-12.06c-1.42-1.49-1.28-3.87.3-5.18l9.07-7.55c2.07-1.72,1.55-5.03-.96-6.03l-12.53-5c-2.29-.91-2.97-3.82-1.34-5.66l14.56-16.44c1.63-1.84.95-4.73-1.33-5.65l-17.59-7.13c-2.25-.91-2.94-3.76-1.37-5.6l7.85-9.19c1.57-1.83.89-4.66-1.33-5.59l-10.57-4.42c-1.92-.8-2.74-3.08-1.78-4.92l8.37-16.05c.97-1.87.12-4.17-1.84-4.95l-12.83-5.09c-1.68-.67-2.59-2.48-2.12-4.22l4.16-15.51c.63-2.35-1.23-4.62-3.65-4.47l-13.61.83c-1.79.11-3.38-1.14-3.71-2.9l-2.72-14.68c-.4-2.17-2.67-3.46-4.74-2.68l-11.81,4.43c-1.82.68-3.85-.22-4.56-2.03l-5.95-15.13c-.84-2.14-3.46-2.93-5.35-1.61l-12.4,8.69c-1.81,1.27-4.33.59-5.26-1.41l-4.78-10.25c-1.04-2.24-3.99-2.76-5.74-1.01l-7.99,8c-1.56,1.56-4.16,1.34-5.43-.47l-8.69-12.4c-1.32-1.88-4.05-2.04-5.58-.32l-10.77,12.18c-1.29,1.45-3.5,1.61-4.97.35l-9.58-8.2c-1.68-1.44-4.25-1.01-5.37.9l-7.58,12.87c-.91,1.55-2.83,2.17-4.48,1.46l-12.5-5.43c-2.23-.97-4.75.53-4.96,2.95l-1.4,16c-.16,1.8-1.64,3.19-3.44,3.24l-13.8.4c-2.11.06-3.7,1.93-3.42,4.02l2.38,17.94c.27,2.06-1.28,3.92-3.36,4.02l-11.44.54c-2.41.11-4.01,2.54-3.16,4.8l4.24,11.32c.85,2.27-.78,4.71-3.2,4.8l-18.97.69c-2.45.09-4.08,2.57-3.18,4.86l8.06,20.43c.9,2.29-.74,4.78-3.2,4.86l-13.48.41c-2.69.08-4.32,3.02-2.96,5.34l5.94,10.2c1.04,1.78.35,4.06-1.49,4.97l-14.92,7.4c-2.05,1.01-2.62,3.67-1.17,5.44l10.79,13.19c1.43,1.75.89,4.38-1.13,5.41l-11.94,6.13c-2.23,1.15-2.61,4.19-.72,5.84l8.95,7.82c1.63,1.42,1.62,3.96-.02,5.37l-13.7,11.78c-2.13,1.83-1.4,5.29,1.3,6.1l16.43,4.93c2.41.72,3.33,3.66,1.75,5.62l-16.19,20.25c-1.59,1.99-.63,4.96,1.82,5.64l19.07,5.31c2.01.56,3.11,2.73,2.37,4.68l-9.11,24.15c-.89,2.35.88,4.86,3.4,4.81l20.79-.44c2.26-.05,3.98,1.99,3.57,4.21l-3.19,17.06c-.48,2.56,1.86,4.74,4.38,4.1l14.35-3.7c1.85-.48,3.74.59,4.29,2.41l5.49,18.15c.66,2.18,3.17,3.19,5.15,2.06l10.87-6.15c1.81-1.03,4.12-.28,4.98,1.61l6.73,14.68c.92,2.02,3.45,2.7,5.27,1.43l5.39-3.78c1.71-1.2,4.08-.67,5.12,1.14l3.82,6.64c1.1,1.92,3.67,2.37,5.37.95Z"/><path class="cls-6" d="M281.48,401.93l10.17,1.79c1.26.22,2.37-.83,2.23-2.09l-1.27-11.14,14.5-.48c1.22-.04,2.09-1.2,1.78-2.38l-2.52-9.83-25.41,2.34,2.22,20.33-1.7,1.46Z"/><path class="cls-6" d="M301.98,371.03s15.42.6,22.73-1.97l-5.85-10.61-20.11,4.23,3.22,8.34Z"/><path class="cls-6" d="M321.87,230.34l5.48,2.75c2,1.01,2.63,3.55,1.33,5.37-2.11,2.93-5.41,7.18-9.11,10.62l5.92,10.19-19.31-9.09,15.69-19.85Z"/><path class="cls-6" d="M369.47,341.01l22.27-13.23-17.19-18.04,16.58-13.8-22.77-9.09,21.24-23.99-26.81-10.87,14.23-16.65-18.64-7.79,11.98-22.97-19.44-7.72,6.26-23.34-21.68,1.32-4.06-21.94-19.06,7.15-.03-.08,1.77,9.54c.13.7.76,1.19,1.47,1.15l15.68-.96c.96-.06,1.69.84,1.44,1.77l-4.62,17.23c-.18.69.18,1.41.84,1.67l14.32,5.68c.77.31,1.11,1.22.73,1.96l-9.01,17.27c-.38.73-.06,1.63.7,1.95l13.04,5.45c.88.37,1.15,1.49.53,2.21l-9.87,11.55c-.62.73-.35,1.85.54,2.22l19.7,7.99c.9.36,1.17,1.51.52,2.23l-15.85,17.9c-.64.73-.37,1.88.53,2.24l15.78,6.3c.99.39,1.2,1.7.38,2.39l-11.47,9.55c-.63.52-.68,1.46-.12,2.05l12.71,13.34c.62.65.48,1.72-.3,2.18l-16.38,9.73c-.77.46-.92,1.51-.31,2.16l11.06,11.94c.67.73.4,1.91-.52,2.27l-13.79,5.34c-.8.31-1.14,1.25-.72,2l10.17,18.11c.54.97-.2,2.15-1.31,2.09l-20.5-1.18c-.99-.06-1.73.91-1.41,1.85l8.83,26.19c.32.95-.44,1.93-1.44,1.85l-21.58-1.68c-.82-.06-1.52.59-1.51,1.42l.32,26.82c.01.99-.99,1.69-1.91,1.33l-21.15-8.21c-.83-.32-1.75.2-1.89,1.08l-3.24,19.58c-.17,1.01-1.33,1.51-2.18.93l-14.17-9.72c-.62-.43-1.47-.29-1.92.32l-12.14,16.21c-.54.72-1.61.75-2.19.07l-9.63-11.27c-.53-.63-1.49-.66-2.07-.07l-12.59,12.77c-.62.62-1.65.54-2.15-.18l-5.51-7.87c-.47-.68-1.42-.8-2.06-.27l-8.06,6.78c-.67.56-1.69.38-2.12-.37l-5.26-9.13c-.41-.71-1.35-.92-2.02-.45l-7.87,5.51c-.72.5-1.72.23-2.08-.57l-7.47-16.3c-.34-.75-1.25-1.04-1.97-.64l-12.9,7.3c-.78.44-1.78.05-2.04-.82l-5.86-19.38c-.22-.72-.97-1.14-1.7-.95l-16.64,4.29c-1,.26-1.92-.61-1.73-1.62l3.65-19.51c.16-.88-.52-1.68-1.41-1.66l-22.68.48c-.99.02-1.7-.97-1.34-1.9l9.47-25.09c.29-.77-.14-1.63-.94-1.85l-11.42-3.18-21.54,26.95,28,7.8-12.34,32.7,30.42-.64-5.02,26.85,23.06-5.94,7.77,25.67,18.1-10.24,10.12,22.08,12.07-8.45,7.88,13.68,12.08-10.16,8.45,12.07,17.06-17.29,13.51,15.82,16.08-21.47,19.64,13.47,4.46-26.94,28.36,11.01-.41-34.95,28.98,2.25-11.69-34.65,28.87,1.66-14.03-24.99,19.79-7.66-15.67-16.92Z"/><path class="cls-6" d="M310.61,205.05s4.48,1.09,8.13,2.08c1.58.43,2.34,2.23,1.56,3.67-1.62,2.97-4.15,7.51-5.53,9.57l9.6,10.41-21.59-8.09,7.83-17.63Z"/><g class="cls-10"><path class="cls-8" d="M305.16,141.67c-.84-2.14-3.46-2.93-5.35-1.61l-11.53,8.08c.57.35,1.06.84,1.37,1.51l4.78,10.25c.93,2,3.45,2.68,5.26,1.41l10.35-7.24-4.87-12.38Z"/></g><g class="cls-10"><path class="cls-8" d="M197.82,468.53c-.87-1.89-3.17-2.64-4.98-1.61l-1.81,1.03,1.25,2.72c.92,2.02,3.45,2.7,5.27,1.43l1.45-1.01-1.17-2.55Z"/></g><g class="cls-10"><path class="cls-8" d="M107.52,322.05l.83.57c.72-1.1.76-2.5.13-3.65-1.25,1.03-2.02,2.16-.97,3.08Z"/></g><g class="cls-10"><path class="cls-8" d="M249.53,131.19c-1.32-1.88-4.05-2.04-5.58-.32l-10.77,12.18c-1.29,1.45-3.5,1.61-4.97.35l-9.58-8.2c-1.68-1.44-4.25-1.01-5.37.9l-7.58,12.87c-.91,1.55-2.83,2.17-4.48,1.46l-12.5-5.43c-2.23-.97-4.75.53-4.96,2.95l-1.4,16c-.16,1.8-1.64,3.19-3.44,3.24l-13.8.4c-2.11.06-3.7,1.93-3.42,4.02l2.38,17.94c.27,2.06-1.28,3.92-3.36,4.02l-11.44.54c-2.41.11-4.01,2.54-3.16,4.8l4.24,11.32c.85,2.27-.78,4.71-3.2,4.8l-18.97.69c-2.45.09-4.08,2.57-3.18,4.86l8.06,20.43c.9,2.29-.74,4.78-3.2,4.86l-13.48.41c-2.69.08-4.32,3.02-2.96,5.34l5.94,10.2c1.04,1.78.35,4.06-1.49,4.97l-14.92,7.4c-2.05,1.01-2.62,3.67-1.17,5.44l10.79,13.19c1.43,1.75.89,4.38-1.13,5.41l-11.94,6.13c-2.23,1.15-2.61,4.19-.72,5.84l8.95,7.82c.32.28.56.62.76.97,1-.82,2.3-1.57,3.29-2.07l11.94-6.13c2.01-1.03,2.56-3.66,1.13-5.41l-10.79-13.19c-1.45-1.77-.87-4.42,1.17-5.44l14.92-7.4c1.84-.91,2.53-3.2,1.49-4.97l-5.94-10.2c-1.36-2.33.27-5.26,2.96-5.34l13.48-.41c2.46-.08,4.1-2.57,3.2-4.86l-8.06-20.43c-.9-2.28.73-4.77,3.18-4.86l18.97-.69c2.42-.09,4.05-2.53,3.2-4.8l-4.24-11.32c-.85-2.26.75-4.68,3.16-4.8l11.44-.54c2.08-.1,3.63-1.95,3.36-4.02l-2.38-17.94c-.28-2.09,1.31-3.96,3.42-4.02l13.8-.4c1.8-.05,3.28-1.45,3.44-3.24l1.4-16c.21-2.42,2.73-3.92,4.96-2.95l12.5,5.43c1.65.72,3.57.09,4.48-1.46l7.58-12.87c1.12-1.91,3.69-2.34,5.37-.9l9.58,8.2c1.47,1.26,3.69,1.11,4.97-.35l10.77-12.18c.36-.4.78-.7,1.24-.9l-7.94-11.34Z"/></g><g class="cls-10"><path class="cls-8" d="M270.5,156.15c1.27,1.81,3.86,2.04,5.43.47l7.71-7.71c-.62-.35-1.15-.88-1.48-1.58l-4.78-10.25c-1.04-2.24-3.99-2.76-5.74-1.01l-7.99,8c-.33.33-.7.56-1.1.73l7.95,11.35Z"/></g><path class="cls-2" d="M237.74,182.83c-6.22,1.3-15.47,1.81-20.29,1.37.53.03.13-1.82.81,1.01.68,2.72,2.12,8.05,2.81,10.75.3,1.53,1.02,3.22,1.1,4.78.34,4.1-3.72,7.33-7.47,6.86,0,0-1.39,0-1.39,0-3.86.08-9.62.02-13.46.09.66.02,1.06-.9.8-1.34,0,0,1.28,2.47,1.28,2.47,1.33,2.52,3.38,6.53,4.66,8.99,2.35,4.68-1.35,9.85-6.35,9.88-5.29.54-13.15,2.51-17.14,3.52.4-.26.6-.82.47-1.31-.03-.11-.1-.26.04.07,1.99,4.51,4.18,9.06,6.58,13.34l1.33,2.29c2.54,3.77.11,9.58-4.36,10.43-3.71,1.14-9.22,2.84-12.95,3.98-.41.19-1.54.43-1.94.59.54-.16.96-.99.71-1.6l.11.31c.25.74,1.12,2.89,1.43,3.65,1.71,3.97,3.73,7.75,6.34,11.2,1.36,1.77,1.78,4.35,1.02,6.46-.79,2.52-3.27,4.47-5.95,4.72-.43.08-1.54.23-1.98.31-5.62.86-12.54,2.7-17.11,4.49.58-.33.63-1.3.33-1.66.1.17.45.65.55.83,2.48,3.65,5.23,7.27,8.17,10.51,1.51,1.69,3.15,3.31,4.79,4.87,2.39,2.41,2.54,6.56.27,9.12-4.38,3.92-9.07,7.77-12.56,12.53.41-.54.18-1.38-.46-1.6,0,0,.31.12.31.12l1.23.45c3.56,1.29,7.48,2.24,11.18,3.01,4.41,1.14,6.27,6.99,3.35,10.5-2.91,3.68-8.66,11.08-11.54,14.74-.9,1.18-.22.29-.36.14,0-.28-.17-.57-.41-.71l9.53,4.15c2.05,1.02,4.97,1.71,6.41,3.63,1.85,2.04,1.64,5.68.35,7.73,0,0-.55,1.24-.55,1.24l-4.45,9.88-.56,1.23c-.11.26.01-.12-.03-.16-.03-.24-.16-.46-.37-.55,4.77,1.53,9.9,3.41,14.65,4.85,1.79.45,1.59,3.29-.22,3.52-6.13.93-12.27-.1-17.92-2.21-3.38-1.82-4.07-6.15-2.23-9.22.8-1.76,4.86-11.09,5.51-12.52-.13.39.06.81.42.98,0,0-1.1-.47-1.1-.47-2.93-1.25-7.58-3.23-10.51-4.49l-1.31-.56-.66-.28c-2.34-.95-3.96-3.39-3.98-5.9-.22-3.25,3.21-6.23,5.28-9.2,0,0,6.79-8.82,6.79-8.82l.85-1.1.43-.55c-.51.51.04,1.52.53,1.52-2.9-.59-6.05-1.25-8.87-2.15-2.05-.83-4.93-1.25-6.6-2.8-6.79-6.75,3.61-14.02,8.02-18.73,1.05-.92,2.76-2.47,3.82-3.32l.14-.12-.05.03c-.48.43-.5,1.18-.07,1.63l-.89-.83c-4.92-4.65-9.22-9.95-13.05-15.5-3.38-4.08-1.73-9.92,3.32-11.5,6.67-2.63,13.59-4.21,20.61-5.3-.92.21-1.31,1.36-.75,2.06-2.97-3.95-5.36-8.4-7.29-12.93-.41-1.06-1.38-3.39-1.72-4.46-1.42-3.77,1.09-8.25,4.96-9.1,0,0,1.36-.42,1.36-.42,3.93-1.18,9.7-2.97,13.62-4.13.38-.12,0,0-.01.01-.66.25-.96,1.21-.6,1.73-3.34-5.75-6.35-11.63-8.8-17.82-1.22-3.6,1.81-8.01,5.21-8.54,0,0,1.39-.38,1.39-.38,5.55-1.46,11.2-2.51,16.89-3.22l1.1-.13c-.67.14-1.06.92-.74,1.54,0,0-.13-.26-.13-.26-.46-.98-1.42-2.77-1.88-3.72-.78-1.44-2.99-6-3.75-7.44-2.43-4.3,1.23-10.16,6.28-9.75,0,0,.69,0,.69,0h1.39c3.61.06,10.17.02,13.33.09-.61.09-.75.76-.7.94,0,0-.17-.67-.17-.67l-.67-2.7c-.68-2.65-2.01-8.12-2.68-10.78-.28-1.3-.7-2.01-.62-3.86.16-3.57,3.74-6.4,7.18-5.85,1.96.04,25.13,2.46,19.87,5.54h0Z"/><path class="cls-2" d="M294.76,201.78c6.33.27,12.26,1.7,18.25,3.55,1.67.51,2.6,2.28,2.09,3.95-2.79,6.68-7.3,12.18-12.88,16.68,0,0-1.31-6.24-1.31-6.24,7.86,2.22,15.2,5.12,22.07,9.67,1.41.89,1.95,2.67,1.33,4.16-3.65,8.52-10.49,14.88-18.6,18.94,0,0-.18-6.47-.18-6.47,3.23,1.4,6.31,2.85,9.42,4.47,3.16,1.67,6.31,3.42,9.4,5.84,1.5,1.13,1.72,3.33.47,4.73-2.9,3.25-5.92,5.68-9.5,7.95-3.45,2.16-7.29,3.78-11.3,4.56-.93.18-1.83-.43-2.01-1.36-.17-.86.34-1.69,1.14-1.95,6.57-2.43,12.16-7.63,15.93-13.39,0,0,.64,4.86.64,4.86-4.87-3.69-11.26-6.64-16.96-9.18-2.77-1.09-2.83-5.25-.18-6.47,6.38-3.12,12.21-8.53,15.05-15.01l1.33,4.16c-5.89-3.93-12.99-6.74-19.83-8.66-2.8-.64-3.58-4.55-1.31-6.24,4.32-3.42,8.16-8.11,10.41-13.11l1.84,4.57c-4.91-2.93-10.3-5.63-15.78-7.18-1.63-.39-1.23-2.98.44-2.86h0Z"/><path class="cls-2" d="M310.78,342.17c3.86,5.02,6.59,10.48,9.01,16.26.68,1.61-.07,3.46-1.68,4.14-6.91,2.16-14.02,2.25-21.06.86,0,0,3.94-5.02,3.94-5.02,3.37,7.47,5.87,15,6.8,23.22.17,1.63-.84,3.12-2.34,3.6-8.86,2.68-18.14,1.54-26.47-2.07,0,0,4.84-4.29,4.84-4.29,1.01,3.38,1.88,6.67,2.63,10.09.75,3.49,1.44,7.03,1.57,10.96.09,1.88-1.45,3.45-3.32,3.41-4.35-.13-8.16-.88-12.2-2.16-3.88-1.25-7.59-3.15-10.76-5.73-.73-.6-.85-1.68-.25-2.41.55-.68,1.51-.82,2.23-.38,6.08,3.47,13.66,4.41,20.5,3.59,0,0-3.31,3.62-3.31,3.62-.3-6.11-2.15-12.89-3.88-18.89-.95-2.82,2.2-5.55,4.84-4.29,6.49,2.88,14.38,3.86,21.17,1.88l-2.33,3.7c-.78-7.03-3.19-14.28-6.12-20.75-1.31-2.56,1.18-5.66,3.94-5.02,5.4,1.11,11.46,1.03,16.74-.45l-2.31,4.35c-.91-5.65-2.31-11.51-4.65-16.7-.75-1.5,1.49-2.86,2.48-1.5h0Z"/><path class="cls-2" d="M235,484.43c-.23,0-.47-.01-.7-.03-2.46-.21-4.68-1.48-6.1-3.51l-3.03-4.33-4.87,4.1c-1.88,1.59-4.35,2.25-6.78,1.82-2.43-.43-4.52-1.9-5.75-4.03l-3.18-5.51-4.33,3.03c-2.02,1.42-4.55,1.86-6.93,1.21-2.38-.65-4.34-2.31-5.37-4.55l-6.19-13.51-9.74,5.51c-2.2,1.25-4.82,1.42-7.17.48-2.35-.94-4.12-2.87-4.85-5.3l-5.16-17.06-13.25,3.41c-2.76.71-5.65-.03-7.73-1.97-2.08-1.95-3.02-4.78-2.49-7.59l2.92-15.63-19.33.41c-2.68.05-5.35-1.25-6.95-3.5-1.59-2.25-1.96-5.14-.99-7.72l8.66-22.93-17.83-4.96c-2.69-.75-4.81-2.78-5.67-5.44-.86-2.66-.33-5.55,1.41-7.73l15.09-18.88-14.75-4.43c-2.9-.87-5.1-3.25-5.73-6.22-.63-2.97.4-6.04,2.7-8.02l12.66-10.88-7.92-6.92c-2.07-1.81-3.11-4.52-2.78-7.25.33-2.73,1.99-5.11,4.44-6.37l10.64-5.46-9.87-12.06c-1.61-1.97-2.22-4.52-1.69-7,.53-2.48,2.15-4.55,4.42-5.68l13.78-6.84-5.3-9.1c-1.49-2.55-1.52-5.61-.09-8.2,1.43-2.58,4.05-4.18,7-4.27l11.8-.36-7.44-18.86c-.99-2.5-.7-5.33.77-7.58,1.47-2.25,3.95-3.65,6.64-3.75l17.32-.63-3.66-9.78c-.93-2.48-.61-5.27.84-7.47,1.45-2.21,3.9-3.6,6.53-3.72l10.15-.47-2.21-16.67c-.31-2.32.39-4.68,1.91-6.47,1.52-1.78,3.73-2.85,6.08-2.91l12.75-.37,1.31-14.95c.23-2.65,1.73-5.05,4.02-6.41,2.29-1.36,5.11-1.54,7.55-.48l11.54,5.02,7.04-11.96c1.25-2.12,3.36-3.57,5.79-3.97,2.42-.4,4.89.28,6.75,1.88l8.7,7.44,9.99-11.31c1.7-1.92,4.12-2.92,6.69-2.79,2.55.15,4.86,1.43,6.32,3.53l7.88,11.25,6.99-7c1.91-1.91,4.63-2.77,7.3-2.31,2.66.47,4.94,2.21,6.08,4.66l4.18,8.97,11.25-7.87c2.1-1.47,4.71-1.88,7.15-1.15,2.45.74,4.39,2.53,5.32,4.91l5.53,14.04,10.72-4.02c2.3-.87,4.85-.67,7,.55,2.14,1.21,3.63,3.29,4.07,5.71l2.53,13.65,12.56-.77c2.66-.14,5.25.97,6.93,3.03,1.68,2.06,2.28,4.83,1.59,7.4l-3.89,14.49,11.85,4.71c2.18.87,3.9,2.62,4.71,4.82.82,2.2.66,4.65-.42,6.73l-7.77,14.9,9.38,3.92c2.44,1.02,4.26,3.16,4.87,5.73.61,2.57-.05,5.3-1.76,7.31l-6.78,7.94,16.06,6.52c2.49,1.01,4.34,3.18,4.96,5.79.61,2.62-.08,5.38-1.87,7.39l-13.44,15.18,10.97,4.38c2.74,1.1,4.66,3.49,5.12,6.41.46,2.92-.62,5.79-2.89,7.67l-8.1,6.74,10.61,11.14c1.75,1.84,2.56,4.34,2.21,6.85-.35,2.52-1.8,4.7-3.98,6l-13.4,7.95,8.13,8.77c1.87,2.02,2.62,4.82,2,7.5-.62,2.68-2.52,4.87-5.09,5.87l-9.81,3.8,8.18,14.56c1.48,2.65,1.41,5.88-.2,8.45-1.61,2.57-4.49,4.05-7.51,3.89l-15.38-.88,7.73,22.91c.89,2.65.4,5.54-1.31,7.74-1.72,2.2-4.41,3.37-7.19,3.18l-18.45-1.43.29,24.51c.03,2.76-1.3,5.34-3.57,6.92-2.27,1.57-5.16,1.91-7.73.91l-18.02-6.99-2.6,15.68c-.47,2.81-2.31,5.16-4.93,6.28-2.62,1.12-5.59.82-7.94-.79l-11.29-7.74-10.69,14.27c-1.52,2.03-3.84,3.24-6.37,3.32-2.53.12-4.93-.98-6.57-2.9l-7.27-8.51-10.43,10.58c-1.57,1.59-3.69,2.47-5.9,2.47ZM225.4,466.53c.36,0,.72.02,1.07.07,2.3.3,4.39,1.57,5.72,3.47l2.96,4.23,10.34-10.49c1.63-1.65,3.88-2.55,6.2-2.46,2.32.08,4.51,1.14,6.01,2.91l7.15,8.37,10.48-14c2.67-3.57,7.65-4.39,11.33-1.87l10.69,7.33,2.53-15.28c.41-2.48,1.9-4.61,4.08-5.85,2.18-1.24,4.77-1.43,7.11-.53l17.75,6.89-.28-24.05c-.03-2.32.93-4.56,2.62-6.15,1.7-1.59,4-2.39,6.31-2.22l17.95,1.39-7.72-22.87c-.88-2.62-.41-5.49,1.27-7.68,1.67-2.2,4.31-3.4,7.07-3.25l14.97.86-7.79-13.86c-1.18-2.1-1.39-4.6-.58-6.86.81-2.27,2.57-4.06,4.81-4.93l9.45-3.66-7.94-8.57c-1.71-1.84-2.49-4.33-2.12-6.82.36-2.49,1.81-4.66,3.97-5.94l13.38-7.94-10.46-10.98c-1.58-1.65-2.41-3.91-2.28-6.2.13-2.28,1.22-4.44,2.97-5.9l7.54-6.28-10.68-4.26c-2.51-1-4.37-3.16-5-5.79-.62-2.62.07-5.39,1.86-7.41l13.45-15.19-16.03-6.5c-2.46-1-4.31-3.14-4.94-5.72-.63-2.58.02-5.33,1.75-7.35l6.8-7.95-9.07-3.79c-2.14-.89-3.81-2.65-4.6-4.83s-.62-4.6.45-6.66l7.76-14.88-11.61-4.61c-3.91-1.55-6.04-5.78-4.95-9.85l3.74-13.93-11.96.73c-4.22.29-7.9-2.65-8.66-6.77l-2.46-13.29-10.49,3.93c-4.22,1.58-8.98-.54-10.63-4.73l-5.4-13.73-11.17,7.82c-2.01,1.41-4.53,1.86-6.91,1.22-2.38-.64-4.33-2.28-5.37-4.51l-4.06-8.71-6.8,6.8c-1.74,1.74-4.17,2.61-6.59,2.4-2.45-.22-4.66-1.49-6.07-3.51l-7.82-11.17-9.77,11.05c-2.98,3.37-8.19,3.73-11.61.81l-8.51-7.28-6.86,11.65c-2.12,3.61-6.61,5.07-10.45,3.4l-10.99-4.78-1.26,14.36c-.36,4.19-3.81,7.45-8.02,7.57l-12.49.36,2.2,16.64c.31,2.29-.37,4.63-1.86,6.41-1.48,1.78-3.66,2.86-5.98,2.97l-9.82.46,3.67,9.8c.93,2.49.61,5.3-.87,7.51-1.48,2.21-3.94,3.59-6.6,3.69l-17.29.63,7.44,18.87c.99,2.51.69,5.35-.79,7.6-1.48,2.25-3.98,3.65-6.67,3.73l-11.5.35,4.94,8.48c1.15,1.98,1.44,4.37.78,6.56-.66,2.19-2.21,4.03-4.26,5.05l-13.59,6.74,9.85,12.04c1.6,1.95,2.22,4.48,1.7,6.94-.51,2.46-2.09,4.54-4.33,5.69l-10.39,5.33,7.63,6.68c1.81,1.58,2.85,3.87,2.83,6.28-.01,2.41-1.06,4.69-2.89,6.25l-12.06,10.36,14.36,4.31c2.64.79,4.71,2.84,5.53,5.47.82,2.63.28,5.49-1.44,7.65l-15.07,18.85,17.35,4.83c2.24.63,4.12,2.17,5.17,4.24,1.05,2.07,1.18,4.51.36,6.68l-8.49,22.51,19.03-.4c2.56-.08,4.88,1.02,6.5,2.93,1.62,1.91,2.29,4.42,1.82,6.89l-2.85,15.23,12.55-3.23c4.32-1.12,8.71,1.36,10.01,5.63l5.06,16.74,9.58-5.42c2.01-1.14,4.43-1.38,6.64-.67,2.21.71,4.02,2.33,4.99,4.44l6.13,13.39,4.23-2.96c1.9-1.33,4.28-1.8,6.56-1.3,2.26.5,4.23,1.95,5.39,3.96l3.12,5.41,4.78-4.02c1.5-1.26,3.4-1.95,5.34-1.95ZM214.2,473.4s0,0,0,0c0,0,0,0,0,0h0Z"/></svg>