<?xml version="1.0" encoding="UTF-8"?><svg id="Layer_1" xmlns="http://www.w3.org/2000/svg" viewBox="0 0 512 512"><defs><style>.cls-1{fill:#000072;}.cls-1,.cls-2,.cls-3,.cls-4,.cls-5,.cls-6{stroke-width:0px;}.cls-2{fill:#8af253;}.cls-7{opacity:.15;}.cls-3{fill:#d7ffa9;}.cls-8{opacity:.45;}.cls-4{fill:#67ecb4;}.cls-5{fill:#c47d47;}.cls-6{fill:#fff;}</style></defs><circle class="cls-4" cx="255.9" cy="259.96" r="195.5"/><circle class="cls-5" cx="247.47" cy="297.54" r="163.96"/><path class="cls-2" d="M222.31,441.29c-9.22-1.63-18.38-4.17-27.21-7.57-36.37-13.99-65.12-41.31-80.95-76.92-15.83-35.61-16.84-75.26-2.86-111.63,25.01-65.02,92.86-103.45,161.35-91.38,9.22,1.63,18.38,4.17,27.2,7.57,75.09,28.88,112.69,113.46,83.81,188.55-25.01,65.02-92.86,103.45-161.34,91.38Z"/><path class="cls-3" d="M328.48,309.3l-46.84-12.31c-.68-.18-1.13-.76-1.08-1.36.29-3.61.4-6.14.45-7.39.02-.53.43-.98,1.03-1.1l55.52-11.83c1.6-.34,1.24-2.39-.43-2.46l-54.09-2.11c-.79-.03-1.44-.6-1.45-1.28-.05-3.32-.11-8.54-.14-10.48,0-.47.29-.87.77-1.07l50.31-20.45c1.48-.6.67-2.58-.96-2.37l-51.07,6.81c-1.27.17-2.22-1.1-1.48-1.99l20.79-25.11c.94-1.14-.8-2.62-2.1-1.77l-28.19,18.43c-.95.62-2.37-.04-2.35-1.09l.53-39.3c.02-1.44-2.35-1.86-2.83-.5l-12.95,37.11c-.35,1-1.9,1.13-2.58.22l-20.19-26.96c-.93-1.24-3.07-.45-2.58.94l10.95,30.71c.39,1.09-.94,1.96-2.08,1.37l-45.66-23.87c-1.47-.77-2.9.82-1.72,1.89l40.28,36.43c.38.35.53.83.36,1.27-.68,1.81-2.53,6.7-3.71,9.8-.24.64-1.05.95-1.81.71l-51.55-16.51c-1.59-.51-2.63,1.3-1.24,2.16l48.13,30.11c.51.32.75.88.59,1.39-.39,1.19-1.15,3.6-2.11,7.1-.16.58-.79.97-1.49.91l-48.23-4.45c-1.6-.15-2.13,1.72-.67,2.35l45.25,19.53c.54.23.88.71.85,1.22-.08,1.31-.19,3.99-.11,6.87.01.48-.28.91-.77,1.1l-42.52,17.22c-1.47.6-.69,2.57.95,2.37l42.59-5.19c.84-.1,1.63.44,1.71,1.17.23,2.12.79,6.29,1.92,9.51.16.45.03.91-.35,1.22l-36.04,29.28c-1.19.97.26,2.69,1.72,2.05l38.34-16.66c.63-.27,1.41-.1,1.84.41,1.39,1.63,4.42,5.14,6.51,7.39.23.24.33.53.32.84l-1.61,42.42c-.06,1.47,2.38,1.9,2.83.5l13-40.42c.09-.29.29-.52.59-.68,2.73-1.4,6.78-3.67,8.64-4.72.58-.33,1.38-.22,1.87.25l30.33,28.77c1.16,1.1,3.1-.02,2.32-1.34l-23.86-39.84c-.25-.42-.22-.9.09-1.26,2.16-2.64,4.11-6.37,5.05-8.28.33-.66,1.26-.9,2.01-.52l38.24,19.45c1.47.75,2.88-.84,1.7-1.9l-34.07-30.73c-.39-.35-.52-.86-.34-1.3,1.07-2.68,1.87-5.24,2.25-6.49.15-.49.63-.82,1.22-.86l49.2-2.87c1.59-.09,1.73-2.03.18-2.43Z"/><path class="cls-1" d="M281.71,202.45c-3.88.14-4.44,5.3-4.44,8.2,0,1.01,1.02,1.68,1.98,1.34,9.66-3.43,6.1-9.67,2.46-9.54Z"/><path class="cls-1" d="M304.94,224.03c-3.74-1.05-5.83,3.71-6.72,6.47-.31.97.47,1.91,1.48,1.87,10.25-.34,8.75-7.36,5.24-8.34Z"/><path class="cls-1" d="M317.29,257.22c-2.86-2.62-6.88.67-8.92,2.73-.71.72-.45,1.91.47,2.34,9.29,4.33,11.13-2.61,8.45-5.07Z"/><path class="cls-1" d="M322.28,291.29c-2.46-3.01-6.9-.32-9.21,1.43-.81.61-.72,1.83.13,2.38,8.58,5.61,11.39-.99,9.08-3.81Z"/><path class="cls-1" d="M311.39,328.44c-.99-3.76-6.15-3.16-8.98-2.52-.99.22-1.41,1.37-.87,2.22,5.48,8.67,10.77,3.82,9.85.3Z"/><path class="cls-1" d="M290.43,359.87c.57-3.84-4.4-5.33-7.25-5.86-1-.19-1.83.7-1.68,1.7,1.61,10.12,8.39,7.76,8.93,4.16Z"/><path class="cls-1" d="M258.84,386.05c2.42-3.04-1.14-6.82-3.34-8.71-.77-.66-1.94-.31-2.3.63-3.67,9.57,3.37,10.92,5.64,8.07Z"/><path class="cls-1" d="M247.49,196.42c3.6,1.46,2.36,6.5,1.37,9.22-.35.95-1.53,1.23-2.32.58-7.9-6.53-2.43-11.17.95-9.8Z"/><path class="cls-1" d="M218.28,208.75c3.87.3,4.21,5.48,4.1,8.37-.04,1.01-1.09,1.63-2.03,1.26-9.51-3.83-5.7-9.91-2.07-9.63Z"/><path class="cls-1" d="M195.32,235.71c3.59-1.49,6.24,2.98,7.45,5.61.42.92-.23,1.95-1.24,2.04-10.21.89-9.57-6.26-6.2-7.65Z"/><path class="cls-1" d="M178.97,266.02c3.34-1.98,6.6,2.06,8.17,4.5.55.85.05,1.96-.94,2.19-9.98,2.34-10.36-4.83-7.23-6.69Z"/><path class="cls-1" d="M176.51,304.65c2.21-3.19,6.86-.86,9.3.7.85.55.86,1.77.06,2.39-8.11,6.27-11.43-.09-9.35-3.09Z"/><path class="cls-1" d="M185.45,341.36c.78-3.81,5.96-3.5,8.82-3.03,1,.17,1.49,1.28.99,2.17-4.98,8.96-10.54,4.42-9.81.86Z"/><path class="cls-1" d="M206.18,376.77c-1.23-3.68,3.41-6.02,6.12-7.04.95-.36,1.93.37,1.95,1.38.18,10.25-6.91,9.11-8.06,5.66Z"/><g class="cls-7"><path class="cls-1" d="M390.01,330.97c-32.5,84.51-127.38,126.69-211.89,94.19-38.97-14.99-68.91-43.23-86.73-77.61-6.49-20.22-9.11-41.75-7.31-63.42,17.05,28.36,43.32,51.49,76.64,64.3,79.47,30.56,168.66-9.12,199.2-88.55,9.14-23.78,11.97-48.38,9.38-72.07,9.53,10.58,17.57,22.35,24.01,34.92,10.88,34.18,10.58,72.17-3.29,108.25Z"/></g><g class="cls-8"><path class="cls-6" d="M197.22,218.94c-23.5,13.82-41.15,35.01-53.5,33.36-12.79-.53-10.45-42.4,30.93-68.93,41.62-26.14,80.51-10.43,75.54,1.37-3.76,11.88-30.45,18.82-52.97,34.2Z"/></g><path class="cls-1" d="M247.53,467.26c-20.57,0-41.17-3.79-60.95-11.39-87.3-33.57-131.01-131.91-97.44-219.21,33.57-87.3,131.91-131.01,219.21-97.44,87.29,33.57,131,131.91,97.43,219.21h0c-16.26,42.29-48.02,75.71-89.42,94.12-22.04,9.8-45.42,14.71-68.84,14.71ZM247.65,139.23c-63.63,0-123.76,38.64-147.93,101.49-31.33,81.47,9.46,173.24,90.93,204.57,39.46,15.17,82.48,14.07,121.12-3.1,38.64-17.18,68.28-48.37,83.45-87.84h0c31.33-81.47-9.46-173.24-90.93-204.57-18.62-7.16-37.79-10.55-56.64-10.55Z"/></svg>