<?xml version="1.0" encoding="UTF-8"?><svg id="Layer_1" xmlns="http://www.w3.org/2000/svg" viewBox="0 0 512 512"><defs><style>.cls-1{fill:#ab35bc;}.cls-1,.cls-2,.cls-3,.cls-4,.cls-5,.cls-6{stroke-width:0px;}.cls-7{opacity:.6;}.cls-2{fill:#000072;}.cls-3{fill:#2fdd54;}.cls-8{opacity:.15;}.cls-9{opacity:.45;}.cls-4{fill:#8d27b7;}.cls-5{fill:#fff;}.cls-6{fill:#cf9ef5;}</style></defs><circle class="cls-6" cx="257.12" cy="244.28" r="189.98"/><path class="cls-1" d="M391.9,360.78c-29.62,74.23-118.14,110.47-197.72,80.95-79.57-29.53-120.07-113.64-90.45-187.87,29.62-74.23,118.14-110.47,197.72-80.95,79.57,29.53,120.07,113.64,90.45,187.87Z"/><path class="cls-4" d="M381.8,338.25c-29.62,74.22-118.16,110.47-197.72,80.95-36.69-13.61-65.05-38.83-82.1-69.34-6.29-17.9-8.96-36.92-7.5-56.02,16.28,25.19,41.14,45.86,72.5,57.5,74.82,27.76,158.04-6.34,185.88-76.1,8.33-20.89,10.74-42.56,8.07-63.49,9.04,9.43,16.7,19.89,22.86,31.05,10.55,30.26,10.65,63.77-1.99,95.46Z"/><g class="cls-9"><path class="cls-5" d="M187.28,245c-21.9,11.95-38.23,30.47-49.83,28.89-12-.6-10.23-37.51,28.3-60.5,38.76-22.64,75.38-8.39,70.84,1.97-3.41,10.44-28.36,16.3-49.32,29.64Z"/></g><path class="cls-2" d="M251.01,457.38c-19.49,0-39.36-3.4-58.71-10.58-41.51-15.4-73.86-45.26-91.1-84.09-15.87-35.74-16.75-75.11-2.49-110.86,30.65-76.82,122.45-114.51,204.62-84.02,41.51,15.4,73.86,45.26,91.1,84.09,15.87,35.74,16.75,75.11,2.49,110.86h0c-23.44,58.73-82.62,94.59-145.91,94.59ZM244.56,168.06c-58.98,0-114.04,33.26-135.8,87.8-13.18,33.02-12.35,69.41,2.32,102.46,16.05,36.14,46.23,63.95,84.98,78.33,76.72,28.47,162.32-6.47,190.81-77.88l5.02,2-5.02-2c13.18-33.02,12.35-69.41-2.32-102.46-16.05-36.14-46.23-63.96-84.98-78.33-18.13-6.73-36.76-9.92-55.02-9.92Z"/><path class="cls-3" d="M286.09,149.18l-24.91-3.77-9.85-1.49s22.16-43.96,1.99-81.79c-3.14-5.91-1.27-13.21,4.14-17.11,8.01-5.72,21.31-10.45,39.95-1.51,1.41.67,2.65,1.57,3.73,2.68,1.68,1.67,2.91,3.81,3.49,6.19,3.26,13.44,7.56,48.8-18.54,96.78Z"/><g class="cls-8"><path class="cls-2" d="M286.09,149.18l-24.91-3.77c32.11-24.44,36.66-99.24,36.66-99.24,0,0,1.26-.03,3.3.03,1.68,1.67,2.91,3.81,3.49,6.19,3.26,13.44,7.56,48.8-18.54,96.78Z"/></g><g class="cls-7"><path class="cls-5" d="M262.16,62.36c8-5.73,21.31-10.46,39.94-1.51,1.75.84,3.28,2.05,4.5,3.5-.48-4.98-1.25-9.01-1.96-11.97-.94-3.89-3.63-7.13-7.23-8.86-18.63-8.95-31.94-4.22-39.94,1.51-5.43,3.89-7.29,11.19-4.14,17.09,1.39,2.62,2.57,5.26,3.58,7.92.77-3.01,2.57-5.77,5.25-7.69Z"/></g><path class="cls-2" d="M286.08,154.59c-.27,0-.54-.02-.81-.06l-34.75-5.23c-1.71-.26-3.2-1.32-3.99-2.86-.8-1.54-.81-3.37-.03-4.92.21-.42,20.62-41.99,2.05-76.84-4.38-8.21-1.9-18.54,5.77-24.03,9.08-6.5,24.32-12.13,45.43-1.99,5.13,2.46,8.83,7.01,10.15,12.47,3.3,13.67,8.04,50.83-19.06,100.64-.96,1.76-2.79,2.82-4.75,2.82ZM259.09,139.64l24.02,3.62c23.33-44.8,19.21-77.45,16.28-89.6-.55-2.29-2.12-4.2-4.31-5.25-13.11-6.3-24.69-5.95-34.45,1.03-3.27,2.34-4.35,6.71-2.52,10.15,16.66,31.28,6.57,65.75.99,80.05Z"/><path class="cls-3" d="M235.4,152.88c-20.47,59.04-79.21,39.88-99.84,30.98-3.81-1.65-5.77-5.75-4.86-9.61.12-.53.31-1.05.53-1.58,11.71-25.68,41.33-46.13,66.19-47.9,6-.42,11.24.51,15.79,2.26,11.37,4.31,18.33,13.52,21.44,18.62,1.32,2.18,1.57,4.83.75,7.24Z"/><g class="cls-8"><path class="cls-2" d="M235.51,147.55c-21.54,53.6-77.28,35.84-97.8,27.09,21.83.77,86.32-.84,75.63-47.06-.04-.18-.09-.37-.13-.55,11.37,4.31,18.33,13.52,21.44,18.62.37.62.66,1.24.87,1.9Z"/></g><path class="cls-2" d="M179.95,199.5c-18.26,0-35.72-6-46.54-10.66-3.44-1.48-6.08-4.22-7.42-7.72-1.35-3.49-1.23-7.29.32-10.7,12.15-26.66,43.22-49.08,70.73-51.04,24.05-1.75,37.55,15.82,42.22,23.43,2.17,3.54,2.63,7.86,1.25,11.85h0c-6.72,19.38-18,32.67-33.54,39.52-8.72,3.84-17.96,5.32-27,5.32ZM200.28,130.08c-.81,0-1.63.03-2.48.09-23.51,1.68-51.17,21.74-61.65,44.74-.45.99-.23,1.88-.07,2.32.29.76.87,1.36,1.61,1.68,11.72,5.05,41.51,15.69,64.9,5.38,12.67-5.59,21.99-16.74,27.68-33.16h0c.32-.91.22-1.88-.25-2.66-4.29-7.02-13.73-18.38-29.75-18.38ZM235.39,152.89h.04-.04Z"/><g class="cls-7"><path class="cls-5" d="M202.79,136.38c-3.32-.42-6.72-.54-10.03.06-7.37,1.35-20.15,6.37-25.39,13.31-.68.9-.46,2.19.46,2.84h0c.49.34,1.08.21,1.58-.11,13.02-8.45,21.77-10.66,33.32-11.98.95-.12,1.76-.82,1.87-1.83.13-1.13-.68-2.16-1.81-2.29Z"/></g><path class="cls-3" d="M312.32,166.46c.04-2.56,1.18-4.97,3.18-6.56,6.54-5.21,22.89-15.46,42.11-6.88,22.75,10.16,43.6,39.5,45.82,67.64.37,4.69-3.2,8.78-7.9,9.05-22.41,1.3-84.18-.77-83.22-63.25Z"/><g class="cls-8"><path class="cls-2" d="M384.51,229.84c-.23,0-.45.02-.71.05-21.44-.55-54.23-6.46-66.55-35.48,13.83,14.22,36.14,18.51,47.12,19.79,3.8.44,7.24-2.33,7.59-6.14,1.62-16.85-4.8-35.65-15.02-48.89,18.39,13.18,33.59,37.82,35.47,61.62.37,4.69-3.2,8.77-7.9,9.04Z"/></g><path class="cls-2" d="M387.23,235.36c-18.27,0-44.61-3.41-62.32-20.38-12.26-11.75-18.32-28.1-18-48.6h0c.06-4.21,1.97-8.12,5.22-10.71,6.99-5.56,25.62-17.44,47.69-7.58,25.18,11.25,46.7,42.94,49.01,72.15.29,3.73-.9,7.34-3.36,10.16-2.46,2.82-5.88,4.5-9.62,4.71-2.58.15-5.48.25-8.61.25ZM342.39,155.11c-10.27,0-18.68,5.17-23.52,9.02-.71.57-1.13,1.44-1.14,2.41h0c-.27,17.38,4.67,31.05,14.67,40.63,18.45,17.69,50.08,17.87,62.83,17.14.81-.05,1.55-.41,2.09-1.03.31-.35.82-1.11.73-2.2-1.98-25.19-21.11-53.51-42.63-63.12-4.56-2.04-8.94-2.85-13.02-2.85ZM312.32,166.46h.04-.04Z"/><path class="cls-3" d="M254.05,217.31c5.29,4.2,12.3,5.44,18.7,3.3,17.36-5.8,50.91-19.83,51.73-41.92.86-23.25-28.02-35.13-40.81-39.24-3.93-1.26-8-1.98-12.13-2.14-13.42-.51-44.62.78-51.77,22.92-6.79,21.03,19.94,45.7,34.27,57.08Z"/><g class="cls-8"><path class="cls-2" d="M324.48,178.69c.58-15.73-12.46-26.25-24.91-32.69,4.67,4.9,7.86,10.96,7.59,18.34-.71,19.26-29.97,31.5-45.11,36.56-5.58,1.86-11.7.79-16.31-2.88-8.1-6.43-20.73-17.73-27.01-29.88.68,19,22.77,39.18,35.34,49.16,5.29,4.2,12.3,5.44,18.7,3.3,17.36-5.8,50.91-19.83,51.73-41.92Z"/></g><g class="cls-7"><path class="cls-5" d="M231.44,164.41c8.01-11.5,22.9-16.54,36.49-15.55,4.54.22,9,1.38,13.25,2.92,1.45.51,2.21,2.11,1.7,3.56-.45,1.29-1.73,1.98-3.01,1.85-16.08-1.77-32.52.43-46.52,9-1.13.89-2.73-.6-1.9-1.78h0Z"/></g><path class="cls-2" d="M266.41,227.05c-5.63,0-11.18-1.89-15.73-5.51-16.76-13.31-43.73-39.2-36.05-62.98,8.3-25.7,42.71-27.21,57.12-26.66,4.62.18,9.19.98,13.58,2.39,13.73,4.41,45.55,17.59,44.55,44.59-.92,24.97-35.11,40.07-55.42,46.85-2.64.88-5.36,1.31-8.05,1.31ZM267.23,142.64c-13.38,0-36.89,2.48-42.31,19.25-5.88,18.23,20.76,41.87,32.49,51.18h0c3.86,3.07,8.95,3.96,13.63,2.4,14.21-4.74,47.33-17.84,48.03-36.99.72-19.6-25.67-30.23-37.06-33.89-3.45-1.11-7.05-1.74-10.68-1.88-1.21-.05-2.59-.08-4.1-.08Z"/></svg>