<?xml version="1.0" encoding="UTF-8"?><svg id="Layer_1" xmlns="http://www.w3.org/2000/svg" viewBox="0 0 512 512"><defs><style>.cls-1{fill:#ffcaec;}.cls-1,.cls-2,.cls-3,.cls-4,.cls-5,.cls-6,.cls-7,.cls-8{stroke-width:0px;}.cls-9{opacity:.6;}.cls-2{fill:#000072;}.cls-3{fill:#2fdd54;}.cls-10{opacity:.15;}.cls-4{fill:#f26d80;}.cls-11{opacity:.3;}.cls-5{fill:#ff4374;}.cls-6{fill:#b76e51;}.cls-7{fill:#fff;}.cls-8{fill:#ff8683;}</style></defs><circle class="cls-1" cx="259.86" cy="251.05" r="196.25"/><path class="cls-6" d="M277.06,177.44s16.81-56.16,38.37-92.52c0,0-3.74-12.07-12.94-10.82-3.24.44-5.96,2.64-7.47,5.55-6.01,11.63-25.11,52.22-24.07,96.89l6.11.9Z"/><g class="cls-9"><path class="cls-7" d="M303.79,102.86s-3.74-12.07-12.94-10.82c-.66.09-1.29.27-1.89.49,2.46-5.71,4.64-10.13,6.07-12.89,1.5-2.91,4.22-5.11,7.47-5.55,9.2-1.25,12.94,10.82,12.94,10.82-21.55,36.36-38.37,92.52-38.37,92.52l-5.5-.81c6.77-19.61,18.54-50.67,32.23-73.76Z"/></g><path class="cls-2" d="M277.06,183.02c-.27,0-.55-.02-.82-.06l-6.11-.9c-2.69-.4-4.71-2.68-4.77-5.4-1.07-46.03,18.63-87.86,24.69-99.59,2.42-4.67,6.78-7.86,11.68-8.52,10.96-1.5,17.12,8.54,19.03,14.7.47,1.51.28,3.14-.53,4.5-20.95,35.34-37.66,90.72-37.82,91.28-.72,2.39-2.92,3.98-5.35,3.98ZM303.72,79.6c-.16,0-.32.01-.48.03-1.28.17-2.52,1.16-3.26,2.58-4.98,9.63-19.64,40.62-22.86,76.9,6.46-18.97,18.15-50.35,32.08-74.62-1.03-2.05-2.92-4.9-5.49-4.9Z"/><path class="cls-3" d="M300.67,142.6c-.57-.28-1.17-.57-1.73-.87,0-.03.88-5.01,3.59-11.88,1.27-3.26,2.98-6.94,5.2-10.74,0-.03.03-.02.03-.05,7.89-13.55,22.35-28.39,48-29.79,45.64-2.47,52.06,15.95,83.07,4.85h.03c1.63-.59,3.32-1.24,5.08-1.99,0,0-11.13,117.78-143.27,50.47Z"/><g class="cls-10"><path class="cls-2" d="M300.67,142.6c.18-4.67.84-9.03,1.86-12.75,1.27-4.69,3.07-8.45,5.2-10.74,0-.03.03-.02.03-.05,0,0,23,21.71,79.88,21.3,28.34-.2,43.32-23.19,51.19-46.23h.03c1.63-.59,3.32-1.24,5.08-1.99,0,0-11.13,117.78-143.27,50.47Z"/></g><path class="cls-2" d="M294.49,137.64c25.15-23.17,61.92-28.79,94.77-25.25,4.63.62,9.22,1.51,13.78,2.36.81.15,1.35.93,1.19,1.74-.14.75-.81,1.25-1.54,1.22-13.61.11-27.2.21-40.6,2.48-17.31,2.56-34.56,8.33-49.11,17.99-3.39,2.21-7.16,5.18-9.81,7.9-5.61,5.65-14.2-2.63-8.68-8.44h0Z"/><g class="cls-9"><path class="cls-7" d="M345.14,103.69c9.55-4.45,26.26-8.64,49.59-1.22,1.84.59,1.33,3.34-.6,3.23-12.66-.75-33.27-1.38-48.02,1.13-1.93.33-2.74-2.31-.97-3.14Z"/></g><path class="cls-2" d="M372.09,169.46c-21.75,0-47.14-7.46-75.92-22.35-2.35-1.22-3.64-3.82-3.18-6.43.1-.55,10.2-54.65,62.45-57.45,22.16-1.18,35.65,2.37,46.49,5.23,13.07,3.45,21.7,5.73,39.64-1.89,1.97-.83,4.22-.57,5.94.69,1.72,1.26,2.65,3.33,2.45,5.46-.19,1.95-4.94,48.09-41.44,68.01-10.68,5.83-22.85,8.74-36.44,8.74ZM305.98,138.5c40.92,20.35,73.44,24.26,96.67,11.62,21.5-11.69,30.14-35.34,33.41-48.73-15.6,4.48-25.77,1.8-37.23-1.22-10.55-2.78-22.49-5.93-42.75-4.85-34.81,1.87-46.81,31.87-50.1,43.18Z"/><path class="cls-8" d="M223.59,455.35c4.84.85,9.86.64,14.72-.7,74.27-20.43,181.75-80.67,168.97-189.46-12.89-109.75-134.58-88.35-134.58-88.35,0,0-107.03-61.73-156.69,36.99-49.22,97.86,31.18,191.22,93.98,235.83,4.11,2.92,8.76,4.84,13.6,5.69Z"/><path class="cls-4" d="M228.81,440.6c-4.86,1.34-9.89,1.54-14.72.69-4.81-.85-9.47-2.75-13.58-5.68-9.49-6.74-19.37-14.58-29.14-23.39.91.26,1.83.48,2.76.64,4.76.84,9.69.62,14.49-.7,73.07-20.1,178.81-79.35,166.23-186.4-1.99-17-6.65-30.77-13.05-41.95.16.05.31.09.47.14,29.87,9.1,51.59,35.29,55.4,66.29.04.3.07.59.11.89,12.79,108.79-94.68,169.03-168.97,189.46Z"/><path class="cls-5" d="M273.7,182.82c-39.24,10.12-61.15,49.9-67.16,87.97-6.81,40.33-1.84,81.94,5.1,122.16.21,1.12-.53,2.19-1.65,2.4-1.05.2-2.08-.47-2.36-1.49-5.44-20.11-9.69-40.63-11.96-61.51-4.3-42.06-1.93-87.21,22.68-123.48,12.58-18.25,31.35-33.01,53.33-37.99,8.04-1.38,10.1,10.59,2.01,11.94h0Z"/><g class="cls-9"><path class="cls-7" d="M121.53,228.16c43.4-86.28,131.19-48.42,150.76-38.6,2.59,1.3,5.48,1.8,8.36,1.47,21.12-2.46,111.28-7.69,127.13,79.16-.14-1.65-.31-3.31-.5-4.99-12.89-109.75-134.58-88.35-134.58-88.35,0,0-107.03-61.73-156.69,36.99-23.15,46.02-17.62,91.05,1.26,130.48-13.97-35.78-16.15-75.58,4.26-116.16Z"/></g><g class="cls-11"><path class="cls-7" d="M127.55,258.87c2.54-25.28,14.86-49.41,34.49-65.8,6.93-5.42,15.01-9.7,23.68-11.76,3.49-.83,6.98,1.33,7.81,4.81.66,2.79-.59,5.59-2.91,7.02-12.81,7.47-23.21,17.21-32.41,28.9-9.38,12.02-17.44,25.2-25.66,38.31-1.32,2.48-5.27,1.31-5.01-1.49h0Z"/></g><g class="cls-11"><path class="cls-7" d="M237.63,278.28c.3-25.95,13.18-50.85,33.52-66.95,7.25-5.27,15.7-9.28,24.65-10.62,3.59-.54,6.93,1.94,7.47,5.53.37,2.45-.67,4.78-2.5,6.18-12.06,8.84-21.76,18.44-30.94,30.15-9.38,12.03-17.64,24.77-27.2,37.19-1.4,2.19-5.05,1.1-5.01-1.49h0Z"/></g><path class="cls-2" d="M229.38,461.91c-2.29,0-4.59-.2-6.84-.59-5.74-1.01-11.29-3.33-16.05-6.72-74.21-52.7-143.86-148.1-95.89-243.48,14.48-28.78,35.1-47.35,61.29-55.19,45.16-13.52,91.85,9.25,101.92,14.62,11.29-1.61,62.96-7.03,100.77,21.12,21.93,16.32,34.96,40.83,38.71,72.82,12.46,106.04-85.61,171.86-173.38,196-3.42.94-6.98,1.41-10.54,1.42ZM201.64,163.86c-8.68,0-17.59,1.06-26.34,3.68-22.84,6.86-40.97,23.35-53.87,49.01-44.52,88.53,21.78,178.24,92.08,228.17,3.36,2.38,7.11,3.95,11.14,4.66h0c4.04.71,8.1.52,12.06-.57,83.14-22.87,176.12-84.5,164.56-182.92-3.36-28.56-14.77-50.27-33.92-64.52-37.64-28.01-93.05-18.67-93.6-18.57-1.4.25-2.84-.01-4.07-.72-.39-.23-32.25-18.23-68.04-18.23Z"/></svg>