<?xml version="1.0" encoding="UTF-8"?><svg id="Layer_1" xmlns="http://www.w3.org/2000/svg" viewBox="0 0 512 512"><defs><style>.cls-1{opacity:.7;}.cls-2{fill:#000072;}.cls-2,.cls-3,.cls-4,.cls-5,.cls-6,.cls-7{stroke-width:0px;}.cls-3{fill:#fef268;}.cls-8{opacity:.2;}.cls-4{fill:#2fdd54;}.cls-9{opacity:.15;}.cls-10{opacity:.45;}.cls-5{fill:#ffdb43;}.cls-6{fill:#ffb339;}.cls-7{fill:#fff;}</style></defs><circle class="cls-3" cx="249.65" cy="261.5" r="186.99"/><path class="cls-5" d="M372.79,298.29c-31.94,119.22-138.31,107.17-138.31,107.17,0,0-6.84,18.56-27.19,13.11-20.34-5.45-16.99-24.95-16.99-24.95,0,0-60.79-26.47-71.08-95.85-1.35-9.19-1.85-19.14-1.21-29.86,0,0,0-.02.02-.07.67-11.2,2.61-23.24,6.08-36.19,31.95-119.24,137.79-119.03,137.79-119.03.79-1.39,1.61-2.66,2.47-3.79,11.12-14.64,28.21-8.58,28.21-8.58,0,0,3.63.68,7.85,3.1,5.82,3.33,12.72,10.04,12.54,22.95,0,0,1.56.9,4.19,2.7,1.51,1.06,3.39,2.41,5.54,4.09,22.73,17.66,75.49,70.42,50.09,165.19Z"/><g class="cls-1"><path class="cls-7" d="M261.19,142.33c-47.46-7.38-85.34,35.23-95.55,63.12-5.47,12.99,3.41,23.61,13.56,19.41,32.84-13.47,60.91-40.33,83.28-57.58,9.87-7.92,10.2-23.01-1.28-24.95Z"/></g><path class="cls-6" d="M356.16,291.39c-31.94,119.22-138.31,107.17-138.31,107.17,0,0-5.57,15.06-21.56,14.06-7.93-7.79-6-18.99-6-18.99,0,0-60.79-26.47-71.08-95.85,24.99,47.99,121.03,78.25,174.14,8.67,44.61-58.44,43.51-126.28,34.64-159.23,22.95,26.93,46.95,74.05,28.16,144.17Z"/><g class="cls-9"><path class="cls-2" d="M317.15,129.02c-15.64,11.92-31.39-2.04-31.39-2.04,23.5,3.55,14.66-23.61,14.66-23.61,5.82,3.33,12.72,10.04,12.54,22.95,0,0,1.56.9,4.19,2.7Z"/></g><g class="cls-10"><path class="cls-7" d="M118.02,267.85c.67-11.2,2.61-23.24,6.08-36.19,31.95-119.24,137.79-119.03,137.79-119.03.79-1.39,1.61-2.66,2.47-3.79.2.95.63,2.06,1.21,3.25,2.81,5.8-.86,12.52-7.25,13.37-114.18,15.2-139.64,139.15-140.3,142.38Z"/></g><path class="cls-2" d="M214.48,424.86c-2.64,0-5.49-.36-8.56-1.19h0c-16.98-4.55-21.22-17.91-21.17-26.91-17.54-9.29-95.01-57.27-65.75-166.48,29.54-110.23,121.86-121.63,139.86-122.8,10.33-15.52,27.02-15.01,35.09-12.32,8.34,1.7,23.04,9.6,24.23,28.21,15.01,10.02,89.26,66.05,59.72,176.28-29.26,109.21-120.34,112.04-140.18,111.3-3.65,6.4-11.26,13.9-23.23,13.9ZM208.65,413.47c15.52,4.16,20.66-9.25,20.87-9.83.84-2.28,3.14-3.7,5.55-3.42,4.16.45,102.27,9.95,132.62-103.31,30.47-113.72-53.77-163.95-57.37-166.03-1.66-.96-2.67-2.74-2.64-4.65.25-17.06-14.42-20.44-16.09-20.77-.25-.05-.54-.12-.78-.21-1.59-.55-15.98-4.95-24.29,9.95-.93,1.67-2.7,2.71-4.62,2.71-4.16,0-102.23,1.38-132.7,115.11-30.42,113.52,62.26,155.36,63.2,155.77,2.23.97,3.51,3.34,3.1,5.74-.23,1.48-1.89,14.91,13.16,18.94h0Z"/><path class="cls-2" d="M285.52,110.65c4.66-21.24,7.6-45.06,3.95-66.25-1.02-5.61,2.7-10.98,8.31-12,6.26-1.2,12.24,3.82,12.16,10.18-.1,19.26-4.42,36.41-10.23,54.01-1.93,5.67-3.97,11.16-6.36,16.75-.9,2.11-3.34,3.08-5.44,2.18-1.92-.82-2.9-2.92-2.38-4.88h0Z"/><path class="cls-4" d="M446.03,195.2s-115.56,22.24-147.71-101.87c-.35-1.33-.7-2.67-1.01-4.04-.05-.18-.1-.37-.14-.55-.01-.05-.02-.1-.03-.15,0,0,.03-.02.09-.05.29-.17,1.21-.7,2.75-1.45l.06-.03c10.99-5.44,51.78-22.07,96.74,4.26,16.45,9.63,27.42,23.39,34.73,37.74,0,0,0,.02.02.03,1.16,2.28,2.21,4.55,3.2,6.84,12.69,29.55,11.32,59.28,11.32,59.28Z"/><g class="cls-8"><path class="cls-2" d="M446.03,195.2s-118.04,22.72-148.71-105.91l2.66-2.2.06-.03c.88,1.89,34.06,75.46,131.46,93.19,0,0,8.57-19.72.02-51.15,16.13,31.62,14.51,66.11,14.51,66.11Z"/></g><g class="cls-10"><path class="cls-7" d="M434.72,135.92c-.72-.92-1.47-1.88-2.2-2.85-49.82-65.34-120.55-44.55-134.19-39.75-1.5.52-2.32.86-2.32.86,0,0,.44-2.09,1.17-5.45l.05-.2c.29-.17,1.21-.7,2.75-1.45l.06-.03c10.99-5.44,51.78-22.07,96.74,4.26,16.45,9.63,27.42,23.39,34.73,37.74,0,0,0,.02.02.03,1.16,2.28,2.21,4.55,3.2,6.84Z"/></g><path class="cls-2" d="M297.82,83.34c48.29,9.05,93.89,36.07,121.52,76.97.86,1.22-.97,2.69-1.95,1.5-23.96-26.35-53.56-47.27-87.24-59.07-11.11-3.93-22.79-7.29-34.03-8.98-6.87-1.16-5.27-11.5,1.7-10.43h0Z"/><g class="cls-1"><path class="cls-7" d="M403,116.13c-14.29-21-34.24-25.13-47.48-25.21-2.48-.01-3.65,4.44-1.38,5.22,20.24,6.98,36.21,17.23,45.76,24.33,1.92,1.43,4.53-2.24,3.09-4.35Z"/></g><path class="cls-2" d="M426.44,201.89c-36.54,0-111.08-12.7-134.45-112.1-.53-2.24.46-4.56,2.43-5.74,2.03-1.21,50.28-29.35,105.01,2.72,54.79,32.11,52.02,105.57,51.88,108.68-.11,2.44-1.88,4.48-4.28,4.94-.31.06-8.31,1.5-20.59,1.5ZM303.26,91.35c27.29,106.77,116.56,101.99,137.51,99.32-.32-15.67-4.56-70.12-46.67-94.79-41.51-24.32-79.51-9.91-90.84-4.53Z"/></svg>