<?xml version="1.0" encoding="UTF-8"?><svg id="Layer_1" xmlns="http://www.w3.org/2000/svg" viewBox="0 0 512 512"><defs><style>.cls-1{opacity:.6;}.cls-2{fill:#000072;}.cls-2,.cls-3,.cls-4,.cls-5,.cls-6{stroke-width:0px;}.cls-3{fill:#ff7dc7;}.cls-7{opacity:.35;}.cls-4{fill:#2fdd54;}.cls-8{opacity:.15;}.cls-5{fill:#fff;}.cls-6{fill:#ff456d;}</style></defs><circle class="cls-3" cx="249.73" cy="257.35" r="198.72"/><path class="cls-4" d="M257.12,182.61s7.79-68.74-2.41-116.86c-1.43-6.74,3.25-13.33,10.11-13.93,3.61-.31,7.63-.19,11.6.88,4.92,1.32,8.36,5.74,8.49,10.83.49,18.96.08,73.15-17.91,117.29l-9.88,1.78Z"/><g class="cls-1"><path class="cls-5" d="M259.1,99.57c2.76,41.23-1.98,83.05-1.98,83.05l3.61-.65c1.31-20.52,2.33-53.38-1.63-82.4Z"/></g><g class="cls-1"><path class="cls-5" d="M266.75,71.3c3.61-.31,7.63-.19,11.6.88,2.82.76,5.12,2.56,6.63,4.89.07-5.48.01-10.09-.08-13.53-.13-5.09-3.57-9.51-8.49-10.83-3.97-1.07-7.99-1.19-11.6-.88-6.86.6-11.54,7.19-10.11,13.93.92,4.32,1.68,8.8,2.33,13.39,1.38-4.17,5.01-7.43,9.72-7.84Z"/></g><path class="cls-2" d="M257.12,188.72c-1.54,0-3.03-.58-4.17-1.65-1.41-1.32-2.11-3.23-1.89-5.14.08-.68,7.56-68.34-2.32-114.9-1.06-4.99.07-10.2,3.1-14.29,2.97-4.01,7.51-6.55,12.45-6.98,4.9-.43,9.51-.07,13.71,1.06,7.46,2.01,12.8,8.82,13,16.57.55,21.12-.15,75.06-18.35,119.76-.79,1.94-2.51,3.33-4.57,3.7l-9.88,1.78c-.36.06-.72.1-1.08.1ZM268.23,57.79c-.94,0-1.9.04-2.89.13-2,.17-3.17,1.38-3.7,2.09-.95,1.28-1.3,2.92-.97,4.49,7.74,36.5,5.44,83.71,3.68,106.07,14.39-40.88,14.93-87.77,14.44-106.86-.06-2.39-1.7-4.48-3.97-5.09-2.02-.54-4.23-.82-6.6-.82Z"/><path class="cls-4" d="M318.66,201.77s-16.46-3.04-30.21-11.4c-7.09-4.3-13.45-10.03-16.46-17.5,0,0,40.64-13.93,63.01-49.5,0,0,9.29,35.87-16.34,78.4Z"/><g class="cls-8"><path class="cls-2" d="M318.66,201.77s-16.46-3.04-30.21-11.4c40.17-20.25,46.55-67,46.55-67,0,0,9.29,35.87-16.34,78.4Z"/></g><path class="cls-2" d="M318.67,207.88c-.37,0-.74-.03-1.11-.1-1.68-.31-41.3-7.87-51.23-32.62-.62-1.55-.58-3.29.12-4.81.69-1.52,1.98-2.69,3.56-3.24.39-.13,38.93-13.76,59.84-46.99,1.3-2.07,3.7-3.16,6.11-2.78,2.41.37,4.36,2.14,4.97,4.5.4,1.57,9.61,38.85-17.02,83.08-1.12,1.85-3.12,2.96-5.23,2.96ZM280.76,175.93c7.99,10.31,24.93,16.44,34.86,18.93,12.37-22.2,14.91-42.24,14.87-55.14-17.27,20.12-38.9,31.43-49.73,36.21Z"/><path class="cls-4" d="M351.3,231.28s-17.18-8.45-28.21-21.66c-4.62-5.53-8.13-11.88-8.89-18.79,0,0,42.9-2.4,74.08-30.57,0,0-.8,37.03-36.98,71.03Z"/><g class="cls-8"><path class="cls-2" d="M351.3,231.28s-17.18-8.45-28.21-21.66c49.91-9.67,65.19-49.37,65.19-49.37,0,0-.8,37.03-36.98,71.03Z"/></g><path class="cls-2" d="M351.29,237.38c-.92,0-1.84-.21-2.69-.63-1.53-.75-37.61-18.78-40.46-45.29-.18-1.66.34-3.32,1.42-4.6s2.64-2.05,4.31-2.15c.41-.02,41.2-2.69,70.34-29,1.81-1.63,4.41-2.03,6.63-1.02,2.22,1.01,3.62,3.25,3.57,5.68-.04,1.62-1.29,40-38.92,75.35-1.16,1.09-2.66,1.65-4.18,1.65ZM321.83,196.12c4.9,12.05,19.54,22.56,28.42,27.67,18.05-18.11,25.91-36.69,29.33-49.07-22.09,14.71-46.01,19.74-57.74,21.4Z"/><path class="cls-4" d="M202.99,181.37s16.51,2.77,32.29-.38c8.14-1.62,16.07-4.82,21.45-10.82,0,0-33.42-26.99-42.28-68.06,0,0-21,30.53-11.46,79.26Z"/><g class="cls-8"><path class="cls-2" d="M202.99,181.37s16.51,2.77,32.29-.38c-30.82-32.77-20.83-78.88-20.83-78.88,0,0-21,30.53-11.46,79.26Z"/></g><path class="cls-2" d="M218.52,188.61c-9.07,0-15.88-1.11-16.56-1.22-2.51-.42-4.49-2.35-4.98-4.85-9.9-50.67,11.51-82.56,12.42-83.9,1.38-2.01,3.81-3.01,6.21-2.53,2.39.47,4.27,2.32,4.79,4.7,8.31,38.52,39.83,64.36,40.15,64.62,1.3,1.05,2.11,2.59,2.25,4.26.13,1.67-.42,3.32-1.54,4.56-10.66,11.89-29.21,14.35-42.74,14.35ZM208.2,175.9c10.19,1.04,28.21,1.06,39.23-5.86-8.54-8.2-25-26.22-34.34-51.03-4.45,12.09-8.92,31.8-4.89,56.89Z"/><path class="cls-4" d="M162.22,197.94s19.03-2.07,33.92-10.71c6.23-3.62,11.7-8.39,14.78-14.62,0,0-39.49-16.93-59.15-54.06,0,0-11.92,35.07,10.46,79.4Z"/><g class="cls-8"><path class="cls-2" d="M162.22,197.94s19.03-2.07,33.92-10.71c-43.6-26.16-44.37-68.69-44.37-68.69,0,0-11.92,35.07,10.46,79.4Z"/></g><path class="cls-2" d="M162.22,204.05c-2.28,0-4.4-1.28-5.45-3.35-23.28-46.09-11.32-82.59-10.8-84.12.78-2.31,2.86-3.93,5.29-4.12,2.42-.18,4.74,1.07,5.88,3.23,18.38,34.69,55.8,51.15,56.18,51.31,1.53.66,2.73,1.92,3.31,3.49.58,1.57.49,3.3-.24,4.81-11.75,23.94-51.81,28.54-53.51,28.73-.22.02-.44.04-.66.04ZM155.04,135.17c-1,12.85.04,33.03,10.73,56.08,10.09-1.76,27.44-6.63,36.17-16.28-10.45-5.57-31.17-18.46-46.9-39.8Z"/><path class="cls-6" d="M211.08,473.64c34.68,23.56,51.61-8.68,51.61-8.68,46.83,17.99,51.59-26.14,51.59-26.14,42.96,1.87,39.79-42.98,39.79-42.98,43.78-10.4,26.62-57.72,26.62-57.72,30.11-35.63-3.7-57.03-3.7-57.03,14.92-44.68-20.68-48.78-20.68-48.78-2.12-43.66-39.36-35.13-39.36-35.13-15.35-48.51-53.73-19.29-53.73-19.29,0,0-26.06-40.58-57.08-.25,0,0-32.08-20.76-49,19.55,0,0-34.85-8.33-36.11,38.76,0,0-39.09,8.54-22.98,52.32,0,0-32.31,38.6,5.27,63.34,0,0-18.31,41.06,22.69,54,0,0-10.62,43.09,39.54,42.2,0,0,4.88,36.09,45.53,25.81Z"/><g class="cls-8"><path class="cls-2" d="M378.23,277.09c8.99-31.9-9.36-41.27-17.88-43.85-2.38-.72-4.1-2.77-4.37-5.24-2.24-20.21-12.76-27.72-22.31-30.28-5.12-1.37-9.64,3.96-7.15,8.64,1.87,3.52,3.27,7.95,3.94,13.5.29,2.38,1.88,4.42,4.17,5.14,7.46,2.36,22.66,10.55,15.26,37.43-.63,2.27.11,4.7,1.88,6.25,6.54,5.72,19.85,21.53,2.01,44.65-1.15,1.49-1.47,3.44-.98,5.26,2.43,9.09,7.3,36.67-19.66,45.78-2.42.82-4.15,2.95-4.29,5.5-.52,9.48-4.44,31.49-29.62,32.88-2.7.15-5.01,1.96-5.72,4.57-2.5,9.17-11.2,28.29-39.35,19.57-2.47-.76-5.15.02-6.73,2.06-5.09,6.58-18.35,18.77-40.08,5.36-1.41-.87-3.09-1.17-4.72-.83-25.01,5.17-33.3-10.82-35.83-18.74-.79-2.46-3.04-4.11-5.62-4.24-29.44-1.44-31.07-22.38-30.28-31.85.22-2.7-1.32-5.18-3.81-6.25-23.18-9.92-19.34-31.95-16.58-41.03.74-2.45-.15-5.04-2.15-6.64-22.21-17.77-8.2-42.02-2.81-49.74,1.08-1.54,1.45-3.48.88-5.27-.04-.13-.08-.26-.12-.38-2.15-6.91-12.46-5.26-12.03,1.97.25,4.17,1.12,8.82,2.78,13.98.59,1.84.32,3.85-.8,5.43-6.03,8.48-23.36,37.41,3.49,58.32,2.04,1.59,2.89,4.27,2.12,6.74-3.21,10.23-8.3,36.65,19.6,48.18,2.53,1.05,4.15,3.55,3.88,6.28-1.05,10.65.19,36.16,35.66,37.55,2.61.1,4.85,1.86,5.62,4.36,2.75,9,12.21,28.43,41.96,22.09,1.63-.35,3.32-.05,4.73.83,25.79,16.14,41.33,1.12,46.99-6.4,1.57-2.09,4.28-2.98,6.77-2.18,33.81,10.83,43.69-12.72,46.35-23.09.68-2.65,3.06-4.45,5.8-4.57,30.16-1.29,34.41-27.87,34.89-38.57.12-2.59,1.83-4.81,4.29-5.61,32.38-10.47,25.99-43.58,23.22-53.61-.5-1.82-.13-3.8,1.04-5.29,21.37-27.4,4.88-45.97-2.52-52.27-1.83-1.56-2.53-4.07-1.88-6.38Z"/></g><g class="cls-7"><path class="cls-5" d="M170.45,336.82c-2.53.91-4.46-1.65-3.79-5.07.66-3.38,1.95-7.36,4.46-9.64,4.95-4.5,8.57,1.26,6.16,8.29-1.25,3.64-4.23,5.49-6.83,6.42Z"/></g><g class="cls-7"><path class="cls-5" d="M204.74,246.41c-2.66.36-4.02-2.54-2.66-5.75,1.35-3.17,3.44-6.79,6.36-8.5,5.78-3.38,8.12,3.01,4.31,9.39-1.97,3.3-5.28,4.49-8.01,4.86Z"/></g><g class="cls-7"><path class="cls-5" d="M170.45,287.38c-3.26.62-5.13-2.89-3.65-6.93,1.47-4,3.81-8.61,7.32-10.91,6.92-4.54,10.22,3.2,5.92,11.32-2.23,4.21-6.24,5.88-9.58,6.51Z"/></g><g class="cls-7"><path class="cls-5" d="M109.23,271.18c-1.48-9.52,4.53-20.6,14.47-22.36,3.58-.72,5.69,4.13,2.79,6.27-6.19,3.83-9.96,10.16-13.26,16.53-.74,1.92-3.73,1.6-4.01-.43h0Z"/></g><g class="cls-7"><path class="cls-5" d="M136.7,226.75c.09-9.06,7.35-18.41,16.85-18.53,3.43-.12,4.64,4.7,1.63,6.24-6.32,2.6-10.79,7.91-14.82,13.3-.99,1.67-3.7.91-3.65-1.02h0Z"/></g><g class="cls-7"><path class="cls-5" d="M173.08,197.86c1.91-7.86,10.13-14.53,18.41-12.7,3.01.59,3.09,5.03.15,5.76-6.03.98-10.99,4.69-15.59,8.56-1.2,1.25-3.41.04-2.97-1.62h0Z"/></g><g class="cls-7"><path class="cls-5" d="M220.2,182.4c2.8-8.35,12.32-14.84,21.12-12.11,3.21.91,2.88,5.74-.37,6.26-6.62.52-12.34,4.09-17.69,7.88-1.41,1.25-3.7-.26-3.07-2.03h0Z"/></g><path class="cls-2" d="M218.12,223.73c-20.91,3.92-28.89,15.12-24.68,35.93.36,2.91-2.72,5.25-5.42,4.18-5.12-1.43-11.65-1.41-16.66.67-5.19,2.08-9.08,6.68-11.15,11.79-5.38,10.84-.59,23.5,8.53,30.43,1.83,1.45,2.13,4.12.68,5.95-15.09,17.78-15.85,34.01,6.32,45.93,1.02.59,1.37,1.9.78,2.92-.5.86-1.52,1.24-2.44.99-5.25-1.5-10.46-3.9-14.92-7.77-15.56-12.64-8.22-35.36,4.03-47.59,0,0,.58,6.27.58,6.27-12.32-9.16-18.08-26.34-11.21-40.45,4.15-10.87,15.14-18.53,26.78-18.45,3.82-.06,7.3.26,11.24,1.38l-5.34,4.92c-7.02-23.6,7.92-43.76,32.94-40.79,2.14.31,2.1,3.47-.06,3.7h0Z"/><path class="cls-2" d="M307.95,237.65c14.42.64,23.68,15.42,17.9,28.67-1.56,3.83-3.91,7.2-6.78,10.1-.55.56-1.46.56-2.02,0-.35-.35-.48-.83-.4-1.28.38-1.97.94-3.8,1.49-5.59,1.14-4.45,2.16-10.3,1.13-14.53-1.41-6.38-6.69-10.84-12.07-14.71-1.31-.68-.72-2.79.75-2.68h0Z"/><path class="cls-2" d="M230.94,421.57c-12.67,12.55-31.66,5.33-35.54-11.39-.37-2-.74-3.98-.87-5.98-.05-.79.54-1.46,1.33-1.52.49-.03.94.19,1.22.55,1.22,1.59,2.22,3.23,3.19,4.82,2.58,3.8,6.28,8.44,10.13,10.47,5.72,3.17,12.55,2.17,19.01.71,1.38-.52,2.57,1.31,1.51,2.34h0Z"/><path class="cls-2" d="M304.28,312.43c14,10.15,11.54,34.53-4.48,41.28-5.17,2.26-10.27,2.96-15.86,2.45l4.49-5.15c3.4,10.35-.52,24.41-11.87,27.68-2.96,1.01-13.07,2.55-12.63-2.35.12-1.02.79-1.83,1.68-2.19,2.62-1.06,5.48-1.67,7.77-3.11,4.29-2.27,6.11-5.88,6.85-10.6.38-2.87.27-6.03,0-8.82-.26-2.48,2.25-4.51,4.61-3.77,18.7,1.16,27.11-17.57,15.82-31.68-1.96-2.35,1.25-5.63,3.64-3.75h0Z"/><path class="cls-2" d="M235.09,488.37c-8.05,0-16.48-2.74-25.15-8.19-13.58,2.92-25,1.32-34-4.76-9.25-6.25-13.41-15.69-15.2-21.54-15.34-.6-26.72-5.43-33.87-14.39-8.08-10.13-8.33-22.74-7.64-29.83-10.84-4.44-18.42-11.34-22.58-20.57-6.01-13.37-2.94-27.88-.64-35.19-9.46-7.34-15.03-16.32-16.56-26.73-2.56-17.45,7.24-33.6,11.77-39.96-4.67-14.45-4.19-26.95,1.43-37.21,6.05-11.04,16.49-16.33,22.5-18.57,1.16-15.79,6.28-27.27,15.25-34.15,8.18-6.28,17.45-6.99,23.05-6.67,5.98-12.12,14.08-19.82,24.12-22.92,10.89-3.36,21.16-.27,26.98,2.29,9.81-11.26,20.3-16.68,31.35-16.26,13.45.57,23.63,10.04,28.77,16.04,6.88-3.88,19.69-9.3,32.52-5.23,10.51,3.33,18.54,12.06,23.9,26,6.33-.42,17.05.19,26.14,7.08,8.37,6.35,13.35,16.35,14.82,29.78,5.37,1.62,13.84,5.44,19.38,14.15,6.07,9.54,6.96,22.07,2.65,37.31,4.87,4.16,12.88,12.7,14.79,25.14,1.78,11.56-2.05,23.48-11.38,35.46,2.08,7.53,5.76,26.06-2.61,41.58-5,9.26-13.29,15.79-24.7,19.46-.34,7.66-2.42,22.35-12.64,32.85-7.06,7.25-16.55,11.14-28.25,11.61-1.78,6.9-6.32,18.67-17.38,25.43-9.78,5.97-22.12,6.62-36.75,1.94-3.68,4.88-10.82,12.33-21.64,15.04-2.76.69-5.57,1.04-8.43,1.04ZM211.08,467.53c1.21,0,2.41.36,3.43,1.06,9.53,6.47,18.25,8.81,25.93,6.93,10.98-2.69,16.8-13.31,16.86-13.42,1.46-2.71,4.71-3.94,7.58-2.84,12.91,4.96,23.2,5.2,30.59.72,10.86-6.58,12.72-21.68,12.74-21.84.37-3.18,3.15-5.63,6.33-5.42,10.52.46,18.64-2.19,24.19-7.86,10.3-10.52,9.26-28.43,9.24-28.6-.19-2.97,1.78-5.67,4.68-6.35,10.28-2.44,17.5-7.37,21.44-14.64,7.98-14.71.92-34.87.85-35.07-.73-2.05-.33-4.35,1.08-6.01,8.46-10.01,12.08-19.51,10.78-28.24-1.83-12.29-13-19.63-13.11-19.7-2.34-1.51-3.39-4.44-2.5-7.08,4.5-13.48,4.48-23.93-.07-31.07-5.29-8.31-15.41-9.69-15.51-9.7-2.97-.34-5.26-2.78-5.4-5.77-.58-12-4.07-20.51-10.36-25.28-8.99-6.82-21.41-4.22-21.53-4.19-3.11.71-6.23-1.08-7.18-4.11-4.03-12.72-9.95-20.41-17.59-22.86-12.41-3.98-26.49,6.49-26.63,6.59-1.36,1.02-3.09,1.44-4.75,1.14-1.67-.3-3.15-1.28-4.07-2.7-.09-.13-9.75-14.78-22.76-15.29-8.04-.32-16.21,4.88-24.35,15.46-1.94,2.52-5.49,3.13-8.16,1.4-.08-.05-10.91-6.79-21.75-3.4-7.51,2.36-13.67,9.15-18.3,20.19-1.16,2.76-4.14,4.27-7.05,3.57-.07-.01-10.17-2.2-17.99,3.89-6.66,5.18-10.22,14.97-10.6,29.1-.07,2.81-2.05,5.2-4.8,5.8-.11.02-13.11,3.1-19.03,14.02-4.21,7.76-4.05,17.93.47,30.22.76,2.05.36,4.35-1.05,6.03-.13.16-13.66,16.68-11.19,33.24,1.22,8.18,6.31,15.27,15.14,21.08,2.5,1.64,3.44,4.86,2.22,7.59-.07.15-7.17,16.62-1.09,30.03,3.28,7.23,10.02,12.5,20.04,15.66,3.07.97,4.86,4.16,4.09,7.28-.03.13-3.45,14.95,4.51,24.85,5.42,6.74,15.22,10.07,28.99,9.79,3.1.1,5.74,2.22,6.16,5.29.01.09,1.85,12.06,11.25,18.35,6.57,4.39,15.57,5.19,26.73,2.36.49-.13,1-.19,1.5-.19Z"/></svg>