<?xml version="1.0" encoding="UTF-8"?><svg id="Layer_1" xmlns="http://www.w3.org/2000/svg" viewBox="0 0 512 512"><defs><style>.cls-1{opacity:.6;}.cls-2{fill:#000072;}.cls-2,.cls-3,.cls-4,.cls-5,.cls-6,.cls-7,.cls-8{stroke-width:0px;}.cls-3{fill:#79e8b3;}.cls-4{fill:#2fdd54;}.cls-9{opacity:.15;}.cls-10{opacity:.45;}.cls-5{fill:#168247;}.cls-6{fill:#b76e51;}.cls-7{fill:#13a031;}.cls-8{fill:#fff;}</style></defs><circle class="cls-3" cx="259.03" cy="254.13" r="195.9"/><path class="cls-7" d="M396.13,314.84c-25.3,135.32-146.49,140.75-146.49,140.75,0,0-6.49,22.41-30.02,18.26-23.53-4.15-21.97-27.42-21.97-27.42,0,0-79.42-33-91.07-124.5-2.19-17.17-2.01-36.4,1.55-57.86,22.5-135.81,144.32-139.69,144.32-139.69,10.19-19.74,31.24-13.86,31.24-13.86,0,0,21.79,1.67,24.61,23.7,0,0,6.07,2.43,15.07,7.86h.02c29.91,17.98,92.19,68.81,72.74,172.77Z"/><path class="cls-5" d="M380.02,315.61c-20.96,112.05-108.01,123.8-131.37,124.93-3.42.17-6.42,2.2-7.81,5.33-1.33,3.04-3.35,7-6.12,10.75-6.12,8.29-18.94,7.16-23.13-2.25-2.97-6.68-2.54-13.07-2.54-13.07,0,0-67.02-27.85-86.94-103.31,36.26,31.27,100.91,52.74,164.73,11.19,71.07-46.27,55.3-141.57,43.57-184.85,29.35,24.5,64.51,71.62,49.6,151.29Z"/><g class="cls-1"><path class="cls-8" d="M114.25,332.68c-2.19-17.17-2.01-36.4,1.55-57.86,22.5-135.81,144.32-139.69,144.32-139.69,10.19-19.74,31.24-13.86,31.24-13.86,0,0,8.32.64,15.35,6.33-5.81-15.77-23.02-17.1-23.02-17.1,0,0-21.05-5.89-31.24,13.86,0,0-121.81,3.88-144.32,139.69-3.56,21.46-3.74,40.69-1.55,57.86,4.15,32.59,16.9,57.76,31.59,76.66-11.32-17.39-20.52-39.14-23.92-65.89Z"/></g><g class="cls-10"><path class="cls-8" d="M254.33,157.92c-55.96-.07-91.51,43.33-101.02,72-2.76,7.51,6.8,12.35,11.57,6.46,28.21-34.81,66.54-56.25,91.63-65.42,6.96-2.6,5.64-12.93-2.18-13.04Z"/></g><path class="cls-2" d="M225.23,479.35c-2.05,0-4.2-.19-6.48-.59-19.66-3.47-25.49-19.01-26.09-29.16-18.21-9-110.21-61.12-89.46-186.36,20.95-126.48,127.27-141.92,146.22-143.66,9.69-15.72,26.73-16.18,35.14-14.02,8.64.85,24.49,7.11,28.23,25.2,17.2,8.12,111.83,58.99,88.26,185.01-23.34,124.79-127.61,142.3-147.81,144.53-3.57,8.25-12.42,19.06-28.01,19.06ZM276.57,114.66c-5.76,0-14.46,1.88-19.67,12-.83,1.61-2.47,2.65-4.28,2.71-4.81.16-118.01,5.49-139.55,135.5-21.6,130.4,85.42,176.48,86.51,176.93,1.98.82,3.22,2.82,3.07,4.96-.11,1.9-.55,18.91,17.84,22.15h0c18.38,3.24,23.79-12.88,24.35-14.73.61-2.03,2.45-3.48,4.57-3.58,4.79-.22,117.55-7,141.81-136.67,24.23-129.54-80.32-173.26-84.79-175.06-1.68-.68-2.87-2.21-3.1-4.01-2.27-17.8-19.3-19.3-20.03-19.36-.33-.02-.65-.08-.96-.17-.25-.06-2.55-.66-5.77-.66Z"/><path class="cls-4" d="M176.36,53.16s.06.19.16.54c1.81,5.82,20.03,56.53,102.03,30.16,0,0-2.92-10.08-12.75-20.78h-.02c-6.76-7.4-16.83-15.09-31.49-19.94-35.88-11.95-57.92,10.03-57.92,10.03Z"/><g class="cls-9"><path class="cls-2" d="M176.51,53.69c1.81,5.82,20.03,56.53,102.03,30.16,0,0-2.92-10.08-12.75-20.78h-.02s-28.55,32.6-89.25-9.37Z"/></g><g class="cls-1"><path class="cls-8" d="M236.15,54.78s-13.08-4.09-26.17-3.3c-.87.05-1.2-1.11-.43-1.5,5.07-2.54,15.8-5.72,26.6,4.79Z"/></g><path class="cls-2" d="M274.88,87.26c-13.02-13.2-30.57-21.99-48.5-26.65-5.4-1.55-13.33-2.92-18.93-3.96-.44-.05-.45-.76.02-.79,19.91-1.69,40.21,3.08,57.79,12.58,6.03,3.29,11.48,6.91,16.93,12,2.02,1.89,2.14,5.06.25,7.08-2.05,2.23-5.67,2.08-7.57-.25h0Z"/><path class="cls-2" d="M235.84,96.43c-13.9,0-26.11-2.87-36.55-8.61-22.02-12.1-27.55-32.54-27.78-33.4-.45-1.72.05-3.54,1.31-4.8.99-.99,24.66-24.02,63.05-11.25,37.95,12.63,47.1,42.8,47.47,44.08.75,2.6-.7,5.33-3.27,6.16-16.21,5.21-30.98,7.82-44.23,7.82ZM182.22,54.75c2.19,5.32,8.31,16.91,22.07,24.41,16.84,9.17,39.56,9.67,67.58,1.5-3.84-8.05-14.42-24.55-39.17-32.79-26.23-8.73-44.31,2.18-50.49,6.88Z"/><path class="cls-6" d="M280.91,126.25l-4.92-.87s6.6-45.67-1.69-73.93c0,0,8.31-3.06,17.54,1.53,5.37,2.67,8.58,8.36,8.11,14.34-1.12,14.29-5.12,44.86-19.04,58.93Z"/><g class="cls-1"><path class="cls-8" d="M287.82,64.81c5.37,2.67,8.58,8.36,8.11,14.34-.59,7.54-2,19.61-5.23,31.4,6.19-14.81,8.45-33.11,9.25-43.24.47-5.98-2.74-11.67-8.11-14.34-9.22-4.58-17.54-1.53-17.54-1.53,1,3.4,1.77,7.05,2.38,10.84,3.1-.05,7.02.47,11.14,2.52Z"/></g><path class="cls-2" d="M280.9,131.25c-.29,0-.58-.02-.87-.08l-4.92-.87c-2.66-.47-4.47-2.97-4.08-5.64.06-.45,6.35-44.94-1.54-71.81-.74-2.53.6-5.2,3.07-6.1.42-.16,10.43-3.73,21.43,1.71,7.28,3.6,11.56,11.17,10.92,19.3-1.32,16.77-5.74,47.12-20.46,62-.95.96-2.23,1.48-3.56,1.48ZM280.48,55.46c4.58,20.77,2.94,47.29,1.57,61.21,9.18-14.77,12.05-38.94,12.9-49.69.31-3.96-1.85-7.8-5.38-9.54-3.39-1.68-6.63-2.05-9.09-1.98Z"/></svg>