<?xml version="1.0" encoding="UTF-8"?><svg id="Layer_1" xmlns="http://www.w3.org/2000/svg" viewBox="0 0 512 512"><defs><style>.cls-1{opacity:.6;}.cls-2{fill:#000072;}.cls-2,.cls-3,.cls-4,.cls-5,.cls-6,.cls-7{stroke-width:0px;}.cls-3{fill:#36bf40;}.cls-8{opacity:.45;}.cls-4{fill:#ffa227;}.cls-5{fill:#ffe809;}.cls-6{fill:#f97e3a;}.cls-7{fill:#fff;}</style></defs><circle class="cls-5" cx="248.9" cy="261.01" r="200.94"/><path class="cls-3" d="M279.79,70.16s-5.08-22.62-1.16-51.57c.55-4.04,4.19-6.95,8.25-6.59,4.56.4,10.74,2.1,17,7.35,2.48,2.08,3.33,5.53,2.18,8.55-3.66,9.69-11.74,32.03-13.39,44.53l-12.88-2.27Z"/><g class="cls-1"><path class="cls-7" d="M278.76,34.18c.55-4.04,4.19-6.95,8.25-6.59,4.46.39,10.46,2.05,16.57,7.02.94-2.59,1.79-4.88,2.48-6.71,1.14-3.02.29-6.48-2.18-8.55-6.26-5.25-12.44-6.95-17-7.35-4.06-.36-7.7,2.56-8.25,6.59-1.62,11.99-1.7,22.89-1.24,31.56.19-5.01.61-10.36,1.36-15.96Z"/></g><path class="cls-2" d="M292.67,77.43c-.29,0-.58-.02-.87-.08l-12.88-2.27c-1.99-.35-3.57-1.86-4.01-3.83-.22-.96-5.23-23.83-1.24-53.34.91-6.71,6.87-11.51,13.65-10.9,4.91.43,12.33,2.26,19.77,8.5,4.09,3.43,5.55,9.12,3.65,14.15-3.41,9.03-11.52,31.34-13.11,43.42-.18,1.35-.9,2.57-2,3.38-.86.63-1.9.97-2.96.97ZM284.07,65.83l4.53.8c2.64-12.71,8.94-30.34,12.78-40.5.4-1.07.12-2.25-.72-2.95-4.37-3.67-9.16-5.75-14.22-6.2-1.38-.13-2.66.9-2.85,2.28-2.91,21.53-.68,39.5.49,46.58Z"/><path class="cls-4" d="M210.35,488.61c3.63.64,7.47.11,10.71-.73,5.7-1.47,11.75-.67,16.88,2.22h0c5.73,3.23,12.57,3.81,18.78,1.66,158.73-54.82,117.56-223.65,102.71-273.58-15.16-50.96-18.88-70.93-23.04-93.87-4.16-22.95-6.27-43.17-15.2-54.16-5.88-7.24-19.84-6.47-28.67-5.1-5,.77-10.09-.12-14.52-2.56-7.83-4.31-20.68-9.81-28.69-5.01-12.15,7.27-21.04,25.56-32.8,45.7-11.76,20.14-22.09,37.63-53.76,80.33-31.03,41.84-127.46,186.41,2.95,292.21,5.11,4.14,11.73,5.94,18.22,4.86h0c5.81-.96,11.76.35,16.62,3.68,2.75,1.89,6.18,3.7,9.81,4.35Z"/><path class="cls-6" d="M312.57,451.19c-14.64,10.87-32.3,20.25-53.55,27.6-3.76,1.29-7.74,1.58-11.56.91-2.52-.44-4.95-1.3-7.23-2.57-5.14-2.9-11.17-3.7-16.88-2.22-3.24.83-7.07,1.37-10.72.73-3.63-.64-7.04-2.46-9.8-4.35-2.7-1.86-5.75-3.09-8.91-3.64-2.52-.44-5.14-.46-7.71-.04-6.49,1.07-13.12-.73-18.22-4.86-12.09-9.81-22.25-19.96-30.66-30.34,1.54.13,3.11.1,4.67-.09,5.22-.66,10.53.68,14.82,3.79,2.45,1.79,5.52,3.51,8.81,4.2,3.29.68,6.8.28,9.76-.39,5.21-1.19,10.71-.33,15.3,2.43,5.13,3.08,11.34,3.77,17.05,1.97,145.73-45.93,112.47-200.52,100.18-246.31-12.53-46.73-15.41-64.98-18.63-85.97-1.88-12.38-3.17-23.87-5.51-33.3,2.11.27,4.25.24,6.36-.1,2.4-.37,5.18-.69,8.07-.83,7.5-.34,14.2,4.66,16.21,11.9,2.84,10.29,4.58,22.9,7.04,36.46,4.16,22.94,7.89,42.93,23.05,93.88,12,40.36,41.21,158.45-31.94,231.16Z"/><path class="cls-6" d="M250.84,57.04c3.88-.49,8.82-.82,13.49-.29-5.08-1.37-10.22-1.69-14.28.36.26-.02.53-.03.79-.07Z"/><g class="cls-1"><path class="cls-7" d="M172.12,192.68c31.67-42.7,42-60.19,53.76-80.33,11.76-20.14,20.66-38.43,32.8-45.7,8.01-4.79,20.86.71,28.69,5.01,4.43,2.44,9.52,3.33,14.52,2.56,6.51-1.01,15.79-1.68,22.58.92-.98-1.82-2.06-3.5-3.28-5-5.88-7.24-19.84-6.47-28.67-5.1-5,.77-10.09-.12-14.52-2.56-7.83-4.31-20.68-9.81-28.69-5.01-12.15,7.27-21.04,25.56-32.8,45.7-11.76,20.14-22.09,37.63-53.76,80.33-30.13,40.62-121.89,178.09-7.83,282.89-99.42-103.5-12.06-234.27,17.2-273.72Z"/></g><g class="cls-8"><path class="cls-7" d="M249.98,107.93c-13.86,15.47-28.85,39.67-34.7,75.32-.76,4.66,5.35,7.09,7.92,3.12,10.46-16.14,27.2-42.98,40.5-69.19,4.44-8.74-7.18-16.55-13.72-9.25Z"/></g><path class="cls-2" d="M249.16,498.04c-4.75,0-9.47-1.21-13.68-3.57-4.03-2.27-8.71-2.89-13.17-1.74-4.69,1.21-9.01,1.48-12.83.81,0,0,0,0,0,0-3.82-.67-7.79-2.41-11.78-5.15-3.8-2.61-8.41-3.63-12.97-2.87-7.88,1.3-15.95-.86-22.19-5.92-127.15-103.16-45.02-243.52-3.81-299.08,32.03-43.19,42.44-61.01,53.46-79.87,1.87-3.2,3.66-6.35,5.41-9.42,9.56-16.78,17.81-31.27,29.15-38.05,9.78-5.86,23.71-.56,33.67,4.92,3.49,1.91,7.41,2.6,11.34,2,11.23-1.74,26.13-1.96,33.32,6.89,8.33,10.26,11.13,26.7,14.37,45.74.59,3.48,1.2,7.05,1.86,10.69,3.9,21.5,7.59,41.81,22.91,93.34,19.72,66.3,48.88,226.29-105.88,279.73-2.99,1.03-6.1,1.55-9.19,1.55ZM226.76,482.16c4.73,0,9.41,1.22,13.63,3.59,4.46,2.51,9.81,2.98,14.69,1.29,146.58-50.63,118.45-203.88,99.55-267.42-15.48-52.05-19.22-72.62-23.17-94.41-.67-3.68-1.28-7.28-1.88-10.79-3-17.65-5.6-32.89-12.28-41.11-3.18-3.91-12.16-5.15-24.03-3.31-6.05.94-12.33-.17-17.7-3.12-10.52-5.79-19.39-7.7-23.71-5.1-9.08,5.44-16.73,18.87-25.59,34.42-1.77,3.1-3.58,6.28-5.46,9.51-11.16,19.11-21.7,37.16-54.06,80.79-39.49,53.24-118.35,187.64,2.08,285.35,4.01,3.26,9.22,4.65,14.25,3.81,7.13-1.18,14.33.42,20.26,4.49,2.77,1.9,5.48,3.13,7.85,3.54h0c2.37.42,5.34.19,8.59-.64,2.3-.59,4.63-.89,6.95-.89Z"/></svg>