<?xml version="1.0" encoding="UTF-8"?><svg id="Layer_1" xmlns="http://www.w3.org/2000/svg" viewBox="0 0 512 512"><defs><style>.cls-1{fill:#a56149;}.cls-1,.cls-2,.cls-3,.cls-4,.cls-5{stroke-width:0px;}.cls-6{opacity:.6;}.cls-2{fill:#000072;}.cls-7{opacity:.15;}.cls-3{fill:#fff;}.cls-4{fill:#84403a;}.cls-5{fill:#ff8c7c;}</style></defs><circle class="cls-5" cx="255.53" cy="260.26" r="195.9"/><path class="cls-1" d="M147.41,442.77c42.12,29.12,95.25,38.48,144.79,25.53,44.97-11.76,93.05-43.4,91.55-125.14-2.29-125.28-70.11-202.88-94.31-226.64-5.06-4.97-12.66-6.31-19.12-3.37-30.87,14.05-121.14,63.77-166.14,180.71-29.36,76.3,5,122.48,43.23,148.91Z"/><path class="cls-4" d="M111.3,322.85c4.57-6.81,9.22-13.47,15.04-19.71,1.1-1.18,2.94-1.24,4.12-.15,4.26,8.04,6.28,17.22,7.91,26.12.24,1.38-1.86,1.86-2.25.52-1.29-4.01-2.82-7.92-4.6-11.71-1.73-3.71-3.73-7.52-5.88-10.94l4.82.88c-6.24,4.6-12.13,10.34-17.75,16.11-.72.82-2.06-.23-1.43-1.12h0Z"/><path class="cls-4" d="M313.98,345.91c4.57-6.81,9.22-13.47,15.04-19.71,1.1-1.18,2.94-1.24,4.12-.15,4.26,8.04,6.28,17.22,7.91,26.12.24,1.38-1.86,1.86-2.25.52-1.29-4.01-2.82-7.92-4.6-11.71-1.73-3.71-3.73-7.52-5.88-10.94,0,0,4.82.88,4.82.88-6.24,4.6-12.13,10.34-17.75,16.11-.72.82-2.06-.23-1.43-1.12h0Z"/><path class="cls-4" d="M185.32,210.92c6.39-10.46,12.97-20.72,20.68-30.5,1.46-1.96,4.76-1.27,5.33,1.08,3.58,11.51,6.13,23.05,6.97,35.1,0,0-5.33-2.05-5.33-2.05,5.25-5.04,10.28-9.81,16.28-14.1,1.4-.99,3.33-.66,4.32.74,2.95,6.02,4.82,12.28,5.63,18.96,0,0-5.34-1.9-5.34-1.9,3.56-3.41,7.22-6.23,11.57-8.56,1.57-.9,3.67.06,4.02,1.84.91,4.51,1.53,8.88,1.38,13.46-.02.57-.5,1-1.07.98-.45-.02-.82-.33-.94-.73-1.19-3.97-3.15-7.89-5.21-11.43,0,0,4.39,1.63,4.39,1.63-3.46,1.86-6.9,4.54-9.72,7.26-1.78,1.84-5.13.6-5.32-1.92-.61-5.55-2.43-11.29-4.76-16.39l4.6,1.22c-5.32,3.81-10.5,8.67-15.43,13.4-1.25,1.22-3.25,1.18-4.46-.07-.53-.56-.82-1.26-.87-1.97-.76-11.27-3.29-22.73-6.66-33.49,0,0,5.33,1.08,5.33,1.08-8.19,8.65-15.72,18.29-22.92,28-1.03,1.54-3.48-.07-2.47-1.63h0Z"/><path class="cls-4" d="M340.46,428.06c-3.45-11.59-7.22-23.22-11.96-34.15l5.38.81c-6.84,8.97-13.14,18.87-17.71,29.2-.7,1.59-2.55,2.31-4.14,1.61-.71-.31-1.25-.86-1.57-1.51-3.01-6.13-6.22-12.48-9.91-17.87l4.74.43c-3.93,3.99-7.6,8.76-10.08,13.77-1.05,2.33-4.63,2.29-5.65-.02-1.72-3.52-4.03-7.22-6.65-10.15l4.68-.03c-3.15,2.62-6.33,5.63-8.81,8.96-.34.46-.98.55-1.43.22-.36-.27-.5-.73-.37-1.14,1.43-4.35,3.5-8.25,5.9-12.18.94-1.55,3.22-1.73,4.4-.36,3.3,3.68,5.77,7.58,7.95,12.01l-5.66-.04c2.93-5.89,6.78-10.88,11.36-15.54,1.34-1.36,3.66-1.15,4.74.43,4.17,6.09,7.26,12.29,10.47,18.82,0,0-5.71.1-5.71.1,4.91-11.04,11.25-21.01,18.55-30.6,1-1.4,2.98-1.71,4.35-.65,5.12,10.4,7.32,25.79,10.03,37.19.35,1.83-2.37,2.5-2.88.69h0Z"/><path class="cls-4" d="M267.23,163.76c1.54-3.95,13.21-23.08,18.09-17.08,3.71,5.97,6.38,12.19,7.18,19.28,0,0-6.03-1.87-6.03-1.87,3.09-3.46,6.69-6.07,10.86-8.06,1.2-.6,2.64-.19,3.37.9,1.5,2.31,2.41,4.44,3.28,6.93.8,2.34,1.31,4.76,1.53,7.17.05.56-.36,1.06-.92,1.11-.46.04-.87-.22-1.04-.62-1.67-3.95-4.29-7.7-7.52-10.41,0,0,3.81.68,3.8.68-2.94,1.79-5.83,4.18-8.11,6.72-1.24,1.44-3.41,1.61-4.85.37-.68-.59-1.08-1.41-1.18-2.24-.3-2.73-1.08-5.51-2.07-8.26-.94-2.68-2.22-5.54-3.59-7.97l4.6.97c-2.48,1.69-4.93,4.21-7.38,6.63-2.45,2.47-4.97,5.03-7.6,7.47-1.14,1.13-3.1-.3-2.4-1.72h0Z"/><path class="cls-4" d="M305.76,252.76c1.54-3.95,13.21-23.08,18.09-17.08,3.71,5.97,6.38,12.19,7.18,19.28,0,0-6.03-1.87-6.03-1.87,3.09-3.46,6.69-6.07,10.86-8.06,1.2-.6,2.64-.19,3.37.9,1.5,2.31,2.41,4.44,3.28,6.93.8,2.34,1.31,4.76,1.53,7.17.05.56-.36,1.06-.92,1.11-.46.04-.87-.22-1.04-.62-1.67-3.95-4.29-7.7-7.52-10.41,0,0,3.81.68,3.8.68-2.94,1.79-5.83,4.18-8.11,6.72-1.24,1.44-3.41,1.61-4.85.37-.68-.59-1.08-1.41-1.18-2.24-.3-2.73-1.08-5.51-2.07-8.26-.94-2.68-2.22-5.54-3.59-7.97l4.6.97c-2.48,1.69-4.93,4.21-7.38,6.63-2.45,2.47-4.97,5.03-7.6,7.47-1.14,1.13-3.1-.3-2.4-1.72h0Z"/><path class="cls-4" d="M241.47,444.32c-3.16-5.93-5.62-12.96-9.23-18.33,0,0,4.65.67,4.65.67-4.21,3.69-8.34,8.37-10.87,13.32-1.21,2.69-5.37,2.43-6.31-.31-1.28-3.17-3.17-6.41-5.32-9.09l3.8.66c-3.96,1.44-7.69,4.06-10.61,7.19-.74.89-2.22-.1-1.69-1.12,2.19-4.52,5.29-8.49,9.34-11.6,1.25-.93,2.91-.51,3.81.66,1.54,1.55,2.88,3.28,4.06,5.09,1.25,1.91,2.19,3.65,3.06,5.85l-6.31-.31c3.11-6.29,7.65-11.11,13.03-15.43,1.36-1.15,3.41-.95,4.5.46,4.38,6.74,6.23,13.82,6.96,21.55.16,1.62-2.22,2.23-2.86.76h0Z"/><path class="cls-4" d="M171.53,394.76c-3.16-5.93-5.62-12.96-9.23-18.33,0,0,4.65.67,4.65.67-4.21,3.69-8.34,8.37-10.87,13.32-1.21,2.69-5.37,2.43-6.31-.31-1.28-3.17-3.17-6.41-5.32-9.09l3.8.66c-3.96,1.44-7.69,4.06-10.61,7.19-.74.89-2.22-.1-1.69-1.12,2.19-4.52,5.29-8.49,9.34-11.6,1.25-.93,2.91-.51,3.81.66,1.54,1.56,2.88,3.28,4.06,5.09,1.25,1.91,2.19,3.65,3.06,5.85l-6.31-.31c3.11-6.29,7.65-11.11,13.03-15.43,1.36-1.15,3.41-.95,4.5.46,4.38,6.74,6.23,13.82,6.96,21.55.16,1.62-2.22,2.23-2.86.76h0Z"/><path class="cls-4" d="M189.06,288.92c-3.16-5.93-5.62-12.96-9.23-18.33,0,0,4.65.67,4.65.67-4.21,3.69-8.34,8.37-10.87,13.32-1.21,2.69-5.37,2.43-6.31-.31-1.28-3.17-3.17-6.41-5.32-9.09l3.8.66c-3.96,1.44-7.69,4.06-10.61,7.19-.74.89-2.22-.1-1.69-1.12,2.19-4.52,5.29-8.49,9.34-11.6,1.25-.93,2.91-.51,3.81.66,1.54,1.56,2.88,3.28,4.06,5.09,1.25,1.91,2.19,3.65,3.06,5.85l-6.31-.31c3.11-6.29,7.65-11.11,13.03-15.43,1.36-1.15,3.41-.95,4.5.46,4.38,6.74,6.23,13.82,6.96,21.55.16,1.62-2.22,2.23-2.86.76h0Z"/><path class="cls-4" d="M203.55,339.06l9.1-11.66c1.36-1.83,4.35-1.34,5.13.76,0,0,6.65,13.78,6.65,13.78l-5.5-.26c8.83-14.18,17.43-28.13,27.91-41.29,1.58-2.08,5.14-1.12,5.49,1.43,2.71,15.64,5.51,30.89,6.37,46.87,0,0-5.31-2.16-5.31-2.16l9.54-7.14c1.49-1.2,3.54.95,2.3,2.38,0,0-7.48,9.27-7.48,9.27-1.6,2.12-5.22.92-5.28-1.69-.79-15.38-3.64-31.13-6.29-46.39,0,0,5.49,1.43,5.49,1.43-5.03,6.18-9.66,12.99-14.18,19.79-4.52,6.82-8.92,13.77-13.18,20.74-1.2,2.11-4.52,1.93-5.5-.27,0,0-6.65-13.78-6.65-13.78l5.13.76-10.87,10.03c-1.66,1.62-4.32-.83-2.84-2.62h0Z"/><g class="cls-7"><path class="cls-2" d="M275.68,470.21c-5.33,1.4-10.71,2.54-16.1,3.4-39.46,2.65-79.19-8.05-112.17-30.83-22.11-15.3-42.93-37.24-50.86-67.77,38.59,20.15,83.77,25.5,126.31,14.39,44.97-11.76,93.04-43.4,91.56-125.14-.99-53.64-13.98-98.54-30.43-134.21,29.26,32.59,81.22,105.64,83.23,215.03,1.5,81.75-46.57,113.38-91.54,125.14Z"/></g><g class="cls-6"><path class="cls-3" d="M108.15,308.32c45-116.94,135.27-166.66,166.14-180.71,6.45-2.94,14.06-1.6,19.12,3.37,17.74,17.42,58.9,63.81,80.52,136.67-20.13-81.23-65.6-132.58-84.49-151.13-5.06-4.97-12.66-6.31-19.12-3.37-30.87,14.05-121.14,63.77-166.14,180.71-14,36.37-13.49,65.88-5.02,89.69-4.15-21.02-2.3-45.89,8.99-75.23Z"/></g><path class="cls-2" d="M247.57,479.05c-36.44,0-72.39-11.01-103-32.16-37.7-26.06-76.13-74.08-45.05-154.82,44.91-116.71,132.96-167.19,168.74-183.47,8.28-3.77,18.2-2.02,24.69,4.35,28.05,27.54,93.52,105.09,95.81,230.12,1.58,86.5-50.94,118.48-95.29,130.07-15.15,3.96-30.57,5.91-45.9,5.91ZM277.39,116.62c-1.7,0-3.4.35-5,1.08-27.04,12.31-118.73,61.51-163.54,177.96-23.07,59.95-9.14,108.06,41.41,142.99h0c41.09,28.4,92.36,37.44,140.68,24.81,59.45-15.54,88.99-55.99,87.82-120.21-2.28-124.74-71.62-202.35-92.81-223.16-2.31-2.26-5.41-3.47-8.54-3.47Z"/></svg>