<?xml version="1.0" encoding="UTF-8"?><svg id="Layer_1" xmlns="http://www.w3.org/2000/svg" viewBox="0 0 512 512"><defs><style>.cls-1{fill:#2ce55c;}.cls-1,.cls-2,.cls-3,.cls-4,.cls-5,.cls-6,.cls-7,.cls-8{stroke-width:0px;}.cls-2{fill:#ed7845;}.cls-9{opacity:.6;}.cls-3{fill:#000072;}.cls-4{fill:#ffd629;}.cls-5{fill:#ff9b48;}.cls-6{fill:#ffe667;}.cls-7{fill:#ffb522;}.cls-8{fill:#fff;}</style></defs><circle class="cls-6" cx="258.61" cy="260.79" r="195.9"/><path class="cls-2" d="M277.18,111.56c2.25-9.57,5.96-31.13-.28-50.73-.8-2.51.48-5.18,2.94-6.13,4.17-1.61,10.9-2.9,18.12.94,1.63.87,2.59,2.64,2.51,4.49-.35,8.46-2.37,33.84-14.13,54.89-1.04,1.86-3.11,2.89-5.21,2.52h0c-2.79-.49-4.6-3.22-3.95-5.98Z"/><path class="cls-3" d="M281.97,122.62c-.57,0-1.14-.05-1.71-.15-2.68-.47-5.08-2.05-6.58-4.32-1.49-2.27-1.99-5.09-1.37-7.73,1.93-8.22,5.78-29.36-.18-48.06-1.6-5.01,1-10.42,5.91-12.32,7.49-2.88,15.39-2.46,22.27,1.19,3.29,1.75,5.32,5.33,5.16,9.11-.4,9.96-2.66,35.47-14.76,57.13-1.8,3.22-5.17,5.16-8.73,5.16ZM277.18,111.56l4.87,1.15h0s-4.87-1.15-4.87-1.15ZM288.12,58.12c-2.5,0-4.74.58-6.49,1.25,6.45,20.07,3.12,41.7.49,53,11.22-20.32,13.04-45.26,13.34-52.45-2.55-1.33-5.05-1.81-7.34-1.81ZM277.18,111.56h.04-.04Z"/><path class="cls-4" d="M217.18,476.62c-121.86-64.97-111.65-235.61-83.92-308.95,1.99-5.28,4.07-10.07,6.21-14.27,31.79-62.49,90.75-50.63,90.75-50.63,34.52-16.37,51.03,10.44,51.03,10.44,0,0,24.7-19.54,51.52,7.64,0,0,59.49,9.03,67.99,78.62,8.5,69.57-36.98,256.38-183.59,277.14Z"/><path class="cls-7" d="M218.83,465.61s-32.68-124.9-5.35-259.15c21.69-106.55,65.08-77.95,65.08-77.95l-59.73,337.1Z"/><path class="cls-7" d="M332.79,120.86s57.22,33.47,29.41,168.31c-27.82,134.84-143.37,181.91-143.37,181.91,0,0,185.12-144.09,113.96-350.22Z"/><path class="cls-1" d="M400.77,199.48c-8.5-69.59-67.99-78.62-67.99-78.62-10.85-10.99-21.35-14.34-30.01-14.43,5.92,2.05,12.28,5.87,18.77,12.45,0,0,59.49,9.03,67.99,78.62,8.38,68.62-35.75,251.29-177.65,276.18,1.74,1,3.5,1.99,5.3,2.94,146.61-20.76,192.09-207.57,183.59-277.14Z"/><path class="cls-1" d="M139.45,153.4c31.79-62.49,90.77-50.62,90.77-50.62,13.96-6.62,24.97-6.18,33.14-3.3-6.26-.1-13.55,1.31-21.9,5.27,0,0-58.99-11.86-90.77,50.62-31.35,61.61-52.35,248.36,72.47,320.29-1.98.35-3.97.67-5.98.96-130.67-69.65-109.51-260.75-77.73-323.22Z"/><path class="cls-1" d="M248.04,102.07s-53.68,3.26-66.95,152.1c-13.26,148.78,36.09,222.45,36.09,222.45,0,0-54.96-86.71-47.99-216.58,6.96-129.87,51.8-162.23,78.85-157.97Z"/><path class="cls-1" d="M316.28,114.11s49.33,21.43,10.89,165.83c-38.42,144.34-110,196.69-110,196.69,0,0,81.3-62.69,119.17-187.1,37.87-124.42,6.81-170.17-20.07-175.41Z"/><path class="cls-1" d="M263.72,212.73s18.17-98.92.73-110.93c0,0,16.12.19,15.78,17.27l-16.51,93.66Z"/><path class="cls-1" d="M263.7,212.73s16.76-99.17,37.25-104.49c0,0-15.22-5.34-20.73,10.83l-16.52,93.66Z"/><path class="cls-5" d="M334.02,119.01c24.2,20.68,23.06,68.58,20.81,97.79-8.91,83.5-39.94,166.77-98.54,228.15-11.86,11.98-24.23,23.45-38.5,32.57-.51.32-1.18.17-1.5-.33-.3-.47-.19-1.09.24-1.43,26.01-20.48,47.21-46.67,65.31-74.22,26.48-41.89,44.9-88.59,55.47-136.92,7.7-33.96,13.36-69.16,9.38-103.9-1.14-7.79-2.94-16.13-5.85-23.45-2.3-5.26-5.4-11.28-9.59-14.84-2.09-1.72.56-5.14,2.77-3.42h0Z"/><path class="cls-5" d="M230.75,104.93c-44.5,22.83-56.73,134.29-57.8,180.74-1.45,65.6,10.98,133.53,45.1,190.29.36.5.23,1.24-.3,1.56-.48.3-1.1.18-1.44-.26-10.29-13.45-17.99-28.46-25.04-43.77-20.27-46.45-29.05-97.46-28.02-148.04,2.02-50.4,8.66-101.94,31.15-147.72,4.82-9.34,11.2-18.69,18.56-26.23,5.04-4.66,9.76-8.7,16.74-10.89,1.16-.35,2.39.31,2.74,1.47.4,1.31-.46,2.5-1.7,2.84h0Z"/><path class="cls-5" d="M284.07,113.72c-13.64,90.87-30.03,182.49-47.15,272.7,0,0-8.89,45.27-8.89,45.27-3.15,15.06-6.13,30.14-9.44,45.17-.17.77-.93,1.26-1.7,1.09-.73-.16-1.2-.86-1.11-1.58,12.75-91,28.63-182.73,45.14-273.06,0,0,8.52-45.33,8.52-45.33,3.01-15.08,5.86-30.19,9.01-45.25.71-3.36,6.1-2.77,5.62.99h0Z"/><g class="cls-9"><path class="cls-8" d="M140.18,225.28c1.23-19.61,6.8-57.2,30.6-81.28,1.3-1.31,3.47.15,2.73,1.85-6.21,14.19-20.06,47.08-30.08,80.03-.58,1.9-3.38,1.38-3.26-.6Z"/></g><g class="cls-9"><path class="cls-8" d="M199.03,198.03c1.06-16.92,5.87-49.37,26.41-70.15,1.12-1.13,3,.13,2.36,1.59-5.36,12.25-17.31,40.63-25.96,69.07-.5,1.64-2.92,1.19-2.81-.52Z"/></g><g class="cls-9"><path class="cls-8" d="M322.86,222.68c5.04-16.19,12.13-48.21.34-74.96-.64-1.46-2.85-.94-2.77.65.64,13.35,1.68,44.13-.38,73.79-.12,1.71,2.3,2.16,2.81.52Z"/></g><path class="cls-3" d="M217.19,481.62c-.82,0-1.63-.2-2.35-.59-134.91-71.9-111.5-267.63-79.83-329.89,30.03-59.03,84.18-54.91,94.5-53.53,28.57-12.82,46.21,1.56,52.92,9.04,8.87-4.74,30.35-12.22,52.82,9.6,10.17,2.24,62.46,16.88,70.49,82.62,8.47,69.34-36.47,261.28-187.85,282.7-.23.03-.47.05-.7.05ZM218.22,106.81c-17.69,0-52.48,5.97-74.29,48.87-30.33,59.63-53.13,246.42,74.18,315.75,143.35-21.6,185.81-204.93,177.7-271.34-7.91-64.8-61.5-73.93-63.78-74.28-1.06-.16-2.05-.67-2.8-1.43-23.41-23.72-43.99-7.91-44.86-7.23-1.12.89-2.57,1.26-3.97,1-1.41-.25-2.64-1.09-3.39-2.3-.58-.91-14.77-22.72-44.63-8.55-.97.46-2.08.59-3.13.39-.59-.12-4.72-.88-11.03-.88Z"/></svg>