<?xml version="1.0" encoding="UTF-8"?><svg id="Layer_1" xmlns="http://www.w3.org/2000/svg" viewBox="0 0 512 512"><defs><style>.cls-1{fill:#ef4374;}.cls-1,.cls-2,.cls-3,.cls-4,.cls-5{stroke-width:0px;}.cls-6{opacity:.6;}.cls-2{fill:#000072;}.cls-7{opacity:.15;}.cls-8{opacity:.45;}.cls-3{fill:#34e85f;}.cls-4{fill:#fff;}.cls-5{fill:#02daff;}</style></defs><circle class="cls-5" cx="264.19" cy="252.62" r="195.9"/><path class="cls-1" d="M133.31,313.39s-27.62-17.91-37.17-43.85c0,0-26.79,86.92,37.88,152.09l-.71-108.24Z"/><path class="cls-3" d="M112.83,315.06c6.71,6.7,14.26,11.96,20.59,15.74l-.11-17.4s-27.62-17.91-37.17-43.85c0,0-26.79,86.92,37.88,152.09l-7.35-12.36c-24.74-32.71-27.42-68.65-26.35-89.49.33-6.35,8-9.21,12.51-4.72Z"/><path class="cls-2" d="M134.03,426.71c-1.33,0-2.63-.52-3.61-1.5-66.06-66.56-39.41-156.27-39.13-157.16.64-2.08,2.54-3.52,4.72-3.58,2.24-.12,4.15,1.28,4.9,3.32,8.86,24.08,34.9,41.18,35.17,41.35,1.43.93,2.3,2.52,2.32,4.23l.71,108.24c.01,2.06-1.22,3.93-3.13,4.72-.63.26-1.29.39-1.95.39ZM98.07,284.77c-3.98,24.71-6.8,78.3,30.79,123.63l-.61-92.32c-5.62-4.02-20.17-15.33-30.18-31.31Z"/><path class="cls-1" d="M356.15,380.73s32.89,1.31,55.66-14.38c0,0-28.25,86.46-118.68,102.38l63.02-88Z"/><path class="cls-3" d="M371.92,393.91c-9.35,1.6-18.55,1.54-25.9.98l10.13-14.15s32.89,1.31,55.66-14.38c0,0-28.25,86.46-118.68,102.38l13.14-5.86c39.07-12.45,62-40.26,73.14-57.9,3.4-5.38-1.23-12.14-7.49-11.07Z"/><path class="cls-2" d="M293.14,473.81c-1.72,0-3.36-.88-4.3-2.37-1.1-1.75-1.03-3.98.17-5.66l63.01-88c.99-1.39,2.61-2.16,4.33-2.12.29.01,31.52,1.02,52.58-13.49,1.79-1.23,4.18-1.19,5.92.11,1.74,1.3,2.46,3.58,1.79,5.65-.29.89-30.27,89.54-122.62,105.81-.3.05-.59.08-.88.08ZM358.74,385.84l-53.75,75.06c56.85-15.35,85.46-60.75,96.46-83.23-17.39,7.28-35.81,8.13-42.71,8.16Z"/><path class="cls-1" d="M307.95,152.54s-24.83,11.29-51.75-10.28c-1.46-1.17-2.93-2.43-4.39-3.8,0,0-.08-.56-.13-1.57-.17-2.75-.3-8.87.97-15.98,1.48-8.15,4.83-17.58,12.15-24.68,16.01-15.53,14.83-40.18,14.83-40.18,0,0,2.29,2.8,5.62,7.8,1.25,1.89,2.63,4.08,4.11,6.56,9.81,16.52,23.07,45.48,19.33,77.05-.18,1.7-.43,3.38-.74,5.09Z"/><path class="cls-3" d="M308.69,147.45c-2.95-16.1-9.8-33.36-15.12-45.21-2.91-6.46-11.67-7.44-15.95-1.8-3.45,4.55-7.54,9.28-11.53,12.35-9.85,7.58-13.65,25.31-13.65,25.31,0,0-.28-.4-.75-1.2-.35-5.93-.6-27.37,13.11-40.66,16.01-15.54,14.84-40.19,14.84-40.19,0,0,34.81,42.6,29.05,91.41Z"/><g class="cls-7"><path class="cls-2" d="M307.95,152.54s-24.83,11.29-51.75-10.28l-1.84-12.13s56.81-.43,30.89-66.28c9.58,14.47,27.72,47.32,23.44,83.6-.18,1.7-.43,3.38-.74,5.09Z"/></g><g class="cls-6"><path class="cls-4" d="M280.41,93.19c-9.75,8.29-26.23,27.5-26.23,27.5,0,0-.57.1-1.54.22,1.48-8.15,4.83-17.58,12.15-24.68,16.01-15.53,14.83-40.18,14.83-40.18,0,0,2.29,2.8,5.62,7.8,1.25,1.89,2.63,4.08,4.11,6.56-.89,9.17-2.83,17.6-8.94,22.79Z"/></g><path class="cls-2" d="M249.97,138.66c-3.13-15.53-.02-33.11,11.08-45.02,2.44-2.75,4.35-4.99,6.11-8.08,5.15-8.59,7.34-19.41,7.4-29.29-.16-2.79,1.98-5.19,4.77-5.35,1.68-.09,3.24.67,4.23,1.89,11.27,14.24,19.31,30.04,24.57,47.27,5.32,16.98,6.71,35.55,2.01,52.84-.66,2.62-4.63,1.93-4.36-.77.8-16.78-1.34-33.28-6.87-49.1-5.46-15.47-13.55-30.7-23.21-43.81l9.01-3.46c.14,4.4-.25,8.19-.88,12.21-1.91,11.88-7.37,23.85-16.36,31.98-4.9,4.61-8.03,10.8-10.14,17.24-2.11,6.68-3.33,13.97-3.71,21.18-.04,2.1-3.3,2.34-3.65.27h0Z"/><path class="cls-1" d="M217.7,473.49c-68.1-13.45-100.89-61.17-105.13-115.4-.44-5.69-.56-11.46-.39-17.24,1.55-50.3,26.13-103.6,68.68-138.95,0,0,7.01-6.43,16.29-17.22,15-17.45,35.94-46.27,42.82-77.73,0,0,26.71,21.01,29.49,62.79,0,0,8.96-73.38,74.21-67.67,0,0-2.12,3.51-4.84,9.49-5.52,12.15-13.55,34.45-11.37,57.9.33,3.53.93,6.83,1.8,9.97.41,1.58.92,3.11,1.46,4.61l.02.02c.45,1.24.95,2.46,1.47,3.65.02.02.03.05.05.07,1.54,3.58,3.41,7.04,5.56,10.55,11.61,19.32,30.45,40.26,44.31,90.25,20.39,73.37-27.26,211.99-164.42,184.92Z"/><path class="cls-3" d="M269.46,169.74c-5.29-12.16-10.78-21.08-15.27-27.25-3.99-5.49-12.28-4.85-15.56,1.09-17.05,30.89-41.49,41.11-41.49,41.11,15-17.45,35.94-46.27,42.82-77.73,0,0,26.71,21.01,29.49,62.79Z"/><path class="cls-3" d="M330.72,184.03c-11.33-13.55-13.63-30.83-13.22-44.3.24-7.94-9.04-12.36-15.14-7.27-2.64,2.21-5.69,4.66-9.35,7.39-12.3,9.17-23.56,29.88-23.56,29.88,0,0,8.96-73.38,74.21-67.67,0,0-19.47,32.41-16.21,67.39.49,5.31,1.62,10.08,3.26,14.58Z"/><g class="cls-7"><path class="cls-2" d="M217.7,473.49c-68.1-13.45-100.89-61.17-105.13-115.4.02-.12.03-.18.03-.18,0,0,17.04,82.46,126.6,64.81,112.32-18.1,119.68-174.31,98.6-224.39,11.61,19.32,30.45,40.26,44.31,90.25,20.39,73.37-27.26,211.99-164.42,184.92Z"/></g><g class="cls-6"><path class="cls-4" d="M343.67,102.07s-2.12,3.51-4.84,9.49c-53.31,1.55-67.03,59.3-67.03,59.3l-3.58,1.08c-5.35-20.27-23.95-41.65-23.95-41.65,0,0-7.19,37.87-54.53,78.76-69.64,60.14-74.2,132.24-74.2,132.24,0,0-1.23-.16-3.36-.43,1.55-50.3,26.13-103.6,68.68-138.95,0,0,7.01-6.43,16.29-17.22,15-17.45,35.94-46.27,42.82-77.73,0,0,26.71,21.01,29.49,62.79,0,0,8.96-73.38,74.21-67.67Z"/></g><g class="cls-8"><path class="cls-4" d="M194.24,253.52c3.76-12.67,9.2-24.63,15.47-36.23,6.49-11.64,13.76-22.91,23.8-32,4.6-4.04,11.14,2.08,7.44,6.92-4.73,6.13-9.45,12.56-14.08,18.91-10.36,14.41-20.03,28.92-30.84,43.28-.62.9-2.14.16-1.79-.89h0Z"/></g><path class="cls-2" d="M177.56,198.14c25.77-25.47,48.88-56.55,57.52-92.26.61-2.73,3.35-4.44,6.08-3.78,6.54,3.38,10.82,9.55,15.03,14.88,7.28,10.15,12.35,21.93,14.66,34.17,1.24,6.05,1.59,12.25,1.52,18.39l-5.79-.16c1.77-41.29,33.94-78.37,77.52-72.3,2.71.13,4.8,2.44,4.65,5.15-.04.89-.33,1.69-.77,2.41-11.65,21.42-19.46,48.14-14.09,72.4,1.92,7.8,5.85,15.11,10.48,22.37,9.44,14.45,19.88,29.51,27.25,45.94,7.54,16.34,13.65,33.45,17.45,51.07,6.55,35.8.16,73.3-15.27,106.05-15.47,33.03-43.19,60.98-78.27,72.51-50.73,16.1-114.79,3.72-152.63-34.69-65.46-69.57-33.57-186.23,34.68-242.15h0ZM184.15,205.68c-63.9,52.38-95.43,162.18-34.08,227.65,35.8,35.86,94.72,46.96,142.26,32.18,32.52-10.7,58.08-36.71,72.43-67.36,14.48-30.69,20.61-66.28,14.47-99.82-3.6-16.66-9.51-33.23-16.68-48.72-7.1-15.78-16.84-29.83-26.65-44.83-4.81-7.55-9.42-15.94-11.73-25.29-6.01-27.67,2.06-55.64,15.21-80,0,0,3.85,7.56,3.85,7.56-41.3-3.1-61.32,27.95-71.09,63.73-.89,3.22-5.71,2.38-5.6-.85-1.17-5.69-2.26-11.3-4.06-16.69-4.81-15.79-13.87-30.98-25.62-42.35,0,0,7.98-2.86,7.98-2.86-2.3,9.59-5.47,18.91-9.54,27.76-12.47,26.4-30.25,49.6-51.17,69.9h0Z"/><path class="cls-1" d="M186.6,226.83s-6.66,22.36-21.25,37.34c-14.59,15-31.62,12-31.62,12-.03-1.55-.07-3.08-.06-4.6-.38-86.59,49.57-114.62,49.57-114.62-3.83,24.83.39,53.57,2.41,64.92.56,3.15.95,4.96.95,4.96Z"/><path class="cls-3" d="M185.65,221.87c-3.19-3-5.83-6.19-7.99-9.29-5.22-7.51-16.45-6.84-20.63,1.3-11.87,23.08-22.91,56.18-23.37,57.7-.38-86.59,49.57-114.62,49.57-114.62-3.83,24.83.39,53.57,2.41,64.92Z"/><g class="cls-8"><path class="cls-4" d="M147.54,239.88c-.09-13.27,3.66-26.31,9.31-38.21,1.9-3.97,4.16-7.77,6.75-11.34.99-1.36,2.89-1.66,4.25-.68,1.19.86,1.57,2.44.99,3.72-6.99,15.39-14,30.67-19.31,46.76-.28,1.09-1.99.88-1.99-.25h0Z"/></g><path class="cls-2" d="M182.91,227.62c-4.92-23.57-7.59-47.32-4.7-71.45,0,0,7.5,5.2,7.5,5.2-20.01,13.31-33.19,35.3-40.64,57.87-6.01,17.96-8.25,38.12-8.93,57.06-.15,3.02-4.81,3.02-4.88-.08-.47-11.37-.61-22.79.75-34.13,1.36-11.23,3.81-22.87,7.62-33.59,4.95-13.55,11.83-26.74,21.14-37.95,5.86-7.09,11.86-12.86,19.96-18.04,3.4-2.26,8.19.86,7.55,4.85-3.6,22.45-1.87,46.23,1.99,68.67.92,4.84-6.21,6.39-7.38,1.59h0Z"/><path class="cls-1" d="M288.56,298.88s-32.96,14.41-71.77-10.48c0,0,.33-19.73,13.78-31.61,13.43-11.88,30.66-39.74,31.57-50.45,0,0,38.24,36.45,26.42,92.54Z"/><path class="cls-3" d="M288.56,298.88c-3.03-22.22-10.54-38.78-16.48-48.96-3.2-5.48-10.92-5.94-14.86-.96-6.28,7.96-15.36,17.16-20.11,19.25-7.44,3.26-20.32,20.19-20.32,20.19,0,0,.33-19.73,13.78-31.61,13.43-11.88,30.66-39.74,31.57-50.45,0,0,38.24,36.45,26.42,92.54Z"/><path class="cls-2" d="M214.57,288.36c-.36-12.67,4.03-26.14,13.53-35.05,8.06-8.05,14.58-17.84,20.38-27.67,3.47-6.19,7.71-13.88,8.76-20.47.64-3.85,5.81-5.35,8.42-2.5,6.47,6.64,11.41,13.56,15.69,21.25,12.84,22.65,16.92,50.39,9.8,75.5-.36,1.41-1.79,2.27-3.2,1.91-1.36-.34-2.17-1.66-1.96-3,4.55-31.61-5.25-65.22-27.34-88.32,0,0,8.56-3.24,8.56-3.24-.64,5.36-2.41,9.11-4.11,13.04-5.38,11.25-12.35,21.42-20.47,30.86-4.72,6.07-11.83,10.26-16,16.87-4.03,6.06-6.56,13.64-7.67,21.08-.36,2.6-4.36,2.37-4.39-.28h0Z"/><path class="cls-1" d="M362.97,314.71c-.91,1.45-1.87,2.86-2.87,4.27,0,0-.64.4-1.8.9-5.34,2.29-21.57,6.64-34.53-17.04h-.02c-2.93-5.38-5.73-12.21-8.17-20.85,0,0,.18-.54.56-1.47,2.25-5.5,11.3-24.93,29.42-30.98,21.16-7.08,30.78-29.81,30.78-29.81,0,0,12.94,53.47-13.37,94.97Z"/><path class="cls-3" d="M362.97,314.71c4.3-15.79,5.61-34.31,5.93-47.3.18-7.09-7.29-11.76-13.6-8.53-5.08,2.61-10.82,5.1-15.74,6.14-12.16,2.57-23.26,16.91-23.26,16.91,0,0-.08-.48-.16-1.41,2.25-5.5,11.3-24.93,29.42-30.98,21.16-7.08,30.78-29.81,30.78-29.81,0,0,12.94,53.47-13.37,94.97Z"/><g class="cls-7"><path class="cls-2" d="M358.3,319.88c-5.34,2.29-21.57,6.64-34.53-17.04,1.14.43,50.08,18.38,54.83-58.57,0,0,1.31,54.44-20.3,75.61Z"/></g><path class="cls-2" d="M313.84,281.37c3.9-15.36,14.31-29.85,29.48-35.78,3.39-1.42,6.08-2.61,9.01-4.64,8.36-5.51,15.01-14.33,19.34-23.2,1.07-2.59,4.03-3.82,6.61-2.75,1.56.64,2.63,2.01,3,3.53,4,17.71,4.4,35.43,1.69,53.24-2.55,17.61-9.34,34.95-21.06,48.5-1.73,2.07-5.01-.26-3.6-2.58,7.99-14.78,13.2-30.58,15.06-47.24,1.77-16.31,1.07-33.54-1.96-49.54,0,0,9.61.78,9.61.78-1.77,4.03-3.76,7.27-6.08,10.63-6.86,9.88-16.96,18.31-28.59,21.74-6.42,2.03-11.91,6.26-16.6,11.15-4.79,5.11-9.05,11.15-12.51,17.48-.95,1.87-3.99.68-3.41-1.33h0Z"/><path class="cls-1" d="M145.26,401.38c.36,1.67.77,3.33,1.23,4.99,0,0,51.22,26.49,54.49-19.53,0,0,.02-.57-.03-1.57-.23-5.93-2.1-27.29-17.05-39.18-17.46-13.89-18.73-38.54-18.73-38.54,0,0-30.45,45.82-19.92,93.82Z"/><path class="cls-3" d="M145.26,401.38c1.36-16.31,6.47-34.16,10.6-46.48,2.26-6.72,10.88-8.55,15.7-3.36,3.88,4.19,8.42,8.5,12.69,11.16,10.55,6.57,16.07,23.85,16.07,23.85,0,0,.24-.43.63-1.27-.23-5.93-2.1-27.29-17.05-39.18-17.46-13.89-18.73-38.54-18.73-38.54,0,0-30.45,45.82-19.92,93.82Z"/><path class="cls-2" d="M199.15,386.81c-2.32-13.52-6.58-27.93-17.54-36.72-13.13-9.85-20.2-26.08-21.5-42.26-.03-.04,9.3,2.55,9.3,2.54-8.32,13.99-14.87,29.95-18.78,45.88-3.95,16.29-4.46,32.92-2.01,49.54.25,1.26-.61,2.5-1.9,2.65-3.33.17-3.22-5.5-4.44-7.78-4.5-14.98-4.21-31.23-1.13-46.45,3.54-17.66,9.98-34.17,19.8-49.45,1.53-2.34,4.66-3,7.01-1.47,1.41.92,2.22,2.46,2.29,4.03,1.03,9.82,4.27,20.37,10.24,28.41,4.35,6.05,11.17,10.36,14.91,16.92,6.26,10.23,8.61,22.47,7.43,34.23-.24,2.19-3.51,2.15-3.68-.05h0Z"/><path class="cls-1" d="M318.53,430.19s-10.48,17.72-34.66,13.19c-8.2-1.53-14.56-4.76-19.24-8.09l-.02-.02c-6.79-4.83-9.95-9.82-9.95-9.82,0,0,3.22-12.72,20.44-24.17,17.24-11.45,20.16-44.48,20.16-44.48,0,0,3.97,3.42,8.74,9.79,8.88,11.89,20.54,34.04,14.53,63.6Z"/><path class="cls-3" d="M318.53,430.19c-1.69-11.24-4.94-21.1-8.11-28.7-2.88-6.92-12.21-8.35-16.9-2.5-3.61,4.5-8.25,8.91-13.69,11.1-10.76,4.34-25.16,15.37-25.16,15.37,0,0,3.22-12.72,20.44-24.17,17.24-11.45,20.16-44.48,20.16-44.48,0,0,32.5,27.94,23.27,73.39Z"/><g class="cls-7"><path class="cls-2" d="M318.53,430.19s-10.48,17.72-34.66,13.19c-8.2-1.53-14.56-4.76-19.24-8.09l-.02-.02s-.03-.05-.03-.05c0,0,70.84,12.19,39.41-68.64,8.88,11.89,20.54,34.04,14.53,63.6Z"/></g><path class="cls-2" d="M252.68,424.95c3.33-11.86,11.85-20.29,21.11-27.58,1.69-1.41,3.25-3.12,4.49-4.94,7.02-10.18,9.67-24.15,10.42-36.34.24-5.29,7.13-7.94,10.87-4.3,10.69,10.19,17.93,23.02,21.69,37.13,1.92,6.83,2.77,14.02,2.51,21.09-.06,7.06-1.66,13.96-3.77,20.48-.51,1.65-3.09,1.13-2.92-.59,1.61-25.41-7.29-50.83-26.12-68.09,0,0,10.88-4.42,10.88-4.42-3.02,16.45-8.08,33.11-21,44.56-4.11,3.03-8.75,5.49-12.58,8.89-4.83,4.12-9.46,9.53-11.7,15.39-.88,2.37-4.57,1.21-3.88-1.26h0Z"/><g class="cls-8"><path class="cls-4" d="M247.58,264.01c.36-9.91,4.25-19.2,9.85-27.43,1.88-2.75,4.09-5.32,6.59-7.68.95-.9,2.71-.91,3.93-.02,1.07.78,1.36,2,.78,2.89-6.95,10.68-13.91,21.27-19.34,32.65-.29.78-1.86.42-1.82-.41h0Z"/></g><g class="cls-8"><path class="cls-4" d="M290.8,152.94c1.75-9.76,6.91-18.41,13.61-25.77,2.25-2.45,4.8-4.69,7.61-6.68,1.07-.76,2.81-.52,3.9.54.95.92,1.07,2.17.37,2.97-8.38,9.59-16.77,19.1-23.74,29.61-.4.73-1.9.16-1.74-.66h0Z"/></g></svg>