<?xml version="1.0" encoding="UTF-8"?><svg id="Layer_1" xmlns="http://www.w3.org/2000/svg" xmlns:xlink="http://www.w3.org/1999/xlink" viewBox="0 0 512 512"><defs><style>.cls-1{opacity:.6;}.cls-2{fill:#000072;}.cls-2,.cls-3,.cls-4,.cls-5,.cls-6,.cls-7,.cls-8{stroke-width:0px;}.cls-3{fill:none;}.cls-4{fill:#2fdd54;}.cls-9{opacity:.15;}.cls-10{opacity:.3;}.cls-5{fill:#ffbe1d;}.cls-6{fill:#f7913e;}.cls-11{clip-path:url(#clippath);}.cls-7{fill:#fff;}.cls-8{fill:#a89fff;}</style><clipPath id="clippath"><path class="cls-3" d="M205.5,473.6c101.56,27.21,169.98-39.7,169.8-151.6-.09-57.81-24.62-93.03-48.31-113.56-25.89-22.45-60.48-31.72-94.13-25.22-30.78,5.94-69.63,24.18-98.62,74.2-56.11,96.82-30.31,188.97,71.25,216.19Z"/></clipPath></defs><circle class="cls-8" cx="253.11" cy="285.36" r="186.09"/><path class="cls-4" d="M325.99,23.92c-27.88,29.41-53.3,84.52-53.3,84.52l20.11,39.37,37.1-24.04s5.54-60.43-3.9-99.85Z"/><g class="cls-1"><path class="cls-7" d="M323.33,46.57c5.85,24.43,5.95,56.91,5.17,78.1l1.39-.9s5.54-60.43-3.9-99.85c-27.88,29.41-53.3,84.52-53.3,84.52,0,0,2.87,5.62,4.34,8.49,9.45-18.33,27.3-50.31,46.31-70.36Z"/></g><path class="cls-2" d="M292.8,153.81c-.52,0-1.04-.07-1.55-.2-1.64-.44-3.02-1.55-3.79-3.07l-20.11-39.37c-.84-1.64-.87-3.57-.11-5.24,1.06-2.29,26.16-56.35,54.4-86.13,1.51-1.59,3.78-2.23,5.91-1.67,2.12.57,3.77,2.26,4.28,4.4,9.56,39.91,4.27,99.28,4.04,101.79-.17,1.83-1.17,3.49-2.71,4.49l-37.1,24.04c-.98.64-2.12.96-3.26.96ZM279.38,108.34l15.74,30.82,29.04-18.82c.82-10.97,3.29-51.13-1.7-83.22-20.38,25.3-38.31,61.31-43.08,71.22Z"/><path class="cls-4" d="M398.91,108.49s-7.87,1.48-18.67,6.95c-13.55,6.91-31.69,20.13-44.67,44.66-6.07,11.43-11.01,25.34-13.82,42.19,0,0-13.86-8.63-38.94-17.3,0,0,4.09-119.17,116.09-76.49Z"/><g class="cls-9"><path class="cls-2" d="M380.24,115.44c-13.55,6.91-31.69,20.13-44.67,44.66-4.44,1.65-7.29,2.71-7.51,2.9-1.39,1.28-12.38,6.45-12.38,6.45l-20.42-9.17s22.24-53.76,84.98-44.84Z"/></g><g class="cls-1"><path class="cls-7" d="M380.3,115.44c10.76-5.46,18.6-6.94,18.6-6.94-112.01-42.68-116.07,76.48-116.07,76.48,1.01.35,1.96.7,2.93,1.04,4.29-26.87,22.05-87.57,94.53-70.58Z"/></g><path class="cls-2" d="M321.76,208.29c-1.1,0-2.2-.3-3.17-.9-.13-.08-13.71-8.43-37.72-16.74-2.49-.86-4.12-3.24-4.03-5.87.08-2.28,2.32-56.13,38.69-80.29,21.69-14.41,50.46-14.95,85.51-1.59,2.51.96,4.08,3.46,3.84,6.14-.24,2.68-2.23,4.86-4.87,5.36-2.41.47-59.53,12.37-72.34,88.89-.33,1.97-1.62,3.65-3.44,4.47-.79.36-1.63.53-2.47.53ZM289.18,180.86c12.71,4.63,22.24,9.1,28.26,12.19,11.35-51.8,43.01-74.69,63.04-84.22-23.74-6.19-43.29-4.32-58.26,5.61-25.78,17.09-31.73,53.84-33.03,66.42Z"/><path class="cls-4" d="M282.84,184.98s35.91-86.28,134.78-27c0,0-63.43-2.26-90.62,50.46l-44.15-23.46Z"/><g class="cls-9"><path class="cls-2" d="M297.8,188.49s24.81-50.39,96.5-30.69c0,0-47.32,8.79-65.79,47.82l-30.72-17.13Z"/></g><g class="cls-1"><path class="cls-7" d="M403.37,158.89c8.6-1.11,14.24-.92,14.24-.92-98.87-59.28-134.78,27-134.78,27l6.61,3.51c10.23-17.64,44.18-61.97,113.92-29.6Z"/></g><path class="cls-2" d="M326.99,214.44c-.97,0-1.94-.24-2.81-.7l-44.16-23.46c-2.73-1.45-3.91-4.74-2.72-7.6.6-1.45,15.21-35.68,51.27-47.56,26.8-8.83,57.8-2.87,92.13,17.72,2.35,1.41,3.44,4.22,2.67,6.85-.78,2.62-3.28,4.42-5.96,4.29-.58-.03-60.01-1.39-85.08,47.22-.74,1.43-2.01,2.5-3.54,2.97-.58.18-1.19.27-1.79.27ZM290.83,182.43l33.78,17.95c19.2-32.18,51.15-43.03,72.22-46.64-24.05-11-45.68-13.43-64.51-7.23-23.37,7.7-36.45,26.88-41.5,35.92Z"/><path class="cls-4" d="M282.84,184.98s56.06-105.22-62.28-124.27c0,0,49,42.02,19.91,119.8,0,0,16.33-.55,42.36,4.46Z"/><g class="cls-1"><path class="cls-7" d="M220.56,60.71s7.43,6.4,14.78,18.77c67.17,21.2,55.62,78.62,46.06,105.23.48.09.95.17,1.44.26,0,0,56.06-105.22-62.28-124.27Z"/></g><path class="cls-2" d="M282.84,190.97c-.38,0-.76-.04-1.14-.11-24.94-4.8-40.89-4.37-41.03-4.36-2.03.09-3.9-.87-5.06-2.5-1.17-1.63-1.45-3.72-.75-5.6,27.17-72.67-16.35-111.54-18.21-113.16-2.02-1.75-2.64-4.65-1.51-7.07,1.14-2.43,3.74-3.81,6.38-3.39,37.03,5.96,61.68,20.81,73.26,44.13,19.41,39.1-5.57,86.86-6.64,88.88-1.06,1.98-3.11,3.18-5.29,3.18ZM248.84,174.68c6.76.33,17.25,1.22,30.57,3.57,5.16-11.54,18.38-46.35,4.6-74.04-8.01-16.09-24-27.48-47.65-33.99,12.58,18.27,28.55,53.92,12.48,104.46Z"/><path class="cls-4" d="M282.84,184.98s12.04-92.67-103.22-90.77c0,0,56.06,29.76,53.25,89.01l49.97,1.76Z"/><g class="cls-1"><path class="cls-7" d="M282.89,184.49c.73-7.08,7.19-92.11-103.27-90.29,0,0,11.67,6.21,24.09,18.58,62.34,7.2,76.41,47.67,79.18,71.71Z"/></g><path class="cls-2" d="M282.84,190.97c-.07,0-.14,0-.21,0l-49.97-1.76c-1.6-.06-3.12-.75-4.2-1.93-1.09-1.18-1.65-2.75-1.58-4.35,2.59-54.63-49.55-83.15-50.08-83.43-2.41-1.29-3.65-4.05-3.01-6.7.64-2.66,2.99-4.54,5.73-4.59,39.98-.62,69.85,9.67,88.64,30.72,25.29,28.32,20.83,65.26,20.62,66.82-.39,3-2.95,5.22-5.94,5.22ZM238.96,177.43l38.21,1.34c.12-10.4-1.66-33.68-18.05-51.95-13.21-14.72-33.13-23.4-59.39-25.89,16.44,13.67,38.68,39.03,39.22,76.5Z"/><path class="cls-5" d="M205.5,473.6c101.56,27.21,169.98-39.7,169.8-151.6-.09-57.81-24.62-93.03-48.31-113.56-25.89-22.45-60.48-31.72-94.13-25.22-30.78,5.94-69.63,24.18-98.62,74.2-56.11,96.82-30.31,188.97,71.25,216.19Z"/><g class="cls-10"><path class="cls-7" d="M201.5,246.82c-2.4-1.01-2.61-4.34-.29-5.53,5.64-2.9,15.06-7.12,21.56-6.79,8.95.45-4.43,19.39-21.27,12.32Z"/><path class="cls-7" d="M255.03,220.68c-2.4-1.01-2.61-4.34-.29-5.53,5.64-2.9,15.06-7.12,21.56-6.79,8.95.45-4.43,19.39-21.27,12.32Z"/><path class="cls-7" d="M290.99,266.22c-2.4-1.01-2.61-4.34-.29-5.53,5.64-2.9,15.06-7.12,21.56-6.79,8.95.45-4.43,19.39-21.27,12.32Z"/><path class="cls-7" d="M237.54,290.74c-2.4-1.01-2.61-4.34-.29-5.53,5.64-2.9,15.06-7.12,21.56-6.79,8.95.45-4.43,19.39-21.27,12.32Z"/><path class="cls-7" d="M276.58,338.35c-2.4-1.01-2.61-4.34-.29-5.53,5.64-2.9,15.06-7.12,21.56-6.79,8.95.45-4.43,19.39-21.27,12.32Z"/><path class="cls-7" d="M180.4,312.77c-2.4-1.01-2.61-4.34-.29-5.53,5.64-2.9,15.06-7.12,21.56-6.79,8.95.45-4.43,19.39-21.27,12.32Z"/><path class="cls-7" d="M122.61,330.33c-2.4-1.01-2.61-4.34-.29-5.53,5.64-2.9,15.06-7.12,21.56-6.79,8.95.45-4.43,19.39-21.27,12.32Z"/><path class="cls-7" d="M163.37,380.98c-2.4-1.01-2.61-4.34-.29-5.53,5.64-2.9,15.06-7.12,21.56-6.79,8.95.45-4.43,19.39-21.27,12.32Z"/><path class="cls-7" d="M202.56,430.85c-2.4-1.01-2.61-4.34-.29-5.53,5.64-2.9,15.06-7.12,21.56-6.79,8.95.45-4.43,19.39-21.27,12.32Z"/><path class="cls-7" d="M322.17,381.93c-2.4-1.01-2.61-4.34-.29-5.53,5.64-2.9,15.06-7.12,21.56-6.79,8.95.45-4.43,19.39-21.27,12.32Z"/><path class="cls-7" d="M331.82,315.8c-2.4-1.01-2.61-4.34-.29-5.53,5.64-2.9,15.06-7.12,21.56-6.79,8.95.45-4.43,19.39-21.27,12.32Z"/><path class="cls-7" d="M329.24,242.69c-2.4-1.01-2.61-4.34-.29-5.53,5.64-2.9,15.06-7.12,21.56-6.79,8.95.45-4.43,19.39-21.27,12.32Z"/><path class="cls-7" d="M220.05,360.8c-2.4-1.01-2.61-4.34-.29-5.53,5.64-2.9,15.06-7.12,21.56-6.79,8.95.45-4.43,19.39-21.27,12.32Z"/><path class="cls-7" d="M263.16,409.09c-2.4-1.01-2.61-4.34-.29-5.53,5.64-2.9,15.06-7.12,21.56-6.79,8.95.45-4.43,19.39-21.27,12.32Z"/><path class="cls-7" d="M150.85,266.38c-2.4-1.01-2.61-4.34-.29-5.53,5.64-2.9,15.06-7.12,21.56-6.79,8.95.45-4.43,19.39-21.27,12.32Z"/></g><g class="cls-11"><path class="cls-6" d="M389.63,333.01c-.68,0-1.36-.26-1.88-.78-82.42-82.1-121.88-158.47-122.27-159.23-.67-1.31-.15-2.92,1.16-3.58,1.31-.66,2.92-.15,3.59,1.16.39.76,39.5,76.42,121.28,157.88,1.04,1.04,1.05,2.73,0,3.77-.52.52-1.2.79-1.89.79Z"/><path class="cls-6" d="M372.59,388.06c-.6,0-1.2-.2-1.7-.61-98.07-81.07-163.31-205.74-163.96-206.99-.68-1.31-.17-2.92,1.14-3.59,1.31-.68,2.92-.17,3.59,1.14.64,1.24,65.41,124.97,162.62,205.33,1.13.94,1.29,2.62.36,3.75-.53.64-1.29.97-2.06.97Z"/><path class="cls-6" d="M355.59,451.5c-.59,0-1.18-.19-1.67-.59-125.76-101.14-200.98-240.91-201.72-242.31-.69-1.3-.2-2.91,1.1-3.6,1.29-.69,2.91-.2,3.6,1.1.74,1.39,75.48,140.22,200.36,240.66,1.15.92,1.33,2.6.41,3.75-.53.65-1.3,1-2.08,1Z"/><path class="cls-6" d="M320.59,500.93c-.59,0-1.18-.19-1.67-.59-125.76-101.14-200.98-240.91-201.72-242.31-.69-1.3-.2-2.91,1.1-3.6,1.3-.69,2.91-.2,3.6,1.1.74,1.39,75.48,140.22,200.36,240.66,1.15.92,1.33,2.6.41,3.75-.53.65-1.3,1-2.08,1Z"/><path class="cls-6" d="M285.31,546.34c-.59,0-1.18-.19-1.67-.59-125.76-101.14-200.98-240.91-201.72-242.31-.69-1.3-.2-2.91,1.1-3.6,1.29-.69,2.91-.2,3.6,1.1.74,1.39,75.48,140.22,200.36,240.66,1.15.92,1.33,2.6.41,3.75-.53.65-1.3,1-2.08,1Z"/><path class="cls-6" d="M117.67,260.14c-1.18,0-2.26-.79-2.57-1.98-.38-1.42.47-2.88,1.89-3.26,111.56-29.66,183.26-75.63,183.98-76.09,1.24-.8,2.89-.44,3.69.79.8,1.24.45,2.89-.79,3.69-.72.46-73.08,46.87-185.51,76.77-.23.06-.46.09-.69.09Z"/><path class="cls-6" d="M104.9,316.33c-1.28,0-2.41-.92-2.62-2.22-.25-1.45.73-2.83,2.18-3.07,124.37-20.99,242.33-95.76,243.5-96.51,1.24-.79,2.89-.43,3.68.81.79,1.24.43,2.89-.81,3.68-1.18.76-120.02,76.1-245.49,97.28-.15.03-.3.04-.45.04Z"/><path class="cls-6" d="M87.9,379.78c-1.29,0-2.43-.94-2.63-2.26-.22-1.46.77-2.82,2.23-3.04,158.37-24.54,292.51-107.4,293.85-108.24,1.25-.78,2.89-.4,3.67.85.78,1.25.4,2.89-.85,3.67-1.34.84-136.37,84.27-295.85,108.99-.14.02-.28.03-.41.03Z"/><path class="cls-6" d="M93.5,440.08c-1.29,0-2.43-.94-2.63-2.26-.22-1.45.77-2.82,2.23-3.04,158.37-24.54,292.51-107.4,293.85-108.24,1.25-.78,2.89-.4,3.67.85.78,1.25.4,2.89-.85,3.67-1.34.84-136.37,84.27-295.85,108.99-.14.02-.28.03-.41.03Z"/><path class="cls-6" d="M101.34,497.04c-1.29,0-2.43-.94-2.63-2.26-.22-1.46.77-2.82,2.23-3.04,158.41-24.55,292.51-107.4,293.85-108.24,1.24-.77,2.89-.4,3.67.85.78,1.25.4,2.89-.85,3.67-1.34.84-136.37,84.27-295.85,108.99-.14.02-.28.03-.41.03Z"/></g><g class="cls-9"><path class="cls-2" d="M190.3,466.12c-8.63-2.31-16.71-5.09-24.26-8.32-31.92-18.05-51.43-45.16-58.15-77.42,5.5,18.54,17.29,36.3,58.58,48.02,97.98,27.81,165.82-56,165.63-164.39-.04-19.33-2.87-36.04-7.56-50.46,18.99,21.4,35.47,53.6,35.56,100.98.18,111.89-68.25,178.8-169.79,151.59Z"/></g><g class="cls-1"><path class="cls-7" d="M140.9,270.83c28.99-50.02,67.84-68.25,98.62-74.2,33.65-6.49,68.23,2.77,94.13,25.22,10.24,8.88,20.64,20.51,29.15,35.52-9.34-21.7-22.7-37.57-35.81-48.94-25.89-22.45-60.48-31.72-94.13-25.22-30.78,5.94-69.63,24.18-98.62,74.2-33.85,58.4-37.84,115.09-13.42,156.86-16.6-40.1-10.27-91.08,20.08-143.45Z"/></g><path class="cls-2" d="M249.16,485.7c-14.37,0-29.5-2.09-45.21-6.3h0c-46.99-12.59-79.98-38.97-95.4-76.29-17.63-42.65-10.34-95.46,20.51-148.7,30.88-53.29,72.88-71.33,102.67-77.08,35.62-6.88,71.78,2.81,99.19,26.58,22.93,19.87,50.28,56.49,50.38,118.09.1,61.53-20,110.91-56.59,139.03-21.31,16.38-46.94,24.67-75.55,24.67ZM207.05,467.81c43.25,11.59,81.41,5.96,110.35-16.29,33.56-25.8,51.99-71.79,51.9-129.5-.09-57.08-25.2-90.8-46.24-109.04-24.61-21.34-57.07-30.04-89.06-23.87-27.35,5.28-65.95,21.93-94.57,71.31-28.94,49.94-35.97,98.98-19.8,138.11,13.94,33.74,44.18,57.69,87.42,69.28h0Z"/></svg>