<?xml version="1.0" encoding="UTF-8"?><svg id="Layer_1" xmlns="http://www.w3.org/2000/svg" viewBox="0 0 512 512"><defs><style>.cls-1{opacity:.6;}.cls-2{fill:#000072;}.cls-2,.cls-3,.cls-4,.cls-5,.cls-6,.cls-7,.cls-8{stroke-width:0px;}.cls-9{opacity:.35;}.cls-3{fill:#1d995b;}.cls-4{fill:#52d2ff;}.cls-5{fill:#ffdb43;}.cls-6{fill:#ffb339;}.cls-7{fill:#fff;}.cls-8{fill:#2dd370;}</style></defs><circle class="cls-4" cx="263.41" cy="268.86" r="186.62"/><path class="cls-5" d="M232.15,409.27c-126.76,8.96-170.59-66.98-177.95-81.93-.84-1.7-1.27-3.58-1.19-5.51.18-6.37,2.08-21.04,15.58-24.52,2.44-.63,5.03-.38,7.36.58,11.37,4.64,55.33,19.92,113.28,4.21,13.12-3.55,26.96-8.68,41.27-15.89,74.65-37.51,95.84-111.32,100.59-133.13,2.31-10.58,10.38-19.24,20.99-21.5.66-.15,1.35-.28,2.06-.38,0,0,10.91-35.84,4.62-69.44-.99-5.28,2.97-10.15,8.33-10.28,1.83-.05,3.81-.05,5.91-.03,10.08.18,22.39,1.57,29.7,6.62,14.04,9.64,5.13,22.46,5.13,22.46l-9.04,47.79s1.37.41,3.6,1.55c9.16,4.59,32.92,21.09,36.19,69.47,4.09,60.18-71.07,200.31-206.43,209.91Z"/><path class="cls-6" d="M369.7,112.96c-.05-.03-.1-.05-.16-.08.05.03.1.05.16.08Z"/><path class="cls-6" d="M369.53,112.88c-.26-.13-.45-.23-.51-.26.09.04.31.16.51.26Z"/><path class="cls-6" d="M369.89,113.06c-.09-.04-.13-.06-.2-.1.11.06.2.1.2.1Z"/><path class="cls-6" d="M225.22,394.49c-108.13,7.64-155.92-46.5-172.19-71.86-.03-.25-.03-.53-.03-.81.08-2.87.53-7.41,2.21-11.85,16.29,24.34,61.09,72.01,159.29,65.08,126.25-8.96,196.05-139.6,192.52-195.77-2.16-34.19-26.8-40.28-26.8-40.28v-.05c9.47-.46,17.08-4.95,22.16-9.06,5.1,2.56,14.77,8.83,22.87,22.29,3.17,8.76,5.51,19.44,6.4,32.41,4.09,60.18-71.07,200.31-206.43,209.91Z"/><path class="cls-8" d="M407.81,80.55l-9.04,47.79s1.37.41,3.6,1.55c-5.08,4.11-12.69,8.6-22.16,9.06-1.04.08-2.11.08-3.17.03-19.44-.89-22.92-7.77-22.92-7.77,0,0,10.91-35.84,4.62-69.44-.99-5.28,2.97-10.15,8.33-10.28,3.25-.08,7.01-.05,10.91.18,2.23.13,4.49.33,6.75.63,1.12.15,2.23.33,3.35.51,1.07.2,2.11.41,3.12.66,1.57.36,3.12.79,4.57,1.27.58.2,1.14.41,1.7.63.13.05.28.1.43.18.53.2,1.04.43,1.55.69.53.25,1.04.53,1.55.81.58.33,1.14.69,1.68,1.04,1.02.71,1.93,1.42,2.72,2.18.3.25.56.51.81.79.25.25.51.53.74.79.71.81,1.29,1.62,1.75,2.44.15.25.3.53.43.81.18.33.3.66.46.96.08.2.15.43.23.63,2.56,7.28-2.01,13.86-2.01,13.86Z"/><path class="cls-3" d="M407.81,80.55l-9.04,47.79s1.37.41,3.6,1.55c-5.08,4.11-12.69,8.6-22.16,9.06l11.78-67.13s-7.67-12.01-14.01-20.15c2.21.13,4.49.33,6.75.63,1.12.15,2.23.33,3.35.51,1.07.2,2.11.41,3.12.66,1.57.36,3.12.79,4.57,1.27.58.2,1.14.41,1.7.63.13.05.28.1.43.18.53.2,1.04.43,1.55.69.53.25,1.04.53,1.55.81.58.33,1.14.69,1.68,1.04,1.02.71,1.93,1.42,2.72,2.18.3.25.56.51.81.79.25.25.51.53.74.79.71.81,1.29,1.62,1.75,2.44.15.25.3.53.43.81.18.33.3.66.46.96.08.2.15.43.23.63,2.56,7.28-2.01,13.86-2.01,13.86Z"/><g class="cls-1"><path class="cls-7" d="M367.2,137.83c-16.85,1.55-21.8,16.75-21.8,16.75-60.62,204.91-231.04,152.95-231.04,152.95,62.31,6.57,101.82-14.11,116.14-21.32,74.65-37.51,95.84-111.32,100.59-133.13,2.31-10.58,10.38-19.24,20.99-21.5.66-.15,1.35-.28,2.06-.38,0,0,10.91-35.84,4.62-69.44-.99-5.28,2.97-10.15,8.33-10.28,1.83-.05,3.81-.05,5.91-.03,7.13,37.64-5.79,86.37-5.79,86.37Z"/></g><g class="cls-9"><path class="cls-7" d="M295.91,265.32c22.76-25.87,43.98-53.41,53.82-86.78.69-2.27,1.41-4.57,2.27-6.89.31-.93,1.8-.78,1.88.21,4.3,29.71-10.7,59.52-32.36,79.14-7.31,6.52-15.37,12.21-24.54,15.92-.94.4-1.82-.88-1.07-1.6h0Z"/></g><path class="cls-6" d="M67.4,309.25c41.15,34.06,100.51,37.82,151.78,32.9,62.42-7.01,110.11-55.65,142.56-106.29,0,0,6.26-9.77,6.26-9.77,1.61-2.41,4.35-7.53,6.5-9.59-2.22,2.34-4.13,7.17-5.86,9.97,0,0-5.63,10.18-5.63,10.18-27.05,46.9-66.62,90.12-120,106.21-30.23,8.41-62.3,8.72-93.39,5.69-23.41-2.65-46.77-8.91-67.64-20.22-7.01-3.91-13.6-8.02-19.89-13.87-1.5-1.4-1.58-3.74-.19-5.24,1.49-1.61,4.03-1.55,5.5.06h0Z"/><path class="cls-2" d="M362.78,52.74s-6.3,14.31,8.18,19.97c14.48,5.65,14.02.9,23.52,4.98,5.49,2.35,8.14,11.25,13.34,2.86,8.14-13.12-.23-25.74-27.14-29.12-26.91-3.38-17.9,1.31-17.9,1.31Z"/><path class="cls-2" d="M398.4,67.93l-15.12,53.64,6.53-55.21c.74-6.26,10.11-4.55,8.59,1.57h0Z"/><path class="cls-2" d="M53.26,328.96s13.15,4.32,21.43-2.86c9.27-8.03,17.5-21.69-.18-27.4-17.67-5.71-23.88,23.72-21.25,30.26Z"/><path class="cls-2" d="M211.77,415.7c-114.33,0-155.33-70.89-162.7-85.84-1.27-2.58-1.87-5.33-1.79-8.19.46-15.87,7.71-26.76,19.88-29.89h0c3.61-.93,7.4-.65,10.96.82,11.66,4.79,73.67,26.78,149.81-11.48,72.34-36.35,92.98-108.11,97.58-129.24,2.74-12.59,12.1-22.48,24.04-25.56,2.38-9.36,8.47-37.39,3.57-63.49-.78-4.17.3-8.44,2.96-11.73,2.66-3.29,6.62-5.23,10.85-5.33,12.33-.29,29.07.79,38.99,7.62,5.64,3.88,9.03,8.72,10.06,14.38,1.24,6.77-1.38,12.47-2.76,14.88l-8,42.28c10.7,5.43,35.62,23.42,39.04,74.06,4.13,61.1-71.56,206.05-211.71,215.97-7.18.51-14.12.75-20.79.75ZM71.37,302.68c-.47,0-.93.06-1.37.17h0c-9.42,2.42-11.13,13.04-11.31,19.16-.03.97.18,1.92.62,2.82,7.23,14.67,49.48,87.45,172.43,78.74,57.43-4.07,111.22-33.85,151.45-83.86,36.63-45.53,51.43-94.1,49.68-119.95-3.73-55.05-34.5-65.53-35.81-65.95-2.75-.88-4.45-3.68-3.91-6.51l9.05-47.8c.15-.79.46-1.54.92-2.19,1.25-1.89,4.79-8.68-3.67-14.51-5.77-3.97-17.2-5.98-32.24-5.61-1.2.03-1.92.7-2.25,1.1-.32.4-.83,1.25-.61,2.44,6.49,34.56-4.29,70.64-4.75,72.15-.64,2.11-2.44,3.66-4.61,3.98-.59.09-1.17.19-1.73.31-8.19,1.74-14.7,8.46-16.59,17.14-4.88,22.38-26.76,98.39-103.61,137.01-80.57,40.49-146.82,16.97-159.28,11.84-.79-.32-1.61-.49-2.41-.49ZM68.59,297.31h.04-.04Z"/></svg>