<?xml version="1.0" encoding="UTF-8"?><svg id="Layer_1" xmlns="http://www.w3.org/2000/svg" viewBox="0 0 512 512"><defs><style>.cls-1{fill:#ff8327;}.cls-1,.cls-2,.cls-3,.cls-4,.cls-5,.cls-6{stroke-width:0px;}.cls-7{opacity:.6;}.cls-2{fill:#000072;}.cls-8{opacity:.2;}.cls-3{fill:#ffd553;}.cls-4{fill:#2fdd54;}.cls-9{opacity:.15;}.cls-5{fill:#b76e51;}.cls-6{fill:#fff;}</style></defs><circle class="cls-3" cx="248.41" cy="264.97" r="183.64"/><path class="cls-4" d="M442.6,167.4s-73.66,7.07-141.84-64.87l-.02-.03c-.8-.87-1.63-1.74-2.43-2.6,0,0,5.88-2.64,16.1-4.37,15.91-2.67,42.28-3.15,73.09,12.06,38.15,18.83,50.1,43.26,53.65,54.14.34,1.03.61,1.96.83,2.73.49,1.87.62,2.94.62,2.94Z"/><g class="cls-9"><path class="cls-2" d="M442.6,167.4s-73.66,7.07-141.84-64.87l-.02-.03c-.8-.87-1.63-1.74-2.43-2.6,0,0,5.88-2.64,16.1-4.37,0,0,52.88,51.97,127.56,68.93.49,1.87.62,2.94.62,2.94Z"/></g><g class="cls-7"><path class="cls-6" d="M441.15,161.74c-47.51-68.82-132.11-53.99-132.11-53.99-3.57-1.95-6.27-3.68-8.28-5.21l-.02-.03c-.8-.87-1.63-1.74-2.43-2.6,0,0,38.58-17.27,89.19,7.69,38.15,18.83,50.1,43.26,53.65,54.14Z"/></g><path class="cls-2" d="M298.59,95.21c19.56,2.47,37.65,9.41,55.58,17,17.21,7.6,35.52,16.86,50.24,27.35,0,0-12.99-5.88-12.99-5.88-21.43-9.4-43.68-18.51-66.35-24.21-8.83-2.1-18.42-4.32-27.28-4.91-6.26-.5-5.52-9.92.79-9.36h0Z"/><path class="cls-2" d="M436.44,172.33c-20.25,0-82.96-5.6-141.57-69.25-1.02-1.11-1.45-2.65-1.15-4.13.31-1.48,1.3-2.72,2.68-3.34,1.65-.75,41.19-17.87,93.17,7.77,52.25,25.77,57.49,61.9,57.69,63.42.16,1.26-.19,2.54-.99,3.53-.79.99-1.96,1.63-3.22,1.75-.5.05-2.81.25-6.61.25ZM306.82,102.03c54.26,55.48,111.87,60.67,129.74,60.84-3.47-10.13-15.01-33.25-51.14-51.07-36.01-17.76-65.88-13.18-78.6-9.77Z"/><path class="cls-5" d="M283.06,127.73s5.73-27.08,1.73-48.54l16.41-10.68s4.64,34.41-18.14,59.22Z"/><path class="cls-2" d="M283.06,132.43c-.73,0-1.47-.17-2.15-.52-1.88-.97-2.88-3.07-2.45-5.15.06-.26,5.49-26.45,1.71-46.71-.35-1.87.46-3.76,2.05-4.8l16.41-10.68c1.35-.88,3.06-1,4.52-.33,1.46.67,2.48,2.05,2.7,3.64.2,1.49,4.66,36.89-19.33,63.02-.91.99-2.18,1.52-3.46,1.52ZM289.92,81.45c1.28,8.87,1.16,18.3.55,26.38,5.21-11.77,6.33-23.5,6.41-30.91l-6.96,4.53Z"/><circle class="cls-1" cx="248.41" cy="264.97" r="147.3" transform="translate(-114.6 253.26) rotate(-45)"/><g class="cls-9"><path class="cls-2" d="M372.4,308.08c-15.63,54.5-60,93-111.95,103.73-17.24,1.43-35.02-.2-52.64-5.25-48.25-13.83-83.93-50.22-98.94-94.4,16.19,17.15,37.03,30.32,61.33,37.29,72.13,20.68,147.37-21.03,168.05-93.16,9.83-34.28,5.54-69.26-9.4-98.75,40.86,36.48,59.65,94.38,43.54,150.55Z"/></g><g class="cls-7"><path class="cls-6" d="M110.63,239.4c22.42-78.2,103.99-123.42,182.19-101,49.53,14.2,85.79,52.13,100.06,97.9-10.44-52.36-49.02-97.2-103.88-112.92-78.2-22.42-159.77,22.8-182.19,101-8.22,28.68-7.32,57.79.94,84.29-4.44-22.28-3.82-45.92,2.87-69.27Z"/></g><g class="cls-8"><path class="cls-6" d="M264.44,152.4c-41.63-12.09-89.14,18.9-106.78,40.99-8.87,10.2-3.8,20.2,6.8,17.95,34.28-7.2,68.09-26.2,93.82-37.88,11.44-5.41,16.19-18.01,6.16-21.06Z"/></g><path class="cls-2" d="M248.63,417.62c-14.12,0-28.32-1.98-42.27-5.98-39.18-11.23-71.64-37.05-91.4-72.69-19.76-35.65-24.46-76.85-13.23-116.03,11.23-39.18,37.05-71.64,72.69-91.4,35.65-19.76,76.86-24.46,116.03-13.23,80.88,23.19,127.81,107.85,104.63,188.72-11.23,39.18-37.05,71.64-72.69,91.4-22.96,12.73-48.22,19.2-73.76,19.2ZM248.2,122.88c-23.77,0-47.29,6.03-68.65,17.88-33.18,18.39-57.2,48.6-67.66,85.07-10.46,36.47-6.08,74.82,12.31,108,18.39,33.18,48.6,57.21,85.07,67.66,36.47,10.46,74.82,6.08,108-12.31,33.18-18.39,57.2-48.6,67.66-85.07h0c21.58-75.28-22.1-154.08-97.38-175.66-12.98-3.72-26.2-5.56-39.34-5.56Z"/></svg>