<?xml version="1.0" encoding="UTF-8"?><svg id="Layer_1" xmlns="http://www.w3.org/2000/svg" viewBox="0 0 512 512"><defs><style>.cls-1{opacity:.5;}.cls-2{opacity:.6;}.cls-3{fill:#000072;}.cls-3,.cls-4,.cls-5,.cls-6,.cls-7,.cls-8,.cls-9,.cls-10{stroke-width:0px;}.cls-4{fill:#a5613f;}.cls-11{opacity:.8;}.cls-12{opacity:.15;}.cls-5{fill:#fffda4;}.cls-6{fill:#b76e51;}.cls-7{fill:#2fd384;}.cls-8{fill:#27aa46;}.cls-9{fill:#fff;}.cls-10{fill:#5efca1;}</style></defs><circle class="cls-10" cx="245" cy="276.52" r="186.99"/><path class="cls-6" d="M286.33,95.14s5.63-37.19-.44-66.25c0,0,13.75-4.98,21.58,4.05,0,0-2.65,40.59-21.14,62.2Z"/><path class="cls-3" d="M286.33,100.42c-.74,0-1.49-.16-2.19-.48-2.14-.98-3.38-3.26-3.03-5.59.05-.36,5.41-36.61-.39-64.38-.54-2.57.9-5.15,3.37-6.05.7-.25,17.28-6.08,27.37,5.56.91,1.05,1.37,2.42,1.28,3.81-.11,1.73-2.98,42.6-22.4,65.29-1.03,1.2-2.51,1.85-4.01,1.85ZM292.01,32.95c2.11,12.99,2.25,26.86,1.76,38.28,5.59-14.8,7.61-30.36,8.21-36.21-3.03-2.26-6.99-2.4-9.98-2.06Z"/><path class="cls-7" d="M294.42,89.6c-1.01-.42-2.05-.87-3.1-1.32-1.11-.49,15.05-43.83,69.26-23.54.96.33,1.92.71,2.91,1.12,0,0-9.81,47.95-69.07,23.74Z"/><g class="cls-12"><path class="cls-3" d="M294.42,89.6c3.25-6.42,6.7-11.94,6.7-11.94,0,0,32.77,21.49,59.46-12.92.96.33,1.92.71,2.91,1.12,0,0-9.81,47.95-69.07,23.74Z"/></g><g class="cls-2"><path class="cls-9" d="M328.32,68.69c8.63,2.31,15.84,2.05,20.08,1.51,1.55-.2,1.26-1.76-.41-2.21-10.01-2.71-17.03-1.37-20.04-.47-.67.2-.44.95.37,1.17Z"/></g><path class="cls-3" d="M288.24,84c14.27-8.51,30.76-13.11,47.25-12.8-14.57,5.19-28.94,12.14-41.19,21.46-5.85,4.3-12.11-4.63-6.06-8.66h0Z"/><path class="cls-3" d="M324.58,101.72c-10.48,0-22.3-2.87-35.37-8.6,0,0,0,0,0,0-3.4-1.5-4.05-4.8-1.94-9.8,7.25-17.15,31.88-41.16,78.2-22.35,2.36.96,3.7,3.46,3.19,5.95-.17.83-4.36,20.4-22.66,29.88-6.34,3.29-13.5,4.93-21.42,4.93ZM298,85.34c17.81,6.99,32.3,7.7,43.15,2.08,9.31-4.82,13.84-13.29,15.82-18.38-16.79-5.94-31.11-5.91-42.62.06-8.89,4.62-14.02,11.87-16.35,16.24ZM293.46,83.45s0,0,0,0c0,0,0,0,0,0h0Z"/><path class="cls-8" d="M359.25,385.57c-18.23,70.2-81.78,99.37-166.8,76.59-85-22.77-125.45-79.82-106.15-149.73,1.75-6.36,3.73-12.37,5.88-18.06,10.25-27.27,24.33-47.25,36.24-60.68,15.08-16.99,27.27-36.3,36.19-57.22,13.89-32.62,30.39-54.47,46.92-69.07,35.18-31.07,86.11-27.56,117.77,1.15,10.58,9.59,19.02,21.99,24.01,36.84,7.01,20.91,10.4,48.09,6.12,83.28-2.74,22.57-1.83,45.4,2.73,67.65,4.34,21.26,6.67,52.39-2.91,89.25Z"/><path class="cls-5" d="M343.35,381.43c-6.93,26.68-20.97,46.35-41.71,58.44-22.95,13.37-53.13,16.85-88.02,10.27-.05.01-.1,0-.14-.01-5.46-1.03-11.07-2.31-16.76-3.84-42.07-11.27-72.38-31.33-87.63-58.02-11.79-20.59-14.21-44.3-7.2-70.45l.27-1.02c9.53-34.49,26.24-58.3,38.57-72.18,16.26-18.32,29.38-39.09,39.01-61.69,11.54-27.12,25.92-48.4,42.7-63.2,17.9-15.82,42.52-21.52,65.87-15.26,18.16,4.87,33.38,16.38,42.83,31.92,1.65,2.73,3.12,5.58,4.42,8.55.82,1.85,1.55,3.74,2.19,5.69.93,2.78,1.77,5.65,2.51,8.6,5,19.42,5.94,42.06,2.87,67.49-2.96,24.39-1.98,48.93,2.94,72.93.2.98.39,1.98.58,3,0,.02-.01.05,0,.07,3.39,18.29,5.21,45.97-3.3,78.72Z"/><g class="cls-12"><path class="cls-3" d="M341.59,372.28c-15.03,57.81-62.7,86.06-127.98,77.86-.05.01-.1,0-.14-.01-9.29-1.18-18.91-3.07-28.87-5.74-58.92-15.79-95.07-49.03-102.83-91.75-.8-12.78.66-26.24,4.53-40.2,1.75-6.36,3.73-12.37,5.88-18.06,2.37,7.39,5.57,15.4,9.69,23.45,9.96,19.51,25.33,39.43,47.61,52.11,9.55,22.78,29.17,41.09,54.84,47.97,44.06,11.81,89.49-14.42,101.3-58.46,4.07-15.19,3.62-30.56-.53-44.65,26.67-56.83,27.88-135.18,26.05-178.4,0-.61-.04-1.23-.07-1.84,1.69,3.3,3.2,6.76,4.48,10.39.15.43.3.86.46,1.29,1.38,4.11,2.84,8.44,4.25,13,5,19.42,5.94,42.06,2.87,67.49-2.96,24.39-1.98,48.93,2.94,72.93.2.98.39,1.98.58,3,0,.02-.01.05,0,.07,2.19,18.67,1.98,42.48-5.05,69.57Z"/></g><g class="cls-11"><path class="cls-9" d="M197.35,184.2c5.42-20.31,21.17-57.98,64.73-69.92,6.72-1.84,11.09,6.93,5.53,11.12-18.46,13.93-45.44,36.33-65.1,61.35-1.98,2.52-5.99.53-5.17-2.56Z"/></g><path class="cls-3" d="M246.27,475.07c-17.23,0-35.72-2.59-55.17-7.81h0c-47.78-12.8-82.66-36.39-100.87-68.21-14.7-25.69-17.81-56.13-9.01-88.03,10.64-38.52,29.39-65.22,43.25-80.84,14.69-16.56,26.56-35.33,35.28-55.78,12.83-30.12,29.08-54,48.3-70.96,23.37-20.64,55.48-28.1,85.89-19.95,30.4,8.15,54.48,30.66,64.4,60.22,8.16,24.3,10.29,53.1,6.34,85.61-2.68,22.07-1.78,44.26,2.66,65.95,4.19,20.45,7.08,52.94-2.96,91.63-8.32,32.03-26.24,56.83-51.81,71.73-18.78,10.94-41.19,16.45-66.29,16.45ZM193.83,457.06c45,12.06,84.21,9.44,113.41-7.56,23.09-13.45,39.31-36.02,46.9-65.26,9.54-36.72,6.81-67.5,2.84-86.85-4.68-22.81-5.62-46.14-2.8-69.34,3.75-30.93,1.78-58.17-5.87-80.97-8.79-26.19-30.14-46.15-57.12-53.37-26.97-7.23-55.44-.63-76.16,17.66-18.03,15.92-33.36,38.52-45.57,67.18-9.16,21.5-21.64,41.24-37.09,58.65-13.11,14.78-30.87,40.07-40.96,76.64-8.04,29.12-5.28,56.78,7.99,79.97,16.78,29.32,49.43,51.2,94.43,63.25h0Z"/><circle class="cls-4" cx="225.73" cy="338.02" r="68.62"/><g class="cls-12"><path class="cls-3" d="M279.92,354.81c-8.99,33.56-43.5,53.48-77.04,44.5-14.36-3.85-26.24-12.38-34.39-23.51-7.63-11.52-11.74-25.31-11.36-39.6,7.98,9.96,19.08,17.58,32.35,21.14,33.11,8.87,67.13-10.79,76-43.88,1.34-5.01,2.01-10.06,2.11-15.04,12.54,15.15,17.81,35.96,12.33,56.39Z"/></g><g class="cls-1"><path class="cls-9" d="M178.95,315.89c6.5-24.48,36.87-39.6,60.22-29.7,1.71.69,2.53,2.64,1.83,4.34-.47,1.18-1.52,1.87-2.68,2.07-8.24,1.68-15.2,2.95-22.74,5.59-7.2,2.72-13.77,5.97-20.55,10.04-4.54,2.73-9.13,5.76-14.1,8.93-.88.73-2.28-.16-1.98-1.26h0Z"/></g><path class="cls-3" d="M225.71,411.34c-6.27,0-12.63-.81-18.96-2.51-39.05-10.46-62.31-50.74-51.84-89.79,10.46-39.05,50.74-62.3,89.79-51.84,39.05,10.46,62.31,50.74,51.84,89.79h0c-8.77,32.72-38.47,54.35-70.84,54.35ZM225.74,274.08c-28.22,0-54.12,18.86-61.76,47.39-9.12,34.05,11.15,69.17,45.2,78.29,34.05,9.12,69.17-11.15,78.29-45.2,9.12-34.05-11.16-69.17-45.2-78.29-5.52-1.48-11.07-2.19-16.53-2.19ZM292.01,355.78h.04-.04Z"/></svg>