<?xml version="1.0" encoding="UTF-8"?><svg id="Layer_1" xmlns="http://www.w3.org/2000/svg" viewBox="0 0 512 512"><defs><style>.cls-1{opacity:.6;}.cls-2{fill:#000072;}.cls-2,.cls-3,.cls-4,.cls-5,.cls-6,.cls-7,.cls-8{stroke-width:0px;}.cls-3{fill:#2fdd54;}.cls-9{opacity:.15;}.cls-4{fill:#52d2ff;}.cls-5{fill:#ffb339;}.cls-6{fill:#b76e51;}.cls-7{fill:#fff;}.cls-8{fill:#ffd93b;}</style></defs><circle class="cls-4" cx="248.31" cy="276.13" r="186.99"/><path class="cls-6" d="M291.68,115.44s7.32-54.68,2.91-94.22c0,0,7.88-8.91,15.29-4.27,2.61,1.63,4.09,4.58,4.26,7.65.66,12.3,1.32,54.51-16.87,92.43l-5.59-1.59Z"/><g class="cls-1"><path class="cls-7" d="M297.63,41.12s7.88-8.91,15.29-4.27c.53.33,1,.73,1.43,1.16.1-5.85-.06-10.48-.21-13.41-.16-3.08-1.65-6.02-4.26-7.65-7.41-4.63-15.29,4.27-15.29,4.27,4.41,39.54-2.91,94.22-2.91,94.22l5.03,1.43c1.78-19.44,3.71-50.64.91-75.75Z"/></g><path class="cls-2" d="M297.28,122.31c-.48,0-.97-.07-1.45-.2l-5.59-1.59c-2.52-.72-4.14-3.18-3.79-5.78.07-.54,7.18-54.51,2.9-92.93-.16-1.48.31-2.97,1.29-4.09,4.03-4.55,13.2-10.78,22.05-5.25,3.95,2.47,6.47,6.9,6.73,11.85.66,12.41,1.36,55.92-17.38,95-.9,1.87-2.77,3-4.76,3ZM300.12,23.28c2.55,26.12.44,57.42-1.35,76.22,11.22-32.29,10.64-64.45,10.1-74.62-.08-1.49-.76-2.82-1.78-3.46-2.25-1.41-5.18.41-6.96,1.86Z"/><path class="cls-8" d="M364.81,394.62c-23.68,71.96-100.5,113.44-173.7,93.92-77.89-20.77-123.39-101.23-101.4-178.47,8.1-28.47,24.22-52.5,45.22-70.29t.04-.04c3.01-2.27,5.88-4.53,8.6-6.73.06-.03.09-.07.12-.09,26.65-21.42,41.88-39.35,50.14-51,4.56-6.44,8-13.56,10.83-20.93,13.68-35.57,52.5-55.44,89.87-44.8,37.37,10.63,59.92,47.98,52.83,85.42-1.47,7.75-2.3,15.62-1.81,23.49.88,14.25,4.39,37.52,15.76,69.76.02.03.03.08.06.14,1.16,3.31,2.4,6.74,3.77,10.25t0,.05c9.06,27.96,9.64,59.01-.34,89.32Z"/><path class="cls-5" d="M349.27,396.22c-17.28,52.49-62.81,88.77-114.62,96.97-14.36.7-29.02-.79-43.54-4.65-55.43-14.78-94.42-59.78-104.4-112.37,16.34,30.06,44.49,53.65,80.29,63.18,65.73,17.54,134.74-19.72,156.02-84.36,8.95-27.23,8.41-55.12.28-80.23t0-.05c-1.23-3.16-2.33-6.23-3.38-9.21,0-.05-.03-.08-.04-.11-10.23-28.98-9.64-43.34-8.03-56.06,1.13-8.94,1.26-15.27,1.64-21.11,1.49-23.08-9.72-52-25.61-67.26,31.99,13.6,50.45,47.87,43.94,82.25-1.48,7.76-2.3,15.63-1.81,23.51.88,14.24,4.39,37.5,15.76,69.76.02.03.03.08.06.14,1.16,3.31,2.4,6.74,3.77,10.25t0,.05c9.06,27.94,9.64,59.01-.33,89.32Z"/><g class="cls-1"><path class="cls-7" d="M100.46,319.15c8.1-28.47,24.22-52.5,45.22-70.29t.04-.04c3.01-2.27,5.88-4.53,8.6-6.73.06-.03.09-.07.12-.09,26.65-21.42,41.88-39.35,50.14-51,4.56-6.44,8-13.56,10.83-20.93,13.68-35.57,52.5-55.44,89.87-44.8,8.1,2.31,15.51,5.87,22.06,10.42-8.76-8.96-19.91-15.83-32.82-19.5-37.36-10.63-76.18,9.23-89.87,44.8-2.83,7.37-6.27,14.49-10.83,20.93-8.25,11.65-23.49,29.58-50.14,51-.03.02-.06.05-.12.09-2.73,2.2-5.59,4.46-8.6,6.73t-.04.04c-21.01,17.8-37.12,41.82-45.22,70.29-16.67,58.57,5.48,118.97,51.11,153.81-38.24-35.67-55.65-90.96-40.35-144.72Z"/></g><g class="cls-1"><path class="cls-7" d="M192.17,250.1c-5.99,2.69-10.17-5.26-5.5-10.39,8.23-9.03,18.14-20.98,26.15-33.88,17-27.37,33.91-61.76,55.1-47.2,18.05,12.4-31.97,71.8-75.74,91.47Z"/></g><path class="cls-2" d="M228.2,498.7c-12.72,0-25.62-1.64-38.45-5.06-39-10.4-71.44-35.43-91.36-70.5-19.92-35.07-24.8-75.74-13.76-114.53,8.12-28.52,24.28-53.67,46.74-72.75.13-.12.28-.24.42-.35,2.96-2.23,5.78-4.45,8.46-6.62.08-.06.15-.12.23-.18,26.35-21.19,41.21-38.81,49.03-49.86,3.84-5.42,7.18-11.89,10.21-19.77,14.9-38.73,56.27-59.37,96.24-47.99,39.98,11.38,64.3,50.71,56.57,91.48-1.57,8.3-2.14,15.55-1.73,22.18.84,13.52,4.19,36.31,15.42,68.19.04.09.08.19.11.29,1.14,3.25,2.36,6.63,3.71,10.08.07.18.13.36.18.54,9.72,30.13,9.57,62.07-.41,92.41-20.52,62.35-78.71,102.43-141.63,102.43ZM138.34,243.8c-20.94,17.74-36,41.15-43.56,67.71-10.26,36.04-5.71,73.83,12.79,106.42,18.5,32.58,48.65,55.84,84.89,65.51,70.9,18.9,144.4-20.83,167.32-90.47,9.3-28.25,9.41-58.01.33-86.04h0c-1.33-3.44-2.55-6.79-3.69-10.04,0,0,0,0,0-.01-.04-.09-.07-.18-.1-.26-11.68-33.1-15.17-56.98-16.05-71.19-.46-7.52.15-15.63,1.89-24.8,6.71-35.37-14.39-69.48-49.08-79.36-34.68-9.87-70.57,8.03-83.49,41.62-3.35,8.71-7.1,15.94-11.45,22.09-8.23,11.61-23.78,30.07-51.14,52.07-.05.04-.1.08-.16.12-.02.02-.05.04-.07.05-2.68,2.16-5.48,4.37-8.43,6.59h0Z"/><path class="cls-3" d="M291.68,115.44c-37.75-24.9-56.02-.27-88.31-25.14-22.41-17.24-16.18-48.64-10.27-66.24,2.6-7.78,5.15-12.86,5.15-12.86,10.72,23.48,23.07,22.87,62.93,40.32,32.48,14.2,32.28,47.73,31.09,59.65-.25,2.69-.58,4.28-.58,4.28Z"/><g class="cls-9"><path class="cls-2" d="M291.68,115.44c-37.75-24.9-56.02-.27-88.31-25.14-22.41-17.24-16.18-48.64-10.27-66.24,1.25-1.13,2-1.8,2-1.8,0,0-9.23,50,40.99,57.78,48.18,7.47,48.26,17.84,56.17,31.12-.25,2.69-.58,4.28-.58,4.28Z"/></g><g class="cls-1"><path class="cls-7" d="M209.04,38.87c7.33,4.56,15.36,8.57,23.53,11.6,0,0,8.52,3.11,8.52,3.11,1.04.35,1.6,1.49,1.22,2.52-.3.81-1.07,1.31-1.89,1.28-9.66-.25-19.31-3.13-27.44-8.43-2.09-1.66-10.62-7.03-6.96-10.12.92-.71,2.13-.61,3.01.03h0Z"/></g><path class="cls-2" d="M287.03,117.93c-11.62-18.62-29.11-34.44-48.33-45.34-6.52-4-13.53-7.15-20.6-10.5-.57-.25-.28-1.21.35-1.06,7.76,1.35,15.47,3.31,22.82,6.25,22.48,9.16,42.49,24.45,55.08,45.67,3.35,6.24-5.94,11.25-9.32,4.98h0Z"/><path class="cls-2" d="M291.68,120.72c-1.02,0-2.03-.29-2.91-.87-17.56-11.58-30.07-11.64-43.32-11.71-13.64-.07-27.75-.13-45.31-13.65-35.34-27.21-7.8-83.28-6.61-85.65.91-1.82,2.81-2.91,4.82-2.92,2.03.04,3.87,1.24,4.71,3.09,7.44,16.32,14.94,19.3,37.2,28.15,6.59,2.62,14.05,5.59,23.03,9.51,43.25,18.92,33.67,69.3,33.57,69.81-.35,1.72-1.53,3.16-3.15,3.84-.65.27-1.34.4-2.03.4ZM198.97,23.32c-5.66,15.8-13.13,46.82,7.62,62.8,14.73,11.34,25.94,11.4,38.92,11.46,11.88.06,25.14.12,41.83,9.11.6-12.98-1.81-38.75-28.28-50.33-8.81-3.86-16.19-6.79-22.7-9.38-18.19-7.23-29.03-11.54-37.39-23.66Z"/></svg>