<?xml version="1.0" encoding="UTF-8"?><svg id="Layer_1" xmlns="http://www.w3.org/2000/svg" viewBox="0 0 512 512"><defs><style>.cls-1{opacity:.7;}.cls-2{fill:#ffa5d5;}.cls-2,.cls-3,.cls-4,.cls-5,.cls-6,.cls-7{stroke-width:0px;}.cls-8{opacity:.6;}.cls-3{fill:#000072;}.cls-9{opacity:.2;}.cls-4{fill:#2fdd54;}.cls-10{opacity:.15;}.cls-11{opacity:.45;}.cls-5{fill:#ff395a;}.cls-6{fill:#fff;}.cls-7{fill:#23b55e;}</style></defs><circle class="cls-2" cx="264.78" cy="268.11" r="189.78"/><circle class="cls-5" cx="314.03" cy="399.61" r="97.93"/><g class="cls-10"><path class="cls-3" d="M401.34,404.49c-10.35,53.08-61.79,87.73-114.87,77.38-24.48-4.77-45.02-18.28-59.07-36.66-5.91-11.22-9.69-23.61-10.88-36.55,12.97,14.91,30.82,25.79,51.75,29.88,49.92,9.73,98.26-22.85,107.99-72.75,2.91-14.94,2.02-29.7-1.96-43.37,6.7,5.24,12.65,11.32,17.74,18.05,9.95,18.98,13.71,41.35,9.29,64.02Z"/></g><g class="cls-8"><path class="cls-6" d="M276.31,361.44c-12.39,10.57-20.57,24.86-28.01,25.17-7.58,1.01-10.55-23.86,11.04-43.75,21.77-19.69,46.27-14.49,44.58-7.03-.98,7.38-15.96,14.23-27.61,25.61Z"/></g><path class="cls-3" d="M314.25,503.52c-6.68,0-13.4-.65-20.1-1.95-27.24-5.31-50.77-20.91-66.27-43.92-15.5-23.01-21.11-50.69-15.8-77.92,10.96-56.22,65.61-93.03,121.84-82.07,56.22,10.96,93.04,65.62,82.07,121.84h0c-5.31,27.23-20.91,50.77-43.92,66.27-17.35,11.69-37.36,17.75-57.82,17.75ZM313.84,307.59c-18.12,0-35.83,5.37-51.2,15.72-20.38,13.73-34.19,34.57-38.9,58.69-4.7,24.12.27,48.62,13.99,69,13.73,20.38,34.57,34.19,58.69,38.89,49.79,9.7,98.18-22.9,107.9-72.68h0c9.71-49.79-22.9-98.19-72.68-107.9-5.93-1.16-11.89-1.73-17.8-1.73ZM410.15,418.35h.04-.04Z"/><circle class="cls-5" cx="153.72" cy="380.5" r="97.93" transform="translate(-224.03 220.14) rotate(-45)"/><g class="cls-10"><path class="cls-3" d="M241.03,385.38c-10.35,53.08-61.79,87.73-114.87,77.38-24.48-4.77-45.02-18.28-59.07-36.66-5.91-11.22-9.69-23.61-10.88-36.55,12.97,14.91,30.82,25.79,51.75,29.88,49.92,9.73,98.26-22.85,107.99-72.75,2.91-14.94,2.02-29.7-1.96-43.37,6.7,5.24,12.65,11.32,17.74,18.05,9.95,18.98,13.71,41.35,9.29,64.02Z"/></g><g class="cls-8"><path class="cls-6" d="M116.01,342.33c-12.39,10.57-20.57,24.86-28.01,25.17-7.58,1.01-10.55-23.86,11.04-43.75,21.77-19.69,46.27-14.49,44.58-7.03-.98,7.38-15.96,14.23-27.61,25.61Z"/></g><path class="cls-3" d="M153.94,484.41c-6.68,0-13.4-.65-20.1-1.95-27.23-5.31-50.77-20.91-66.27-43.92-15.5-23.01-21.11-50.69-15.8-77.92,5.31-27.24,20.91-50.77,43.92-66.27,23.02-15.5,50.69-21.12,77.92-15.8,56.22,10.96,93.03,65.62,82.07,121.84h0c-5.31,27.23-20.91,50.77-43.92,66.27-17.35,11.69-37.36,17.75-57.82,17.75ZM153.53,288.48c-18.12,0-35.84,5.37-51.2,15.72-20.38,13.73-34.19,34.57-38.89,58.69-4.7,24.12.27,48.62,13.99,69,13.73,20.38,34.57,34.19,58.69,38.89,24.12,4.71,48.62-.26,69-13.99,20.38-13.73,34.19-34.57,38.89-58.69h0c9.71-49.78-22.9-98.19-72.68-107.9-5.93-1.16-11.89-1.73-17.8-1.73Z"/><path class="cls-4" d="M119.26,77.67s96.5,85.63,201.09-1.41c1.13-.93,2.25-1.87,3.37-2.85.15-.13.31-.26.46-.38.04-.04.08-.08.12-.11,0,0-.02-.03-.05-.09-.17-.31-.73-1.29-1.74-2.82l-.03-.06c-7.19-10.97-36.02-48.67-94.44-52.21-21.37-1.3-40,4.07-55.51,12.07,0,0,0,.02-.03.01-2.47,1.27-4.81,2.6-7.12,3.97-29.69,17.82-46.11,43.9-46.11,43.9Z"/><g class="cls-9"><path class="cls-3" d="M119.26,77.67s98.58,87.47,204.46-4.27l-1.21-3.41-.03-.06c-1.96,1.1-77.37,44.55-180.48,3.4,0,0,3.63-21.72,30.49-43.54-34.18,17.59-53.23,47.87-53.23,47.87Z"/></g><g class="cls-11"><path class="cls-6" d="M165.37,33.77c1.24-.37,2.51-.75,3.79-1.15,86.31-26.83,141.1,31.68,151.19,43.64,1.11,1.31,1.69,2.07,1.69,2.07,0,0,.83-2.04,2.14-5.31l.07-.21c-.17-.31-.73-1.29-1.74-2.82l-.03-.06c-7.19-10.97-36.02-48.67-94.44-52.21-21.37-1.3-40,4.07-55.51,12.07,0,0,0,.02-.03.01-2.47,1.27-4.81,2.6-7.12,3.97Z"/></g><path class="cls-3" d="M321.98,78.06c-48.82-20.18-104.16-23.84-155.68-12.21-1.53.41-2.38-1.97-.77-2.53,25.54-9.71,53.24-13.45,80.52-12.26,27.71,1.01,54.66,6.22,80.62,16.67,2.9,1.18,4.29,4.49,3.11,7.39-1.23,3.06-4.84,4.39-7.79,2.94h0Z"/><g class="cls-1"><path class="cls-6" d="M207.31,35.23c26.1-9.62,47.52-1.62,60.14,5.96,2.36,1.42.82,5.89-1.81,5.24-23.39-5.74-44.68-6.24-57.99-5.72-2.68.11-2.97-4.52-.35-5.48Z"/></g><path class="cls-3" d="M221.19,120.75c-60.85,0-105.02-38.25-105.69-38.84-2.08-1.84-2.51-4.92-1.04-7.26,1.72-2.73,42.9-66.93,113.92-62.58,70.76,4.28,99.72,55.92,100.92,58.11,1.27,2.34.75,5.24-1.25,6.99-37.64,32.82-74.59,43.58-106.86,43.58ZM126.92,76.62c18.8,14.64,100.76,69.57,190-4.87-7.85-11.61-35.02-45.08-89.23-48.36-54.36-3.29-90.66,39.61-100.77,53.23Z"/><path class="cls-7" d="M327.79,325.34c-5.82.32-10.82-4.16-11.14-9.98-4.55-85.14.31-173.28,3.2-213.93-96.48,75.85-145.84,201.81-146.34,203.16-1.86,4.86-6.94,7.56-11.89,6.59-.6-.12-1.18-.31-1.78-.54-1.3-.5-2.45-1.23-3.4-2.14-2.37-2.19-3.61-5.39-3.3-8.64.05-.96.27-1.91.64-2.86,2.3-6.01,57.31-146.58,169.26-224.18,2.9-6.3,5.12-14.1,4.67-22.83-.12-2.28,1.56-4.27,3.84-4.5,1.21-.14,2.66-.24,4.25-.25,2.34,0,5.03.17,7.88.7,2.36.43,3.95,2.68,3.51,5.05-1.1,5.76-3.08,17.03-4.46,28.82,0,.19.01.35-.02.51-.02.26-.58,6.56-1.4,17.41,0,.56-.04,1.15-.03,1.69l-.08-.02c-2.81,38.27-8.09,128.16-3.43,214.83.32,5.82-4.15,10.79-9.97,11.11Z"/><g class="cls-8"><path class="cls-6" d="M327.56,84.62c-97.78,56.89-171.12,223.88-171.12,223.88,0,0-1.3-3.29-3.3-8.64.05-.96.27-1.91.64-2.86,2.3-6.01,57.31-146.58,169.26-224.18,2.9-6.3,5.12-14.1,4.67-22.83-.12-2.28,1.56-4.27,3.84-4.5,1.21-.14,2.66-.24,4.25-.25,2.99,10.17-1.29,26.31-3.58,33.63-.76,2.44-2.44,4.46-4.65,5.75Z"/></g><path class="cls-3" d="M327.17,330.64c-3.89,0-7.6-1.42-10.53-4.04-3.16-2.83-5.03-6.72-5.25-10.96-4.14-76.96-.66-155.82,2.36-202.41-89.15,75.45-134.85,192.06-135.31,193.27-2.77,7.19-10.26,11.34-17.82,9.87-.88-.17-1.77-.42-2.65-.76-8.17-3.14-12.25-12.33-9.12-20.48,2.3-5.99,57.47-147.09,169.95-225.78,2.74-6.38,3.96-12.78,3.63-19.06-.27-5.1,3.5-9.52,8.57-10.05,3.17-.33,8.12-.52,13.63.52,2.56.48,4.77,1.92,6.23,4.06,1.45,2.11,1.98,4.66,1.51,7.18-1.05,5.56-3,16.57-4.37,28.18,0,.2,0,.43-.03.65-.04.42-.61,6.66-1.4,17.32l-.04,1.38c0,.4-.06.79-.15,1.17-2.62,35.92-8,126.65-3.35,213.26h0c.23,4.23-1.2,8.29-4.03,11.44-2.83,3.15-6.72,5.01-10.94,5.24-.3.02-.6.02-.9.02ZM319.85,96.15c.85,0,1.7.2,2.48.62,1.85.98,2.94,2.96,2.79,5.04-3.12,43.78-7.67,129.7-3.18,213.27.08,1.41.7,2.71,1.75,3.66,1.05.94,2.41,1.41,3.8,1.34,1.42-.08,2.72-.7,3.66-1.75.94-1.05,1.42-2.41,1.34-3.81h0c-4.73-87.95.82-180,3.43-215.5.02-.21.04-.43.09-.64l.02-.8c.81-11,1.39-17.3,1.43-17.72v-.26c0-.13,0-.26.02-.4,1.33-11.39,3.22-22.24,4.33-28.22-3.43-.55-6.52-.51-8.79-.33.27,8.12-1.47,16.32-5.2,24.39-.39.86-1.01,1.59-1.79,2.13-110.66,76.69-165.06,215.85-167.32,221.74-1.04,2.72.32,5.78,3.03,6.83.28.11.59.2.89.26,2.51.49,5.02-.89,5.94-3.29.49-1.28,50.32-128.62,148.01-205.42.95-.75,2.11-1.13,3.27-1.13Z"/></svg>