<?xml version="1.0" encoding="UTF-8"?><svg id="Layer_1" xmlns="http://www.w3.org/2000/svg" viewBox="0 0 512 512"><defs><style>.cls-1{opacity:.7;}.cls-2{fill:#e7c0ff;}.cls-2,.cls-3,.cls-4,.cls-5,.cls-6,.cls-7,.cls-8{stroke-width:0px;}.cls-9{opacity:.6;}.cls-3{fill:#000072;}.cls-4{fill:#2fdd54;}.cls-10{opacity:.15;}.cls-5{fill:#a95fff;}.cls-6{fill:#8c42f4;}.cls-7{fill:#fff;}.cls-8{fill:#23b55e;}</style></defs><circle class="cls-2" cx="237.49" cy="287.12" r="186.99"/><path class="cls-8" d="M316.99,250.3c2.12-5.6,6.31-28.86,6.31-28.86-17.34-31.7-43.49-53.48-43.49-53.48l-11.77,39.3-12.33-3.72c4.26-15.89,12.84-51.71,12.84-51.71-26.3,23.09-63.94,35.05-66.69,38.41-2.74,3.36-8.94,18.01-9.24,22.03-.3,4.04,7.85,19.89,7.3,30.03-.55,10.14,2.73,76.61,5.74,97.09,3,20.5-16.87,54.36-16.87,54.36l-7.56-2.02,7.76-63.49s2.05-73.95-.39-83.49c-2.42-9.53-11.58-34.32-11.58-34.32,5.47-14.59,12.37-26.5,16.25-32.67,1.84-2.93,3.02-4.57,3.02-4.57,47.67-14.68,74.33-44.78,74.33-44.78,3.6-25.7,3.64-51.19,3.42-62.73-.11-4.93,1.56-9.77,4.72-13.58,4.86-5.85,10.2-9.14,14.81-10.78,6.43-2.28,11.4-1.32,11.5.37.18,2.69-4.66,15.75-6.54,20.73-.45,1.24-.72,2.5-.74,3.8-.36,17.5-6.08,53.08-6.08,53.08,43.48,12.2,70.02-14.6,70.02-14.6l4.89,7.34c-1.02,1.24-2.03,2.42-3.05,3.58-35.38,39.55-73.96,22.13-73.96,22.13l-.8,4.78-2.01,11.96c37.85,31.26,51.3,65.21,51.3,65.21l-7.79,32.95-13.32-2.33Z"/><g class="cls-9"><path class="cls-7" d="M277.36,134.5c-29.35,27.59-81.17,43.86-81.17,43.86,0,0-1.11-.23-2.9-.61,1.84-2.93,3.02-4.57,3.02-4.57,47.67-14.68,74.33-44.78,74.33-44.78,3.6-25.7,3.64-51.19,3.42-62.73-.11-4.93,1.56-9.77,4.72-13.58,4.86-5.85,10.2-9.14,14.81-10.78,1.22,1.11,1.67,2.2.43,2.95-3.94,2.42-10.98,8.95-10.42,21.39.46,10.37-2,49.04-2.84,61.73-.18,2.73-1.4,5.26-3.39,7.13Z"/></g><g class="cls-10"><path class="cls-3" d="M363.57,115.6c-35.38,39.55-73.96,22.13-73.96,22.13l-.8,4.78-4.02-2.5,1.44-7.75c.51-2.74,3.35-4.34,5.95-3.35,8.83,3.36,29.27,7.57,58.52-8.03,5.42-2.9,9.64-4.55,12.87-5.27Z"/></g><path class="cls-3" d="M188.79,398.18c-.38,0-.77-.05-1.15-.15l-7.56-2.03c-2.14-.57-3.53-2.63-3.26-4.83l7.74-63.28c.79-28.37,1.42-75.55-.24-82.05-2.35-9.21-11.37-33.65-11.46-33.9-.37-1-.37-2.1,0-3.1,8.19-21.85,19.36-37.6,19.84-38.26.57-.79,1.38-1.38,2.31-1.66,41.24-12.69,66.49-37.39,71.42-42.52,3.3-24.51,3.41-48.43,3.17-60.64-.12-6.05,1.93-11.91,5.75-16.51,10.29-12.37,23.51-15.12,29.6-13.12,2.71.89,4.42,2.87,4.57,5.29.07,1.17.23,3.9-6.82,22.56-.29.78-.45,1.56-.46,2.32-.29,14.3-4,39.81-5.52,49.68,38.26,8.86,61.62-14.17,61.86-14.41.94-.95,2.28-1.41,3.59-1.3,1.33.13,2.53.85,3.27,1.96l4.87,7.32c1.08,1.63.98,3.77-.26,5.28-30.1,36.76-64.02,32.24-76.92,28.73l-1.53,9.13c36.79,31.14,50.08,63.94,50.64,65.35.34.85.4,1.78.19,2.66l-7.81,32.97c-.54,2.29-2.78,3.78-5.09,3.35l-13.32-2.34c-1.3-.23-2.44-1.03-3.09-2.18-.66-1.15-.76-2.53-.3-3.77,1.5-3.96,4.46-19.25,5.8-26.52-12.11-21.61-28.43-38.49-36.59-46.22l-9.74,32.54c-.34,1.13-1.11,2.08-2.15,2.64-1.04.56-2.26.68-3.39.34l-12.33-3.72c-2.3-.69-3.63-3.09-3.01-5.41,2.6-9.72,6.89-27.17,9.77-39.06-16.62,12-34.93,20.2-46.7,25.47-4.03,1.81-8.19,3.67-9.35,4.46-2.35,3.18-7.86,16.3-8.08,19.33.04.93,1.34,4.65,2.28,7.36,2.41,6.93,5.4,15.55,5.03,22.58-.52,9.55,2.67,75.6,5.7,96.21,3.2,21.79-16.59,55.81-17.44,57.25-.81,1.38-2.29,2.2-3.83,2.2ZM186.11,388.41l.48.13c4.56-8.45,16.93-33.14,14.67-48.52-2.98-20.32-6.38-86.73-5.78-97.98.29-5.28-2.51-13.31-4.55-19.18-1.93-5.54-2.92-8.55-2.75-10.93.38-5.17,7.12-20.71,10.23-24.51,1.43-1.75,4.13-3.01,12.43-6.73,13.81-6.19,36.93-16.55,54.75-32.21,1.45-1.28,3.57-1.47,5.23-.47,1.66,1,2.48,2.96,2.03,4.84-.08.33-7.32,30.55-11.76,47.66l3.96,1.19,10.48-35.02c.43-1.43,1.54-2.55,2.98-2.98,1.43-.43,2.98-.12,4.13.84,1.09.91,27,22.68,44.54,54.76.49.89.66,1.92.47,2.92-.35,1.94-2.9,16.02-5.03,24.55l4.32.76,6.5-27.46c-2.82-6.29-17.04-35.4-49.48-62.19-1.22-1.01-1.82-2.6-1.55-4.16l2.81-16.74c.23-1.36,1.08-2.54,2.29-3.18,1.21-.65,2.67-.7,3.92-.13,1.5.67,36.76,15.72,69.62-21.97l-.24-.36c-9.35,7.27-34.25,22.34-70.32,12.22-2.18-.61-3.55-2.76-3.19-4.99.06-.35,5.68-35.46,6.03-52.46.04-1.78.38-3.56,1.04-5.28,2.93-7.75,4.79-13.3,5.66-16.42-3.74.23-11.14,2.44-17.86,10.52-2.46,2.96-3.77,6.74-3.7,10.66.25,12.7.12,37.83-3.44,63.43-.12.87-.49,1.68-1.08,2.33-1.11,1.25-27.48,30.59-74.85,45.6-2.61,3.89-10.9,16.83-17.34,33.48,2.07,5.67,9.02,24.86,11.15,33.21,2.52,9.85.72,77.07.51,84.7,0,.14-.01.28-.03.41l-7.3,59.65ZM205,193.36h0Z"/><circle class="cls-5" cx="318.11" cy="293.65" r="49.64"/><path class="cls-6" d="M359.82,296.84c-7.09,26.47-34.31,42.18-60.78,35.09-10.39-2.78-19.1-8.66-25.46-16.37-3.4-6.89-5.22-14.61-5.11-22.56,5.99,8.99,15.12,15.95,26.37,18.96,24.64,6.6,49.96-8.03,56.56-32.66,2-7.47,2.02-15.01.44-22.06,1.62,1.52,3.17,3.13,4.55,4.83.04.03.06.04.03.05,5.12,10.42,6.63,22.65,3.4,34.71Z"/><g class="cls-9"><path class="cls-7" d="M304.58,277.41c-8.1,5.37-13.71,13.59-18.36,12.96-4.76-.2-5.72-16.44,8.45-26.74,14.28-10.15,29.37-4.08,28.04.5-.88,4.61-10.46,7.31-18.13,13.28Z"/></g><path class="cls-3" d="M318.09,348.3c-4.67,0-9.41-.6-14.13-1.87-29.1-7.8-46.44-37.82-38.64-66.92,3.78-14.1,12.82-25.88,25.46-33.18,12.64-7.3,27.37-9.23,41.46-5.46,14.1,3.78,25.88,12.82,33.18,25.46,7.3,12.64,9.24,27.37,5.46,41.46h0c-6.53,24.38-28.67,40.51-52.79,40.51ZM318.03,248.99c-7.73,0-15.37,2.03-22.25,6-10.33,5.96-17.71,15.59-20.8,27.11-6.37,23.78,7.79,48.3,31.57,54.67,23.78,6.38,48.3-7.79,54.67-31.57h0c3.09-11.52,1.5-23.55-4.46-33.87-5.96-10.33-15.59-17.71-27.11-20.8-3.84-1.03-7.75-1.54-11.63-1.54Z"/><circle class="cls-5" cx="165.18" cy="395" r="37.77" transform="translate(-234.08 549.6) rotate(-88.47)"/><path class="cls-6" d="M196.91,397.42c-5.4,20.14-26.1,32.09-46.24,26.7-7.9-2.12-14.53-6.59-19.37-12.45-2.59-5.24-3.97-11.11-3.89-17.16,4.56,6.84,11.51,12.13,20.06,14.43,18.75,5.02,38.01-6.11,43.03-24.84,1.52-5.68,1.54-11.42.33-16.79,1.23,1.15,2.41,2.38,3.46,3.68.03.03.04.03.02.04,3.9,7.92,5.05,17.23,2.59,26.41Z"/><g class="cls-9"><path class="cls-7" d="M154.89,382.65c-6.16,4.08-10.43,10.34-13.97,9.86-3.62-.15-4.35-12.51,6.43-20.35,10.86-7.72,22.34-3.1,21.33.38-.67,3.51-7.96,5.56-13.79,10.11Z"/></g><path class="cls-3" d="M165.25,437.79c-3.72,0-7.45-.49-11.14-1.48-11.04-2.96-20.26-10.03-25.97-19.93-5.71-9.89-7.23-21.42-4.27-32.46,6.11-22.78,29.6-36.34,52.38-30.24,11.03,2.96,20.26,10.03,25.97,19.93,5.71,9.89,7.23,21.42,4.27,32.46h0c-2.96,11.03-10.03,20.26-19.93,25.97-6.59,3.81-13.9,5.75-21.32,5.75ZM165.19,362.23c-14.47,0-27.74,9.67-31.66,24.29-4.68,17.45,5.72,35.46,23.17,40.13,8.46,2.27,17.29,1.1,24.86-3.27,7.58-4.38,13-11.44,15.27-19.9h0c2.27-8.45,1.1-17.28-3.27-24.86-4.38-7.58-11.44-13-19.9-15.27-2.83-.76-5.67-1.12-8.47-1.12Z"/><circle class="cls-5" cx="186.79" cy="460.25" r="37.77" transform="translate(-115.1 65.81) rotate(-15.34)"/><path class="cls-6" d="M218.53,462.67c-5.4,20.14-26.1,32.09-46.24,26.7-7.9-2.12-14.53-6.59-19.37-12.45-2.59-5.24-3.97-11.11-3.89-17.16,4.56,6.84,11.51,12.13,20.06,14.43,18.75,5.02,38.01-6.11,43.03-24.84,1.52-5.68,1.54-11.42.33-16.79,1.23,1.15,2.41,2.38,3.46,3.68.03.03.04.03.02.04,3.9,7.92,5.05,17.23,2.59,26.41Z"/><g class="cls-9"><path class="cls-7" d="M176.51,447.9c-6.16,4.08-10.43,10.34-13.97,9.86-3.62-.15-4.35-12.51,6.43-20.35,10.86-7.72,22.34-3.1,21.33.38-.67,3.51-7.96,5.56-13.79,10.11Z"/></g><path class="cls-3" d="M186.86,503.03c-3.72,0-7.45-.49-11.14-1.48-11.03-2.96-20.26-10.03-25.97-19.93-5.71-9.89-7.23-21.42-4.27-32.45,2.96-11.04,10.03-20.26,19.93-25.97,9.89-5.71,21.41-7.24,32.46-4.27,22.78,6.1,36.34,29.6,30.24,52.38h0c-2.96,11.03-10.03,20.26-19.93,25.97-6.59,3.81-13.9,5.75-21.32,5.75ZM186.8,427.48c-14.47,0-27.74,9.67-31.66,24.29-2.27,8.45-1.1,17.28,3.27,24.86,4.38,7.58,11.44,13,19.9,15.27,8.45,2.27,17.29,1.11,24.86-3.27,7.58-4.38,13-11.44,15.27-19.9h0c4.68-17.45-5.72-35.46-23.17-40.13-2.83-.76-5.67-1.12-8.47-1.12ZM223.28,470.02h.03-.03Z"/><circle class="cls-5" cx="295.44" cy="373.3" r="40.51" transform="translate(-180.51 362.94) rotate(-50.39)"/><path class="cls-6" d="M329.48,375.9c-5.79,21.6-28,34.42-49.6,28.64-8.48-2.27-15.59-7.07-20.77-13.36-2.77-5.63-4.26-11.92-4.17-18.41,4.89,7.34,12.34,13.01,21.52,15.47,20.11,5.39,40.77-6.56,46.16-26.65,1.63-6.1,1.65-12.25.36-18,1.32,1.24,2.58,2.55,3.71,3.94.03.03.05.03.03.04,4.18,8.5,5.41,18.48,2.77,28.33Z"/><g class="cls-9"><path class="cls-7" d="M284.41,360.05c-6.61,4.38-11.19,11.09-14.98,10.57-3.89-.16-4.67-13.41,6.89-21.82,11.65-8.29,23.96-3.33,22.88.41-.71,3.76-8.53,5.97-14.79,10.84Z"/></g><path class="cls-3" d="M295.43,419.18c-3.92,0-7.9-.51-11.86-1.57-11.84-3.17-21.73-10.76-27.86-21.38-6.13-10.61-7.75-22.97-4.58-34.81,6.55-24.43,31.77-38.98,56.18-32.44,24.43,6.55,38.98,31.75,32.44,56.18h0c-5.49,20.47-24.07,34.01-44.32,34.01ZM295.38,338.14c-6.09,0-12.1,1.6-17.52,4.72-8.13,4.69-13.95,12.27-16.38,21.34-2.43,9.07-1.18,18.54,3.51,26.67,4.69,8.13,12.27,13.95,21.34,16.38,18.71,5.02,38.03-6.14,43.05-24.85h0c5.01-18.72-6.13-38.03-24.85-43.05-3.03-.81-6.1-1.21-9.15-1.21ZM334.57,383.78h.03-.03Z"/><circle class="cls-5" cx="245.35" cy="313.66" r="52.88" transform="translate(-103.3 121.24) rotate(-23.07)"/><path class="cls-6" d="M289.78,317.05c-7.56,28.2-36.55,44.94-64.75,37.38-11.07-2.97-20.35-9.23-27.12-17.44-3.62-7.34-5.56-15.56-5.45-24.03,6.38,9.58,16.11,16.99,28.09,20.2,26.25,7.03,53.22-8.56,60.25-34.79,2.13-7.96,2.15-15.99.46-23.5,1.72,1.61,3.37,3.33,4.85,5.15.04.04.06.04.03.06,5.46,11.09,7.07,24.12,3.62,36.98Z"/><g class="cls-9"><path class="cls-7" d="M230.94,296.36c-8.63,5.72-14.61,14.48-19.56,13.8-5.07-.22-6.1-17.51,9-28.49,15.21-10.82,31.28-4.34,29.87.54-.93,4.91-11.14,7.79-19.31,14.15Z"/></g><path class="cls-3" d="M245.33,371.54c-4.95,0-9.97-.64-14.97-1.98-30.83-8.26-49.19-40.06-40.93-70.89,8.26-30.83,40.07-49.19,70.89-40.93,14.93,4,27.42,13.58,35.15,26.97,7.73,13.39,9.78,28.99,5.78,43.92-6.92,25.83-30.37,42.91-55.92,42.91ZM245.36,265.77c-21.14,0-40.53,14.13-46.26,35.5-6.83,25.5,8.35,51.81,33.86,58.64,25.5,6.83,51.81-8.35,58.64-33.86h0c3.31-12.35,1.61-25.26-4.78-36.33-6.39-11.08-16.72-19-29.07-22.31-4.13-1.11-8.29-1.64-12.38-1.64Z"/><circle class="cls-5" cx="167.82" cy="313.8" r="49.64" transform="translate(-172.73 210.58) rotate(-45)"/><path class="cls-6" d="M209.53,316.98c-7.09,26.47-34.31,42.18-60.78,35.09-10.39-2.78-19.1-8.66-25.46-16.37-3.4-6.89-5.22-14.61-5.11-22.56,5.99,8.99,15.12,15.95,26.37,18.96,24.64,6.6,49.96-8.03,56.56-32.66,2-7.47,2.02-15.01.44-22.06,1.62,1.52,3.17,3.13,4.55,4.83.04.03.06.04.03.05,5.12,10.42,6.63,22.65,3.4,34.71Z"/><g class="cls-9"><path class="cls-7" d="M154.3,297.56c-8.1,5.37-13.71,13.59-18.36,12.96-4.76-.2-5.72-16.44,8.45-26.74,14.28-10.15,29.37-4.08,28.04.5-.88,4.61-10.46,7.31-18.13,13.28Z"/></g><path class="cls-3" d="M167.81,368.44c-4.67,0-9.41-.6-14.13-1.87-14.1-3.78-25.88-12.82-33.18-25.46-7.3-12.64-9.24-27.36-5.46-41.46,3.78-14.1,12.82-25.88,25.46-33.18,12.64-7.3,27.37-9.23,41.46-5.46,29.1,7.8,46.44,37.82,38.64,66.92h0c-6.53,24.38-28.67,40.51-52.79,40.51ZM167.75,269.14c-7.74,0-15.37,2.03-22.25,6-10.33,5.96-17.71,15.59-20.8,27.11-3.09,11.52-1.5,23.55,4.46,33.87,5.96,10.33,15.59,17.71,27.11,20.8,11.51,3.08,23.55,1.5,33.87-4.46,10.33-5.96,17.71-15.59,20.8-27.11,6.37-23.78-7.79-48.3-31.57-54.67-3.85-1.03-7.75-1.54-11.63-1.54ZM215.77,326.65h.03-.03Z"/><circle class="cls-5" cx="148.73" cy="234.05" r="49.64" transform="translate(-90.25 374.72) rotate(-88.05)"/><path class="cls-6" d="M190.44,237.24c-7.09,26.47-34.31,42.18-60.78,35.09-10.39-2.78-19.1-8.66-25.46-16.37-3.4-6.89-5.22-14.61-5.11-22.56,5.99,8.99,15.12,15.95,26.37,18.96,24.64,6.6,49.96-8.03,56.56-32.66,2-7.47,2.02-15.01.44-22.06,1.62,1.52,3.17,3.13,4.55,4.83.04.03.06.04.03.05,5.12,10.42,6.63,22.65,3.4,34.71Z"/><g class="cls-9"><path class="cls-7" d="M135.21,217.82c-8.1,5.37-13.71,13.59-18.36,12.96-4.76-.2-5.72-16.44,8.45-26.74,14.28-10.15,29.37-4.08,28.04.5-.88,4.61-10.46,7.31-18.13,13.28Z"/></g><path class="cls-3" d="M148.72,288.7c-4.67,0-9.41-.6-14.13-1.87-29.1-7.8-46.44-37.82-38.64-66.92,7.8-29.1,37.82-46.44,66.92-38.64,14.1,3.78,25.88,12.82,33.18,25.46,7.3,12.64,9.24,27.36,5.46,41.46-6.53,24.38-28.67,40.51-52.79,40.51ZM148.74,189.41c-19.71,0-37.79,13.17-43.13,33.09-6.37,23.78,7.79,48.3,31.57,54.67,23.78,6.38,48.3-7.79,54.67-31.57h0c3.09-11.52,1.5-23.55-4.46-33.87-5.96-10.33-15.59-17.71-27.11-20.8-3.85-1.03-7.73-1.53-11.54-1.53Z"/><circle class="cls-5" cx="233.56" cy="406.57" r="40.51" transform="translate(-228.57 327.32) rotate(-50.39)"/><path class="cls-6" d="M267.6,409.17c-5.79,21.6-28,34.42-49.6,28.64-8.48-2.27-15.59-7.07-20.77-13.36-2.77-5.63-4.26-11.92-4.17-18.41,4.89,7.34,12.34,13.01,21.52,15.47,20.11,5.39,40.77-6.56,46.16-26.65,1.63-6.1,1.65-12.25.36-18,1.32,1.24,2.58,2.55,3.71,3.94.03.03.05.03.03.04,4.18,8.5,5.41,18.48,2.77,28.33Z"/><g class="cls-9"><path class="cls-7" d="M222.53,393.32c-6.61,4.38-11.19,11.09-14.98,10.57-3.89-.16-4.67-13.41,6.89-21.82,11.65-8.29,23.96-3.33,22.88.41-.71,3.76-8.53,5.97-14.79,10.84Z"/></g><path class="cls-3" d="M233.64,452.46c-3.99,0-8-.52-11.95-1.58-24.43-6.54-38.98-31.75-32.44-56.18,3.17-11.84,10.76-21.73,21.38-27.86,10.61-6.13,22.98-7.75,34.81-4.58,11.84,3.17,21.73,10.76,27.85,21.37,6.13,10.61,7.75,22.97,4.58,34.81h0c-3.17,11.84-10.76,21.73-21.38,27.86-7.07,4.08-14.91,6.17-22.86,6.17ZM233.5,371.41c-6.09,0-12.1,1.6-17.52,4.72-8.13,4.69-13.95,12.27-16.38,21.34-2.43,9.07-1.18,18.54,3.51,26.67,4.69,8.13,12.27,13.95,21.34,16.38,9.07,2.43,18.54,1.18,26.67-3.51,8.13-4.69,13.95-12.27,16.38-21.34,2.43-9.07,1.18-18.54-3.51-26.67-4.69-8.13-12.27-13.95-21.34-16.38-3.03-.81-6.1-1.21-9.16-1.21ZM272.69,417.05h.03-.03Z"/><circle class="cls-5" cx="249.34" cy="223.83" r="49.64" transform="translate(-80.08 162.55) rotate(-31.38)"/><path class="cls-6" d="M289.39,235.9c-12.61,24.33-42.57,33.83-66.9,21.22-9.55-4.95-16.79-12.56-21.35-21.45-1.84-7.46-1.96-15.39-.15-23.13,3.92,10.07,11.34,18.82,21.68,24.18,22.65,11.74,50.52,2.89,62.26-19.74,3.56-6.87,5.2-14.23,5.16-21.45,1.26,1.83,2.42,3.73,3.41,5.7.03.04.05.05.02.06,2.77,11.27,1.61,23.54-4.13,34.63Z"/><g class="cls-9"><path class="cls-7" d="M239.62,205.07c-9.07,3.5-16.31,10.33-20.72,8.71-4.61-1.22-2.06-17.28,13.99-24.31,16.12-6.85,29.56,2.33,27.28,6.51-1.84,4.31-11.78,4.89-20.56,9.08Z"/></g><path class="cls-3" d="M249.24,278.47c-8.46,0-17.04-1.97-25.06-6.13-26.75-13.87-37.23-46.91-23.36-73.66,6.72-12.96,18.08-22.52,31.99-26.94,13.91-4.41,28.71-3.14,41.67,3.57,26.75,13.87,37.23,46.91,23.36,73.66h0c-9.71,18.73-28.83,29.49-48.6,29.49ZM249.39,179.17c-4.54,0-9.1.7-13.55,2.11-11.37,3.61-20.65,11.42-26.14,22.01-11.33,21.85-2.77,48.85,19.09,60.18,21.85,11.33,48.85,2.76,60.18-19.09h0c11.33-21.85,2.77-48.85-19.09-60.18-6.44-3.34-13.44-5.03-20.5-5.03ZM293.41,246.68h.03-.03Z"/><path class="cls-4" d="M457.89,122.72c-11.98,7.97-26.49,8.71-26.49,8.71,0,0,3.78,6.42-6.22,6.91-10,.49-25.17-2.07-25.17-2.07,0,0,.55.52,1.48,1.43h.04c3.7,3.63,13.34,13.43,19.38,23.36,7.61,12.48.7,11.81-3.25,9.71,0,0,6.27,14.13,5.94,24.02-.03.54-.06,1.07-.14,1.55-1.03,8.14-8.01,6.46-8.01,6.46,0,0-3.74,6.15-16.14-3.84-12.41-10-15.4-14.41-15.4-14.41,0,0-1.87,8.1-11.85-5.59-5.78-7.97-8.13-13.2-9.08-16.19-.66-2.16-.63-3.14-.63-3.14,0,0-5.05,16.94-8.43,9.48,0,0-3.53,5.18-7.35,9.4-3.07,3.39-6.34,6.15-8.19,5.17-4.17-2.2-3.06-5.17-3.06-5.17,0,0-5.56,2.65-5.45-3.53.12-6.2,2.76-14.61,2.76-14.61,0,0-6.34,1.75-3.38-8.61,2.96-10.37,15.97-30.23,15.97-30.23,0,0-.43-.21-1.2-.6-6.61-3.33-37.77-19.69-29.89-26.51,0,0-10.76-13.51-9.88-15.44.91-1.92,3.95-2.05,3.95-2.05,0,0-1.27-7.29,4.45-7.23,5.71.06,16.92,6.74,16.92,6.74,0,0-.76-4.62,2.82-3.73,3.46.83,9.36,8.77,9.74,9.26-.1-.58-3.58-19.27-1.96-27.12,1.68-7.97,4.43-10.59,6.96-5.73,0,0,7.22-26.69,12.91-32.02,5.66-5.34,7.74.56,7.74.56,0,0,3.45-4.71,7.43-.59,3.98,4.13,7.04,15.19,7.95,25.19,0,0,3.47-5.83,6.66-1.48,3.18,4.37-1.92,27.88-5.18,42.26,0,0,19.36-16.02,24.94-16.65,5.58-.64,4.09,4.39,4.09,4.39,0,0,19.84-7.41,29.65-6.69,9.79.71,10.01,4.8,5.9,9.4,0,0,19.82.75,33.4,8.79.75.45,1.46.9,2.16,1.38,0,0-4.15,16.17-24.07,27.99,0,0,9.16,3.1-2.85,11.06Z"/><g class="cls-1"><path class="cls-7" d="M398.4,91.2c6.1-5.27,18.64-13.18,37.88-11.63,2.09.17,2.54,3.07.58,3.82-8.56,3.3-23.62,8.68-36.82,11.26-1.99.39-3.16-2.13-1.63-3.45Z"/></g><g class="cls-1"><path class="cls-7" d="M358.6,55.14c-1.08-5.19-1.6-14.92,5.46-25.47.77-1.15,2.57-.47,2.38.89-.85,5.97-2.58,16.34-5.33,24.74-.41,1.27-2.24,1.14-2.51-.17Z"/></g><g class="cls-10"><path class="cls-3" d="M308.21,73.83s8.31,15.06,16.25,18.07c7.94,3.02,5.76,13.7,15.44,17.35,9.68,3.66,16.03-5.44,16.03-5.44l-8.12,17.5-26.34-13.93s-7.55-5.25-7.25-6.88c.3-1.63-1.82-11.57-1.82-11.57l-6.07-8.11,1.88-7Z"/></g><g class="cls-10"><path class="cls-3" d="M342.31,145.4c-3.12,6.83,2.39,6.12-.23,14.43-2.6,8.16-6.84,21.93,4.5,18.67-3.07,3.39-6.34,6.15-8.19,5.17-4.17-2.2-3.06-5.17-3.06-5.17,0,0-5.56,2.65-5.45-3.53.12-6.2,2.76-14.61,2.76-14.61,0,0-6.34,1.75-3.38-8.61,2.96-10.37,15.97-30.23,15.97-30.23,0,0-.43-.21-1.2-.6l61.12-15.14c-1.14.41-37.84,13.72-40.83,15.86-3.05,2.2,13.26,17.59,19.28,29.46,0,0-23.86-21.53-27.81-21.07-3.94.44-10.37,8.56-13.48,15.37Z"/></g><g class="cls-10"><path class="cls-3" d="M415.44,202.8s-3.74,6.15-16.14-3.84c-12.41-10-15.4-14.41-15.4-14.41,0,0-1.87,8.1-11.85-5.59-5.78-7.97-8.13-13.2-9.08-16.19.05-1.48.2-2.8.47-3.9,0,0,1.28-7.6,4.52-8.02,3.26-.41,7.03,13.71,12.45,18.18,5.41,4.44,3.69-2.85,9.58,1.19,5.89,4.04,10.75,31.73,32.56,26.35.3-.08.59-.14.89-.22-1.03,8.14-8.01,6.46-8.01,6.46Z"/></g><g class="cls-10"><path class="cls-3" d="M457.89,122.72c-11.98,7.97-26.49,8.71-26.49,8.71,0,0,3.78,6.42-6.22,6.91-10,.49-25.17-2.07-25.17-2.07,0,0,.55.52,1.48,1.43-1.33-.53-7.37-3.25-9.66-9.87-.8-2.32,1.08-4.7,3.52-4.47,7.26.69,21.11,1.93,22.89,1.43,2.44-.68-4.32-6.13,1.94-5.76,6.27.37,27.3,2.21,25.78-4.34-1.53-6.58-3.21-6.82,7.04-10.22,8.81-2.93,23.64-12.32,29.65-22.2.75.45,1.46.9,2.16,1.38,0,0-4.15,16.17-24.07,27.99,0,0,9.16,3.1-2.85,11.06Z"/></g><path class="cls-3" d="M344.67,119.38l85.58-20.43c.25-.07.39.35.11.42,0,0-84.56,24.3-84.56,24.3-2.84.8-4.04-3.58-1.13-4.3h0Z"/><path class="cls-3" d="M398.1,106.87c8.77,3.44,18.3,5.86,27.54,7.28-9.54-.74-18.97-2.69-28.17-5.6-1.17-.36-.5-2.18.63-1.68h0Z"/><path class="cls-3" d="M366.9,115.24c2.93-7.49,7.64-15.35,13.32-20.36-5.09,6.11-9.03,13.4-11.19,20.99-.35,1.51-2.66.84-2.13-.63h0Z"/><path class="cls-3" d="M346.53,120.29c12.97-18.56,19.31-41.2,20.69-63.67,0-.13.22-.14.22,0,.47,22.89-6.16,46.08-19.15,65.02-.85,1.2-2.72-.2-1.76-1.35h0Z"/><path class="cls-3" d="M361.66,88.94c5.07-5.4,9.29-11.77,12.5-18.49-2.75,7.07-6.45,13.71-11.23,19.66-.74.92-2.13-.35-1.27-1.17h0Z"/><path class="cls-3" d="M353.67,109.01c.5-7.17-1.79-15-4.1-21.4,3.35,6.7,5.62,13.91,5.82,21.5,0,.48-.38.87-.85.88-.52.01-.94-.46-.87-.98h0Z"/><path class="cls-3" d="M349.18,120.56c20.2,10.92,36.68,28.54,46.7,49.13.06.12-.13.23-.2.1-11.48-19.36-27.45-36.62-47.45-47.22-1.36-.58-.37-2.71.95-2.01h0Z"/><path class="cls-3" d="M376.58,141.94c6.97,3.11,13.29,7.34,18.96,12.37-2.99-2.28-6.13-4.34-9.41-6.14-3.28-1.8-6.71-3.41-10.18-4.62-1.1-.37-.43-2.09.63-1.61h0Z"/><path class="cls-3" d="M361.2,128.47c3.16,6.72,4.85,14.8,4.5,21.8-.57-7.23-2.4-14.66-5.99-20.92-.68-.99.96-1.96,1.49-.87h0Z"/><path class="cls-3" d="M411.21,209.13c-4.25,0-9.18-2.25-14.71-6.7-6.42-5.17-10.44-8.94-12.88-11.47-.3.11-.62.2-.96.27-5.53,1.13-10.48-4.57-14.18-9.66-2.85-3.92-4.94-7.26-6.47-10.07-2.56,3.71-4.77,3.86-5.74,3.93-.33.03-.8.02-1.34-.07-11.72,15.88-16.86,13.17-18.63,12.23-2.25-1.19-3.66-2.66-4.49-4.15-.98-.13-2-.45-2.97-1.07-1.6-1.03-3.48-3.16-3.4-7.49.07-3.78.95-8.18,1.74-11.38-.29-.21-.57-.45-.84-.73-3.76-3.79-1.94-10.15-1.35-12.24,2.28-7.97,9.79-20.68,13.87-27.24-11.23-5.83-29.23-16.45-30.36-25.23-.15-1.15-.05-2.26.26-3.29-10.44-13.49-9.47-15.6-8.52-17.65.81-1.76,2.16-2.85,3.51-3.53.21-1.76.79-3.76,2.19-5.42,1.15-1.35,3.3-3.03,6.76-2.91,4.25.04,10.16,2.6,14.35,4.74.07-.07.14-.14.22-.21.93-.86,2.98-2.19,6.18-1.4.78.19,1.58.54,2.39,1.01-.56-5.52-.82-11.5,0-15.45.97-4.68,2.85-10.98,7.89-11.67.23-.03.49-.05.77-.05,2.64-8.78,7.68-23.82,12.51-28.37,3.8-3.58,7.05-3.73,9.12-3.23.87.21,1.65.57,2.33,1.02.83-.36,1.76-.61,2.8-.69,1.82-.12,4.52.3,7.16,3.04,4.12,4.27,6.8,12.8,8.22,20.75.1,0,.2-.01.3-.02,1.47-.05,4.2.3,6.49,3.44,2.86,3.94,2.48,12.9-1.8,33.74,6.38-4.75,13.6-9.5,17.46-9.95,4.09-.47,6.36,1.1,7.53,2.5.13.15.24.3.35.45,6.82-2.26,19.03-5.84,26.69-5.25,2.43.18,9.83.72,12.01,6.11.41,1.01.68,2.32.46,3.87,7.99,1.01,21.43,3.63,31.19,10.35,1.53,1.06,2.25,2.96,1.78,4.76-.17.67-4.12,15.4-21.27,27.58.3.65.51,1.36.61,2.13.79,6.05-5.9,10.49-8.09,11.96-8.6,5.72-18.28,7.99-23.92,8.88-.13.83-.4,1.68-.84,2.49-1.66,3.06-5.09,4.74-10.21,4.99-4.08.2-8.91-.07-13.29-.48,4.16,4.62,8.97,10.47,12.61,16.44,1.82,2.99,6.66,10.92,2.26,15.57-.75.79-1.62,1.33-2.56,1.66,1.81,5.33,3.83,12.77,3.62,18.96-.19,5.83-2.58,8.84-4.54,10.33-2.21,1.68-4.65,2.1-6.45,2.12-1.03.71-2.33,1.3-3.89,1.57-.63.11-1.27.16-1.93.16ZM411.66,200.49s0,0,0,0c0,0,0,0,0,0ZM411.67,200.48s0,0,0,0c0,0,0,0,0,0ZM411.67,200.47s0,0,0,0t0,0ZM387.58,182.05s3.09,4.25,14.5,13.45c6.21,5,9.23,4.93,9.82,4.62,1.06-1.4,2.84-2.05,4.58-1.64.14.03,1.12.11,1.63-.31.58-.46.96-1.79,1.02-3.54.29-8.75-5.5-21.95-5.56-22.08-.77-1.73-.35-3.77,1.04-5.06,1.15-1.06,2.74-1.43,4.2-1.03-.4-.83-.95-1.85-1.72-3.1-7.19-11.79-19.99-23.72-20.12-23.84-1.44-1.34-1.83-3.46-.97-5.22.87-1.76,2.79-2.73,4.73-2.42.15.02,14.79,2.46,24.2,2.01,1.3-.06,2.09-.24,2.54-.39-.66-1.33-.64-2.97.1-4.26.76-1.31,2.09-2.21,3.59-2.28.13,0,13.49-.8,24.25-7.96,2.23-1.48,3.3-2.55,3.8-3.17h0c-1.59-.61-2.74-2.09-2.89-3.79-.15-1.7.65-3.35,2.12-4.22,13.15-7.81,18.8-17.51,20.92-22.31-12.39-6.82-30.12-7.6-30.31-7.61-1.72-.07-3.25-1.12-3.92-2.7-.67-1.58-.37-3.41.77-4.69.49-.55.81-.99,1.02-1.33-.68-.24-1.9-.53-3.94-.68-7.21-.51-22.5,4.45-27.77,6.41-1.58.59-3.36.23-4.59-.92-.84-.78-1.33-1.84-1.4-2.95-3.76,1.54-13.81,8.83-21.75,15.41-1.47,1.21-3.54,1.36-5.16.37s-2.43-2.91-2.01-4.76c5.11-22.7,6.3-32.65,6.12-36.8-1.08,1.15-2.7,1.67-4.27,1.3-1.86-.44-3.24-2-3.42-3.9-.99-10.74-4.2-19.87-6.73-22.5-.1-.1-.18-.17-.25-.23-.18.14-.37.33-.38.35-.97,1.33-2.59,2.02-4.24,1.78-1.43-.21-2.66-1.1-3.31-2.37-.21.15-.46.36-.76.64-2.94,2.76-8.34,17.7-11.67,29.95-.48,1.77-2,3.06-3.82,3.26-.84.1-1.68-.06-2.41-.42-.21.7-.44,1.57-.66,2.64-1.21,5.82,1.02,20.32,1.98,25.42.38,2.04-.69,4.07-2.6,4.9-1.91.82-4.13.23-5.36-1.45-1.62-2.2-3.6-4.46-5.16-5.96-.34.58-.8,1.08-1.37,1.46-1.42.94-3.26,1.02-4.72.14-4.21-2.51-11.52-6.06-14.65-6.12-.13.54-.14,1.53-.05,2.01.22,1.26-.11,2.56-.91,3.55-.47.59-1.09,1.05-1.78,1.33,1.76,2.79,4.9,7.09,7.7,10.62,1.36,1.71,1.26,4.13-.16,5.72,1.69,3.86,15.12,13.01,29.73,20.16,1.15.56,1.99,1.59,2.33,2.82.34,1.23.13,2.55-.57,3.61-.13.19-12.68,19.42-15.42,29.01-.39,1.36-.54,2.31-.59,2.95,1.08.07,2.11.54,2.89,1.34,1.13,1.17,1.53,2.86,1.05,4.42-.02.07-2.21,7.11-2.52,12.5,1.42-.29,2.93.1,4,1.12,1,.95,1.51,2.28,1.4,3.6,2.38-1.76,6.86-6.96,10.48-12.29.9-1.33,2.44-2.06,4.06-1.93.43.04.85.14,1.24.29.86-1.75,1.85-4.26,2.55-6.6.64-2.15,2.79-3.47,4.99-3.11,2.21.37,3.8,2.33,3.71,4.57,0,0,0,0,0,0,.02,0,.56,5.09,8.88,16.53,2.26,3.1,3.81,4.66,4.76,5.43.65-.82,1.59-1.39,2.66-1.59,1.74-.33,3.51.41,4.5,1.88h0ZM411.96,200.09h0ZM379.57,183.53s0,.01,0,.02c0,0,0-.01,0-.02ZM339.5,180.05s0,0,0,0c0,0,0,0,0,0ZM332.97,156.99h.03-.03Z"/></svg>