<?xml version="1.0" encoding="utf-8"?>
<svg version="1.1" xmlns="http://www.w3.org/2000/svg" xmlns:xlink="http://www.w3.org/1999/xlink" x="0px" y="0px"
	 viewBox="0 0 500 500" style="enable-background:new 0 0 500 500;" xml:space="preserve">
<style type="text/css">
	.st0{fill:#FFFFFF;}
	.st1{fill:#FF4D6A;}
	.st2{fill:#B36B3C;}
	.st3{fill:none;stroke:#000000;stroke-width:3;stroke-linecap:round;stroke-linejoin:round;stroke-miterlimit:10;}
	.st4{fill:#BADB68;}
	.st5{fill:#2CCCB1;}
	.st6{fill:#FFAA00;}
	.st7{fill:#FDD43A;}
	.st8{fill:#F6E438;}
	.st9{fill:#7ACC96;}
	.st10{fill:none;stroke:#000000;stroke-width:2;stroke-linecap:round;stroke-linejoin:round;stroke-miterlimit:10;}
</style>
<g id="BACKGROUND">
	<rect class="st0" width="500" height="500"/>
</g>
<g id="OBJECTS">
	<g>
		<g>
			<path class="st1" d="M153.6,238.7c0.8,2.6,1.5,5.3,2.4,8.1c2.8,9.6,4.2,19.2,2.8,29.2c-2.6,18.5-14,35-30.4,44
				c-9.5,5.2-20.2,7.6-31,7.5c-21.7,1.7-42.7-9.4-52.9-29.3c-5.5-10.8-10.7-24.1-8.5-36.5c2-11.4,10.8-21.1,20.2-27.1
				c15.8-10.1,37.1-15.5,55.7-16.9c9.6-0.7,19.7-0.3,28.3,4.1C148.3,225.9,151.3,231.7,153.6,238.7z"/>
			<path class="st2" d="M64.8,190.6c0.5-0.8,1.1-1.5,1.8-2.1c3.5-3,9.3-2.9,11.5,1.6c0.9,1.9,0.7,3.9,0.7,5.9c0,2.3,0.1,4.7,0.2,7
				c0.1,3.2,0.6,7.5-2.2,9.8c-7.7,6.4-12.9-11.9-13.3-16.7C63.3,194.2,63.8,192.2,64.8,190.6z"/>
		</g>
		<g>
			<path class="st3" d="M159.9,272.6c-0.1,1.3-0.3,2.6-0.5,3.8c-2.2,12.7-9.1,25.3-18.9,33.7c-4.9,4.2-10.3,6.7-16.5,8
				c-7.3,1.5-12.9,6.1-19.9,8.2c-5.7,1.7-11.8,1.8-17.7,1c-11.6-1.6-23.4-6.6-31.9-14.7c-16.9-16-32.8-44-23.3-67.1
				c3.7-9.1,11.5-16.2,20.9-19c4.7-1.4,9.8-1.7,14.6-0.9c4.9,0.8,10.4,4.4,15.4,2.9c4-1.2,5.8-5.1,7.8-8.4
				c8.8-15.3,27.5-20.7,42.9-13.2C155.2,217.9,161.9,249.4,159.9,272.6z"/>
			<path class="st3" d="M65.5,186.9c0.1-2.2,0.6-4.7,2.6-5.8c1.5-0.8,3.4-0.5,5.1,0c1.9,0.5,3.9,0.9,5.8,1.4
				c0.8,0.2,1.6,0.4,2.1,1.1c1,1.5-0.7,3.6-1.3,4.9c-1.9,4.3-2.7,9.1-2.7,13.8c0,3,0.5,5.9,0.8,8.9c0.2,1.6,1.3,6.5-0.6,7.5
				c-3.1,1.7-7.4-9.2-8.2-11.1C66.5,201,65.1,193.9,65.5,186.9z"/>
			<path class="st3" d="M125.9,212c22.9,10.1,34,50.4,22.7,75.3"/>
			<path class="st3" d="M143.2,278.8c-0.7,5.8-3.4,11.4-7.6,15.5"/>
			<path class="st3" d="M39.8,243.3c-3.3,3.4-5,8.3-4.4,13"/>
			<path class="st3" d="M40.5,253.7c-0.4,1.7-0.2,3.6,0.5,5.2"/>
			<path class="st3" d="M77.2,317c3.5,1.8,7.4,2.8,11.3,3"/>
		</g>
	</g>
	<g>
		<g>
			<path class="st4" d="M306.2,329.8c-52,46.1-149.2-34.5-84.8-84.8c11.7-7.5,26.4-9.5,36-20.3c6.1-6.8,9.2-15.9,17.1-21.2
				c13.2-8.8,34.3-0.4,37.5,15.2c1.9,9.3-2.3,17.9-2.7,27.1C311.7,279,338.5,295.6,306.2,329.8z"/>
			<path class="st5" d="M280.8,177.8c1.3-4.3,1-8.8-0.3-13.1c-2.6-8.7-11.5-16.8-22.1-15.5c-1.2,0.2-2.6,0.5-3.4,1.6
				c-1.3,1.7-0.7,5.5-0.5,7.3c0.2,2.6,0.4,5.3,0.7,7.9c0.6,5.3,1.9,10.6,5.5,14.5c3,3.4,7.5,5.8,12.7,5.4c4.5-0.3,6-3.8,7.2-7.4
				C280.6,178.2,280.7,178,280.8,177.8z"/>
			<path class="st2" d="M310.6,173.2c3.1-0.5,7.1-0.6,9.4,1.9c2.6,2.8,1.7,7.9,0.1,10.9c-2.2,4.2-6.7,6.4-11.2,6.9
				c-4.1,0.5-10.1,0.2-12.2-4C292.9,181,304.3,174.2,310.6,173.2z"/>
		</g>
		<g>
			<path class="st3" d="M294,323.3c-27.6,25.6-78.5,11.4-97.6-18.3c-4.8-7.4-7.5-16-7.9-24.8c-0.7-16.3,6.7-32.8,20.7-41.7
				c11.7-7.5,26.4-9.5,36-20.3c6.1-6.8,9.2-15.9,17.1-21.2c13.2-8.8,34.3-0.4,37.5,15.2c1.9,9.3-2.3,17.9-2.7,27.1
				c-0.6,14.4,8.4,26.2,11.5,39.7C312.3,295.2,306,312.2,294,323.3z"/>
			<path class="st3" d="M288.3,176.2c1-4.7,0.3-9.7-1.4-14.6c-2.8-8-9.2-14.5-16.7-18c-4.6-2.1-9.4-3.7-14.2-4.1
				c-0.7-0.1-1.6,0-1.7,0.8c-0.1,0.7,0.6,1.2,1,1.7c0.5,0.7,1,1.4,1.4,2.1c1.2,2.1,1.4,4.4,1.8,6.7c1.5,8.9,2,19.2,8.6,26.7
				c2.7,3.1,6.1,5.3,9.6,7.1c6.2,3.2,9.9-2.1,11.3-7.7C288.2,176.6,288.2,176.4,288.3,176.2z"/>
			<path class="st3" d="M320.1,177.2c1.9,0,4.1,0.3,5,1.9c0.8,1.3,0.5,2.9,0.3,4.3c-0.3,1.7-0.6,3.3-0.9,5c-0.1,0.7-0.3,1.4-0.8,1.8
				c-1,0.7-2.3-0.1-3.3-0.8c-6.9-4.9-16.8-4.9-23.7-0.1c-1,0.7-4.3,3.7-5.5,2.7c-2.9-2.5,8-8.8,9.6-9.7
				C306.6,179,313.3,177.1,320.1,177.2z"/>
			<path class="st3" d="M291.5,209.7c2.1,5.1,2.4,10.9,0.7,16.1"/>
			<path class="st3" d="M285.4,209.9c1.4,1.4,2,3.4,1.6,5.3"/>
			<path class="st3" d="M214.7,245.6c-7.3,5.8-12.7,14-15.2,23c-2.5,9-2,18.8,1.3,27.6"/>
			<path class="st3" d="M207.1,291.4c0,2.4,0.9,4.8,2.3,6.7"/>
			<path class="st3" d="M298.4,292.4c-1.9,9.2-6.8,17.7-13.9,23.9c-7.1,6.2-16.2,9.9-25.6,10.5"/>
			<path class="st3" d="M274.7,159.3c3.4,6,5.7,12.7,6.7,19.7"/>
		</g>
	</g>
	<g>
		<g>
			<path class="st2" d="M356.7,324.3c-1.2,0.6-2.5,1.1-3.8,1.5c-2.3,0.7-4.9,0.9-7.1-0.2c-2.4-1.3-3.6-4.1-3.4-6.8
				c0.2-3.1,2.6-7.4,5.6-8.5c1.7-0.6,3.3-1.7,5.1-2c1.7-0.3,3.9,0.1,5.5,0.6c2.5,0.9,4.1,3.5,4.2,6.1c0.1,2.6-1.2,5.2-3.1,7
				C358.9,323,357.9,323.7,356.7,324.3z"/>
			<path class="st6" d="M347.9,342.2c35.5-14.9,74.6,5.4,93,37.1c8.4,14.4,12.4,32.9,3.6,48c-7.6,13.1-22,21.5-36.5,24.6
				c-17.8,3.9-36.5,0.9-53.4-5.4c-15-5.6-25.7-18.5-32.9-32.7c-1.2-2.4-2.3-4.9-3.3-7.5c-7-18.7-3.9-38.7,10.9-52.4
				C334.9,348.9,341.2,345,347.9,342.2z"/>
		</g>
		<g>
			<path class="st3" d="M355.2,311.5c-1.6,3.2-2.2,6.6-2.2,10.1c0,2.6,2,9-2.2,9.4c-4.3,0.3-4.4-12.3-4.7-15.3
				c-0.3-4.4-0.7-11.8,4.5-13.7C363.1,297.4,360.1,302,355.2,311.5z"/>
			<path class="st3" d="M355.3,337.6c4.8-2.8,8.1-8.2,13.4-10.3c6.2-2.5,13-2.5,19.1-1.3c12.2,2.3,23.1,9.2,30.8,18.8
				c4.1,5,6.8,10.6,9.2,16.7c2.8,7,3.9,14.5,7.8,21c3,4.9,6.9,9.2,11.6,12.5c3,2.1,6.7,3,9.3,5.7c3.3,3.4,2.3,7.9,0.2,12
				c-16.2,31.3-56.5,44.9-86.6,36.1c-24.2-7.1-43.8-25.5-52-50c-0.8-2.5-1.6-5.1-2.1-7.7c-3.3-15.2-0.3-33.5,10.6-46.1
				c4-4.6,9.1-7.4,14.9-6.6c3.2,0.4,6.3,1.4,9.5,0.9C352.5,339,353.9,338.4,355.3,337.6z"/>
			<path class="st3" d="M339.4,418.3c13,17.7,36.1,27.5,57.9,24.5"/>
			<path class="st3" d="M388.3,437.6c3.6,0.2,7.1-0.2,10.6-0.9"/>
			<path class="st3" d="M383.2,333.7c5.9,0.3,11.8,2,17,5"/>
			<path class="st3" d="M438.4,396.4c2.2,2,4.9,3.5,7.8,4.4"/>
			<path class="st3" d="M326.2,356.6c-1.8,3.4-3,7.2-3.5,11.1"/>
			<path class="st3" d="M329.3,366.3c-0.7,2-0.9,4.2-0.7,6.4"/>
			<path class="st3" d="M442.9,405.3c1.3,0.5,2.5,0.9,3.8,1.4"/>
		</g>
	</g>
	<g>
		<g>
			<path class="st1" d="M370.2,275.5c-14.4-9.8-20-30.6-19-48.1c0.5-8.5,2.6-17,7.3-24.3c5-7.9,12.8-12.3,21.3-14.7
				c7.7-2.1,15.7-2.7,23.5-1.7c7.8,1,15.1,5.8,21,10.8c10.6,9.1,21,24.3,17,40c-0.9,3.5-2.6,6.6-4.6,9.5
				C424,265.3,390.6,288.5,370.2,275.5z"/>
			<path class="st5" d="M415.7,161.8c2.5-2.8,5.7-4.9,9-4.8c7.8,0.2,15.2,5.1,18.8,12c1.1,2.1,1.9,4.5,1.9,6.8c0,2.4-1.1,3.9-2,6
				c-0.7,1.7-1.1,3.2-2.4,4.7c-2.6,3.1-6.7,5.1-10.8,4.9c-4.5-0.2-8.6-2.9-11.9-6c-3.7-3.5-6.9-8-7-13.1c0-0.8,0.1-1.6,0.2-2.4
				C412.1,167.3,413.6,164.2,415.7,161.8z"/>
		</g>
		<g>
			<path class="st3" d="M371.5,279.2c-0.6-0.3-1.1-0.7-1.7-1.1c-5.2-4.1-6.3-13-7.9-19.8c-6.1-25.9-10.7-59.4,12.5-76.7
				c3.2-2.6,7.3-4.5,11.5-5c5-0.6,9.9,1,14,3.8c4.1,2.8,6.8,6.8,10.5,10c4.5,3.9,9.9,6.8,15.6,8.4c5.3,1.5,10.5,1.2,15.6,3.3
				c8.6,3.6,12,12.9,11.6,21.7c-0.2,3.2-0.8,6.4-1.8,9.4c-4.5,13.1-14.8,22.6-27.1,29.5c-6.3,3.6-13,6.6-19.7,9.3
				c-7.8,3.2-15.7,6.7-23.5,8C377.6,280.8,374.4,280.7,371.5,279.2z"/>
			<path class="st3" d="M414.3,162.3c4,3,7.2,6.9,9.3,11.6c5.1-5.3,11.5-9.1,17.8-11.4c0,5.9-1.5,12.5-5.1,18.7
				c8.1-0.2,15.5,1.9,21.2,6c-13.6,2.9-35.4,13.2-42.9-5.1c-3-7.3-5.3-14.9-5.4-22.9C410.9,160.1,412.7,161.1,414.3,162.3z"/>
			<g>
				<path class="st3" d="M400.5,204.8c-0.6,0.7-1.3,1.5-1.9,2.2"/>
				<path class="st3" d="M415,216.9c-0.1,1.1-0.3,2.1-0.4,3.2"/>
				<path class="st3" d="M370.1,257.1c-0.1,1.1-0.3,2.1-0.4,3.2"/>
				<path class="st3" d="M392.6,221.7c-0.4,1.1-0.9,2.2-1.3,3.3"/>
				<path class="st3" d="M401.8,238.4c-0.4,1.2-0.7,2.3-1.1,3.5"/>
				<path class="st3" d="M434.8,218.1c0.3,1,0.6,2,0.9,3"/>
				<path class="st3" d="M427.8,236c0.1,1,0.1,1.9,0.2,2.9"/>
				<path class="st3" d="M389.4,189.2c-0.9,0.3-1.8,0.7-2.7,1"/>
				<path class="st3" d="M375.9,207.3c-0.6,0.9-1.2,1.7-1.9,2.6"/>
				<path class="st3" d="M415.6,258.9c-0.8,0.8-1.6,1.7-2.4,2.5"/>
				<path class="st3" d="M395.7,261.1c-0.8,0.9-1.5,1.9-2.3,2.8"/>
				<path class="st3" d="M370.8,229.8c-0.1,1-0.3,1.9-0.4,2.9"/>
			</g>
		</g>
	</g>
	<g>
		<g>
			<path class="st2" d="M258.4,365.6c3.5,3.1,5.3,8,4.8,11.7c-0.6,4.1-4.3,8-9.3,7.3c-4.5-0.6-8.1-4.6-8.5-8.7
				c-0.2-1.7,0-3.2,0.1-4.8c0.3-3.3,0.7-6.9,3.7-8.1C251.9,361.9,255.6,363.1,258.4,365.6z"/>
			<path class="st7" d="M270.5,427.8c-0.9,4.3-3,8.5-5.6,12.5c-14.3,22.4-49.2,34.1-81.6,33.9c-42.7,0.3-88.8-14.7-114.8-38.1
				c-8.9-7.8-16-17.6-17.2-28.4c-1.5-12.8,7.8-26.8,21.1-32.1c22.6-9.3,41.7,4.9,61.1,9.9c16.5,4.5,34.3,6.7,52.2,6.7
				c16.6,0.1,34.4-5.6,52.3-0.8c10.5,2.8,22.1,8.6,28.7,18.2C270.9,415.8,271.8,421.9,270.5,427.8z"/>
		</g>
		<g>
			<path class="st3" d="M258.9,443.4c-2.1,3.2-4.7,6.2-7.6,9c-16.7,16.3-46.9,21.1-72.5,17.1c-32.8-4.9-62.1-17.3-86.7-31.5
				c-1.1-0.7-2.3-1.3-3.4-2c-13.1-7.8-24.1-17.4-30.6-29.2c-4.5-8.2-6.7-17.7-5.2-27.2c0.3-1.5,0.6-3.1,1.1-4.6
				c-0.5-2.1-1-4.2-1.5-6.3c-0.3-1.2-0.5-2.6,0.1-3.9c0.5-1.3,1.7-2.4,2.7-3.4c1.3-1.2,2.8-2.5,4.1-2.5c0.9,0,1.6,0.6,2.2,1.1
				c1.5,1.2,2.9,2.5,4.4,3.7c3.3-0.8,6.7-0.6,9.6,0c16.6,3.4,28.3,16.8,43.8,27.3c18.3,12.6,41.7,20.9,66.9,23.7
				c10.9,1.2,23,1.2,32-4.3c6.4-3.9,10.4-10,15.2-15c4.3-4.5,10-8.2,16.7-7.9c2.1-5.8,3.4-10.8,1.9-17.3c-0.2-1-2.4-1-3.1-1.3
				c-1.3-0.5-2.4-1.4-3.1-2.6c-1.4-2.4-0.7-5.5,1.7-6.9c1.1-0.6,2.3-0.9,3.6-1c3.1-0.4,6.6-0.5,9.6,0.6c3.1,1.2,4.9,5.3,2.8,8.1
				c-0.7,1-1.6,1.4-2.7,1.8c-0.3,0.1-3.1,1.3-3.1,1.5c1.1,5.5,1,12.7-1,18.8C275.1,399.3,269.7,428.3,258.9,443.4z"/>
			<path class="st3" d="M63,394.4c13.5,23,38.9,42,70.7,51.8"/>
			<path class="st3" d="M124.5,433.7c6.3,3.1,13.4,4.9,20.8,5.5"/>
			<path class="st3" d="M237.5,402.5c-1.8,4.4-5.4,8.2-10,10.4"/>
			<path class="st3" d="M234.4,416.7c-1.9,1.3-4.1,2.2-6.5,2.5"/>
			<path class="st3" d="M79.7,374.5c3.5,0.6,6.6,2.3,8.9,4.8"/>
			<path class="st3" d="M222.9,457c-3.1,2.5-7.9,3.5-12.1,2.7"/>
		</g>
	</g>
	<g>
		<g>
			<path class="st8" d="M402.1,126.8c-6.1,6.7-14,11.6-22.3,15.3c-26.6,11.7-56.6,2.2-68.2-22.6c-0.8-1.8-1.6-3.6-2.2-5.5
				c-7.2-22.2,0.6-53.3,23.6-66.1c6.4-3.5,11.5-6.6,18.7-7.4c7.2-0.8,14.2,0.1,20.8,2.3c13.3,4.5,24.7,13.8,32.5,25.4
				c1.8,2.7,3.5,5.6,4.9,8.7c5.1,11.2,5.1,25.4,0,37.7C408,119.2,405.4,123.3,402.1,126.8z"/>
			<path class="st5" d="M271.8,59.2c-5.5,2.5-10.4,6.3-13.7,11.3c-4.3,6.5-5.3,14.7-3.6,22.2c0.9,3.9,2.6,8.9,5.6,11.7
				c3.3,3.1,8.1,2.5,12.1,0.9c7-2.8,13.1-7.9,17.1-14.4c3.9-6.5,5.7-14.2,4.9-21.8c-0.4-3.9-1.6-8-4.7-10.4c-2.9-2.3-7-2.7-10.6-1.9
				C276.5,57.4,274.1,58.2,271.8,59.2z"/>
		</g>
		<g>
			<path class="st2" d="M281.5,37.5c0.2-0.1,0.4-0.2,0.6-0.3c2.1-1.1,4.6-1.3,7-0.8c0.7,0.1,1.5,0.3,2,0.8c1,0.8,0.9,2.3,0.9,3.4
				c0,2.2,0,4-1.5,5.7c-1.2,1.4-2.9,2.3-4.7,2.3c-3,0.1-5.8-2.2-6.4-5.1C279,41,279.4,38.8,281.5,37.5z"/>
			<path class="st3" d="M295.6,45.8c-1.8,0.5-4.2-0.1-6-0.1c-3.6-0.1-7.2-0.1-10.8,0.5c-1.2,0.2-3,0.7-4-0.3c-2.1-2,1.1-6.5,3-7.4
				c2.2-1,4.7-0.6,7,0c3.9,1,7.5,2.8,10.8,5.2c0.4,0.3,0.9,0.7,0.8,1.2C296.4,45.4,296,45.6,295.6,45.8z"/>
			<path class="st3" d="M403.8,135.4c-2.6,1.7-5.5,0.9-7.9,0.4c-1-0.2-2.1-0.4-3.3-0.4c-2-0.1-4,0.5-5.6,1.6
				c-35.8,23.2-74.2,3.7-85.1-25.6c-4.8-12.3-5.1-30,1.3-45.2c0.9-2.1,1-4.5,0.4-6.8c-0.2-0.5-0.3-1-0.5-1.5c-0.9-2.3-2.2-5-0.9-7.9
				c0.9-2,2.6-3.1,4.1-3.1c1.4,0,2.7,0.8,3.9,1.4c0,0,0,0,0.1,0c3,1.4,6.5,1.1,9.2-0.7c31-20.5,69.1,4.8,82.8,32
				c3.4,6.7,4.9,14.5,4.8,22c-0.1,4-0.7,8.1-1.8,12c-0.9,3.2-2.7,6-2.6,9.5c0.1,3.2,3.1,4.8,3.6,7.8
				C406.4,132.2,405.7,134.2,403.8,135.4z"/>
			<path class="st3" d="M266,55.6c-5.8,2.2-11,5.7-14.8,10.3c-6.1,7.5-7.3,17.5-4.1,26.4c1.2,3.5,2.7,7.5,4.8,10.6
				c2.4,3.7,7-0.4,9.5-1.9c10.3-6.3,23.5-14,26.1-26.9c0.8-4.1,0.3-8.4-1-12.4c-0.8-2.7-2.3-8.7-5.4-9.4
				C276.6,51.2,270.2,54,266,55.6z"/>
			<path class="st3" d="M275.6,60c-7.5,8.4-13.6,18.2-17.8,28.6"/>
			<path class="st3" d="M308.4,74.9c1.2,0.5,2.1,1.9,2.1,3.2c0,1.3-0.9,2.6-2.1,3.2"/>
			<path class="st3" d="M315.9,81.2c1.2,0.5,2.1,1.9,2.1,3.2c0,1.3-0.9,2.6-2.1,3.2"/>
			<path class="st3" d="M307.3,87.6c1.2,0.5,2.1,1.9,2.1,3.2c0,1.3-0.9,2.6-2.1,3.2"/>
			<path class="st3" d="M347.7,47.4c-0.4,1.3-1.6,2.3-2.9,2.5c-1.3,0.2-2.7-0.5-3.4-1.7"/>
			<path class="st3" d="M400.2,99.7c-1.3,0-2.7-0.8-3.2-2c-0.6-1.2-0.3-2.8,0.6-3.7"/>
			<path class="st3" d="M398.4,114.2c-1.1-0.7-1.7-2.2-1.5-3.5c0.2-1.3,1.3-2.5,2.6-2.8"/>
			<path class="st3" d="M364.7,128.3c0.4-1.3,1.7-2.2,3-2.3c1.3-0.1,2.7,0.7,3.3,1.9"/>
			<path class="st3" d="M371.6,136.4c0.4-1.3,1.7-2.2,3-2.3c1.3-0.1,2.7,0.7,3.3,1.9"/>
		</g>
	</g>
	<g>
		<g>
			<path class="st5" d="M206.6,171.1c-42.5,16.8-98.7-2.7-129.5-34.8c-38.2-35.6,10.4-74.9,14.7-32.9c4.3,22.2,23.9,40,44.9,46.6
				c15.7,4.3,33.5,5.5,49.6,2.8c6.5-1.1,13.2-2.7,19.5-0.7C215.8,155.1,216.1,167.1,206.6,171.1z"/>
			<path class="st1" d="M206.2,70.9c0.3,3.2,0.5,6.5,0.7,9.7c0.6,12,1,24,0.9,36c0,8-0.2,16.4-3.5,23.8c-3.2,7.1-15,7.7-21.4,7.8
				c-14.2,0.3-28.6-3.1-41.4-9.5c-12.3-6.1-26.1-15.5-33.3-27.4c-4.1-6.7-5.6-14.6-2.2-22c2.2-4.7,6.2-8.3,10.1-11.7
				C135,61.2,156.2,47.9,179.4,39c3-1.2,6.1-2.2,9.3-1.9c5.9,0.6,10,6.1,12.4,11.6C204.1,55.6,205.5,63.2,206.2,70.9z"/>
		</g>
		<g>
			<path class="st3" d="M210.6,169.5c-1.9,1.8-4.6,2.9-6.9,3.4c-9.7,2.1-20.1,2.8-30.1,2.4c-19.1-0.8-37.8-6.4-54.8-15.2
				c-16.4-8.4-30.5-20.8-40.8-36.2c-4.1-6.1-7.6-12.7-10.5-19.5c-1.7-4-3.3-8-4.7-12.2c-1.4-4.3-3.1-14.1,4.7-13.2
				c3.3,0.4,4.3,3.1,5.3,5.8c1.3,3.4,2.7,6.7,4.3,10c3.9,8.2,8.7,15.9,14.4,22.9c9.5,11.6,21.4,21.1,34.7,27.9
				c10,5.2,20.6,9.2,31.6,11.9c5.5,1.3,11.1,2.3,16.8,2.9c5,0.5,10,0.7,15,0.5c5.2-0.2,10.1-2,15.2-2.7c4.1-0.5,8,2.6,7.9,6.8
				C212.7,166.8,211.8,168.3,210.6,169.5z"/>
			<path class="st3" d="M199.7,142.2c0.4,5.5-3.8,10.2-9.2,10.6c-15.4,1.1-36.2-1-59.8-13.2c-24.9-12.8-38.1-32.4-45.1-48.8
				C83.5,86,85.4,80.4,90,78l88.4-46.6c6.4-3.4,14.1,1,14.6,8.1L199.7,142.2z"/>
			<g>
				<path class="st3" d="M144.5,73.9c-1.4,2-2.9,4.1-4.3,6.1"/>
				<path class="st3" d="M182.4,127.3c-0.3,2.5-0.7,4.9-1,7.4"/>
				<path class="st3" d="M107,85.5c-1.9,1.7-3.7,3.3-5.6,5"/>
				<path class="st3" d="M161.5,88.2c-0.9,2.6-1.8,5.2-2.7,7.8"/>
				<path class="st3" d="M130.9,93.2c-1.7,2.5-3.4,5-5,7.5"/>
				<path class="st3" d="M138.1,116.3c-1.5,2.7-3,5.5-4.5,8.2"/>
				<path class="st3" d="M183.6,99.3c0.3,2.7,0.5,5.4,0.8,8.1"/>
				<path class="st3" d="M162,115.3c-0.3,2.5-0.6,4.9-1,7.4"/>
				<path class="st3" d="M178.2,73.1c-0.6,3.1-1.3,6.1-1.9,9.2"/>
				<path class="st3" d="M183.2,52.1c-0.3,2.5-0.6,4.9-1,7.4"/>
				<path class="st3" d="M161.8,54.3c-1.7,1.9-3.3,3.7-5,5.6"/>
			</g>
		</g>
	</g>
	<g>
		<g>
			<path class="st9" d="M448.3,96.3c1.7,1.6,3.9,2.5,6.2,2.9c4.7,0.8,10.5-1.5,12.3-6.8c0.2-0.6,0.3-1.3,0-1.9
				c-0.5-1-2.4-1.6-3.3-1.9c-1.3-0.5-2.6-1-3.8-1.5c-2.6-0.9-5.4-1.5-8-0.8c-2.3,0.7-4.4,2.2-5.4,4.7c-0.9,2.2,0.4,3.7,1.8,5.1
				C448.1,96.2,448.2,96.2,448.3,96.3z"/>
			<path class="st10" d="M447.5,93c6.1,5.1,15.5,3.1,20.2-2.9c0.8-1,1-2.2-0.2-3.1c-4.8-3.4-10.8-5.6-16.4-4.5
				C446.6,83.8,441.3,89.1,447.5,93z"/>
		</g>
		<g>
			<path class="st9" d="M160.4,354.2c2.4,0,4.5-0.9,6.5-2.2c3.9-2.7,6.5-8.4,4.2-13.4c-0.3-0.6-0.7-1.2-1.3-1.4
				c-1-0.4-2.8,0.5-3.7,0.9c-1.3,0.5-2.6,1-3.8,1.6c-2.5,1.1-5,2.6-6.3,5c-1.2,2-1.7,4.7-0.7,7.2c0.9,2.2,2.8,2.4,4.8,2.4
				C160.2,354.2,160.3,354.2,160.4,354.2z"/>
			<path class="st10" d="M158.4,351.6c7.9-0.6,13.4-8.4,12.6-16c-0.1-1.2-0.8-2.3-2.2-2.1c-5.8,0.9-11.7,3.4-14.9,8
				C151.4,345.5,151.2,353.1,158.4,351.6z"/>
		</g>
		<g>
			<path class="st9" d="M67,48.7c2.2,0.9,4.5,0.9,6.8,0.4c4.6-1,9.2-5.3,8.9-10.9c0-0.6-0.2-1.4-0.7-1.8c-0.8-0.7-2.8-0.6-3.8-0.6
				c-1.4,0-2.8,0-4.1,0c-2.8,0.1-5.6,0.6-7.7,2.3c-1.9,1.4-3.3,3.7-3.3,6.4c0,2.3,1.8,3.3,3.6,4.1C66.8,48.6,66.9,48.6,67,48.7z"/>
			<path class="st10" d="M63.7,47c7.6,2.4,15.6-2.9,17.7-10.1c0.3-1.2,0.1-2.4-1.3-2.8c-5.7-1.4-12.1-1.2-16.9,1.9
				C59.5,38.7,56.5,45.6,63.7,47z"/>
		</g>
		<g>
			<path class="st9" d="M434.1,304.9c-1.6,1.7-2.5,3.9-2.9,6.2c-0.8,4.6,1.4,10.5,6.7,12.4c0.6,0.2,1.3,0.4,1.9,0.1
				c1-0.5,1.6-2.4,2-3.3c0.5-1.3,1.1-2.5,1.5-3.8c1-2.6,1.6-5.4,0.9-8c-0.6-2.3-2.2-4.5-4.7-5.5c-2.2-0.9-3.7,0.4-5.1,1.8
				C434.3,304.8,434.2,304.9,434.1,304.9z"/>
			<path class="st10" d="M433.8,300.8c-5.1,6.1-3.3,15.5,2.6,20.2c1,0.8,2.2,1,3.1-0.1c3.5-4.8,5.7-10.7,4.7-16.3
				C443.1,300.1,437.8,294.7,433.8,300.8z"/>
		</g>
		<g>
			<path class="st9" d="M204,209.7c-1.1-2.1-2.9-3.6-5-4.6c-4.2-2.2-10.5-1.8-13.8,2.7c-0.4,0.5-0.7,1.2-0.7,1.8
				c0.2,1.1,1.8,2.3,2.6,2.9c1.1,0.9,2.1,1.8,3.2,2.6c2.2,1.7,4.7,3.1,7.4,3.2c2.4,0.1,4.9-0.7,6.6-2.8c1.5-1.8,0.7-3.6-0.2-5.4
				C204.1,209.9,204.1,209.8,204,209.7z"/>
			<path class="st10" d="M208.1,210.7c-4.3-6.7-13.8-7.8-20.1-3.5c-1,0.7-1.6,1.8-0.8,3c3.5,4.7,8.5,8.7,14.2,9.3
				C206,219.7,212.7,216.3,208.1,210.7z"/>
		</g>
		<g>
			<path class="st9" d="M438.3,61.2c2.3-0.6,4.2-2,5.7-3.7c3.1-3.5,4.3-9.7,0.7-14.1c-0.4-0.5-1-1-1.6-1.1c-1.1-0.1-2.6,1.2-3.4,1.8
				c-1.1,0.8-2.2,1.6-3.3,2.5c-2.2,1.7-4.1,3.8-4.9,6.4c-0.7,2.3-0.5,4.9,1.1,7.1c1.4,1.9,3.4,1.6,5.3,1.1
				C438,61.3,438.2,61.2,438.3,61.2z"/>
			<path class="st10" d="M438.1,57.9c7.6-2.5,10.8-11.5,8.2-18.6c-0.4-1.2-1.4-2-2.7-1.5c-5.4,2.3-10.5,6.2-12.5,11.5
				C429.8,53.7,431.5,61.1,438.1,57.9z"/>
		</g>
		<g>
			<path class="st9" d="M306.7,445.2c0.7-2.3,0.5-4.6-0.2-6.8c-1.4-4.5-6-8.7-11.6-8c-0.6,0.1-1.4,0.3-1.8,0.8
				c-0.7,0.9-0.3,2.9-0.3,3.8c0.1,1.4,0.2,2.7,0.4,4.1c0.3,2.8,1,5.5,2.9,7.5c1.6,1.8,3.9,3,6.7,2.8c2.3-0.2,3.1-2,3.8-3.9
				C306.6,445.5,306.7,445.3,306.7,445.2z"/>
			<path class="st10" d="M303.8,443.6c1.8-7.8-4.1-15.3-11.5-16.8c-1.2-0.3-2.4,0.1-2.7,1.5c-0.9,5.8-0.3,12.2,3.2,16.7
				C295.9,448.5,303.1,450.9,303.8,443.6z"/>
		</g>
		<g>
			<path class="st9" d="M37.6,461.9c-0.4,2.3,0,4.6,1,6.7c1.9,4.3,7,8,12.4,6.6c0.6-0.2,1.3-0.4,1.7-1c0.6-1,0-2.9-0.2-3.8
				c-0.3-1.3-0.5-2.7-0.9-4c-0.7-2.7-1.7-5.3-3.8-7.2c-1.8-1.6-4.3-2.5-6.9-2c-2.3,0.5-2.9,2.4-3.3,4.3
				C37.6,461.7,37.6,461.8,37.6,461.9z"/>
			<path class="st10" d="M39.2,458.7c-0.9,7.9,5.9,14.7,13.4,15.3c1.2,0.1,2.4-0.4,2.5-1.8c0.2-5.9-1.2-12.1-5.2-16.2
				C46.5,453,39.1,451.4,39.2,458.7z"/>
		</g>
		<g>
			<path class="st9" d="M465.4,471.1c-0.3-2.3-1.4-4.4-3-6.1c-3.1-3.5-9.1-5.5-13.8-2.5c-0.6,0.3-1.1,0.8-1.3,1.5
				c-0.3,1.1,0.9,2.8,1.3,3.6c0.7,1.2,1.3,2.4,2,3.6c1.4,2.4,3.2,4.6,5.7,5.7c2.2,0.9,4.8,1.1,7.2-0.2c2-1.1,2-3.1,1.8-5.1
				C465.4,471.3,465.4,471.2,465.4,471.1z"/>
			<path class="st10" d="M467.7,468.1c-1.5-7.8-10-12.2-17.4-10.6c-1.2,0.3-2.2,1.1-1.8,2.5c1.6,5.7,4.8,11.2,9.8,13.8
				C462.5,475.8,470,475.1,467.7,468.1z"/>
		</g>
		<g>
			<path class="st9" d="M50.7,145c-2.3-0.5-4.6-0.2-6.8,0.6c-4.4,1.7-8.3,6.6-7.3,12.1c0.1,0.6,0.4,1.3,0.9,1.7
				c0.9,0.6,2.9,0.2,3.8,0c1.4-0.2,2.7-0.4,4.1-0.6c2.7-0.5,5.4-1.4,7.3-3.4c1.7-1.7,2.7-4.1,2.3-6.8c-0.3-2.3-2.2-3-4.1-3.5
				C50.9,145.1,50.8,145.1,50.7,145z"/>
			<path class="st10" d="M48.7,141.8c-7.9-1.3-15,5.1-16,12.6c-0.2,1.2,0.3,2.4,1.7,2.6c5.9,0.5,12.2-0.5,16.4-4.3
				C54.1,149.4,56.1,142.1,48.7,141.8z"/>
		</g>
	</g>
</g>
</svg>
